solid OpenSCAD_Model
  facet normal -1 0 0
    outer loop
      vertex 0 0 0
      vertex 0 16 30
      vertex 0 16 0
    endloop
  endfacet
  facet normal -1 -0 0
    outer loop
      vertex 0 16 30
      vertex 0 0 0
      vertex 0 0 30
    endloop
  endfacet
  facet normal 0 0 1
    outer loop
      vertex 13.1162 16 30
      vertex 9.2 8 30
      vertex 13.1162 0 30
    endloop
  endfacet
  facet normal 0 0 1
    outer loop
      vertex 13.1162 16 30
      vertex 8.56832 9.73553 30
      vertex 9.2 8 30
    endloop
  endfacet
  facet normal 0 0 1
    outer loop
      vertex 13.1162 16 30
      vertex 6.96885 10.659 30
      vertex 8.56832 9.73553 30
    endloop
  endfacet
  facet normal -0 0 1
    outer loop
      vertex 0 16 30
      vertex 6.96885 10.659 30
      vertex 13.1162 16 30
    endloop
  endfacet
  facet normal 0 0 1
    outer loop
      vertex 3.96283 8.92345 30
      vertex 0 16 30
      vertex 3.96283 7.07654 30
    endloop
  endfacet
  facet normal 0 0 1
    outer loop
      vertex 5.15 10.3383 30
      vertex 0 16 30
      vertex 3.96283 8.92345 30
    endloop
  endfacet
  facet normal 0 0 1
    outer loop
      vertex 6.96885 10.659 30
      vertex 0 16 30
      vertex 5.15 10.3383 30
    endloop
  endfacet
  facet normal -0 0 1
    outer loop
      vertex 8.56832 6.26447 30
      vertex 13.1162 0 30
      vertex 9.2 8 30
    endloop
  endfacet
  facet normal -0 0 1
    outer loop
      vertex 6.96885 5.34102 30
      vertex 13.1162 0 30
      vertex 8.56832 6.26447 30
    endloop
  endfacet
  facet normal 0 0 1
    outer loop
      vertex 0 0 30
      vertex 6.96885 5.34102 30
      vertex 5.15 5.66173 30
    endloop
  endfacet
  facet normal 0 0 1
    outer loop
      vertex 6.96885 5.34102 30
      vertex 0 0 30
      vertex 13.1162 0 30
    endloop
  endfacet
  facet normal 0 0 1
    outer loop
      vertex 3.96283 7.07654 30
      vertex 0 0 30
      vertex 5.15 5.66173 30
    endloop
  endfacet
  facet normal 0 0 1
    outer loop
      vertex 0 0 30
      vertex 3.96283 7.07654 30
      vertex 0 16 30
    endloop
  endfacet
  facet normal 0 0 1
    outer loop
      vertex 34 16 30
      vertex 30.2 8 30
      vertex 34 0 30
    endloop
  endfacet
  facet normal 0 0 1
    outer loop
      vertex 34 16 30
      vertex 29.5683 9.73553 30
      vertex 30.2 8 30
    endloop
  endfacet
  facet normal 0 0 1
    outer loop
      vertex 34 16 30
      vertex 27.9688 10.659 30
      vertex 29.5683 9.73553 30
    endloop
  endfacet
  facet normal -0 0 1
    outer loop
      vertex 21 16 30
      vertex 27.9688 10.659 30
      vertex 34 16 30
    endloop
  endfacet
  facet normal 0 0 1
    outer loop
      vertex 24.9628 8.92345 30
      vertex 21 16 30
      vertex 24.9628 7.07654 30
    endloop
  endfacet
  facet normal 0 0 1
    outer loop
      vertex 26.15 10.3383 30
      vertex 21 16 30
      vertex 24.9628 8.92345 30
    endloop
  endfacet
  facet normal 0 0 1
    outer loop
      vertex 27.9688 10.659 30
      vertex 21 16 30
      vertex 26.15 10.3383 30
    endloop
  endfacet
  facet normal -0 0 1
    outer loop
      vertex 29.5683 6.26447 30
      vertex 34 0 30
      vertex 30.2 8 30
    endloop
  endfacet
  facet normal -0 0 1
    outer loop
      vertex 27.9688 5.34102 30
      vertex 34 0 30
      vertex 29.5683 6.26447 30
    endloop
  endfacet
  facet normal 0 0 1
    outer loop
      vertex 21 0 30
      vertex 27.9688 5.34102 30
      vertex 26.15 5.66173 30
    endloop
  endfacet
  facet normal 0 0 1
    outer loop
      vertex 27.9688 5.34102 30
      vertex 21 0 30
      vertex 34 0 30
    endloop
  endfacet
  facet normal 0 0 1
    outer loop
      vertex 24.9628 7.07654 30
      vertex 21 0 30
      vertex 26.15 5.66173 30
    endloop
  endfacet
  facet normal 0 0 1
    outer loop
      vertex 21 0 30
      vertex 24.9628 7.07654 30
      vertex 21 16 30
    endloop
  endfacet
  facet normal 1 -0 0
    outer loop
      vertex 34 0 30
      vertex 34 16 0
      vertex 34 16 30
    endloop
  endfacet
  facet normal 1 0 0
    outer loop
      vertex 34 16 0
      vertex 34 0 30
      vertex 34 0 0
    endloop
  endfacet
  facet normal 0 1 0
    outer loop
      vertex 34 16 30
      vertex 20.5418 16 28.1411
      vertex 21 16 30
    endloop
  endfacet
  facet normal 0 1 0
    outer loop
      vertex 34 16 30
      vertex 19.2723 16 26.7081
      vertex 20.5418 16 28.1411
    endloop
  endfacet
  facet normal 0 1 -0
    outer loop
      vertex 34 16 0
      vertex 19.2723 16 26.7081
      vertex 34 16 30
    endloop
  endfacet
  facet normal 0 1 0
    outer loop
      vertex 19.2723 16 26.7081
      vertex 34 16 0
      vertex 17.4821 16 26.0292
    endloop
  endfacet
  facet normal 0 1 -0
    outer loop
      vertex 13.1162 16 29.0427
      vertex 0 16 30
      vertex 13.1162 16 30
    endloop
  endfacet
  facet normal 0 1 0
    outer loop
      vertex 14.006 16 27.3475
      vertex 0 16 30
      vertex 13.1162 16 29.0427
    endloop
  endfacet
  facet normal 0 1 0
    outer loop
      vertex 0 16 0
      vertex 14.006 16 27.3475
      vertex 15.5816 16 26.2599
    endloop
  endfacet
  facet normal 0 1 0
    outer loop
      vertex 0 16 0
      vertex 17.4821 16 26.0292
      vertex 34 16 0
    endloop
  endfacet
  facet normal 0 1 0
    outer loop
      vertex 17.4821 16 26.0292
      vertex 0 16 0
      vertex 15.5816 16 26.2599
    endloop
  endfacet
  facet normal 0 1 0
    outer loop
      vertex 14.006 16 27.3475
      vertex 0 16 0
      vertex 0 16 30
    endloop
  endfacet
  facet normal 0 0 -1
    outer loop
      vertex 34 0 0
      vertex 30.2 8 0
      vertex 34 16 0
    endloop
  endfacet
  facet normal 0 0 -1
    outer loop
      vertex 34 0 0
      vertex 29.5683 6.26447 0
      vertex 30.2 8 0
    endloop
  endfacet
  facet normal 0 0 -1
    outer loop
      vertex 34 0 0
      vertex 27.9688 5.34102 0
      vertex 29.5683 6.26447 0
    endloop
  endfacet
  facet normal 0 0 -1
    outer loop
      vertex 34 0 0
      vertex 26.15 5.66173 0
      vertex 27.9688 5.34102 0
    endloop
  endfacet
  facet normal 0 0 -1
    outer loop
      vertex 24.9628 7.07654 0
      vertex 9.2 8 0
      vertex 24.9628 8.92345 0
    endloop
  endfacet
  facet normal 0 0 -1
    outer loop
      vertex 8.56832 6.26447 0
      vertex 24.9628 7.07654 0
      vertex 26.15 5.66173 0
    endloop
  endfacet
  facet normal 0 0 -1
    outer loop
      vertex 0 0 0
      vertex 26.15 5.66173 0
      vertex 34 0 0
    endloop
  endfacet
  facet normal -0 0 -1
    outer loop
      vertex 24.9628 7.07654 0
      vertex 8.56832 6.26447 0
      vertex 9.2 8 0
    endloop
  endfacet
  facet normal -0 0 -1
    outer loop
      vertex 26.15 5.66173 0
      vertex 6.96885 5.34102 0
      vertex 8.56832 6.26447 0
    endloop
  endfacet
  facet normal 0 0 -1
    outer loop
      vertex 26.15 5.66173 0
      vertex 0 0 0
      vertex 6.96885 5.34102 0
    endloop
  endfacet
  facet normal -0 0 -1
    outer loop
      vertex 3.96283 7.07654 0
      vertex 0 0 0
      vertex 3.96283 8.92345 0
    endloop
  endfacet
  facet normal -0 0 -1
    outer loop
      vertex 5.15 5.66173 0
      vertex 0 0 0
      vertex 3.96283 7.07654 0
    endloop
  endfacet
  facet normal -0 0 -1
    outer loop
      vertex 6.96885 5.34102 0
      vertex 0 0 0
      vertex 5.15 5.66173 0
    endloop
  endfacet
  facet normal 0 0 -1
    outer loop
      vertex 29.5683 9.73553 0
      vertex 34 16 0
      vertex 30.2 8 0
    endloop
  endfacet
  facet normal 0 0 -1
    outer loop
      vertex 27.9688 10.659 0
      vertex 34 16 0
      vertex 29.5683 9.73553 0
    endloop
  endfacet
  facet normal 0 0 -1
    outer loop
      vertex 26.15 10.3383 0
      vertex 34 16 0
      vertex 27.9688 10.659 0
    endloop
  endfacet
  facet normal 0 0 -1
    outer loop
      vertex 8.56832 9.73553 0
      vertex 24.9628 8.92345 0
      vertex 9.2 8 0
    endloop
  endfacet
  facet normal 0 0 -1
    outer loop
      vertex 24.9628 8.92345 0
      vertex 8.56832 9.73553 0
      vertex 26.15 10.3383 0
    endloop
  endfacet
  facet normal 0 0 -1
    outer loop
      vertex 6.96885 10.659 0
      vertex 26.15 10.3383 0
      vertex 8.56832 9.73553 0
    endloop
  endfacet
  facet normal 0 0 -1
    outer loop
      vertex 0 16 0
      vertex 26.15 10.3383 0
      vertex 6.96885 10.659 0
    endloop
  endfacet
  facet normal 0 0 -1
    outer loop
      vertex 0 16 0
      vertex 6.96885 10.659 0
      vertex 5.15 10.3383 0
    endloop
  endfacet
  facet normal 0 0 -1
    outer loop
      vertex 26.15 10.3383 0
      vertex 0 16 0
      vertex 34 16 0
    endloop
  endfacet
  facet normal 0 0 -1
    outer loop
      vertex 3.96283 8.92345 0
      vertex 0 16 0
      vertex 5.15 10.3383 0
    endloop
  endfacet
  facet normal 0 0 -1
    outer loop
      vertex 0 16 0
      vertex 3.96283 8.92345 0
      vertex 0 0 0
    endloop
  endfacet
  facet normal 0 -1 0
    outer loop
      vertex 0 0 30
      vertex 13.1162 0 29.0427
      vertex 13.1162 0 30
    endloop
  endfacet
  facet normal 0 -1 0
    outer loop
      vertex 0 0 30
      vertex 14.006 0 27.3475
      vertex 13.1162 0 29.0427
    endloop
  endfacet
  facet normal 0 -1 0
    outer loop
      vertex 0 0 0
      vertex 14.006 0 27.3475
      vertex 0 0 30
    endloop
  endfacet
  facet normal 0 -1 -0
    outer loop
      vertex 15.5816 0 26.2599
      vertex 0 0 0
      vertex 17.4821 0 26.0292
    endloop
  endfacet
  facet normal 0 -1 -0
    outer loop
      vertex 14.006 0 27.3475
      vertex 0 0 0
      vertex 15.5816 0 26.2599
    endloop
  endfacet
  facet normal 0 -1 0
    outer loop
      vertex 20.5418 0 28.1411
      vertex 34 0 30
      vertex 21 0 30
    endloop
  endfacet
  facet normal 0 -1 0
    outer loop
      vertex 19.2723 0 26.7081
      vertex 34 0 30
      vertex 20.5418 0 28.1411
    endloop
  endfacet
  facet normal 0 -1 0
    outer loop
      vertex 34 0 0
      vertex 19.2723 0 26.7081
      vertex 17.4821 0 26.0292
    endloop
  endfacet
  facet normal 0 -1 0
    outer loop
      vertex 34 0 0
      vertex 17.4821 0 26.0292
      vertex 0 0 0
    endloop
  endfacet
  facet normal 0 -1 0
    outer loop
      vertex 19.2723 0 26.7081
      vertex 34 0 0
      vertex 34 0 30
    endloop
  endfacet
  facet normal 0.120536 0 0.992709
    outer loop
      vertex 15.5816 16 26.2599
      vertex 17.4821 0 26.0292
      vertex 17.4821 16 26.0292
    endloop
  endfacet
  facet normal 0.120536 0 0.992709
    outer loop
      vertex 17.4821 0 26.0292
      vertex 15.5816 16 26.2599
      vertex 15.5816 0 26.2599
    endloop
  endfacet
  facet normal -0.970942 0 0.239315
    outer loop
      vertex 20.5418 0 28.1411
      vertex 21 16 30
      vertex 20.5418 16 28.1411
    endloop
  endfacet
  facet normal -0.970942 0 0.239315
    outer loop
      vertex 21 16 30
      vertex 20.5418 0 28.1411
      vertex 21 0 30
    endloop
  endfacet
  facet normal 1 -0 0
    outer loop
      vertex 13.1162 0 30
      vertex 13.1162 16 29.0427
      vertex 13.1162 16 30
    endloop
  endfacet
  facet normal 1 0 0
    outer loop
      vertex 13.1162 16 29.0427
      vertex 13.1162 0 30
      vertex 13.1162 0 29.0427
    endloop
  endfacet
  facet normal 0.568065 0 0.822984
    outer loop
      vertex 14.006 16 27.3475
      vertex 15.5816 0 26.2599
      vertex 15.5816 16 26.2599
    endloop
  endfacet
  facet normal 0.568065 0 0.822984
    outer loop
      vertex 15.5816 0 26.2599
      vertex 14.006 16 27.3475
      vertex 14.006 0 27.3475
    endloop
  endfacet
  facet normal 0.885456 -0 0.464723
    outer loop
      vertex 13.1162 0 29.0427
      vertex 14.006 16 27.3475
      vertex 13.1162 16 29.0427
    endloop
  endfacet
  facet normal 0.885456 0 0.464723
    outer loop
      vertex 14.006 16 27.3475
      vertex 13.1162 0 29.0427
      vertex 14.006 0 27.3475
    endloop
  endfacet
  facet normal -0.74851 0 0.663123
    outer loop
      vertex 19.2723 0 26.7081
      vertex 20.5418 16 28.1411
      vertex 19.2723 16 26.7081
    endloop
  endfacet
  facet normal -0.74851 0 0.663123
    outer loop
      vertex 20.5418 16 28.1411
      vertex 19.2723 0 26.7081
      vertex 20.5418 0 28.1411
    endloop
  endfacet
  facet normal -0.354606 0 0.935016
    outer loop
      vertex 17.4821 16 26.0292
      vertex 19.2723 0 26.7081
      vertex 19.2723 16 26.7081
    endloop
  endfacet
  facet normal -0.354606 0 0.935016
    outer loop
      vertex 19.2723 0 26.7081
      vertex 17.4821 16 26.0292
      vertex 17.4821 0 26.0292
    endloop
  endfacet
  facet normal -0.939693 -0.34202 0
    outer loop
      vertex 9.2 8 0
      vertex 8.56832 9.73553 30
      vertex 8.56832 9.73553 0
    endloop
  endfacet
  facet normal -0.939693 -0.34202 0
    outer loop
      vertex 8.56832 9.73553 30
      vertex 9.2 8 0
      vertex 9.2 8 30
    endloop
  endfacet
  facet normal 1 -0 0
    outer loop
      vertex 3.96283 7.07654 30
      vertex 3.96283 8.92345 0
      vertex 3.96283 8.92345 30
    endloop
  endfacet
  facet normal 1 0 0
    outer loop
      vertex 3.96283 8.92345 0
      vertex 3.96283 7.07654 30
      vertex 3.96283 7.07654 0
    endloop
  endfacet
  facet normal 0.173648 -0.984808 0
    outer loop
      vertex 5.15 10.3383 0
      vertex 6.96885 10.659 30
      vertex 5.15 10.3383 30
    endloop
  endfacet
  facet normal 0.173648 -0.984808 0
    outer loop
      vertex 6.96885 10.659 30
      vertex 5.15 10.3383 0
      vertex 6.96885 10.659 0
    endloop
  endfacet
  facet normal -0.5 -0.866025 0
    outer loop
      vertex 6.96885 10.659 0
      vertex 8.56832 9.73553 30
      vertex 6.96885 10.659 30
    endloop
  endfacet
  facet normal -0.5 -0.866025 -0
    outer loop
      vertex 8.56832 9.73553 30
      vertex 6.96885 10.659 0
      vertex 8.56832 9.73553 0
    endloop
  endfacet
  facet normal 0.766044 -0.642788 0
    outer loop
      vertex 3.96283 8.92345 30
      vertex 5.15 10.3383 0
      vertex 5.15 10.3383 30
    endloop
  endfacet
  facet normal 0.766044 -0.642788 0
    outer loop
      vertex 5.15 10.3383 0
      vertex 3.96283 8.92345 30
      vertex 3.96283 8.92345 0
    endloop
  endfacet
  facet normal -0.939693 0.34202 0
    outer loop
      vertex 8.56832 6.26447 0
      vertex 9.2 8 30
      vertex 9.2 8 0
    endloop
  endfacet
  facet normal -0.939693 0.34202 0
    outer loop
      vertex 9.2 8 30
      vertex 8.56832 6.26447 0
      vertex 8.56832 6.26447 30
    endloop
  endfacet
  facet normal -0.5 0.866025 0
    outer loop
      vertex 8.56832 6.26447 0
      vertex 6.96885 5.34102 30
      vertex 8.56832 6.26447 30
    endloop
  endfacet
  facet normal -0.5 0.866025 0
    outer loop
      vertex 6.96885 5.34102 30
      vertex 8.56832 6.26447 0
      vertex 6.96885 5.34102 0
    endloop
  endfacet
  facet normal 0.766044 0.642788 0
    outer loop
      vertex 5.15 5.66173 30
      vertex 3.96283 7.07654 0
      vertex 3.96283 7.07654 30
    endloop
  endfacet
  facet normal 0.766044 0.642788 0
    outer loop
      vertex 3.96283 7.07654 0
      vertex 5.15 5.66173 30
      vertex 5.15 5.66173 0
    endloop
  endfacet
  facet normal 0.173648 0.984808 -0
    outer loop
      vertex 6.96885 5.34102 0
      vertex 5.15 5.66173 30
      vertex 6.96885 5.34102 30
    endloop
  endfacet
  facet normal 0.173648 0.984808 0
    outer loop
      vertex 5.15 5.66173 30
      vertex 6.96885 5.34102 0
      vertex 5.15 5.66173 0
    endloop
  endfacet
  facet normal -0.939692 -0.342021 0
    outer loop
      vertex 30.2 8 0
      vertex 29.5683 9.73553 30
      vertex 29.5683 9.73553 0
    endloop
  endfacet
  facet normal -0.939692 -0.342021 0
    outer loop
      vertex 29.5683 9.73553 30
      vertex 30.2 8 0
      vertex 30.2 8 30
    endloop
  endfacet
  facet normal 1 -0 0
    outer loop
      vertex 24.9628 7.07654 30
      vertex 24.9628 8.92345 0
      vertex 24.9628 8.92345 30
    endloop
  endfacet
  facet normal 1 0 0
    outer loop
      vertex 24.9628 8.92345 0
      vertex 24.9628 7.07654 30
      vertex 24.9628 7.07654 0
    endloop
  endfacet
  facet normal 0.173648 -0.984808 0
    outer loop
      vertex 26.15 10.3383 0
      vertex 27.9688 10.659 30
      vertex 26.15 10.3383 30
    endloop
  endfacet
  facet normal 0.173648 -0.984808 0
    outer loop
      vertex 27.9688 10.659 30
      vertex 26.15 10.3383 0
      vertex 27.9688 10.659 0
    endloop
  endfacet
  facet normal -0.5 -0.866025 0
    outer loop
      vertex 27.9688 10.659 0
      vertex 29.5683 9.73553 30
      vertex 27.9688 10.659 30
    endloop
  endfacet
  facet normal -0.5 -0.866025 -0
    outer loop
      vertex 29.5683 9.73553 30
      vertex 27.9688 10.659 0
      vertex 29.5683 9.73553 0
    endloop
  endfacet
  facet normal 0.766044 -0.642788 0
    outer loop
      vertex 24.9628 8.92345 30
      vertex 26.15 10.3383 0
      vertex 26.15 10.3383 30
    endloop
  endfacet
  facet normal 0.766044 -0.642788 0
    outer loop
      vertex 26.15 10.3383 0
      vertex 24.9628 8.92345 30
      vertex 24.9628 8.92345 0
    endloop
  endfacet
  facet normal -0.939692 0.342021 0
    outer loop
      vertex 29.5683 6.26447 0
      vertex 30.2 8 30
      vertex 30.2 8 0
    endloop
  endfacet
  facet normal -0.939692 0.342021 0
    outer loop
      vertex 30.2 8 30
      vertex 29.5683 6.26447 0
      vertex 29.5683 6.26447 30
    endloop
  endfacet
  facet normal 0.766044 0.642788 0
    outer loop
      vertex 26.15 5.66173 30
      vertex 24.9628 7.07654 0
      vertex 24.9628 7.07654 30
    endloop
  endfacet
  facet normal 0.766044 0.642788 0
    outer loop
      vertex 24.9628 7.07654 0
      vertex 26.15 5.66173 30
      vertex 26.15 5.66173 0
    endloop
  endfacet
  facet normal 0.173648 0.984808 -0
    outer loop
      vertex 27.9688 5.34102 0
      vertex 26.15 5.66173 30
      vertex 27.9688 5.34102 30
    endloop
  endfacet
  facet normal 0.173648 0.984808 0
    outer loop
      vertex 26.15 5.66173 30
      vertex 27.9688 5.34102 0
      vertex 26.15 5.66173 0
    endloop
  endfacet
  facet normal -0.5 0.866025 0
    outer loop
      vertex 29.5683 6.26447 0
      vertex 27.9688 5.34102 30
      vertex 29.5683 6.26447 30
    endloop
  endfacet
  facet normal -0.5 0.866025 0
    outer loop
      vertex 27.9688 5.34102 30
      vertex 29.5683 6.26447 0
      vertex 27.9688 5.34102 0
    endloop
  endfacet
  facet normal -1 0 0
    outer loop
      vertex 0 -26 1.95943e-15
      vertex 0 -10 7.5
      vertex 0 -10 0
    endloop
  endfacet
  facet normal -1 -0 0
    outer loop
      vertex 0 -10 7.5
      vertex 0 -26 1.95943e-15
      vertex 0 -26 7.5
    endloop
  endfacet
  facet normal 0 -1.22465e-16 -1
    outer loop
      vertex 34 -26 1.95943e-15
      vertex 30.2 -18 9.79717e-16
      vertex 34 -10 0
    endloop
  endfacet
  facet normal 1.33866e-22 -1.22465e-16 -1
    outer loop
      vertex 34 -26 1.95943e-15
      vertex 29.5683 -19.7355 1.19226e-15
      vertex 30.2 -18 9.79717e-16
    endloop
  endfacet
  facet normal 9.71879e-24 -1.22465e-16 -1
    outer loop
      vertex 34 -26 1.95943e-15
      vertex 27.9688 -20.659 1.30535e-15
      vertex 29.5683 -19.7355 1.19226e-15
    endloop
  endfacet
  facet normal -1.19597e-22 -1.22465e-16 -1
    outer loop
      vertex 34 -26 1.95943e-15
      vertex 26.15 -20.3383 1.26607e-15
      vertex 27.9688 -20.659 1.30535e-15
    endloop
  endfacet
  facet normal -8.39627e-24 -1.22465e-16 -1
    outer loop
      vertex 24.9628 -18.9235 1.09281e-15
      vertex 9.2 -18 9.79717e-16
      vertex 24.9628 -17.0765 8.66627e-16
    endloop
  endfacet
  facet normal 8.09825e-24 -1.22465e-16 -1
    outer loop
      vertex 8.56832 -19.7355 1.19226e-15
      vertex 24.9628 -18.9235 1.09281e-15
      vertex 26.15 -20.3383 1.26607e-15
    endloop
  endfacet
  facet normal 0 -1.22465e-16 -1
    outer loop
      vertex 0 -26 1.95943e-15
      vertex 26.15 -20.3383 1.26607e-15
      vertex 34 -26 1.95943e-15
    endloop
  endfacet
  facet normal 2.90272e-25 -1.22465e-16 -1
    outer loop
      vertex 24.9628 -18.9235 1.09281e-15
      vertex 8.56832 -19.7355 1.19226e-15
      vertex 9.2 -18 9.79717e-16
    endloop
  endfacet
  facet normal 8.87472e-24 -1.22465e-16 -1
    outer loop
      vertex 26.15 -20.3383 1.26607e-15
      vertex 6.96885 -20.659 1.30535e-15
      vertex 8.56832 -19.7355 1.19226e-15
    endloop
  endfacet
  facet normal 9.28523e-24 -1.22465e-16 -1
    outer loop
      vertex 26.15 -20.3383 1.26607e-15
      vertex 0 -26 1.95943e-15
      vertex 6.96885 -20.659 1.30535e-15
    endloop
  endfacet
  facet normal 3.94186e-23 -1.22465e-16 -1
    outer loop
      vertex 3.96283 -18.9235 1.09281e-15
      vertex 0 -26 1.95943e-15
      vertex 3.96283 -17.0765 8.66627e-16
    endloop
  endfacet
  facet normal 2.73222e-23 -1.22465e-16 -1
    outer loop
      vertex 5.15 -20.3383 1.26607e-15
      vertex 0 -26 1.95943e-15
      vertex 3.96283 -18.9235 1.09281e-15
    endloop
  endfacet
  facet normal -7.78685e-23 -1.22465e-16 -1
    outer loop
      vertex 6.96885 -20.659 1.30535e-15
      vertex 0 -26 1.95943e-15
      vertex 5.15 -20.3383 1.26607e-15
    endloop
  endfacet
  facet normal 1.15662e-23 -1.22465e-16 -1
    outer loop
      vertex 29.5683 -16.2645 7.67177e-16
      vertex 34 -10 0
      vertex 30.2 -18 9.79717e-16
    endloop
  endfacet
  facet normal 4.13785e-24 -1.22465e-16 -1
    outer loop
      vertex 27.9688 -15.341 6.54086e-16
      vertex 34 -10 0
      vertex 29.5683 -16.2645 7.67177e-16
    endloop
  endfacet
  facet normal -5.65013e-24 -1.22465e-16 -1
    outer loop
      vertex 26.15 -15.6617 6.93362e-16
      vertex 34 -10 0
      vertex 27.9688 -15.341 6.54086e-16
    endloop
  endfacet
  facet normal -9.73336e-24 -1.22465e-16 -1
    outer loop
      vertex 8.56832 -16.2645 7.67177e-16
      vertex 24.9628 -17.0765 8.66627e-16
      vertex 9.2 -18 9.79717e-16
    endloop
  endfacet
  facet normal -3.7138e-24 -1.22465e-16 -1
    outer loop
      vertex 24.9628 -17.0765 8.66627e-16
      vertex 8.56832 -16.2645 7.67177e-16
      vertex 26.15 -15.6617 6.93362e-16
    endloop
  endfacet
  facet normal 2.3803e-25 -1.22465e-16 -1
    outer loop
      vertex 6.96885 -15.341 6.54086e-16
      vertex 26.15 -15.6617 6.93362e-16
      vertex 8.56832 -16.2645 7.67177e-16
    endloop
  endfacet
  facet normal 4.38665e-25 -1.22465e-16 -1
    outer loop
      vertex 0 -10 0
      vertex 26.15 -15.6617 6.93362e-16
      vertex 6.96885 -15.341 6.54086e-16
    endloop
  endfacet
  facet normal -3.67877e-24 -1.22465e-16 -1
    outer loop
      vertex 0 -10 0
      vertex 6.96885 -15.341 6.54086e-16
      vertex 5.15 -15.6617 6.93362e-16
    endloop
  endfacet
  facet normal 0 -1.22465e-16 -1
    outer loop
      vertex 26.15 -15.6617 6.93362e-16
      vertex 0 -10 0
      vertex 34 -10 0
    endloop
  endfacet
  facet normal 5.84333e-23 -1.22465e-16 -1
    outer loop
      vertex 3.96283 -17.0765 8.66627e-16
      vertex 0 -10 0
      vertex 5.15 -15.6617 6.93362e-16
    endloop
  endfacet
  facet normal -4.18029e-23 -1.22465e-16 -1
    outer loop
      vertex 0 -10 0
      vertex 3.96283 -17.0765 8.66627e-16
      vertex 0 -26 1.95943e-15
    endloop
  endfacet
  facet normal 1 -0 0
    outer loop
      vertex 34 -26 7.5
      vertex 34 -10 0
      vertex 34 -10 7.5
    endloop
  endfacet
  facet normal 1 0 0
    outer loop
      vertex 34 -10 0
      vertex 34 -26 7.5
      vertex 34 -26 1.95943e-15
    endloop
  endfacet
  facet normal 0 1 0
    outer loop
      vertex 34 -10 7.5
      vertex 20.5418 -10 6.14111
      vertex 20.8768 -10 7.5
    endloop
  endfacet
  facet normal 0 1 -0
    outer loop
      vertex 34 -10 0
      vertex 20.5418 -10 6.14111
      vertex 34 -10 7.5
    endloop
  endfacet
  facet normal 0 1 0
    outer loop
      vertex 20.5418 -10 6.14111
      vertex 34 -10 0
      vertex 19.2723 -10 4.70807
    endloop
  endfacet
  facet normal 0 1 0
    outer loop
      vertex 19.2723 -10 4.70807
      vertex 34 -10 0
      vertex 17.4821 -10 4.02917
    endloop
  endfacet
  facet normal 0 1 -0
    outer loop
      vertex 13.1162 -10 7.04274
      vertex 0 -10 7.5
      vertex 13.1162 -10 7.5
    endloop
  endfacet
  facet normal 0 1 0
    outer loop
      vertex 0 -10 0
      vertex 13.1162 -10 7.04274
      vertex 14.006 -10 5.34751
    endloop
  endfacet
  facet normal 0 1 0
    outer loop
      vertex 0 -10 0
      vertex 14.006 -10 5.34751
      vertex 15.5816 -10 4.25994
    endloop
  endfacet
  facet normal 0 1 0
    outer loop
      vertex 0 -10 0
      vertex 17.4821 -10 4.02917
      vertex 34 -10 0
    endloop
  endfacet
  facet normal 0 1 0
    outer loop
      vertex 17.4821 -10 4.02917
      vertex 0 -10 0
      vertex 15.5816 -10 4.25994
    endloop
  endfacet
  facet normal 0 1 0
    outer loop
      vertex 13.1162 -10 7.04274
      vertex 0 -10 0
      vertex 0 -10 7.5
    endloop
  endfacet
  facet normal 0 -1 0
    outer loop
      vertex 0 -26 7.5
      vertex 13.1162 -26 7.04274
      vertex 13.1162 -26 7.5
    endloop
  endfacet
  facet normal 0 -1 0
    outer loop
      vertex 0 -26 1.95943e-15
      vertex 13.1162 -26 7.04274
      vertex 0 -26 7.5
    endloop
  endfacet
  facet normal 0 -1 -0
    outer loop
      vertex 13.1162 -26 7.04274
      vertex 0 -26 1.95943e-15
      vertex 14.006 -26 5.34751
    endloop
  endfacet
  facet normal 0 -1 -0
    outer loop
      vertex 15.5816 -26 4.25994
      vertex 0 -26 1.95943e-15
      vertex 17.4821 -26 4.02917
    endloop
  endfacet
  facet normal 0 -1 -0
    outer loop
      vertex 14.006 -26 5.34751
      vertex 0 -26 1.95943e-15
      vertex 15.5816 -26 4.25994
    endloop
  endfacet
  facet normal 0 -1 0
    outer loop
      vertex 20.5418 -26 6.14111
      vertex 34 -26 7.5
      vertex 20.8768 -26 7.5
    endloop
  endfacet
  facet normal 0 -1 0
    outer loop
      vertex 34 -26 1.95943e-15
      vertex 20.5418 -26 6.14111
      vertex 19.2723 -26 4.70807
    endloop
  endfacet
  facet normal 0 -1 0
    outer loop
      vertex 34 -26 1.95943e-15
      vertex 19.2723 -26 4.70807
      vertex 17.4821 -26 4.02917
    endloop
  endfacet
  facet normal 0 -1 0
    outer loop
      vertex 34 -26 1.95943e-15
      vertex 17.4821 -26 4.02917
      vertex 0 -26 1.95943e-15
    endloop
  endfacet
  facet normal 0 -1 0
    outer loop
      vertex 20.5418 -26 6.14111
      vertex 34 -26 1.95943e-15
      vertex 34 -26 7.5
    endloop
  endfacet
  facet normal 0 0 1
    outer loop
      vertex 13.1162 -10 7.5
      vertex 9.2 -18 7.5
      vertex 13.1162 -26 7.5
    endloop
  endfacet
  facet normal 0 0 1
    outer loop
      vertex 13.1162 -10 7.5
      vertex 8.56832 -16.2645 7.5
      vertex 9.2 -18 7.5
    endloop
  endfacet
  facet normal 0 0 1
    outer loop
      vertex 13.1162 -10 7.5
      vertex 6.96885 -15.341 7.5
      vertex 8.56832 -16.2645 7.5
    endloop
  endfacet
  facet normal -0 0 1
    outer loop
      vertex 0 -10 7.5
      vertex 6.96885 -15.341 7.5
      vertex 13.1162 -10 7.5
    endloop
  endfacet
  facet normal 0 0 1
    outer loop
      vertex 3.96283 -17.0765 7.5
      vertex 0 -10 7.5
      vertex 3.96283 -18.9235 7.5
    endloop
  endfacet
  facet normal 0 0 1
    outer loop
      vertex 5.15 -15.6617 7.5
      vertex 0 -10 7.5
      vertex 3.96283 -17.0765 7.5
    endloop
  endfacet
  facet normal 0 0 1
    outer loop
      vertex 6.96885 -15.341 7.5
      vertex 0 -10 7.5
      vertex 5.15 -15.6617 7.5
    endloop
  endfacet
  facet normal -0 0 1
    outer loop
      vertex 8.56832 -19.7355 7.5
      vertex 13.1162 -26 7.5
      vertex 9.2 -18 7.5
    endloop
  endfacet
  facet normal -0 0 1
    outer loop
      vertex 6.96885 -20.659 7.5
      vertex 13.1162 -26 7.5
      vertex 8.56832 -19.7355 7.5
    endloop
  endfacet
  facet normal 0 0 1
    outer loop
      vertex 0 -26 7.5
      vertex 6.96885 -20.659 7.5
      vertex 5.15 -20.3383 7.5
    endloop
  endfacet
  facet normal 0 0 1
    outer loop
      vertex 6.96885 -20.659 7.5
      vertex 0 -26 7.5
      vertex 13.1162 -26 7.5
    endloop
  endfacet
  facet normal 0 0 1
    outer loop
      vertex 3.96283 -18.9235 7.5
      vertex 0 -26 7.5
      vertex 5.15 -20.3383 7.5
    endloop
  endfacet
  facet normal 0 0 1
    outer loop
      vertex 0 -26 7.5
      vertex 3.96283 -18.9235 7.5
      vertex 0 -10 7.5
    endloop
  endfacet
  facet normal 0 0 1
    outer loop
      vertex 34 -10 7.5
      vertex 30.2 -18 7.5
      vertex 34 -26 7.5
    endloop
  endfacet
  facet normal 0 0 1
    outer loop
      vertex 34 -10 7.5
      vertex 29.5683 -16.2645 7.5
      vertex 30.2 -18 7.5
    endloop
  endfacet
  facet normal 0 0 1
    outer loop
      vertex 34 -10 7.5
      vertex 27.9688 -15.341 7.5
      vertex 29.5683 -16.2645 7.5
    endloop
  endfacet
  facet normal -0 0 1
    outer loop
      vertex 20.8768 -10 7.5
      vertex 27.9688 -15.341 7.5
      vertex 34 -10 7.5
    endloop
  endfacet
  facet normal 0 0 1
    outer loop
      vertex 24.9628 -17.0765 7.5
      vertex 20.8768 -10 7.5
      vertex 24.9628 -18.9235 7.5
    endloop
  endfacet
  facet normal 0 0 1
    outer loop
      vertex 26.15 -15.6617 7.5
      vertex 20.8768 -10 7.5
      vertex 24.9628 -17.0765 7.5
    endloop
  endfacet
  facet normal 0 0 1
    outer loop
      vertex 27.9688 -15.341 7.5
      vertex 20.8768 -10 7.5
      vertex 26.15 -15.6617 7.5
    endloop
  endfacet
  facet normal -0 0 1
    outer loop
      vertex 29.5683 -19.7355 7.5
      vertex 34 -26 7.5
      vertex 30.2 -18 7.5
    endloop
  endfacet
  facet normal -0 0 1
    outer loop
      vertex 27.9688 -20.659 7.5
      vertex 34 -26 7.5
      vertex 29.5683 -19.7355 7.5
    endloop
  endfacet
  facet normal 0 0 1
    outer loop
      vertex 20.8768 -26 7.5
      vertex 27.9688 -20.659 7.5
      vertex 26.15 -20.3383 7.5
    endloop
  endfacet
  facet normal 0 0 1
    outer loop
      vertex 27.9688 -20.659 7.5
      vertex 20.8768 -26 7.5
      vertex 34 -26 7.5
    endloop
  endfacet
  facet normal 0 0 1
    outer loop
      vertex 24.9628 -18.9235 7.5
      vertex 20.8768 -26 7.5
      vertex 26.15 -20.3383 7.5
    endloop
  endfacet
  facet normal 0 0 1
    outer loop
      vertex 20.8768 -26 7.5
      vertex 24.9628 -18.9235 7.5
      vertex 20.8768 -10 7.5
    endloop
  endfacet
  facet normal 1 -0 0
    outer loop
      vertex 13.1162 -26 7.5
      vertex 13.1162 -10 7.04274
      vertex 13.1162 -10 7.5
    endloop
  endfacet
  facet normal 1 0 0
    outer loop
      vertex 13.1162 -10 7.04274
      vertex 13.1162 -26 7.5
      vertex 13.1162 -26 7.04274
    endloop
  endfacet
  facet normal -0.354605 0 0.935016
    outer loop
      vertex 17.4821 -10 4.02917
      vertex 19.2723 -26 4.70807
      vertex 19.2723 -10 4.70807
    endloop
  endfacet
  facet normal -0.354605 0 0.935016
    outer loop
      vertex 19.2723 -26 4.70807
      vertex 17.4821 -10 4.02917
      vertex 17.4821 -26 4.02917
    endloop
  endfacet
  facet normal -0.970942 0 0.239315
    outer loop
      vertex 20.5418 -26 6.14111
      vertex 20.8768 -10 7.5
      vertex 20.5418 -10 6.14111
    endloop
  endfacet
  facet normal -0.970942 0 0.239315
    outer loop
      vertex 20.8768 -10 7.5
      vertex 20.5418 -26 6.14111
      vertex 20.8768 -26 7.5
    endloop
  endfacet
  facet normal -0.748511 0 0.663123
    outer loop
      vertex 19.2723 -26 4.70807
      vertex 20.5418 -10 6.14111
      vertex 19.2723 -10 4.70807
    endloop
  endfacet
  facet normal -0.748511 0 0.663123
    outer loop
      vertex 20.5418 -10 6.14111
      vertex 19.2723 -26 4.70807
      vertex 20.5418 -26 6.14111
    endloop
  endfacet
  facet normal 0.120536 0 0.992709
    outer loop
      vertex 15.5816 -10 4.25994
      vertex 17.4821 -26 4.02917
      vertex 17.4821 -10 4.02917
    endloop
  endfacet
  facet normal 0.120536 0 0.992709
    outer loop
      vertex 17.4821 -26 4.02917
      vertex 15.5816 -10 4.25994
      vertex 15.5816 -26 4.25994
    endloop
  endfacet
  facet normal 0.568065 0 0.822984
    outer loop
      vertex 14.006 -10 5.34751
      vertex 15.5816 -26 4.25994
      vertex 15.5816 -10 4.25994
    endloop
  endfacet
  facet normal 0.568065 0 0.822984
    outer loop
      vertex 15.5816 -26 4.25994
      vertex 14.006 -10 5.34751
      vertex 14.006 -26 5.34751
    endloop
  endfacet
  facet normal 0.885456 -0 0.464723
    outer loop
      vertex 13.1162 -26 7.04274
      vertex 14.006 -10 5.34751
      vertex 13.1162 -10 7.04274
    endloop
  endfacet
  facet normal 0.885456 0 0.464723
    outer loop
      vertex 14.006 -10 5.34751
      vertex 13.1162 -26 7.04274
      vertex 14.006 -26 5.34751
    endloop
  endfacet
  facet normal -0.939693 0.34202 0
    outer loop
      vertex 8.56832 -19.7355 1.19226e-15
      vertex 9.2 -18 7.5
      vertex 9.2 -18 9.79717e-16
    endloop
  endfacet
  facet normal -0.939693 0.34202 0
    outer loop
      vertex 9.2 -18 7.5
      vertex 8.56832 -19.7355 1.19226e-15
      vertex 8.56832 -19.7355 7.5
    endloop
  endfacet
  facet normal 1 -0 0
    outer loop
      vertex 3.96283 -18.9235 7.5
      vertex 3.96283 -17.0765 8.66627e-16
      vertex 3.96283 -17.0765 7.5
    endloop
  endfacet
  facet normal 1 0 0
    outer loop
      vertex 3.96283 -17.0765 8.66627e-16
      vertex 3.96283 -18.9235 7.5
      vertex 3.96283 -18.9235 1.09281e-15
    endloop
  endfacet
  facet normal 0.173649 0.984808 -0
    outer loop
      vertex 6.96885 -20.659 1.30535e-15
      vertex 5.15 -20.3383 7.5
      vertex 6.96885 -20.659 7.5
    endloop
  endfacet
  facet normal 0.173649 0.984808 0
    outer loop
      vertex 5.15 -20.3383 7.5
      vertex 6.96885 -20.659 1.30535e-15
      vertex 5.15 -20.3383 1.26607e-15
    endloop
  endfacet
  facet normal -0.5 0.866025 0
    outer loop
      vertex 8.56832 -19.7355 7.5
      vertex 6.96885 -20.659 1.30535e-15
      vertex 6.96885 -20.659 7.5
    endloop
  endfacet
  facet normal -0.5 0.866025 0
    outer loop
      vertex 6.96885 -20.659 1.30535e-15
      vertex 8.56832 -19.7355 7.5
      vertex 8.56832 -19.7355 1.19226e-15
    endloop
  endfacet
  facet normal 0.766044 0.642788 0
    outer loop
      vertex 5.15 -20.3383 7.5
      vertex 3.96283 -18.9235 1.09281e-15
      vertex 3.96283 -18.9235 7.5
    endloop
  endfacet
  facet normal 0.766044 0.642788 0
    outer loop
      vertex 3.96283 -18.9235 1.09281e-15
      vertex 5.15 -20.3383 7.5
      vertex 5.15 -20.3383 1.26607e-15
    endloop
  endfacet
  facet normal -0.939693 -0.34202 0
    outer loop
      vertex 9.2 -18 9.79717e-16
      vertex 8.56832 -16.2645 7.5
      vertex 8.56832 -16.2645 7.67177e-16
    endloop
  endfacet
  facet normal -0.939693 -0.34202 0
    outer loop
      vertex 8.56832 -16.2645 7.5
      vertex 9.2 -18 9.79717e-16
      vertex 9.2 -18 7.5
    endloop
  endfacet
  facet normal -0.5 -0.866025 0
    outer loop
      vertex 6.96885 -15.341 7.5
      vertex 8.56832 -16.2645 7.67177e-16
      vertex 8.56832 -16.2645 7.5
    endloop
  endfacet
  facet normal -0.5 -0.866025 0
    outer loop
      vertex 8.56832 -16.2645 7.67177e-16
      vertex 6.96885 -15.341 7.5
      vertex 6.96885 -15.341 6.54086e-16
    endloop
  endfacet
  facet normal 0.173648 -0.984808 0
    outer loop
      vertex 5.15 -15.6617 6.93362e-16
      vertex 6.96885 -15.341 7.5
      vertex 5.15 -15.6617 7.5
    endloop
  endfacet
  facet normal 0.173648 -0.984808 0
    outer loop
      vertex 6.96885 -15.341 7.5
      vertex 5.15 -15.6617 6.93362e-16
      vertex 6.96885 -15.341 6.54086e-16
    endloop
  endfacet
  facet normal 0.766045 -0.642787 0
    outer loop
      vertex 3.96283 -17.0765 7.5
      vertex 5.15 -15.6617 6.93362e-16
      vertex 5.15 -15.6617 7.5
    endloop
  endfacet
  facet normal 0.766045 -0.642787 0
    outer loop
      vertex 5.15 -15.6617 6.93362e-16
      vertex 3.96283 -17.0765 7.5
      vertex 3.96283 -17.0765 8.66627e-16
    endloop
  endfacet
  facet normal -0.939692 0.342021 0
    outer loop
      vertex 29.5683 -19.7355 1.19226e-15
      vertex 30.2 -18 7.5
      vertex 30.2 -18 9.79717e-16
    endloop
  endfacet
  facet normal -0.939692 0.342021 0
    outer loop
      vertex 30.2 -18 7.5
      vertex 29.5683 -19.7355 1.19226e-15
      vertex 29.5683 -19.7355 7.5
    endloop
  endfacet
  facet normal 1 -0 0
    outer loop
      vertex 24.9628 -18.9235 7.5
      vertex 24.9628 -17.0765 8.66627e-16
      vertex 24.9628 -17.0765 7.5
    endloop
  endfacet
  facet normal 1 0 0
    outer loop
      vertex 24.9628 -17.0765 8.66627e-16
      vertex 24.9628 -18.9235 7.5
      vertex 24.9628 -18.9235 1.09281e-15
    endloop
  endfacet
  facet normal 0.173649 0.984808 -0
    outer loop
      vertex 27.9688 -20.659 1.30535e-15
      vertex 26.15 -20.3383 7.5
      vertex 27.9688 -20.659 7.5
    endloop
  endfacet
  facet normal 0.173649 0.984808 0
    outer loop
      vertex 26.15 -20.3383 7.5
      vertex 27.9688 -20.659 1.30535e-15
      vertex 26.15 -20.3383 1.26607e-15
    endloop
  endfacet
  facet normal -0.5 0.866025 0
    outer loop
      vertex 29.5683 -19.7355 7.5
      vertex 27.9688 -20.659 1.30535e-15
      vertex 27.9688 -20.659 7.5
    endloop
  endfacet
  facet normal -0.5 0.866025 0
    outer loop
      vertex 27.9688 -20.659 1.30535e-15
      vertex 29.5683 -19.7355 7.5
      vertex 29.5683 -19.7355 1.19226e-15
    endloop
  endfacet
  facet normal 0.766044 0.642788 0
    outer loop
      vertex 26.15 -20.3383 7.5
      vertex 24.9628 -18.9235 1.09281e-15
      vertex 24.9628 -18.9235 7.5
    endloop
  endfacet
  facet normal 0.766044 0.642788 0
    outer loop
      vertex 24.9628 -18.9235 1.09281e-15
      vertex 26.15 -20.3383 7.5
      vertex 26.15 -20.3383 1.26607e-15
    endloop
  endfacet
  facet normal -0.939692 -0.342021 0
    outer loop
      vertex 30.2 -18 9.79717e-16
      vertex 29.5683 -16.2645 7.5
      vertex 29.5683 -16.2645 7.67177e-16
    endloop
  endfacet
  facet normal -0.939692 -0.342021 0
    outer loop
      vertex 29.5683 -16.2645 7.5
      vertex 30.2 -18 9.79717e-16
      vertex 30.2 -18 7.5
    endloop
  endfacet
  facet normal -0.5 -0.866025 0
    outer loop
      vertex 27.9688 -15.341 7.5
      vertex 29.5683 -16.2645 7.67177e-16
      vertex 29.5683 -16.2645 7.5
    endloop
  endfacet
  facet normal -0.5 -0.866025 0
    outer loop
      vertex 29.5683 -16.2645 7.67177e-16
      vertex 27.9688 -15.341 7.5
      vertex 27.9688 -15.341 6.54086e-16
    endloop
  endfacet
  facet normal 0.173648 -0.984808 0
    outer loop
      vertex 26.15 -15.6617 6.93362e-16
      vertex 27.9688 -15.341 7.5
      vertex 26.15 -15.6617 7.5
    endloop
  endfacet
  facet normal 0.173648 -0.984808 0
    outer loop
      vertex 27.9688 -15.341 7.5
      vertex 26.15 -15.6617 6.93362e-16
      vertex 27.9688 -15.341 6.54086e-16
    endloop
  endfacet
  facet normal 0.766045 -0.642787 0
    outer loop
      vertex 24.9628 -17.0765 7.5
      vertex 26.15 -15.6617 6.93362e-16
      vertex 26.15 -15.6617 7.5
    endloop
  endfacet
  facet normal 0.766045 -0.642787 0
    outer loop
      vertex 26.15 -15.6617 6.93362e-16
      vertex 24.9628 -17.0765 7.5
      vertex 24.9628 -17.0765 8.66627e-16
    endloop
  endfacet
endsolid OpenSCAD_Model
