solid OpenSCAD_Model
  facet normal -1 0 0
    outer loop
      vertex 0 -49 0
      vertex 0 -31 5.2
      vertex 0 -31 0
    endloop
  endfacet
  facet normal -1 -0 0
    outer loop
      vertex 0 -31 5.2
      vertex 0 -49 0
      vertex 0 -49 5.2
    endloop
  endfacet
  facet normal -1 0 0
    outer loop
      vertex 0 -49 10.8
      vertex 0 -31 16
      vertex 0 -31 10.8
    endloop
  endfacet
  facet normal -1 -0 0
    outer loop
      vertex 0 -31 16
      vertex 0 -49 10.8
      vertex 0 -49 16
    endloop
  endfacet
  facet normal 0 -1 0
    outer loop
      vertex 0 -49 5.2
      vertex 0 -49 0
      vertex 6.5 -49 5.2
    endloop
  endfacet
  facet normal 0 -1 0
    outer loop
      vertex 6.5 -49 10.8
      vertex 0 -49 16
      vertex 0 -49 10.8
    endloop
  endfacet
  facet normal 0 -1 0
    outer loop
      vertex 7.04625 -49 10.7462
      vertex 0 -49 16
      vertex 6.5 -49 10.8
    endloop
  endfacet
  facet normal 0 -1 0
    outer loop
      vertex 7.57151 -49 10.5869
      vertex 0 -49 16
      vertex 7.04625 -49 10.7462
    endloop
  endfacet
  facet normal 0 -1 0
    outer loop
      vertex 0 -49 16
      vertex 7.57151 -49 10.5869
      vertex 33.6077 -49 16
    endloop
  endfacet
  facet normal 0 -1 0
    outer loop
      vertex 8.0556 -49 10.3281
      vertex 33.6077 -49 16
      vertex 7.57151 -49 10.5869
    endloop
  endfacet
  facet normal 0 -1 0
    outer loop
      vertex 8.4799 -49 9.9799
      vertex 33.6077 -49 16
      vertex 8.0556 -49 10.3281
    endloop
  endfacet
  facet normal 0 -1 0
    outer loop
      vertex 8.82811 -49 9.5556
      vertex 33.6077 -49 16
      vertex 8.4799 -49 9.9799
    endloop
  endfacet
  facet normal 0 -1 0
    outer loop
      vertex 9.08686 -49 9.07151
      vertex 33.6077 -49 16
      vertex 8.82811 -49 9.5556
    endloop
  endfacet
  facet normal 0 -1 0
    outer loop
      vertex 9.2462 -49 8.54625
      vertex 33.6077 -49 16
      vertex 9.08686 -49 9.07151
    endloop
  endfacet
  facet normal 0 -1 0
    outer loop
      vertex 9.3 -49 8
      vertex 33.6077 -49 16
      vertex 9.2462 -49 8.54625
    endloop
  endfacet
  facet normal 0 -1 0
    outer loop
      vertex 33.6077 -49 0
      vertex 9.3 -49 8
      vertex 9.2462 -49 7.45375
    endloop
  endfacet
  facet normal 0 -1 0
    outer loop
      vertex 33.6077 -49 0
      vertex 9.2462 -49 7.45375
      vertex 9.08686 -49 6.92849
    endloop
  endfacet
  facet normal 0 -1 0
    outer loop
      vertex 33.6077 -49 0
      vertex 9.08686 -49 6.92849
      vertex 8.82811 -49 6.4444
    endloop
  endfacet
  facet normal 0 -1 0
    outer loop
      vertex 33.6077 -49 0
      vertex 8.82811 -49 6.4444
      vertex 8.4799 -49 6.0201
    endloop
  endfacet
  facet normal 0 -1 0
    outer loop
      vertex 33.6077 -49 0
      vertex 8.4799 -49 6.0201
      vertex 8.0556 -49 5.67188
    endloop
  endfacet
  facet normal 0 -1 0
    outer loop
      vertex 33.6077 -49 0
      vertex 8.0556 -49 5.67188
      vertex 7.57151 -49 5.41314
    endloop
  endfacet
  facet normal 0 -1 0
    outer loop
      vertex 0 -49 0
      vertex 7.04625 -49 5.2538
      vertex 6.5 -49 5.2
    endloop
  endfacet
  facet normal 0 -1 0
    outer loop
      vertex 0 -49 0
      vertex 7.57151 -49 5.41314
      vertex 7.04625 -49 5.2538
    endloop
  endfacet
  facet normal 0 -1 0
    outer loop
      vertex 33.6077 -49 0
      vertex 7.57151 -49 5.41314
      vertex 0 -49 0
    endloop
  endfacet
  facet normal 0 -1 0
    outer loop
      vertex 9.3 -49 8
      vertex 33.6077 -49 0
      vertex 33.6077 -49 16
    endloop
  endfacet
  facet normal 1 -0 0
    outer loop
      vertex 56 -38.5 16
      vertex 56 -36.9 11.5
      vertex 56 -36.9 16
    endloop
  endfacet
  facet normal 1 0 0
    outer loop
      vertex 56 -36.9 11.5
      vertex 56 -38.5 16
      vertex 56 -36.9 4.5
    endloop
  endfacet
  facet normal 1 0 0
    outer loop
      vertex 56 -38.5 0
      vertex 56 -36.9 4.5
      vertex 56 -38.5 16
    endloop
  endfacet
  facet normal 1 0 0
    outer loop
      vertex 56 -36.9 4.5
      vertex 56 -38.5 0
      vertex 56 -36.9 0
    endloop
  endfacet
  facet normal 1 -0 0
    outer loop
      vertex 56 -36.9 11.5
      vertex 56 -30 4.5
      vertex 56 -30 11.5
    endloop
  endfacet
  facet normal 1 0 0
    outer loop
      vertex 56 -30 4.5
      vertex 56 -36.9 11.5
      vertex 56 -36.9 4.5
    endloop
  endfacet
  facet normal 0 0 -1
    outer loop
      vertex 56 -38.5 0
      vertex 49.5 -36.9 0
      vertex 56 -36.9 0
    endloop
  endfacet
  facet normal 0 0 -1
    outer loop
      vertex 41.4558 -46.8971 0
      vertex 49.5 -36.9 0
      vertex 56 -38.5 0
    endloop
  endfacet
  facet normal -0 0 -1
    outer loop
      vertex 43.1252 -32.6405 0
      vertex 42.7118 -32.9264 0
      vertex 42.8344 -31.6817 0
    endloop
  endfacet
  facet normal 0 0 -1
    outer loop
      vertex 43.7629 -33.8334 0
      vertex 42.7118 -32.9264 0
      vertex 43.1252 -32.6405 0
    endloop
  endfacet
  facet normal 0 0 -1
    outer loop
      vertex 41.8582 -35.7402 0
      vertex 43.7629 -33.8334 0
      vertex 44.621 -34.879 0
    endloop
  endfacet
  facet normal -0 0 -1
    outer loop
      vertex 43.7629 -33.8334 0
      vertex 41.8582 -35.7402 0
      vertex 42.7118 -32.9264 0
    endloop
  endfacet
  facet normal -0 0 -1
    outer loop
      vertex 45.6666 -35.7371 0
      vertex 41.8582 -35.7402 0
      vertex 44.621 -34.879 0
    endloop
  endfacet
  facet normal 0 0 -1
    outer loop
      vertex 40.472 -38.3336 0
      vertex 45.6666 -35.7371 0
      vertex 46.8595 -36.3748 0
    endloop
  endfacet
  facet normal 0 0 -1
    outer loop
      vertex 41.4558 -46.8971 0
      vertex 46.8595 -36.3748 0
      vertex 48.1539 -36.7674 0
    endloop
  endfacet
  facet normal -0 0 -1
    outer loop
      vertex 49.5 -36.9 0
      vertex 41.4558 -46.8971 0
      vertex 48.1539 -36.7674 0
    endloop
  endfacet
  facet normal 0 0 -1
    outer loop
      vertex 46.8595 -36.3748 0
      vertex 41.4558 -46.8971 0
      vertex 40.472 -38.3336 0
    endloop
  endfacet
  facet normal 0 0 -1
    outer loop
      vertex 45.6666 -35.7371 0
      vertex 40.472 -38.3336 0
      vertex 41.8582 -35.7402 0
    endloop
  endfacet
  facet normal 0 0 -1
    outer loop
      vertex 41.4558 -46.8971 0
      vertex 38.6066 -40.6066 0
      vertex 40.472 -38.3336 0
    endloop
  endfacet
  facet normal 0 0 -1
    outer loop
      vertex 41.4558 -46.8971 0
      vertex 36.3336 -42.472 0
      vertex 38.6066 -40.6066 0
    endloop
  endfacet
  facet normal 0 0 -1
    outer loop
      vertex 33.6077 -49 0
      vertex 36.3336 -42.472 0
      vertex 41.4558 -46.8971 0
    endloop
  endfacet
  facet normal 0 0 -1
    outer loop
      vertex 36.3336 -42.472 0
      vertex 33.6077 -49 0
      vertex 33.7402 -43.8582 0
    endloop
  endfacet
  facet normal 0 0 -1
    outer loop
      vertex 33.6077 -49 0
      vertex 30.9264 -44.7118 0
      vertex 33.7402 -43.8582 0
    endloop
  endfacet
  facet normal 0 0 -1
    outer loop
      vertex 33.6077 -49 0
      vertex 28 -45 0
      vertex 30.9264 -44.7118 0
    endloop
  endfacet
  facet normal 0 0 -1
    outer loop
      vertex 33.6077 -49 0
      vertex 25.0736 -44.7118 0
      vertex 28 -45 0
    endloop
  endfacet
  facet normal 0 0 -1
    outer loop
      vertex 0 -49 0
      vertex 25.0736 -44.7118 0
      vertex 33.6077 -49 0
    endloop
  endfacet
  facet normal -0 0 -1
    outer loop
      vertex 25.0736 -44.7118 0
      vertex 0 -49 0
      vertex 22.2597 -43.8582 0
    endloop
  endfacet
  facet normal 0 0 -1
    outer loop
      vertex 0 -49 0
      vertex 19.6664 -42.472 0
      vertex 22.2597 -43.8582 0
    endloop
  endfacet
  facet normal 0 0 -1
    outer loop
      vertex 0 -49 0
      vertex 17.3934 -40.6066 0
      vertex 19.6664 -42.472 0
    endloop
  endfacet
  facet normal 0 0 -1
    outer loop
      vertex 0 -49 0
      vertex 15.528 -38.3336 0
      vertex 17.3934 -40.6066 0
    endloop
  endfacet
  facet normal 0 0 -1
    outer loop
      vertex 0 -49 0
      vertex 14.1418 -35.7402 0
      vertex 15.528 -38.3336 0
    endloop
  endfacet
  facet normal 0 0 -1
    outer loop
      vertex 0 -31 0
      vertex 14.1418 -35.7402 0
      vertex 0 -49 0
    endloop
  endfacet
  facet normal 0 0 -1
    outer loop
      vertex 14.1418 -35.7402 0
      vertex 0 -31 0
      vertex 13.2882 -32.9264 0
    endloop
  endfacet
  facet normal 0 0 -1
    outer loop
      vertex 13.2882 -32.9264 0
      vertex 0 -31 0
      vertex 13.0985 -31 0
    endloop
  endfacet
  facet normal -0 0 1
    outer loop
      vertex 49.5 -36.9 16
      vertex 56 -38.5 16
      vertex 56 -36.9 16
    endloop
  endfacet
  facet normal 0 0 1
    outer loop
      vertex 41.4558 -46.8971 16
      vertex 49.5 -36.9 16
      vertex 48.1539 -36.7674 16
    endloop
  endfacet
  facet normal 0 0 1
    outer loop
      vertex 42.7118 -32.9264 16
      vertex 43.1252 -32.6405 16
      vertex 42.8344 -31.6817 16
    endloop
  endfacet
  facet normal -0 0 1
    outer loop
      vertex 42.7118 -32.9264 16
      vertex 43.7629 -33.8334 16
      vertex 43.1252 -32.6405 16
    endloop
  endfacet
  facet normal 0 0 1
    outer loop
      vertex 41.8582 -35.7402 16
      vertex 43.7629 -33.8334 16
      vertex 42.7118 -32.9264 16
    endloop
  endfacet
  facet normal 0 0 1
    outer loop
      vertex 43.7629 -33.8334 16
      vertex 41.8582 -35.7402 16
      vertex 44.621 -34.879 16
    endloop
  endfacet
  facet normal 0 0 1
    outer loop
      vertex 41.8582 -35.7402 16
      vertex 45.6666 -35.7371 16
      vertex 44.621 -34.879 16
    endloop
  endfacet
  facet normal 0 0 1
    outer loop
      vertex 40.472 -38.3336 16
      vertex 45.6666 -35.7371 16
      vertex 41.8582 -35.7402 16
    endloop
  endfacet
  facet normal 0 0 1
    outer loop
      vertex 45.6666 -35.7371 16
      vertex 40.472 -38.3336 16
      vertex 46.8595 -36.3748 16
    endloop
  endfacet
  facet normal 0 -0 1
    outer loop
      vertex 41.4558 -46.8971 16
      vertex 46.8595 -36.3748 16
      vertex 40.472 -38.3336 16
    endloop
  endfacet
  facet normal 0 0 1
    outer loop
      vertex 46.8595 -36.3748 16
      vertex 41.4558 -46.8971 16
      vertex 48.1539 -36.7674 16
    endloop
  endfacet
  facet normal 0 0 1
    outer loop
      vertex 49.5 -36.9 16
      vertex 41.4558 -46.8971 16
      vertex 56 -38.5 16
    endloop
  endfacet
  facet normal -0 0 1
    outer loop
      vertex 38.6066 -40.6066 16
      vertex 41.4558 -46.8971 16
      vertex 40.472 -38.3336 16
    endloop
  endfacet
  facet normal -0 0 1
    outer loop
      vertex 36.3336 -42.472 16
      vertex 41.4558 -46.8971 16
      vertex 38.6066 -40.6066 16
    endloop
  endfacet
  facet normal 0 0 1
    outer loop
      vertex 33.6077 -49 16
      vertex 36.3336 -42.472 16
      vertex 33.7402 -43.8582 16
    endloop
  endfacet
  facet normal 0 0 1
    outer loop
      vertex 36.3336 -42.472 16
      vertex 33.6077 -49 16
      vertex 41.4558 -46.8971 16
    endloop
  endfacet
  facet normal -0 0 1
    outer loop
      vertex 30.9264 -44.7118 16
      vertex 33.6077 -49 16
      vertex 33.7402 -43.8582 16
    endloop
  endfacet
  facet normal -0 0 1
    outer loop
      vertex 28 -45 16
      vertex 33.6077 -49 16
      vertex 30.9264 -44.7118 16
    endloop
  endfacet
  facet normal 0 0 1
    outer loop
      vertex 25.0736 -44.7118 16
      vertex 33.6077 -49 16
      vertex 28 -45 16
    endloop
  endfacet
  facet normal 0 0 1
    outer loop
      vertex 0 -49 16
      vertex 25.0736 -44.7118 16
      vertex 22.2597 -43.8582 16
    endloop
  endfacet
  facet normal -0 0 1
    outer loop
      vertex 0 -31 16
      vertex 13.2882 -32.9264 16
      vertex 13.0985 -31 16
    endloop
  endfacet
  facet normal 0 0 1
    outer loop
      vertex 0 -31 16
      vertex 14.1418 -35.7402 16
      vertex 13.2882 -32.9264 16
    endloop
  endfacet
  facet normal 0 0 1
    outer loop
      vertex 0 -49 16
      vertex 14.1418 -35.7402 16
      vertex 0 -31 16
    endloop
  endfacet
  facet normal 0 0 1
    outer loop
      vertex 14.1418 -35.7402 16
      vertex 0 -49 16
      vertex 15.528 -38.3336 16
    endloop
  endfacet
  facet normal 0 0 1
    outer loop
      vertex 15.528 -38.3336 16
      vertex 0 -49 16
      vertex 17.3934 -40.6066 16
    endloop
  endfacet
  facet normal 0 0 1
    outer loop
      vertex 25.0736 -44.7118 16
      vertex 0 -49 16
      vertex 33.6077 -49 16
    endloop
  endfacet
  facet normal 0 0 1
    outer loop
      vertex 19.6664 -42.472 16
      vertex 0 -49 16
      vertex 22.2597 -43.8582 16
    endloop
  endfacet
  facet normal 0 0 1
    outer loop
      vertex 17.3934 -40.6066 16
      vertex 0 -49 16
      vertex 19.6664 -42.472 16
    endloop
  endfacet
  facet normal 0.995184 0.0980195 0
    outer loop
      vertex 56 -30 11.5
      vertex 55.8751 -28.7319 4.5
      vertex 55.8751 -28.7319 11.5
    endloop
  endfacet
  facet normal 0.995184 0.0980195 0
    outer loop
      vertex 55.8751 -28.7319 4.5
      vertex 56 -30 11.5
      vertex 56 -30 4.5
    endloop
  endfacet
  facet normal -0.0980195 0.995184 0
    outer loop
      vertex 49.5 -23.5 4.5
      vertex 48.2319 -23.6249 11.5
      vertex 49.5 -23.5 11.5
    endloop
  endfacet
  facet normal -0.0980195 0.995184 0
    outer loop
      vertex 48.2319 -23.6249 11.5
      vertex 49.5 -23.5 4.5
      vertex 48.2319 -23.6249 4.5
    endloop
  endfacet
  facet normal 0.634408 0.772998 -0
    outer loop
      vertex 54.0962 -25.4038 4.5
      vertex 53.1112 -24.5954 11.5
      vertex 54.0962 -25.4038 11.5
    endloop
  endfacet
  facet normal 0.634408 0.772998 0
    outer loop
      vertex 53.1112 -24.5954 11.5
      vertex 54.0962 -25.4038 4.5
      vertex 53.1112 -24.5954 4.5
    endloop
  endfacet
  facet normal -0.772998 0.634408 0
    outer loop
      vertex 44.0954 -26.3888 4.5
      vertex 44.9038 -25.4038 11.5
      vertex 44.9038 -25.4038 4.5
    endloop
  endfacet
  facet normal -0.772998 0.634408 0
    outer loop
      vertex 44.9038 -25.4038 11.5
      vertex 44.0954 -26.3888 4.5
      vertex 44.0954 -26.3888 11.5
    endloop
  endfacet
  facet normal -0.471346 0.881949 0
    outer loop
      vertex 47.0126 -23.9948 4.5
      vertex 45.8888 -24.5954 11.5
      vertex 47.0126 -23.9948 11.5
    endloop
  endfacet
  facet normal -0.471346 0.881949 0
    outer loop
      vertex 45.8888 -24.5954 11.5
      vertex 47.0126 -23.9948 4.5
      vertex 45.8888 -24.5954 4.5
    endloop
  endfacet
  facet normal 0.881949 0.471346 0
    outer loop
      vertex 55.5052 -27.5126 11.5
      vertex 54.9046 -26.3888 4.5
      vertex 54.9046 -26.3888 11.5
    endloop
  endfacet
  facet normal 0.881949 0.471346 0
    outer loop
      vertex 54.9046 -26.3888 4.5
      vertex 55.5052 -27.5126 11.5
      vertex 55.5052 -27.5126 4.5
    endloop
  endfacet
  facet normal 0.956934 0.290306 0
    outer loop
      vertex 55.8751 -28.7319 11.5
      vertex 55.5052 -27.5126 4.5
      vertex 55.5052 -27.5126 11.5
    endloop
  endfacet
  facet normal 0.956934 0.290306 0
    outer loop
      vertex 55.5052 -27.5126 4.5
      vertex 55.8751 -28.7319 11.5
      vertex 55.8751 -28.7319 4.5
    endloop
  endfacet
  facet normal 0.772998 0.634408 0
    outer loop
      vertex 54.9046 -26.3888 11.5
      vertex 54.0962 -25.4038 4.5
      vertex 54.0962 -25.4038 11.5
    endloop
  endfacet
  facet normal 0.772998 0.634408 0
    outer loop
      vertex 54.0962 -25.4038 4.5
      vertex 54.9046 -26.3888 11.5
      vertex 54.9046 -26.3888 4.5
    endloop
  endfacet
  facet normal 0.290306 0.956934 -0
    outer loop
      vertex 51.9874 -23.9948 4.5
      vertex 50.7681 -23.6249 11.5
      vertex 51.9874 -23.9948 11.5
    endloop
  endfacet
  facet normal 0.290306 0.956934 0
    outer loop
      vertex 50.7681 -23.6249 11.5
      vertex 51.9874 -23.9948 4.5
      vertex 50.7681 -23.6249 4.5
    endloop
  endfacet
  facet normal 0.0980195 0.995184 -0
    outer loop
      vertex 50.7681 -23.6249 4.5
      vertex 49.5 -23.5 11.5
      vertex 50.7681 -23.6249 11.5
    endloop
  endfacet
  facet normal 0.0980195 0.995184 0
    outer loop
      vertex 49.5 -23.5 11.5
      vertex 50.7681 -23.6249 4.5
      vertex 49.5 -23.5 4.5
    endloop
  endfacet
  facet normal 0.471346 0.881949 -0
    outer loop
      vertex 53.1112 -24.5954 4.5
      vertex 51.9874 -23.9948 11.5
      vertex 53.1112 -24.5954 11.5
    endloop
  endfacet
  facet normal 0.471346 0.881949 0
    outer loop
      vertex 51.9874 -23.9948 11.5
      vertex 53.1112 -24.5954 4.5
      vertex 51.9874 -23.9948 4.5
    endloop
  endfacet
  facet normal -0.956934 0.290306 0
    outer loop
      vertex 43.1249 -28.7319 4.5
      vertex 43.4948 -27.5126 11.5
      vertex 43.4948 -27.5126 4.5
    endloop
  endfacet
  facet normal -0.956934 0.290306 0
    outer loop
      vertex 43.4948 -27.5126 11.5
      vertex 43.1249 -28.7319 4.5
      vertex 43.1249 -28.7319 11.5
    endloop
  endfacet
  facet normal 0 0 -1
    outer loop
      vertex 50.7472 -30.8334 4.5
      vertex 56 -30 4.5
      vertex 56 -36.9 4.5
    endloop
  endfacet
  facet normal 0 -0 -1
    outer loop
      vertex 50.8858 -30.574 4.5
      vertex 56 -30 4.5
      vertex 50.7472 -30.8334 4.5
    endloop
  endfacet
  facet normal 0 -0 -1
    outer loop
      vertex 51 -30 4.5
      vertex 56 -30 4.5
      vertex 50.9712 -30.2926 4.5
    endloop
  endfacet
  facet normal 0 0 -1
    outer loop
      vertex 50.9712 -29.7074 4.5
      vertex 55.8751 -28.7319 4.5
      vertex 51 -30 4.5
    endloop
  endfacet
  facet normal 0 0 -1
    outer loop
      vertex 50.8858 -29.426 4.5
      vertex 55.5052 -27.5126 4.5
      vertex 50.9712 -29.7074 4.5
    endloop
  endfacet
  facet normal -0 0 -1
    outer loop
      vertex 55.5052 -27.5126 4.5
      vertex 50.8858 -29.426 4.5
      vertex 54.9046 -26.3888 4.5
    endloop
  endfacet
  facet normal 0 0 -1
    outer loop
      vertex 50.7472 -29.1666 4.5
      vertex 54.9046 -26.3888 4.5
      vertex 50.8858 -29.426 4.5
    endloop
  endfacet
  facet normal -0 0 -1
    outer loop
      vertex 55.8751 -28.7319 4.5
      vertex 50.9712 -29.7074 4.5
      vertex 55.5052 -27.5126 4.5
    endloop
  endfacet
  facet normal 0 0 -1
    outer loop
      vertex 56 -30 4.5
      vertex 51 -30 4.5
      vertex 55.8751 -28.7319 4.5
    endloop
  endfacet
  facet normal 0 -0 -1
    outer loop
      vertex 50.9712 -30.2926 4.5
      vertex 56 -30 4.5
      vertex 50.8858 -30.574 4.5
    endloop
  endfacet
  facet normal 0 0 -1
    outer loop
      vertex 56 -36.9 4.5
      vertex 50.5607 -31.0607 4.5
      vertex 50.7472 -30.8334 4.5
    endloop
  endfacet
  facet normal 0 0 -1
    outer loop
      vertex 56 -36.9 4.5
      vertex 50.3334 -31.2472 4.5
      vertex 50.5607 -31.0607 4.5
    endloop
  endfacet
  facet normal 0 0 -1
    outer loop
      vertex 49.5 -36.9 4.5
      vertex 50.3334 -31.2472 4.5
      vertex 56 -36.9 4.5
    endloop
  endfacet
  facet normal 0 0 -1
    outer loop
      vertex 50.3334 -31.2472 4.5
      vertex 49.5 -36.9 4.5
      vertex 50.074 -31.3858 4.5
    endloop
  endfacet
  facet normal 0 0 -1
    outer loop
      vertex 50.074 -31.3858 4.5
      vertex 49.5 -36.9 4.5
      vertex 49.7926 -31.4712 4.5
    endloop
  endfacet
  facet normal 0 0 -1
    outer loop
      vertex 49.5 -36.9 4.5
      vertex 49.5 -31.5 4.5
      vertex 49.7926 -31.4712 4.5
    endloop
  endfacet
  facet normal 0 0 -1
    outer loop
      vertex 49.5 -36.9 4.5
      vertex 49.2074 -31.4712 4.5
      vertex 49.5 -31.5 4.5
    endloop
  endfacet
  facet normal 0 0 -1
    outer loop
      vertex 48.1539 -36.7674 4.5
      vertex 49.2074 -31.4712 4.5
      vertex 49.5 -36.9 4.5
    endloop
  endfacet
  facet normal -0 0 -1
    outer loop
      vertex 49.2074 -31.4712 4.5
      vertex 48.1539 -36.7674 4.5
      vertex 48.926 -31.3858 4.5
    endloop
  endfacet
  facet normal 0 0 -1
    outer loop
      vertex 46.8595 -36.3748 4.5
      vertex 48.926 -31.3858 4.5
      vertex 48.1539 -36.7674 4.5
    endloop
  endfacet
  facet normal -0 0 -1
    outer loop
      vertex 48.926 -31.3858 4.5
      vertex 46.8595 -36.3748 4.5
      vertex 48.6666 -31.2472 4.5
    endloop
  endfacet
  facet normal 0 0 -1
    outer loop
      vertex 45.6666 -35.7371 4.5
      vertex 48.6666 -31.2472 4.5
      vertex 46.8595 -36.3748 4.5
    endloop
  endfacet
  facet normal -0 0 -1
    outer loop
      vertex 48.6666 -31.2472 4.5
      vertex 45.6666 -35.7371 4.5
      vertex 48.4393 -31.0607 4.5
    endloop
  endfacet
  facet normal 0 0 -1
    outer loop
      vertex 44.621 -34.879 4.5
      vertex 48.4393 -31.0607 4.5
      vertex 45.6666 -35.7371 4.5
    endloop
  endfacet
  facet normal -0 0 -1
    outer loop
      vertex 48.4393 -31.0607 4.5
      vertex 44.621 -34.879 4.5
      vertex 48.2528 -30.8334 4.5
    endloop
  endfacet
  facet normal 0 0 -1
    outer loop
      vertex 43.7629 -33.8334 4.5
      vertex 48.2528 -30.8334 4.5
      vertex 44.621 -34.879 4.5
    endloop
  endfacet
  facet normal -0 0 -1
    outer loop
      vertex 48.2528 -30.8334 4.5
      vertex 43.7629 -33.8334 4.5
      vertex 48.1142 -30.574 4.5
    endloop
  endfacet
  facet normal 0 -0 -1
    outer loop
      vertex 43.1249 -28.7319 4.5
      vertex 48 -30 4.5
      vertex 43 -30 4.5
    endloop
  endfacet
  facet normal 0 0 -1
    outer loop
      vertex 43.1252 -32.6405 4.5
      vertex 48.1142 -30.574 4.5
      vertex 43.7629 -33.8334 4.5
    endloop
  endfacet
  facet normal 0 0 -1
    outer loop
      vertex 48 -30 4.5
      vertex 45.8888 -24.5954 4.5
      vertex 47.0126 -23.9948 4.5
    endloop
  endfacet
  facet normal 0 0 -1
    outer loop
      vertex 42.8344 -31.6817 4.5
      vertex 48.1142 -30.574 4.5
      vertex 43.1252 -32.6405 4.5
    endloop
  endfacet
  facet normal 0 0 -1
    outer loop
      vertex 48 -30 4.5
      vertex 44.9038 -25.4038 4.5
      vertex 45.8888 -24.5954 4.5
    endloop
  endfacet
  facet normal -0 0 -1
    outer loop
      vertex 48.1142 -30.574 4.5
      vertex 42.8344 -31.6817 4.5
      vertex 48.0288 -30.2926 4.5
    endloop
  endfacet
  facet normal 0 0 -1
    outer loop
      vertex 48 -30 4.5
      vertex 44.0954 -26.3888 4.5
      vertex 44.9038 -25.4038 4.5
    endloop
  endfacet
  facet normal 0 -0 -1
    outer loop
      vertex 43 -30 4.5
      vertex 48.0288 -30.2926 4.5
      vertex 42.8344 -31.6817 4.5
    endloop
  endfacet
  facet normal 0 0 -1
    outer loop
      vertex 48 -30 4.5
      vertex 43.4948 -27.5126 4.5
      vertex 44.0954 -26.3888 4.5
    endloop
  endfacet
  facet normal 0 0 -1
    outer loop
      vertex 48 -30 4.5
      vertex 43.1249 -28.7319 4.5
      vertex 43.4948 -27.5126 4.5
    endloop
  endfacet
  facet normal 0 0 -1
    outer loop
      vertex 48.0288 -30.2926 4.5
      vertex 43 -30 4.5
      vertex 48 -30 4.5
    endloop
  endfacet
  facet normal -0 0 -1
    outer loop
      vertex 54.9046 -26.3888 4.5
      vertex 50.7472 -29.1666 4.5
      vertex 54.0962 -25.4038 4.5
    endloop
  endfacet
  facet normal 0 0 -1
    outer loop
      vertex 50.5607 -28.9393 4.5
      vertex 54.0962 -25.4038 4.5
      vertex 50.7472 -29.1666 4.5
    endloop
  endfacet
  facet normal -0 0 -1
    outer loop
      vertex 54.0962 -25.4038 4.5
      vertex 50.5607 -28.9393 4.5
      vertex 53.1112 -24.5954 4.5
    endloop
  endfacet
  facet normal 0 0 -1
    outer loop
      vertex 50.3334 -28.7528 4.5
      vertex 53.1112 -24.5954 4.5
      vertex 50.5607 -28.9393 4.5
    endloop
  endfacet
  facet normal -0 0 -1
    outer loop
      vertex 53.1112 -24.5954 4.5
      vertex 50.3334 -28.7528 4.5
      vertex 51.9874 -23.9948 4.5
    endloop
  endfacet
  facet normal 0 0 -1
    outer loop
      vertex 50.074 -28.6142 4.5
      vertex 51.9874 -23.9948 4.5
      vertex 50.3334 -28.7528 4.5
    endloop
  endfacet
  facet normal -0 0 -1
    outer loop
      vertex 51.9874 -23.9948 4.5
      vertex 50.074 -28.6142 4.5
      vertex 50.7681 -23.6249 4.5
    endloop
  endfacet
  facet normal 0 0 -1
    outer loop
      vertex 49.7926 -28.5288 4.5
      vertex 50.7681 -23.6249 4.5
      vertex 50.074 -28.6142 4.5
    endloop
  endfacet
  facet normal 0 0 -1
    outer loop
      vertex 49.5 -28.5 4.5
      vertex 50.7681 -23.6249 4.5
      vertex 49.7926 -28.5288 4.5
    endloop
  endfacet
  facet normal 0 0 -1
    outer loop
      vertex 49.5 -28.5 4.5
      vertex 49.5 -23.5 4.5
      vertex 50.7681 -23.6249 4.5
    endloop
  endfacet
  facet normal 0 0 -1
    outer loop
      vertex 49.2074 -28.5288 4.5
      vertex 49.5 -23.5 4.5
      vertex 49.5 -28.5 4.5
    endloop
  endfacet
  facet normal 0 0 -1
    outer loop
      vertex 48.2319 -23.6249 4.5
      vertex 49.2074 -28.5288 4.5
      vertex 48.926 -28.6142 4.5
    endloop
  endfacet
  facet normal 0 0 -1
    outer loop
      vertex 47.0126 -23.9948 4.5
      vertex 48.926 -28.6142 4.5
      vertex 48.6666 -28.7528 4.5
    endloop
  endfacet
  facet normal 0 0 -1
    outer loop
      vertex 47.0126 -23.9948 4.5
      vertex 48.6666 -28.7528 4.5
      vertex 48.4393 -28.9393 4.5
    endloop
  endfacet
  facet normal 0 0 -1
    outer loop
      vertex 47.0126 -23.9948 4.5
      vertex 48.4393 -28.9393 4.5
      vertex 48.2528 -29.1666 4.5
    endloop
  endfacet
  facet normal 0 0 -1
    outer loop
      vertex 49.2074 -28.5288 4.5
      vertex 48.2319 -23.6249 4.5
      vertex 49.5 -23.5 4.5
    endloop
  endfacet
  facet normal 0 0 -1
    outer loop
      vertex 47.0126 -23.9948 4.5
      vertex 48.2528 -29.1666 4.5
      vertex 48.1142 -29.426 4.5
    endloop
  endfacet
  facet normal 0 0 -1
    outer loop
      vertex 47.0126 -23.9948 4.5
      vertex 48.1142 -29.426 4.5
      vertex 48.0288 -29.7074 4.5
    endloop
  endfacet
  facet normal 0 0 -1
    outer loop
      vertex 47.0126 -23.9948 4.5
      vertex 48.0288 -29.7074 4.5
      vertex 48 -30 4.5
    endloop
  endfacet
  facet normal 0 0 -1
    outer loop
      vertex 48.926 -28.6142 4.5
      vertex 47.0126 -23.9948 4.5
      vertex 48.2319 -23.6249 4.5
    endloop
  endfacet
  facet normal -0.881949 0.471346 0
    outer loop
      vertex 43.4948 -27.5126 4.5
      vertex 44.0954 -26.3888 11.5
      vertex 44.0954 -26.3888 4.5
    endloop
  endfacet
  facet normal -0.881949 0.471346 0
    outer loop
      vertex 44.0954 -26.3888 11.5
      vertex 43.4948 -27.5126 4.5
      vertex 43.4948 -27.5126 11.5
    endloop
  endfacet
  facet normal -0.995184 0.0980195 0
    outer loop
      vertex 43 -30 4.5
      vertex 43.1249 -28.7319 11.5
      vertex 43.1249 -28.7319 4.5
    endloop
  endfacet
  facet normal -0.995184 0.0980195 0
    outer loop
      vertex 43.1249 -28.7319 11.5
      vertex 43 -30 4.5
      vertex 43 -30 11.5
    endloop
  endfacet
  facet normal 0 0 1
    outer loop
      vertex 55.8751 -28.7319 11.5
      vertex 50.9712 -29.7074 11.5
      vertex 51 -30 11.5
    endloop
  endfacet
  facet normal 0 0 1
    outer loop
      vertex 53.1112 -24.5954 11.5
      vertex 50.8858 -29.426 11.5
      vertex 50.9712 -29.7074 11.5
    endloop
  endfacet
  facet normal 0 0 1
    outer loop
      vertex 50.074 -28.6142 11.5
      vertex 51.9874 -23.9948 11.5
      vertex 50.7681 -23.6249 11.5
    endloop
  endfacet
  facet normal 0 0 1
    outer loop
      vertex 53.1112 -24.5954 11.5
      vertex 50.7472 -29.1666 11.5
      vertex 50.8858 -29.426 11.5
    endloop
  endfacet
  facet normal 0 0 1
    outer loop
      vertex 53.1112 -24.5954 11.5
      vertex 50.5607 -28.9393 11.5
      vertex 50.7472 -29.1666 11.5
    endloop
  endfacet
  facet normal 0 0 1
    outer loop
      vertex 53.1112 -24.5954 11.5
      vertex 50.3334 -28.7528 11.5
      vertex 50.5607 -28.9393 11.5
    endloop
  endfacet
  facet normal 0 0 1
    outer loop
      vertex 51.9874 -23.9948 11.5
      vertex 50.074 -28.6142 11.5
      vertex 50.3334 -28.7528 11.5
    endloop
  endfacet
  facet normal 0 0 1
    outer loop
      vertex 50.7681 -23.6249 11.5
      vertex 49.7926 -28.5288 11.5
      vertex 50.074 -28.6142 11.5
    endloop
  endfacet
  facet normal 0 0 1
    outer loop
      vertex 49.5 -23.5 11.5
      vertex 49.7926 -28.5288 11.5
      vertex 50.7681 -23.6249 11.5
    endloop
  endfacet
  facet normal 0 0 1
    outer loop
      vertex 49.5 -23.5 11.5
      vertex 49.5 -28.5 11.5
      vertex 49.7926 -28.5288 11.5
    endloop
  endfacet
  facet normal 0 0 1
    outer loop
      vertex 49.5 -23.5 11.5
      vertex 49.2074 -28.5288 11.5
      vertex 49.5 -28.5 11.5
    endloop
  endfacet
  facet normal -0 0 1
    outer loop
      vertex 48.2319 -23.6249 11.5
      vertex 49.2074 -28.5288 11.5
      vertex 49.5 -23.5 11.5
    endloop
  endfacet
  facet normal 0 0 1
    outer loop
      vertex 49.2074 -28.5288 11.5
      vertex 48.2319 -23.6249 11.5
      vertex 48.926 -28.6142 11.5
    endloop
  endfacet
  facet normal -0 0 1
    outer loop
      vertex 47.0126 -23.9948 11.5
      vertex 48.926 -28.6142 11.5
      vertex 48.2319 -23.6249 11.5
    endloop
  endfacet
  facet normal 0 0 1
    outer loop
      vertex 48.926 -28.6142 11.5
      vertex 47.0126 -23.9948 11.5
      vertex 48.6666 -28.7528 11.5
    endloop
  endfacet
  facet normal -0 0 1
    outer loop
      vertex 45.8888 -24.5954 11.5
      vertex 48.6666 -28.7528 11.5
      vertex 47.0126 -23.9948 11.5
    endloop
  endfacet
  facet normal 0 0 1
    outer loop
      vertex 48.6666 -28.7528 11.5
      vertex 45.8888 -24.5954 11.5
      vertex 48.4393 -28.9393 11.5
    endloop
  endfacet
  facet normal -0 0 1
    outer loop
      vertex 44.9038 -25.4038 11.5
      vertex 48.4393 -28.9393 11.5
      vertex 45.8888 -24.5954 11.5
    endloop
  endfacet
  facet normal 0 0 1
    outer loop
      vertex 48.4393 -28.9393 11.5
      vertex 44.9038 -25.4038 11.5
      vertex 48.2528 -29.1666 11.5
    endloop
  endfacet
  facet normal -0 0 1
    outer loop
      vertex 44.0954 -26.3888 11.5
      vertex 48.2528 -29.1666 11.5
      vertex 44.9038 -25.4038 11.5
    endloop
  endfacet
  facet normal 0 0 1
    outer loop
      vertex 51 -30 11.5
      vertex 56 -30 11.5
      vertex 55.8751 -28.7319 11.5
    endloop
  endfacet
  facet normal 0 0 1
    outer loop
      vertex 50.9712 -29.7074 11.5
      vertex 55.8751 -28.7319 11.5
      vertex 55.5052 -27.5126 11.5
    endloop
  endfacet
  facet normal 0 0 1
    outer loop
      vertex 50.9712 -29.7074 11.5
      vertex 55.5052 -27.5126 11.5
      vertex 54.9046 -26.3888 11.5
    endloop
  endfacet
  facet normal 0 0 1
    outer loop
      vertex 50.9712 -29.7074 11.5
      vertex 54.9046 -26.3888 11.5
      vertex 54.0962 -25.4038 11.5
    endloop
  endfacet
  facet normal 0 0 1
    outer loop
      vertex 50.9712 -29.7074 11.5
      vertex 54.0962 -25.4038 11.5
      vertex 53.1112 -24.5954 11.5
    endloop
  endfacet
  facet normal 0 0 1
    outer loop
      vertex 50.3334 -28.7528 11.5
      vertex 53.1112 -24.5954 11.5
      vertex 51.9874 -23.9948 11.5
    endloop
  endfacet
  facet normal 0 0 1
    outer loop
      vertex 56 -30 11.5
      vertex 51 -30 11.5
      vertex 50.9712 -30.2926 11.5
    endloop
  endfacet
  facet normal 0 0 1
    outer loop
      vertex 56 -30 11.5
      vertex 50.9712 -30.2926 11.5
      vertex 50.8858 -30.574 11.5
    endloop
  endfacet
  facet normal 0 0 1
    outer loop
      vertex 56 -30 11.5
      vertex 50.8858 -30.574 11.5
      vertex 50.7472 -30.8334 11.5
    endloop
  endfacet
  facet normal 0 0 1
    outer loop
      vertex 56 -30 11.5
      vertex 50.7472 -30.8334 11.5
      vertex 56 -36.9 11.5
    endloop
  endfacet
  facet normal -0 0 1
    outer loop
      vertex 50.5607 -31.0607 11.5
      vertex 56 -36.9 11.5
      vertex 50.7472 -30.8334 11.5
    endloop
  endfacet
  facet normal -0 0 1
    outer loop
      vertex 50.3334 -31.2472 11.5
      vertex 56 -36.9 11.5
      vertex 50.5607 -31.0607 11.5
    endloop
  endfacet
  facet normal 0 0 1
    outer loop
      vertex 49.5 -36.9 11.5
      vertex 50.3334 -31.2472 11.5
      vertex 50.074 -31.3858 11.5
    endloop
  endfacet
  facet normal 0 0 1
    outer loop
      vertex 49.5 -36.9 11.5
      vertex 50.074 -31.3858 11.5
      vertex 49.7926 -31.4712 11.5
    endloop
  endfacet
  facet normal 0 0 1
    outer loop
      vertex 49.5 -36.9 11.5
      vertex 49.7926 -31.4712 11.5
      vertex 49.5 -31.5 11.5
    endloop
  endfacet
  facet normal 0 0 1
    outer loop
      vertex 50.3334 -31.2472 11.5
      vertex 49.5 -36.9 11.5
      vertex 56 -36.9 11.5
    endloop
  endfacet
  facet normal 0 0 1
    outer loop
      vertex 49.2074 -31.4712 11.5
      vertex 49.5 -36.9 11.5
      vertex 49.5 -31.5 11.5
    endloop
  endfacet
  facet normal 0 0 1
    outer loop
      vertex 48.1539 -36.7674 11.5
      vertex 49.2074 -31.4712 11.5
      vertex 48.926 -31.3858 11.5
    endloop
  endfacet
  facet normal 0 0 1
    outer loop
      vertex 46.8595 -36.3748 11.5
      vertex 48.926 -31.3858 11.5
      vertex 48.6666 -31.2472 11.5
    endloop
  endfacet
  facet normal 0 0 1
    outer loop
      vertex 45.6666 -35.7371 11.5
      vertex 48.6666 -31.2472 11.5
      vertex 48.4393 -31.0607 11.5
    endloop
  endfacet
  facet normal 0 0 1
    outer loop
      vertex 44.621 -34.879 11.5
      vertex 48.4393 -31.0607 11.5
      vertex 48.2528 -30.8334 11.5
    endloop
  endfacet
  facet normal 0 0 1
    outer loop
      vertex 49.2074 -31.4712 11.5
      vertex 48.1539 -36.7674 11.5
      vertex 49.5 -36.9 11.5
    endloop
  endfacet
  facet normal 0 0 1
    outer loop
      vertex 43.7629 -33.8334 11.5
      vertex 48.2528 -30.8334 11.5
      vertex 48.1142 -30.574 11.5
    endloop
  endfacet
  facet normal 0 0 1
    outer loop
      vertex 42.8344 -31.6817 11.5
      vertex 48.1142 -30.574 11.5
      vertex 48.0288 -30.2926 11.5
    endloop
  endfacet
  facet normal -0 0 1
    outer loop
      vertex 43 -30 11.5
      vertex 48.0288 -30.2926 11.5
      vertex 48 -30 11.5
    endloop
  endfacet
  facet normal 0 0 1
    outer loop
      vertex 48.2528 -29.1666 11.5
      vertex 44.0954 -26.3888 11.5
      vertex 48.1142 -29.426 11.5
    endloop
  endfacet
  facet normal 0 0 1
    outer loop
      vertex 48.0288 -30.2926 11.5
      vertex 43 -30 11.5
      vertex 42.8344 -31.6817 11.5
    endloop
  endfacet
  facet normal -0 0 1
    outer loop
      vertex 43.4948 -27.5126 11.5
      vertex 48.1142 -29.426 11.5
      vertex 44.0954 -26.3888 11.5
    endloop
  endfacet
  facet normal 0 0 1
    outer loop
      vertex 48.926 -31.3858 11.5
      vertex 46.8595 -36.3748 11.5
      vertex 48.1539 -36.7674 11.5
    endloop
  endfacet
  facet normal 0 0 1
    outer loop
      vertex 48.1142 -29.426 11.5
      vertex 43.4948 -27.5126 11.5
      vertex 48.0288 -29.7074 11.5
    endloop
  endfacet
  facet normal 0 0 1
    outer loop
      vertex 48.6666 -31.2472 11.5
      vertex 45.6666 -35.7371 11.5
      vertex 46.8595 -36.3748 11.5
    endloop
  endfacet
  facet normal -0 0 1
    outer loop
      vertex 43.1249 -28.7319 11.5
      vertex 48.0288 -29.7074 11.5
      vertex 43.4948 -27.5126 11.5
    endloop
  endfacet
  facet normal 0 0 1
    outer loop
      vertex 48.4393 -31.0607 11.5
      vertex 44.621 -34.879 11.5
      vertex 45.6666 -35.7371 11.5
    endloop
  endfacet
  facet normal 0 0 1
    outer loop
      vertex 48.0288 -29.7074 11.5
      vertex 43.1249 -28.7319 11.5
      vertex 48 -30 11.5
    endloop
  endfacet
  facet normal 0 0 1
    outer loop
      vertex 48.2528 -30.8334 11.5
      vertex 43.7629 -33.8334 11.5
      vertex 44.621 -34.879 11.5
    endloop
  endfacet
  facet normal 0 0 1
    outer loop
      vertex 48 -30 11.5
      vertex 43.1249 -28.7319 11.5
      vertex 43 -30 11.5
    endloop
  endfacet
  facet normal 0 0 1
    outer loop
      vertex 48.1142 -30.574 11.5
      vertex 43.1252 -32.6405 11.5
      vertex 43.7629 -33.8334 11.5
    endloop
  endfacet
  facet normal 0 0 1
    outer loop
      vertex 48.1142 -30.574 11.5
      vertex 42.8344 -31.6817 11.5
      vertex 43.1252 -32.6405 11.5
    endloop
  endfacet
  facet normal -0.634408 0.772998 0
    outer loop
      vertex 45.8888 -24.5954 4.5
      vertex 44.9038 -25.4038 11.5
      vertex 45.8888 -24.5954 11.5
    endloop
  endfacet
  facet normal -0.634408 0.772998 0
    outer loop
      vertex 44.9038 -25.4038 11.5
      vertex 45.8888 -24.5954 4.5
      vertex 44.9038 -25.4038 4.5
    endloop
  endfacet
  facet normal -0.290306 0.956934 0
    outer loop
      vertex 48.2319 -23.6249 4.5
      vertex 47.0126 -23.9948 11.5
      vertex 48.2319 -23.6249 11.5
    endloop
  endfacet
  facet normal -0.290306 0.956934 0
    outer loop
      vertex 47.0126 -23.9948 11.5
      vertex 48.2319 -23.6249 4.5
      vertex 47.0126 -23.9948 4.5
    endloop
  endfacet
  facet normal 0 1 -0
    outer loop
      vertex 56 -36.9 0
      vertex 49.5 -36.9 4.5
      vertex 56 -36.9 4.5
    endloop
  endfacet
  facet normal 0 1 0
    outer loop
      vertex 49.5 -36.9 4.5
      vertex 56 -36.9 0
      vertex 49.5 -36.9 0
    endloop
  endfacet
  facet normal 0.773011 0.634393 0
    outer loop
      vertex 44.621 -34.879 4.5
      vertex 43.7629 -33.8334 0
      vertex 43.7629 -33.8334 4.5
    endloop
  endfacet
  facet normal 0.773011 0.634393 0
    outer loop
      vertex 43.7629 -33.8334 0
      vertex 44.621 -34.879 4.5
      vertex 44.621 -34.879 0
    endloop
  endfacet
  facet normal 0.881896 0.471444 0
    outer loop
      vertex 43.7629 -33.8334 4.5
      vertex 43.1252 -32.6405 0
      vertex 43.1252 -32.6405 4.5
    endloop
  endfacet
  facet normal 0.881896 0.471444 0
    outer loop
      vertex 43.1252 -32.6405 0
      vertex 43.7629 -33.8334 4.5
      vertex 43.7629 -33.8334 0
    endloop
  endfacet
  facet normal 0.29025 0.956951 -0
    outer loop
      vertex 48.1539 -36.7674 0
      vertex 46.8595 -36.3748 4.5
      vertex 48.1539 -36.7674 4.5
    endloop
  endfacet
  facet normal 0.29025 0.956951 0
    outer loop
      vertex 46.8595 -36.3748 4.5
      vertex 48.1539 -36.7674 0
      vertex 46.8595 -36.3748 0
    endloop
  endfacet
  facet normal 0.0980323 0.995183 -0
    outer loop
      vertex 49.5 -36.9 0
      vertex 48.1539 -36.7674 4.5
      vertex 49.5 -36.9 4.5
    endloop
  endfacet
  facet normal 0.0980323 0.995183 0
    outer loop
      vertex 48.1539 -36.7674 4.5
      vertex 49.5 -36.9 0
      vertex 48.1539 -36.7674 0
    endloop
  endfacet
  facet normal 0.634393 0.773011 -0
    outer loop
      vertex 45.6666 -35.7371 0
      vertex 44.621 -34.879 4.5
      vertex 45.6666 -35.7371 4.5
    endloop
  endfacet
  facet normal 0.634393 0.773011 0
    outer loop
      vertex 44.621 -34.879 4.5
      vertex 45.6666 -35.7371 0
      vertex 44.621 -34.879 0
    endloop
  endfacet
  facet normal 0.956954 0.29024 0
    outer loop
      vertex 43.1252 -32.6405 4.5
      vertex 42.8344 -31.6817 0
      vertex 42.8344 -31.6817 4.5
    endloop
  endfacet
  facet normal 0.956954 0.29024 0
    outer loop
      vertex 42.8344 -31.6817 0
      vertex 43.1252 -32.6405 4.5
      vertex 43.1252 -32.6405 0
    endloop
  endfacet
  facet normal 0.471444 0.881896 -0
    outer loop
      vertex 46.8595 -36.3748 0
      vertex 45.6666 -35.7371 4.5
      vertex 46.8595 -36.3748 4.5
    endloop
  endfacet
  facet normal 0.471444 0.881896 0
    outer loop
      vertex 45.6666 -35.7371 4.5
      vertex 46.8595 -36.3748 0
      vertex 45.6666 -35.7371 0
    endloop
  endfacet
  facet normal 0.881896 0.471444 0
    outer loop
      vertex 43.7629 -33.8334 16
      vertex 43.1252 -32.6405 11.5
      vertex 43.1252 -32.6405 16
    endloop
  endfacet
  facet normal 0.881896 0.471444 0
    outer loop
      vertex 43.1252 -32.6405 11.5
      vertex 43.7629 -33.8334 16
      vertex 43.7629 -33.8334 11.5
    endloop
  endfacet
  facet normal 0 1 -0
    outer loop
      vertex 56 -36.9 11.5
      vertex 49.5 -36.9 16
      vertex 56 -36.9 16
    endloop
  endfacet
  facet normal 0 1 0
    outer loop
      vertex 49.5 -36.9 16
      vertex 56 -36.9 11.5
      vertex 49.5 -36.9 11.5
    endloop
  endfacet
  facet normal 0.29025 0.956951 -0
    outer loop
      vertex 48.1539 -36.7674 11.5
      vertex 46.8595 -36.3748 16
      vertex 48.1539 -36.7674 16
    endloop
  endfacet
  facet normal 0.29025 0.956951 0
    outer loop
      vertex 46.8595 -36.3748 16
      vertex 48.1539 -36.7674 11.5
      vertex 46.8595 -36.3748 11.5
    endloop
  endfacet
  facet normal 0.0980323 0.995183 -0
    outer loop
      vertex 49.5 -36.9 11.5
      vertex 48.1539 -36.7674 16
      vertex 49.5 -36.9 16
    endloop
  endfacet
  facet normal 0.0980323 0.995183 0
    outer loop
      vertex 48.1539 -36.7674 16
      vertex 49.5 -36.9 11.5
      vertex 48.1539 -36.7674 11.5
    endloop
  endfacet
  facet normal 0.773011 0.634393 0
    outer loop
      vertex 44.621 -34.879 16
      vertex 43.7629 -33.8334 11.5
      vertex 43.7629 -33.8334 16
    endloop
  endfacet
  facet normal 0.773011 0.634393 0
    outer loop
      vertex 43.7629 -33.8334 11.5
      vertex 44.621 -34.879 16
      vertex 44.621 -34.879 11.5
    endloop
  endfacet
  facet normal 0.471444 0.881896 -0
    outer loop
      vertex 46.8595 -36.3748 11.5
      vertex 45.6666 -35.7371 16
      vertex 46.8595 -36.3748 16
    endloop
  endfacet
  facet normal 0.471444 0.881896 0
    outer loop
      vertex 45.6666 -35.7371 16
      vertex 46.8595 -36.3748 11.5
      vertex 45.6666 -35.7371 11.5
    endloop
  endfacet
  facet normal 0.634393 0.773011 -0
    outer loop
      vertex 45.6666 -35.7371 11.5
      vertex 44.621 -34.879 16
      vertex 45.6666 -35.7371 16
    endloop
  endfacet
  facet normal 0.634393 0.773011 0
    outer loop
      vertex 44.621 -34.879 16
      vertex 45.6666 -35.7371 11.5
      vertex 44.621 -34.879 11.5
    endloop
  endfacet
  facet normal 0.956954 0.29024 0
    outer loop
      vertex 43.1252 -32.6405 16
      vertex 42.8344 -31.6817 11.5
      vertex 42.8344 -31.6817 16
    endloop
  endfacet
  facet normal 0.956954 0.29024 0
    outer loop
      vertex 42.8344 -31.6817 11.5
      vertex 43.1252 -32.6405 16
      vertex 43.1252 -32.6405 11.5
    endloop
  endfacet
  facet normal -0.995191 -0.0979545 0
    outer loop
      vertex 51 -30 4.5
      vertex 50.9712 -29.7074 11.5
      vertex 50.9712 -29.7074 4.5
    endloop
  endfacet
  facet normal -0.995191 -0.0979545 0
    outer loop
      vertex 50.9712 -29.7074 11.5
      vertex 51 -30 4.5
      vertex 51 -30 11.5
    endloop
  endfacet
  facet normal 0.0979545 -0.995191 0
    outer loop
      vertex 49.2074 -28.5288 4.5
      vertex 49.5 -28.5 11.5
      vertex 49.2074 -28.5288 11.5
    endloop
  endfacet
  facet normal 0.0979545 -0.995191 0
    outer loop
      vertex 49.5 -28.5 11.5
      vertex 49.2074 -28.5288 4.5
      vertex 49.5 -28.5 4.5
    endloop
  endfacet
  facet normal -0.0979545 0.995191 0
    outer loop
      vertex 49.7926 -31.4712 4.5
      vertex 49.5 -31.5 11.5
      vertex 49.7926 -31.4712 11.5
    endloop
  endfacet
  facet normal -0.0979545 0.995191 0
    outer loop
      vertex 49.5 -31.5 11.5
      vertex 49.7926 -31.4712 4.5
      vertex 49.5 -31.5 4.5
    endloop
  endfacet
  facet normal -0.773078 0.634311 0
    outer loop
      vertex 50.5607 -31.0607 4.5
      vertex 50.7472 -30.8334 11.5
      vertex 50.7472 -30.8334 4.5
    endloop
  endfacet
  facet normal -0.773078 0.634311 0
    outer loop
      vertex 50.7472 -30.8334 11.5
      vertex 50.5607 -31.0607 4.5
      vertex 50.5607 -31.0607 11.5
    endloop
  endfacet
  facet normal -0.634311 -0.773078 0
    outer loop
      vertex 50.3334 -28.7528 4.5
      vertex 50.5607 -28.9393 11.5
      vertex 50.3334 -28.7528 11.5
    endloop
  endfacet
  facet normal -0.634311 -0.773078 -0
    outer loop
      vertex 50.5607 -28.9393 11.5
      vertex 50.3334 -28.7528 4.5
      vertex 50.5607 -28.9393 4.5
    endloop
  endfacet
  facet normal 0.773078 -0.634311 0
    outer loop
      vertex 48.2528 -29.1666 11.5
      vertex 48.4393 -28.9393 4.5
      vertex 48.4393 -28.9393 11.5
    endloop
  endfacet
  facet normal 0.773078 -0.634311 0
    outer loop
      vertex 48.4393 -28.9393 4.5
      vertex 48.2528 -29.1666 11.5
      vertex 48.2528 -29.1666 4.5
    endloop
  endfacet
  facet normal 0.471259 -0.881995 0
    outer loop
      vertex 48.6666 -28.7528 4.5
      vertex 48.926 -28.6142 11.5
      vertex 48.6666 -28.7528 11.5
    endloop
  endfacet
  facet normal 0.471259 -0.881995 0
    outer loop
      vertex 48.926 -28.6142 11.5
      vertex 48.6666 -28.7528 4.5
      vertex 48.926 -28.6142 4.5
    endloop
  endfacet
  facet normal -0.881995 -0.471259 0
    outer loop
      vertex 50.8858 -29.426 4.5
      vertex 50.7472 -29.1666 11.5
      vertex 50.7472 -29.1666 4.5
    endloop
  endfacet
  facet normal -0.881995 -0.471259 0
    outer loop
      vertex 50.7472 -29.1666 11.5
      vertex 50.8858 -29.426 4.5
      vertex 50.8858 -29.426 11.5
    endloop
  endfacet
  facet normal -0.956904 -0.290404 0
    outer loop
      vertex 50.9712 -29.7074 4.5
      vertex 50.8858 -29.426 11.5
      vertex 50.8858 -29.426 4.5
    endloop
  endfacet
  facet normal -0.956904 -0.290404 0
    outer loop
      vertex 50.8858 -29.426 11.5
      vertex 50.9712 -29.7074 4.5
      vertex 50.9712 -29.7074 11.5
    endloop
  endfacet
  facet normal -0.773078 -0.634311 0
    outer loop
      vertex 50.7472 -29.1666 4.5
      vertex 50.5607 -28.9393 11.5
      vertex 50.5607 -28.9393 4.5
    endloop
  endfacet
  facet normal -0.773078 -0.634311 0
    outer loop
      vertex 50.5607 -28.9393 11.5
      vertex 50.7472 -29.1666 4.5
      vertex 50.7472 -29.1666 11.5
    endloop
  endfacet
  facet normal -0.290404 -0.956904 0
    outer loop
      vertex 49.7926 -28.5288 4.5
      vertex 50.074 -28.6142 11.5
      vertex 49.7926 -28.5288 11.5
    endloop
  endfacet
  facet normal -0.290404 -0.956904 -0
    outer loop
      vertex 50.074 -28.6142 11.5
      vertex 49.7926 -28.5288 4.5
      vertex 50.074 -28.6142 4.5
    endloop
  endfacet
  facet normal -0.0979545 -0.995191 0
    outer loop
      vertex 49.5 -28.5 4.5
      vertex 49.7926 -28.5288 11.5
      vertex 49.5 -28.5 11.5
    endloop
  endfacet
  facet normal -0.0979545 -0.995191 -0
    outer loop
      vertex 49.7926 -28.5288 11.5
      vertex 49.5 -28.5 4.5
      vertex 49.7926 -28.5288 4.5
    endloop
  endfacet
  facet normal -0.471259 -0.881995 0
    outer loop
      vertex 50.074 -28.6142 4.5
      vertex 50.3334 -28.7528 11.5
      vertex 50.074 -28.6142 11.5
    endloop
  endfacet
  facet normal -0.471259 -0.881995 -0
    outer loop
      vertex 50.3334 -28.7528 11.5
      vertex 50.074 -28.6142 4.5
      vertex 50.3334 -28.7528 4.5
    endloop
  endfacet
  facet normal 0.956904 -0.290404 0
    outer loop
      vertex 48.0288 -29.7074 11.5
      vertex 48.1142 -29.426 4.5
      vertex 48.1142 -29.426 11.5
    endloop
  endfacet
  facet normal 0.956904 -0.290404 0
    outer loop
      vertex 48.1142 -29.426 4.5
      vertex 48.0288 -29.7074 11.5
      vertex 48.0288 -29.7074 4.5
    endloop
  endfacet
  facet normal 0.881995 -0.471259 0
    outer loop
      vertex 48.1142 -29.426 11.5
      vertex 48.2528 -29.1666 4.5
      vertex 48.2528 -29.1666 11.5
    endloop
  endfacet
  facet normal 0.881995 -0.471259 0
    outer loop
      vertex 48.2528 -29.1666 4.5
      vertex 48.1142 -29.426 11.5
      vertex 48.1142 -29.426 4.5
    endloop
  endfacet
  facet normal 0.995191 -0.0979545 0
    outer loop
      vertex 48 -30 11.5
      vertex 48.0288 -29.7074 4.5
      vertex 48.0288 -29.7074 11.5
    endloop
  endfacet
  facet normal 0.995191 -0.0979545 0
    outer loop
      vertex 48.0288 -29.7074 4.5
      vertex 48 -30 11.5
      vertex 48 -30 4.5
    endloop
  endfacet
  facet normal 0.634311 -0.773078 0
    outer loop
      vertex 48.4393 -28.9393 4.5
      vertex 48.6666 -28.7528 11.5
      vertex 48.4393 -28.9393 11.5
    endloop
  endfacet
  facet normal 0.634311 -0.773078 0
    outer loop
      vertex 48.6666 -28.7528 11.5
      vertex 48.4393 -28.9393 4.5
      vertex 48.6666 -28.7528 4.5
    endloop
  endfacet
  facet normal 0.290404 -0.956904 0
    outer loop
      vertex 48.926 -28.6142 4.5
      vertex 49.2074 -28.5288 11.5
      vertex 48.926 -28.6142 11.5
    endloop
  endfacet
  facet normal 0.290404 -0.956904 0
    outer loop
      vertex 49.2074 -28.5288 11.5
      vertex 48.926 -28.6142 4.5
      vertex 49.2074 -28.5288 4.5
    endloop
  endfacet
  facet normal -0.995191 0.0979545 0
    outer loop
      vertex 50.9712 -30.2926 4.5
      vertex 51 -30 11.5
      vertex 51 -30 4.5
    endloop
  endfacet
  facet normal -0.995191 0.0979545 0
    outer loop
      vertex 51 -30 11.5
      vertex 50.9712 -30.2926 4.5
      vertex 50.9712 -30.2926 11.5
    endloop
  endfacet
  facet normal -0.290404 0.956904 0
    outer loop
      vertex 50.074 -31.3858 4.5
      vertex 49.7926 -31.4712 11.5
      vertex 50.074 -31.3858 11.5
    endloop
  endfacet
  facet normal -0.290404 0.956904 0
    outer loop
      vertex 49.7926 -31.4712 11.5
      vertex 50.074 -31.3858 4.5
      vertex 49.7926 -31.4712 4.5
    endloop
  endfacet
  facet normal 0.995191 0.0979545 0
    outer loop
      vertex 48.0288 -30.2926 11.5
      vertex 48 -30 4.5
      vertex 48 -30 11.5
    endloop
  endfacet
  facet normal 0.995191 0.0979545 0
    outer loop
      vertex 48 -30 4.5
      vertex 48.0288 -30.2926 11.5
      vertex 48.0288 -30.2926 4.5
    endloop
  endfacet
  facet normal -0.881995 0.471259 0
    outer loop
      vertex 50.7472 -30.8334 4.5
      vertex 50.8858 -30.574 11.5
      vertex 50.8858 -30.574 4.5
    endloop
  endfacet
  facet normal -0.881995 0.471259 0
    outer loop
      vertex 50.8858 -30.574 11.5
      vertex 50.7472 -30.8334 4.5
      vertex 50.7472 -30.8334 11.5
    endloop
  endfacet
  facet normal 0.471259 0.881995 -0
    outer loop
      vertex 48.926 -31.3858 4.5
      vertex 48.6666 -31.2472 11.5
      vertex 48.926 -31.3858 11.5
    endloop
  endfacet
  facet normal 0.471259 0.881995 0
    outer loop
      vertex 48.6666 -31.2472 11.5
      vertex 48.926 -31.3858 4.5
      vertex 48.6666 -31.2472 4.5
    endloop
  endfacet
  facet normal 0.773078 0.634311 0
    outer loop
      vertex 48.4393 -31.0607 11.5
      vertex 48.2528 -30.8334 4.5
      vertex 48.2528 -30.8334 11.5
    endloop
  endfacet
  facet normal 0.773078 0.634311 0
    outer loop
      vertex 48.2528 -30.8334 4.5
      vertex 48.4393 -31.0607 11.5
      vertex 48.4393 -31.0607 4.5
    endloop
  endfacet
  facet normal -0.634311 0.773078 0
    outer loop
      vertex 50.5607 -31.0607 4.5
      vertex 50.3334 -31.2472 11.5
      vertex 50.5607 -31.0607 11.5
    endloop
  endfacet
  facet normal -0.634311 0.773078 0
    outer loop
      vertex 50.3334 -31.2472 11.5
      vertex 50.5607 -31.0607 4.5
      vertex 50.3334 -31.2472 4.5
    endloop
  endfacet
  facet normal -0.471259 0.881995 0
    outer loop
      vertex 50.3334 -31.2472 4.5
      vertex 50.074 -31.3858 11.5
      vertex 50.3334 -31.2472 11.5
    endloop
  endfacet
  facet normal -0.471259 0.881995 0
    outer loop
      vertex 50.074 -31.3858 11.5
      vertex 50.3334 -31.2472 4.5
      vertex 50.074 -31.3858 4.5
    endloop
  endfacet
  facet normal -0.956904 0.290404 0
    outer loop
      vertex 50.8858 -30.574 4.5
      vertex 50.9712 -30.2926 11.5
      vertex 50.9712 -30.2926 4.5
    endloop
  endfacet
  facet normal -0.956904 0.290404 0
    outer loop
      vertex 50.9712 -30.2926 11.5
      vertex 50.8858 -30.574 4.5
      vertex 50.8858 -30.574 11.5
    endloop
  endfacet
  facet normal 0.0979545 0.995191 -0
    outer loop
      vertex 49.5 -31.5 4.5
      vertex 49.2074 -31.4712 11.5
      vertex 49.5 -31.5 11.5
    endloop
  endfacet
  facet normal 0.0979545 0.995191 0
    outer loop
      vertex 49.2074 -31.4712 11.5
      vertex 49.5 -31.5 4.5
      vertex 49.2074 -31.4712 4.5
    endloop
  endfacet
  facet normal 0.290404 0.956904 -0
    outer loop
      vertex 49.2074 -31.4712 4.5
      vertex 48.926 -31.3858 11.5
      vertex 49.2074 -31.4712 11.5
    endloop
  endfacet
  facet normal 0.290404 0.956904 0
    outer loop
      vertex 48.926 -31.3858 11.5
      vertex 49.2074 -31.4712 4.5
      vertex 48.926 -31.3858 4.5
    endloop
  endfacet
  facet normal 0.634311 0.773078 -0
    outer loop
      vertex 48.6666 -31.2472 4.5
      vertex 48.4393 -31.0607 11.5
      vertex 48.6666 -31.2472 11.5
    endloop
  endfacet
  facet normal 0.634311 0.773078 0
    outer loop
      vertex 48.4393 -31.0607 11.5
      vertex 48.6666 -31.2472 4.5
      vertex 48.4393 -31.0607 4.5
    endloop
  endfacet
  facet normal 0.881995 0.471259 0
    outer loop
      vertex 48.2528 -30.8334 11.5
      vertex 48.1142 -30.574 4.5
      vertex 48.1142 -30.574 11.5
    endloop
  endfacet
  facet normal 0.881995 0.471259 0
    outer loop
      vertex 48.1142 -30.574 4.5
      vertex 48.2528 -30.8334 11.5
      vertex 48.2528 -30.8334 4.5
    endloop
  endfacet
  facet normal 0.956904 0.290404 0
    outer loop
      vertex 48.1142 -30.574 11.5
      vertex 48.0288 -30.2926 4.5
      vertex 48.0288 -30.2926 11.5
    endloop
  endfacet
  facet normal 0.956904 0.290404 0
    outer loop
      vertex 48.0288 -30.2926 4.5
      vertex 48.1142 -30.574 11.5
      vertex 48.1142 -30.574 4.5
    endloop
  endfacet
  facet normal 0 1 0
    outer loop
      vertex 13.0985 -31 16
      vertex 6.5 -31 10.8
      vertex 0 -31 16
    endloop
  endfacet
  facet normal 0 1 0
    outer loop
      vertex 13.0985 -31 16
      vertex 7.04625 -31 10.7462
      vertex 6.5 -31 10.8
    endloop
  endfacet
  facet normal 0 1 0
    outer loop
      vertex 13.0985 -31 16
      vertex 7.57151 -31 10.5869
      vertex 7.04625 -31 10.7462
    endloop
  endfacet
  facet normal 0 1 0
    outer loop
      vertex 13.0985 -31 16
      vertex 8.0556 -31 10.3281
      vertex 7.57151 -31 10.5869
    endloop
  endfacet
  facet normal 0 1 0
    outer loop
      vertex 13.0985 -31 16
      vertex 8.4799 -31 9.9799
      vertex 8.0556 -31 10.3281
    endloop
  endfacet
  facet normal 0 1 0
    outer loop
      vertex 13.0985 -31 16
      vertex 8.82811 -31 9.5556
      vertex 8.4799 -31 9.9799
    endloop
  endfacet
  facet normal 0 1 0
    outer loop
      vertex 13.0985 -31 16
      vertex 9.08686 -31 9.07151
      vertex 8.82811 -31 9.5556
    endloop
  endfacet
  facet normal 0 1 0
    outer loop
      vertex 13.0985 -31 16
      vertex 9.2462 -31 8.54625
      vertex 9.08686 -31 9.07151
    endloop
  endfacet
  facet normal 0 1 0
    outer loop
      vertex 13.0985 -31 16
      vertex 9.3 -31 8
      vertex 9.2462 -31 8.54625
    endloop
  endfacet
  facet normal 0 1 -0
    outer loop
      vertex 13.0985 -31 0
      vertex 9.3 -31 8
      vertex 13.0985 -31 16
    endloop
  endfacet
  facet normal 0 1 0
    outer loop
      vertex 9.3 -31 8
      vertex 13.0985 -31 0
      vertex 9.2462 -31 7.45375
    endloop
  endfacet
  facet normal 0 1 0
    outer loop
      vertex 9.2462 -31 7.45375
      vertex 13.0985 -31 0
      vertex 9.08686 -31 6.92849
    endloop
  endfacet
  facet normal 0 1 0
    outer loop
      vertex 13.0985 -31 0
      vertex 8.82811 -31 6.4444
      vertex 9.08686 -31 6.92849
    endloop
  endfacet
  facet normal 0 1 0
    outer loop
      vertex 13.0985 -31 0
      vertex 8.4799 -31 6.0201
      vertex 8.82811 -31 6.4444
    endloop
  endfacet
  facet normal 0 1 0
    outer loop
      vertex 13.0985 -31 0
      vertex 8.0556 -31 5.67188
      vertex 8.4799 -31 6.0201
    endloop
  endfacet
  facet normal 0 1 0
    outer loop
      vertex 13.0985 -31 0
      vertex 7.57151 -31 5.41314
      vertex 8.0556 -31 5.67188
    endloop
  endfacet
  facet normal 0 1 0
    outer loop
      vertex 13.0985 -31 0
      vertex 7.04625 -31 5.2538
      vertex 7.57151 -31 5.41314
    endloop
  endfacet
  facet normal 0 1 0
    outer loop
      vertex 13.0985 -31 0
      vertex 6.5 -31 5.2
      vertex 7.04625 -31 5.2538
    endloop
  endfacet
  facet normal 0 1 0
    outer loop
      vertex 0 -31 0
      vertex 6.5 -31 5.2
      vertex 13.0985 -31 0
    endloop
  endfacet
  facet normal 0 1 0
    outer loop
      vertex 6.5 -31 5.2
      vertex 0 -31 0
      vertex 0 -31 5.2
    endloop
  endfacet
  facet normal 0 1 0
    outer loop
      vertex 0 -31 16
      vertex 6.5 -31 10.8
      vertex 0 -31 10.8
    endloop
  endfacet
  facet normal -0.0980086 0.995186 0
    outer loop
      vertex 30.9264 -44.7118 0
      vertex 28 -45 16
      vertex 30.9264 -44.7118 16
    endloop
  endfacet
  facet normal -0.0980086 0.995186 0
    outer loop
      vertex 28 -45 16
      vertex 30.9264 -44.7118 0
      vertex 28 -45 0
    endloop
  endfacet
  facet normal -0.995184 0.0980233 0
    outer loop
      vertex 42.7118 -32.9264 0
      vertex 42.8344 -31.6817 4.5
      vertex 42.8344 -31.6817 0
    endloop
  endfacet
  facet normal -0.995184 0.0980233 0
    outer loop
      vertex 42.8344 -31.6817 4.5
      vertex 42.7118 -32.9264 0
      vertex 42.8344 -31.6817 11.5
    endloop
  endfacet
  facet normal -0.995184 0.0980233 0
    outer loop
      vertex 42.7118 -32.9264 16
      vertex 42.8344 -31.6817 11.5
      vertex 42.7118 -32.9264 0
    endloop
  endfacet
  facet normal -0.995184 0.0980233 0
    outer loop
      vertex 42.8344 -31.6817 11.5
      vertex 42.7118 -32.9264 16
      vertex 42.8344 -31.6817 16
    endloop
  endfacet
  facet normal -0.995187 0.0979978 0
    outer loop
      vertex 42.8344 -31.6817 4.5
      vertex 43 -30 11.5
      vertex 43 -30 4.5
    endloop
  endfacet
  facet normal -0.995187 0.0979978 0
    outer loop
      vertex 43 -30 11.5
      vertex 42.8344 -31.6817 4.5
      vertex 42.8344 -31.6817 11.5
    endloop
  endfacet
  facet normal -0.773011 0.634393 0
    outer loop
      vertex 38.6066 -40.6066 0
      vertex 40.472 -38.3336 16
      vertex 40.472 -38.3336 0
    endloop
  endfacet
  facet normal -0.773011 0.634393 0
    outer loop
      vertex 40.472 -38.3336 16
      vertex 38.6066 -40.6066 0
      vertex 38.6066 -40.6066 16
    endloop
  endfacet
  facet normal 0.995186 0.0979998 0
    outer loop
      vertex 13.2882 -32.9264 16
      vertex 13.0985 -31 0
      vertex 13.0985 -31 16
    endloop
  endfacet
  facet normal 0.995186 0.0979998 0
    outer loop
      vertex 13.0985 -31 0
      vertex 13.2882 -32.9264 16
      vertex 13.2882 -32.9264 0
    endloop
  endfacet
  facet normal -0.881921 0.471396 0
    outer loop
      vertex 40.472 -38.3336 0
      vertex 41.8582 -35.7402 16
      vertex 41.8582 -35.7402 0
    endloop
  endfacet
  facet normal -0.881921 0.471396 0
    outer loop
      vertex 41.8582 -35.7402 16
      vertex 40.472 -38.3336 0
      vertex 40.472 -38.3336 16
    endloop
  endfacet
  facet normal 0.290289 0.956939 -0
    outer loop
      vertex 25.0736 -44.7118 0
      vertex 22.2597 -43.8582 16
      vertex 25.0736 -44.7118 16
    endloop
  endfacet
  facet normal 0.290289 0.956939 0
    outer loop
      vertex 22.2597 -43.8582 16
      vertex 25.0736 -44.7118 0
      vertex 22.2597 -43.8582 0
    endloop
  endfacet
  facet normal 0.773011 0.634393 0
    outer loop
      vertex 17.3934 -40.6066 16
      vertex 15.528 -38.3336 0
      vertex 15.528 -38.3336 16
    endloop
  endfacet
  facet normal 0.773011 0.634393 0
    outer loop
      vertex 15.528 -38.3336 0
      vertex 17.3934 -40.6066 16
      vertex 17.3934 -40.6066 0
    endloop
  endfacet
  facet normal 0.956936 0.290298 0
    outer loop
      vertex 14.1418 -35.7402 16
      vertex 13.2882 -32.9264 0
      vertex 13.2882 -32.9264 16
    endloop
  endfacet
  facet normal 0.956936 0.290298 0
    outer loop
      vertex 13.2882 -32.9264 0
      vertex 14.1418 -35.7402 16
      vertex 14.1418 -35.7402 0
    endloop
  endfacet
  facet normal -0.290298 0.956936 0
    outer loop
      vertex 33.7402 -43.8582 0
      vertex 30.9264 -44.7118 16
      vertex 33.7402 -43.8582 16
    endloop
  endfacet
  facet normal -0.290298 0.956936 0
    outer loop
      vertex 30.9264 -44.7118 16
      vertex 33.7402 -43.8582 0
      vertex 30.9264 -44.7118 0
    endloop
  endfacet
  facet normal -0.634393 0.773011 0
    outer loop
      vertex 38.6066 -40.6066 0
      vertex 36.3336 -42.472 16
      vertex 38.6066 -40.6066 16
    endloop
  endfacet
  facet normal -0.634393 0.773011 0
    outer loop
      vertex 36.3336 -42.472 16
      vertex 38.6066 -40.6066 0
      vertex 36.3336 -42.472 0
    endloop
  endfacet
  facet normal -0.956936 0.290298 0
    outer loop
      vertex 41.8582 -35.7402 0
      vertex 42.7118 -32.9264 16
      vertex 42.7118 -32.9264 0
    endloop
  endfacet
  facet normal -0.956936 0.290298 0
    outer loop
      vertex 42.7118 -32.9264 16
      vertex 41.8582 -35.7402 0
      vertex 41.8582 -35.7402 16
    endloop
  endfacet
  facet normal 0.471411 0.881914 -0
    outer loop
      vertex 22.2597 -43.8582 0
      vertex 19.6664 -42.472 16
      vertex 22.2597 -43.8582 16
    endloop
  endfacet
  facet normal 0.471411 0.881914 0
    outer loop
      vertex 19.6664 -42.472 16
      vertex 22.2597 -43.8582 0
      vertex 19.6664 -42.472 0
    endloop
  endfacet
  facet normal 0.0980086 0.995186 -0
    outer loop
      vertex 28 -45 0
      vertex 25.0736 -44.7118 16
      vertex 28 -45 16
    endloop
  endfacet
  facet normal 0.0980086 0.995186 0
    outer loop
      vertex 25.0736 -44.7118 16
      vertex 28 -45 0
      vertex 25.0736 -44.7118 0
    endloop
  endfacet
  facet normal 0.634393 0.773011 -0
    outer loop
      vertex 19.6664 -42.472 0
      vertex 17.3934 -40.6066 16
      vertex 19.6664 -42.472 16
    endloop
  endfacet
  facet normal 0.634393 0.773011 0
    outer loop
      vertex 17.3934 -40.6066 16
      vertex 19.6664 -42.472 0
      vertex 17.3934 -40.6066 0
    endloop
  endfacet
  facet normal 0.881921 0.471396 0
    outer loop
      vertex 15.528 -38.3336 16
      vertex 14.1418 -35.7402 0
      vertex 14.1418 -35.7402 16
    endloop
  endfacet
  facet normal 0.881921 0.471396 0
    outer loop
      vertex 14.1418 -35.7402 0
      vertex 15.528 -38.3336 16
      vertex 15.528 -38.3336 0
    endloop
  endfacet
  facet normal -0.471396 0.881921 0
    outer loop
      vertex 36.3336 -42.472 0
      vertex 33.7402 -43.8582 16
      vertex 36.3336 -42.472 16
    endloop
  endfacet
  facet normal -0.471396 0.881921 0
    outer loop
      vertex 33.7402 -43.8582 16
      vertex 36.3336 -42.472 0
      vertex 33.7402 -43.8582 0
    endloop
  endfacet
  facet normal -0.0980155 0 -0.995185
    outer loop
      vertex 6.5 -49 10.8
      vertex 7.04625 -31 10.7462
      vertex 7.04625 -49 10.7462
    endloop
  endfacet
  facet normal -0.0980155 0 -0.995185
    outer loop
      vertex 7.04625 -31 10.7462
      vertex 6.5 -49 10.8
      vertex 6.5 -31 10.8
    endloop
  endfacet
  facet normal -0.995185 0 0.0980155
    outer loop
      vertex 9.2462 -49 7.45375
      vertex 9.3 -31 8
      vertex 9.2462 -31 7.45375
    endloop
  endfacet
  facet normal -0.995185 0 0.0980155
    outer loop
      vertex 9.3 -31 8
      vertex 9.2462 -49 7.45375
      vertex 9.3 -49 8
    endloop
  endfacet
  facet normal -0 0 1
    outer loop
      vertex 0 -31 5.2
      vertex 6.5 -49 5.2
      vertex 6.5 -31 5.2
    endloop
  endfacet
  facet normal 0 0 1
    outer loop
      vertex 6.5 -49 5.2
      vertex 0 -31 5.2
      vertex 0 -49 5.2
    endloop
  endfacet
  facet normal 0 0 -1
    outer loop
      vertex 0 -49 10.8
      vertex 6.5 -31 10.8
      vertex 6.5 -49 10.8
    endloop
  endfacet
  facet normal -0 0 -1
    outer loop
      vertex 6.5 -31 10.8
      vertex 0 -49 10.8
      vertex 0 -31 10.8
    endloop
  endfacet
  facet normal -0.773014 0 -0.634389
    outer loop
      vertex 8.82811 -49 9.5556
      vertex 8.4799 -31 9.9799
      vertex 8.82811 -31 9.5556
    endloop
  endfacet
  facet normal -0.773014 -0 -0.634389
    outer loop
      vertex 8.4799 -31 9.9799
      vertex 8.82811 -49 9.5556
      vertex 8.4799 -49 9.9799
    endloop
  endfacet
  facet normal -0.956938 0 -0.290292
    outer loop
      vertex 9.2462 -49 8.54625
      vertex 9.08686 -31 9.07151
      vertex 9.2462 -31 8.54625
    endloop
  endfacet
  facet normal -0.956938 -0 -0.290292
    outer loop
      vertex 9.08686 -31 9.07151
      vertex 9.2462 -49 8.54625
      vertex 9.08686 -49 9.07151
    endloop
  endfacet
  facet normal -0.634378 0 -0.773023
    outer loop
      vertex 8.0556 -49 10.3281
      vertex 8.4799 -31 9.9799
      vertex 8.4799 -49 9.9799
    endloop
  endfacet
  facet normal -0.634378 0 -0.773023
    outer loop
      vertex 8.4799 -31 9.9799
      vertex 8.0556 -49 10.3281
      vertex 8.0556 -31 10.3281
    endloop
  endfacet
  facet normal -0.290225 0 -0.956958
    outer loop
      vertex 7.04625 -49 10.7462
      vertex 7.57151 -31 10.5869
      vertex 7.57151 -49 10.5869
    endloop
  endfacet
  facet normal -0.290225 0 -0.956958
    outer loop
      vertex 7.57151 -31 10.5869
      vertex 7.04625 -49 10.7462
      vertex 7.04625 -31 10.7462
    endloop
  endfacet
  facet normal -0.995185 0 -0.0980155
    outer loop
      vertex 9.3 -49 8
      vertex 9.2462 -31 8.54625
      vertex 9.3 -31 8
    endloop
  endfacet
  facet normal -0.995185 -0 -0.0980155
    outer loop
      vertex 9.2462 -31 8.54625
      vertex 9.3 -49 8
      vertex 9.2462 -49 8.54625
    endloop
  endfacet
  facet normal -0.0980155 0 0.995185
    outer loop
      vertex 6.5 -31 5.2
      vertex 7.04625 -49 5.2538
      vertex 7.04625 -31 5.2538
    endloop
  endfacet
  facet normal -0.0980155 0 0.995185
    outer loop
      vertex 7.04625 -49 5.2538
      vertex 6.5 -31 5.2
      vertex 6.5 -49 5.2
    endloop
  endfacet
  facet normal -0.290292 0 0.956938
    outer loop
      vertex 7.04625 -31 5.2538
      vertex 7.57151 -49 5.41314
      vertex 7.57151 -31 5.41314
    endloop
  endfacet
  facet normal -0.290292 0 0.956938
    outer loop
      vertex 7.57151 -49 5.41314
      vertex 7.04625 -31 5.2538
      vertex 7.04625 -49 5.2538
    endloop
  endfacet
  facet normal -0.47138 0 0.88193
    outer loop
      vertex 7.57151 -31 5.41314
      vertex 8.0556 -49 5.67188
      vertex 8.0556 -31 5.67188
    endloop
  endfacet
  facet normal -0.47138 0 0.88193
    outer loop
      vertex 8.0556 -49 5.67188
      vertex 7.57151 -31 5.41314
      vertex 7.57151 -49 5.41314
    endloop
  endfacet
  facet normal -0.881922 0 0.471395
    outer loop
      vertex 8.82811 -49 6.4444
      vertex 9.08686 -31 6.92849
      vertex 8.82811 -31 6.4444
    endloop
  endfacet
  facet normal -0.881922 0 0.471395
    outer loop
      vertex 9.08686 -31 6.92849
      vertex 8.82811 -49 6.4444
      vertex 9.08686 -49 6.92849
    endloop
  endfacet
  facet normal -0.881922 0 -0.471395
    outer loop
      vertex 9.08686 -49 9.07151
      vertex 8.82811 -31 9.5556
      vertex 9.08686 -31 9.07151
    endloop
  endfacet
  facet normal -0.881922 -0 -0.471395
    outer loop
      vertex 8.82811 -31 9.5556
      vertex 9.08686 -49 9.07151
      vertex 8.82811 -49 9.5556
    endloop
  endfacet
  facet normal -0.471465 0 -0.881885
    outer loop
      vertex 7.57151 -49 10.5869
      vertex 8.0556 -31 10.3281
      vertex 8.0556 -49 10.3281
    endloop
  endfacet
  facet normal -0.471465 0 -0.881885
    outer loop
      vertex 8.0556 -31 10.3281
      vertex 7.57151 -49 10.5869
      vertex 7.57151 -31 10.5869
    endloop
  endfacet
  facet normal -0.773014 0 0.634389
    outer loop
      vertex 8.4799 -49 6.0201
      vertex 8.82811 -31 6.4444
      vertex 8.4799 -31 6.0201
    endloop
  endfacet
  facet normal -0.773014 0 0.634389
    outer loop
      vertex 8.82811 -31 6.4444
      vertex 8.4799 -49 6.0201
      vertex 8.82811 -49 6.4444
    endloop
  endfacet
  facet normal -0.6344 0 0.773005
    outer loop
      vertex 8.0556 -31 5.67188
      vertex 8.4799 -49 6.0201
      vertex 8.4799 -31 6.0201
    endloop
  endfacet
  facet normal -0.6344 0 0.773005
    outer loop
      vertex 8.4799 -49 6.0201
      vertex 8.0556 -31 5.67188
      vertex 8.0556 -49 5.67188
    endloop
  endfacet
  facet normal -0.956938 0 0.290292
    outer loop
      vertex 9.08686 -49 6.92849
      vertex 9.2462 -31 7.45375
      vertex 9.08686 -31 6.92849
    endloop
  endfacet
  facet normal -0.956938 0 0.290292
    outer loop
      vertex 9.2462 -31 7.45375
      vertex 9.08686 -49 6.92849
      vertex 9.2462 -49 7.45375
    endloop
  endfacet
  facet normal 0.5 -0.866025 0
    outer loop
      vertex 41.4558 -46.8971 0
      vertex 56 -38.5 16
      vertex 41.4558 -46.8971 16
    endloop
  endfacet
  facet normal 0.5 -0.866025 0
    outer loop
      vertex 56 -38.5 16
      vertex 41.4558 -46.8971 0
      vertex 56 -38.5 0
    endloop
  endfacet
  facet normal 0.25882 -0.965926 0
    outer loop
      vertex 33.6077 -49 0
      vertex 41.4558 -46.8971 16
      vertex 33.6077 -49 16
    endloop
  endfacet
  facet normal 0.25882 -0.965926 0
    outer loop
      vertex 41.4558 -46.8971 16
      vertex 33.6077 -49 0
      vertex 41.4558 -46.8971 0
    endloop
  endfacet
endsolid OpenSCAD_Model
