solid OpenSCAD_Model
  facet normal -1 0 0
    outer loop
      vertex 0 -16 -49
      vertex 0 -3.73517e-15 -30.5
      vertex 0 -6.00077e-15 -49
    endloop
  endfacet
  facet normal -1 -0 0
    outer loop
      vertex 0 -3.73517e-15 -30.5
      vertex 0 -16 -49
      vertex 0 -16 -30.5
    endloop
  endfacet
  facet normal 0 0 -1
    outer loop
      vertex 56 -16 -49
      vertex 52.2 -8 -49
      vertex 56 -6.00077e-15 -49
    endloop
  endfacet
  facet normal 0 0 -1
    outer loop
      vertex 56 -16 -49
      vertex 51.5683 -9.73553 -49
      vertex 52.2 -8 -49
    endloop
  endfacet
  facet normal 0 0 -1
    outer loop
      vertex 56 -16 -49
      vertex 49.9688 -10.659 -49
      vertex 51.5683 -9.73553 -49
    endloop
  endfacet
  facet normal 0 0 -1
    outer loop
      vertex 56 -16 -49
      vertex 48.15 -10.3383 -49
      vertex 49.9688 -10.659 -49
    endloop
  endfacet
  facet normal 0 0 -1
    outer loop
      vertex 46.9628 -8.92345 -49
      vertex 9.2 -8 -49
      vertex 46.9628 -7.07654 -49
    endloop
  endfacet
  facet normal 0 0 -1
    outer loop
      vertex 8.56832 -9.73553 -49
      vertex 46.9628 -8.92345 -49
      vertex 48.15 -10.3383 -49
    endloop
  endfacet
  facet normal 0 0 -1
    outer loop
      vertex 0 -16 -49
      vertex 48.15 -10.3383 -49
      vertex 56 -16 -49
    endloop
  endfacet
  facet normal -0 0 -1
    outer loop
      vertex 46.9628 -8.92345 -49
      vertex 8.56832 -9.73553 -49
      vertex 9.2 -8 -49
    endloop
  endfacet
  facet normal -0 0 -1
    outer loop
      vertex 48.15 -10.3383 -49
      vertex 6.96885 -10.659 -49
      vertex 8.56832 -9.73553 -49
    endloop
  endfacet
  facet normal -0 0 -1
    outer loop
      vertex 3.96283 -8.92345 -49
      vertex 0 -16 -49
      vertex 3.96283 -7.07654 -49
    endloop
  endfacet
  facet normal -0 0 -1
    outer loop
      vertex 5.15 -10.3383 -49
      vertex 0 -16 -49
      vertex 3.96283 -8.92345 -49
    endloop
  endfacet
  facet normal -0 0 -1
    outer loop
      vertex 6.96885 -10.659 -49
      vertex 0 -16 -49
      vertex 5.15 -10.3383 -49
    endloop
  endfacet
  facet normal 0 0 -1
    outer loop
      vertex 48.15 -10.3383 -49
      vertex 0 -16 -49
      vertex 6.96885 -10.659 -49
    endloop
  endfacet
  facet normal 0 0 -1
    outer loop
      vertex 51.5683 -6.26447 -49
      vertex 56 -6.00077e-15 -49
      vertex 52.2 -8 -49
    endloop
  endfacet
  facet normal 0 0 -1
    outer loop
      vertex 49.9688 -5.34102 -49
      vertex 56 -6.00077e-15 -49
      vertex 51.5683 -6.26447 -49
    endloop
  endfacet
  facet normal 0 0 -1
    outer loop
      vertex 48.15 -5.66173 -49
      vertex 56 -6.00077e-15 -49
      vertex 49.9688 -5.34102 -49
    endloop
  endfacet
  facet normal 0 0 -1
    outer loop
      vertex 8.56832 -6.26447 -49
      vertex 46.9628 -7.07654 -49
      vertex 9.2 -8 -49
    endloop
  endfacet
  facet normal 0 0 -1
    outer loop
      vertex 46.9628 -7.07654 -49
      vertex 8.56832 -6.26447 -49
      vertex 48.15 -5.66173 -49
    endloop
  endfacet
  facet normal 0 0 -1
    outer loop
      vertex 6.96885 -5.34102 -49
      vertex 48.15 -5.66173 -49
      vertex 8.56832 -6.26447 -49
    endloop
  endfacet
  facet normal 0 0 -1
    outer loop
      vertex 0 -6.00077e-15 -49
      vertex 48.15 -5.66173 -49
      vertex 6.96885 -5.34102 -49
    endloop
  endfacet
  facet normal 0 0 -1
    outer loop
      vertex 48.15 -5.66173 -49
      vertex 0 -6.00077e-15 -49
      vertex 56 -6.00077e-15 -49
    endloop
  endfacet
  facet normal 0 0 -1
    outer loop
      vertex 5.15 -5.66173 -49
      vertex 0 -6.00077e-15 -49
      vertex 6.96885 -5.34102 -49
    endloop
  endfacet
  facet normal 0 0 -1
    outer loop
      vertex 3.96283 -7.07654 -49
      vertex 0 -6.00077e-15 -49
      vertex 5.15 -5.66173 -49
    endloop
  endfacet
  facet normal 0 0 -1
    outer loop
      vertex 0 -6.00077e-15 -49
      vertex 3.96283 -7.07654 -49
      vertex 0 -16 -49
    endloop
  endfacet
  facet normal 1 -0 0
    outer loop
      vertex 56 -16 -30.5
      vertex 56 -6.00077e-15 -49
      vertex 56 -3.73517e-15 -30.5
    endloop
  endfacet
  facet normal 1 0 0
    outer loop
      vertex 56 -6.00077e-15 -49
      vertex 56 -16 -30.5
      vertex 56 -16 -49
    endloop
  endfacet
  facet normal 0 -1 0
    outer loop
      vertex 0 -16 -30.5
      vertex 13.3278 -16 -33.1187
      vertex 13.0526 -16 -30.5
    endloop
  endfacet
  facet normal 0 -1 0
    outer loop
      vertex 0 -16 -30.5
      vertex 14.2968 -16 -36.101
      vertex 13.3278 -16 -33.1187
    endloop
  endfacet
  facet normal 0 -1 0
    outer loop
      vertex 0 -16 -49
      vertex 14.2968 -16 -36.101
      vertex 0 -16 -30.5
    endloop
  endfacet
  facet normal 0 -1 -0
    outer loop
      vertex 14.2968 -16 -36.101
      vertex 0 -16 -49
      vertex 15.8647 -16 -38.8168
    endloop
  endfacet
  facet normal 0 -1 -0
    outer loop
      vertex 15.8647 -16 -38.8168
      vertex 0 -16 -49
      vertex 17.963 -16 -41.1472
    endloop
  endfacet
  facet normal 0 -1 -0
    outer loop
      vertex 26.4321 -16 -44.9178
      vertex 0 -16 -49
      vertex 29.5679 -16 -44.9178
    endloop
  endfacet
  facet normal 0 -1 -0
    outer loop
      vertex 23.3647 -16 -44.2658
      vertex 0 -16 -49
      vertex 26.4321 -16 -44.9178
    endloop
  endfacet
  facet normal 0 -1 -0
    outer loop
      vertex 20.5 -16 -42.9904
      vertex 0 -16 -49
      vertex 23.3647 -16 -44.2658
    endloop
  endfacet
  facet normal 0 -1 -0
    outer loop
      vertex 17.963 -16 -41.1472
      vertex 0 -16 -49
      vertex 20.5 -16 -42.9904
    endloop
  endfacet
  facet normal 0 -1 0
    outer loop
      vertex 42.6722 -16 -33.1187
      vertex 56 -16 -30.5
      vertex 42.9474 -16 -30.5
    endloop
  endfacet
  facet normal 0 -1 0
    outer loop
      vertex 41.7032 -16 -36.101
      vertex 56 -16 -30.5
      vertex 42.6722 -16 -33.1187
    endloop
  endfacet
  facet normal 0 -1 0
    outer loop
      vertex 56 -16 -49
      vertex 41.7032 -16 -36.101
      vertex 40.1353 -16 -38.8168
    endloop
  endfacet
  facet normal 0 -1 0
    outer loop
      vertex 56 -16 -49
      vertex 40.1353 -16 -38.8168
      vertex 38.037 -16 -41.1472
    endloop
  endfacet
  facet normal 0 -1 0
    outer loop
      vertex 56 -16 -49
      vertex 38.037 -16 -41.1472
      vertex 35.5 -16 -42.9904
    endloop
  endfacet
  facet normal 0 -1 0
    outer loop
      vertex 41.7032 -16 -36.101
      vertex 56 -16 -49
      vertex 56 -16 -30.5
    endloop
  endfacet
  facet normal 0 -1 0
    outer loop
      vertex 32.6353 -16 -44.2658
      vertex 56 -16 -49
      vertex 35.5 -16 -42.9904
    endloop
  endfacet
  facet normal 0 -1 0
    outer loop
      vertex 29.5679 -16 -44.9178
      vertex 56 -16 -49
      vertex 32.6353 -16 -44.2658
    endloop
  endfacet
  facet normal 0 -1 0
    outer loop
      vertex 56 -16 -49
      vertex 29.5679 -16 -44.9178
      vertex 0 -16 -49
    endloop
  endfacet
  facet normal 0 1 -1.22465e-16
    outer loop
      vertex 56 -3.73517e-15 -30.5
      vertex 42.6722 -4.05587e-15 -33.1187
      vertex 42.9474 -3.73517e-15 -30.5
    endloop
  endfacet
  facet normal -8.34823e-24 1 -1.22465e-16
    outer loop
      vertex 56 -3.73517e-15 -30.5
      vertex 41.7032 -4.4211e-15 -36.1011
      vertex 42.6722 -4.05587e-15 -33.1187
    endloop
  endfacet
  facet normal 2.31882e-23 1 -1.22465e-16
    outer loop
      vertex 56 -6.00077e-15 -49
      vertex 41.7032 -4.4211e-15 -36.1011
      vertex 56 -3.73517e-15 -30.5
    endloop
  endfacet
  facet normal -4.16243e-23 1 -1.22465e-16
    outer loop
      vertex 41.7032 -4.4211e-15 -36.1011
      vertex 56 -6.00077e-15 -49
      vertex 40.1353 -4.75368e-15 -38.8168
    endloop
  endfacet
  facet normal -3.45334e-23 1 -1.22465e-16
    outer loop
      vertex 40.1353 -4.75368e-15 -38.8168
      vertex 56 -6.00077e-15 -49
      vertex 38.037 -5.03908e-15 -41.1472
    endloop
  endfacet
  facet normal 0 1 -1.22465e-16
    outer loop
      vertex 29.5679 -5.50085e-15 -44.9178
      vertex 56 -6.00077e-15 -49
      vertex 26.4321 -5.50085e-15 -44.9178
    endloop
  endfacet
  facet normal -6.30851e-24 1 -1.22465e-16
    outer loop
      vertex 32.6353 -5.421e-15 -44.2658
      vertex 56 -6.00077e-15 -49
      vertex 29.5679 -5.50085e-15 -44.9178
    endloop
  endfacet
  facet normal -3.33899e-24 1 -1.22465e-16
    outer loop
      vertex 35.5 -5.2648e-15 -42.9904
      vertex 56 -6.00077e-15 -49
      vertex 32.6353 -5.421e-15 -44.2658
    endloop
  endfacet
  facet normal -4.64656e-24 1 -1.22465e-16
    outer loop
      vertex 38.037 -5.03908e-15 -41.1472
      vertex 56 -6.00077e-15 -49
      vertex 35.5 -5.2648e-15 -42.9904
    endloop
  endfacet
  facet normal 0 1 -1.22465e-16
    outer loop
      vertex 13.3278 -4.05587e-15 -33.1187
      vertex 0 -3.73517e-15 -30.5
      vertex 13.0526 -3.73517e-15 -30.5
    endloop
  endfacet
  facet normal 8.34823e-24 1 -1.22465e-16
    outer loop
      vertex 14.2968 -4.4211e-15 -36.1011
      vertex 0 -3.73517e-15 -30.5
      vertex 13.3278 -4.05587e-15 -33.1187
    endloop
  endfacet
  facet normal 4.16243e-23 1 -1.22465e-16
    outer loop
      vertex 0 -6.00077e-15 -49
      vertex 14.2968 -4.4211e-15 -36.1011
      vertex 15.8647 -4.75368e-15 -38.8168
    endloop
  endfacet
  facet normal 3.45334e-23 1 -1.22465e-16
    outer loop
      vertex 0 -6.00077e-15 -49
      vertex 15.8647 -4.75368e-15 -38.8168
      vertex 17.963 -5.03908e-15 -41.1472
    endloop
  endfacet
  facet normal 4.64655e-24 1 -1.22465e-16
    outer loop
      vertex 0 -6.00077e-15 -49
      vertex 17.963 -5.03908e-15 -41.1472
      vertex 20.5 -5.2648e-15 -42.9904
    endloop
  endfacet
  facet normal -2.31882e-23 1 -1.22465e-16
    outer loop
      vertex 14.2968 -4.4211e-15 -36.1011
      vertex 0 -6.00077e-15 -49
      vertex 0 -3.73517e-15 -30.5
    endloop
  endfacet
  facet normal 3.33899e-24 1 -1.22465e-16
    outer loop
      vertex 23.3647 -5.421e-15 -44.2658
      vertex 0 -6.00077e-15 -49
      vertex 20.5 -5.2648e-15 -42.9904
    endloop
  endfacet
  facet normal 6.30851e-24 1 -1.22465e-16
    outer loop
      vertex 26.4321 -5.50085e-15 -44.9178
      vertex 0 -6.00077e-15 -49
      vertex 23.3647 -5.421e-15 -44.2658
    endloop
  endfacet
  facet normal 0 1 -1.22465e-16
    outer loop
      vertex 0 -6.00077e-15 -49
      vertex 26.4321 -5.50085e-15 -44.9178
      vertex 56 -6.00077e-15 -49
    endloop
  endfacet
  facet normal 0 0 1
    outer loop
      vertex 13.0526 -3.73517e-15 -30.5
      vertex 9.2 -8 -30.5
      vertex 13.0526 -16 -30.5
    endloop
  endfacet
  facet normal 0 0 1
    outer loop
      vertex 13.0526 -3.73517e-15 -30.5
      vertex 8.56832 -6.26447 -30.5
      vertex 9.2 -8 -30.5
    endloop
  endfacet
  facet normal 0 0 1
    outer loop
      vertex 13.0526 -3.73517e-15 -30.5
      vertex 6.96885 -5.34102 -30.5
      vertex 8.56832 -6.26447 -30.5
    endloop
  endfacet
  facet normal -0 0 1
    outer loop
      vertex 0 -3.73517e-15 -30.5
      vertex 6.96885 -5.34102 -30.5
      vertex 13.0526 -3.73517e-15 -30.5
    endloop
  endfacet
  facet normal 0 0 1
    outer loop
      vertex 3.96283 -7.07654 -30.5
      vertex 0 -3.73517e-15 -30.5
      vertex 3.96283 -8.92345 -30.5
    endloop
  endfacet
  facet normal 0 0 1
    outer loop
      vertex 5.15 -5.66173 -30.5
      vertex 0 -3.73517e-15 -30.5
      vertex 3.96283 -7.07654 -30.5
    endloop
  endfacet
  facet normal 0 0 1
    outer loop
      vertex 6.96885 -5.34102 -30.5
      vertex 0 -3.73517e-15 -30.5
      vertex 5.15 -5.66173 -30.5
    endloop
  endfacet
  facet normal -0 0 1
    outer loop
      vertex 8.56832 -9.73553 -30.5
      vertex 13.0526 -16 -30.5
      vertex 9.2 -8 -30.5
    endloop
  endfacet
  facet normal -0 0 1
    outer loop
      vertex 6.96885 -10.659 -30.5
      vertex 13.0526 -16 -30.5
      vertex 8.56832 -9.73553 -30.5
    endloop
  endfacet
  facet normal 0 0 1
    outer loop
      vertex 0 -16 -30.5
      vertex 6.96885 -10.659 -30.5
      vertex 5.15 -10.3383 -30.5
    endloop
  endfacet
  facet normal 0 0 1
    outer loop
      vertex 6.96885 -10.659 -30.5
      vertex 0 -16 -30.5
      vertex 13.0526 -16 -30.5
    endloop
  endfacet
  facet normal 0 0 1
    outer loop
      vertex 3.96283 -8.92345 -30.5
      vertex 0 -16 -30.5
      vertex 5.15 -10.3383 -30.5
    endloop
  endfacet
  facet normal 0 0 1
    outer loop
      vertex 0 -16 -30.5
      vertex 3.96283 -8.92345 -30.5
      vertex 0 -3.73517e-15 -30.5
    endloop
  endfacet
  facet normal 0 0 1
    outer loop
      vertex 56 -3.73517e-15 -30.5
      vertex 52.2 -8 -30.5
      vertex 56 -16 -30.5
    endloop
  endfacet
  facet normal 0 0 1
    outer loop
      vertex 56 -3.73517e-15 -30.5
      vertex 51.5683 -6.26447 -30.5
      vertex 52.2 -8 -30.5
    endloop
  endfacet
  facet normal 0 0 1
    outer loop
      vertex 56 -3.73517e-15 -30.5
      vertex 49.9688 -5.34102 -30.5
      vertex 51.5683 -6.26447 -30.5
    endloop
  endfacet
  facet normal -0 0 1
    outer loop
      vertex 42.9474 -3.73517e-15 -30.5
      vertex 49.9688 -5.34102 -30.5
      vertex 56 -3.73517e-15 -30.5
    endloop
  endfacet
  facet normal 0 0 1
    outer loop
      vertex 46.9628 -7.07654 -30.5
      vertex 42.9474 -3.73517e-15 -30.5
      vertex 46.9628 -8.92345 -30.5
    endloop
  endfacet
  facet normal 0 0 1
    outer loop
      vertex 48.15 -5.66173 -30.5
      vertex 42.9474 -3.73517e-15 -30.5
      vertex 46.9628 -7.07654 -30.5
    endloop
  endfacet
  facet normal 0 0 1
    outer loop
      vertex 49.9688 -5.34102 -30.5
      vertex 42.9474 -3.73517e-15 -30.5
      vertex 48.15 -5.66173 -30.5
    endloop
  endfacet
  facet normal -0 0 1
    outer loop
      vertex 51.5683 -9.73553 -30.5
      vertex 56 -16 -30.5
      vertex 52.2 -8 -30.5
    endloop
  endfacet
  facet normal -0 0 1
    outer loop
      vertex 49.9688 -10.659 -30.5
      vertex 56 -16 -30.5
      vertex 51.5683 -9.73553 -30.5
    endloop
  endfacet
  facet normal 0 0 1
    outer loop
      vertex 42.9474 -16 -30.5
      vertex 49.9688 -10.659 -30.5
      vertex 48.15 -10.3383 -30.5
    endloop
  endfacet
  facet normal 0 0 1
    outer loop
      vertex 49.9688 -10.659 -30.5
      vertex 42.9474 -16 -30.5
      vertex 56 -16 -30.5
    endloop
  endfacet
  facet normal 0 0 1
    outer loop
      vertex 46.9628 -8.92345 -30.5
      vertex 42.9474 -16 -30.5
      vertex 48.15 -10.3383 -30.5
    endloop
  endfacet
  facet normal 0 0 1
    outer loop
      vertex 42.9474 -16 -30.5
      vertex 46.9628 -8.92345 -30.5
      vertex 42.9474 -3.73517e-15 -30.5
    endloop
  endfacet
  facet normal -0.994522 0 0.104529
    outer loop
      vertex 42.6722 -16 -33.1187
      vertex 42.9474 -3.73517e-15 -30.5
      vertex 42.6722 -4.05587e-15 -33.1187
    endloop
  endfacet
  facet normal -0.994522 0 0.104529
    outer loop
      vertex 42.9474 -3.73517e-15 -30.5
      vertex 42.6722 -16 -33.1187
      vertex 42.9474 -16 -30.5
    endloop
  endfacet
  facet normal -0.951057 7.36754e-08 0.309017
    outer loop
      vertex 41.7032 -16 -36.101
      vertex 42.6722 -4.05587e-15 -33.1187
      vertex 41.7032 -4.4211e-15 -36.1011
    endloop
  endfacet
  facet normal -0.951056 0 0.309017
    outer loop
      vertex 42.6722 -4.05587e-15 -33.1187
      vertex 41.7032 -16 -36.101
      vertex 42.6722 -16 -33.1187
    endloop
  endfacet
  facet normal 0.951057 -0 0.309017
    outer loop
      vertex 13.3278 -16 -33.1187
      vertex 14.2968 -4.4211e-15 -36.1011
      vertex 13.3278 -4.05587e-15 -33.1187
    endloop
  endfacet
  facet normal 0.951056 7.36754e-08 0.309017
    outer loop
      vertex 14.2968 -4.4211e-15 -36.1011
      vertex 13.3278 -16 -33.1187
      vertex 14.2968 -16 -36.101
    endloop
  endfacet
  facet normal 0.994522 -0 0.104528
    outer loop
      vertex 13.0526 -16 -30.5
      vertex 13.3278 -4.05587e-15 -33.1187
      vertex 13.0526 -3.73517e-15 -30.5
    endloop
  endfacet
  facet normal 0.994522 0 0.104528
    outer loop
      vertex 13.3278 -4.05587e-15 -33.1187
      vertex 13.0526 -16 -30.5
      vertex 13.3278 -16 -33.1187
    endloop
  endfacet
  facet normal 0.406737 0 0.913545
    outer loop
      vertex 20.5 -5.2648e-15 -42.9904
      vertex 23.3647 -16 -44.2658
      vertex 23.3647 -5.421e-15 -44.2658
    endloop
  endfacet
  facet normal 0.406737 0 0.913545
    outer loop
      vertex 23.3647 -16 -44.2658
      vertex 20.5 -5.2648e-15 -42.9904
      vertex 20.5 -16 -42.9904
    endloop
  endfacet
  facet normal -0.406737 0 0.913545
    outer loop
      vertex 32.6353 -5.421e-15 -44.2658
      vertex 35.5 -16 -42.9904
      vertex 35.5 -5.2648e-15 -42.9904
    endloop
  endfacet
  facet normal -0.406737 0 0.913545
    outer loop
      vertex 35.5 -16 -42.9904
      vertex 32.6353 -5.421e-15 -44.2658
      vertex 32.6353 -16 -44.2658
    endloop
  endfacet
  facet normal -0.866025 1.19209e-07 0.5
    outer loop
      vertex 40.1353 -16 -38.8168
      vertex 41.7032 -4.4211e-15 -36.1011
      vertex 40.1353 -4.75368e-15 -38.8168
    endloop
  endfacet
  facet normal -0.866025 1.19209e-07 0.5
    outer loop
      vertex 41.7032 -4.4211e-15 -36.1011
      vertex 40.1353 -16 -38.8168
      vertex 41.7032 -16 -36.101
    endloop
  endfacet
  facet normal -0.207912 0 0.978148
    outer loop
      vertex 29.5679 -5.50085e-15 -44.9178
      vertex 32.6353 -16 -44.2658
      vertex 32.6353 -5.421e-15 -44.2658
    endloop
  endfacet
  facet normal -0.207912 0 0.978148
    outer loop
      vertex 32.6353 -16 -44.2658
      vertex 29.5679 -5.50085e-15 -44.9178
      vertex 29.5679 -16 -44.9178
    endloop
  endfacet
  facet normal -0.587786 0 0.809017
    outer loop
      vertex 35.5 -5.2648e-15 -42.9904
      vertex 38.037 -16 -41.1472
      vertex 38.037 -5.03908e-15 -41.1472
    endloop
  endfacet
  facet normal -0.587786 0 0.809017
    outer loop
      vertex 38.037 -16 -41.1472
      vertex 35.5 -5.2648e-15 -42.9904
      vertex 35.5 -16 -42.9904
    endloop
  endfacet
  facet normal -0.743144 0 0.669131
    outer loop
      vertex 38.037 -16 -41.1472
      vertex 40.1353 -4.75368e-15 -38.8168
      vertex 38.037 -5.03908e-15 -41.1472
    endloop
  endfacet
  facet normal -0.743145 1.59533e-07 0.669131
    outer loop
      vertex 40.1353 -4.75368e-15 -38.8168
      vertex 38.037 -16 -41.1472
      vertex 40.1353 -16 -38.8168
    endloop
  endfacet
  facet normal 0.743145 1.59533e-07 0.669131
    outer loop
      vertex 15.8647 -16 -38.8168
      vertex 17.963 -5.03908e-15 -41.1472
      vertex 15.8647 -4.75368e-15 -38.8168
    endloop
  endfacet
  facet normal 0.743145 0 0.66913
    outer loop
      vertex 17.963 -5.03908e-15 -41.1472
      vertex 15.8647 -16 -38.8168
      vertex 17.963 -16 -41.1472
    endloop
  endfacet
  facet normal 0.866025 1.19209e-07 0.5
    outer loop
      vertex 14.2968 -16 -36.101
      vertex 15.8647 -4.75368e-15 -38.8168
      vertex 14.2968 -4.4211e-15 -36.1011
    endloop
  endfacet
  facet normal 0.866025 1.19209e-07 0.5
    outer loop
      vertex 15.8647 -4.75368e-15 -38.8168
      vertex 14.2968 -16 -36.101
      vertex 15.8647 -16 -38.8168
    endloop
  endfacet
  facet normal 0.207912 0 0.978148
    outer loop
      vertex 23.3647 -5.421e-15 -44.2658
      vertex 26.4321 -16 -44.9178
      vertex 26.4321 -5.50085e-15 -44.9178
    endloop
  endfacet
  facet normal 0.207912 0 0.978148
    outer loop
      vertex 26.4321 -16 -44.9178
      vertex 23.3647 -5.421e-15 -44.2658
      vertex 23.3647 -16 -44.2658
    endloop
  endfacet
  facet normal 0.587785 0 0.809017
    outer loop
      vertex 17.963 -5.03908e-15 -41.1472
      vertex 20.5 -16 -42.9904
      vertex 20.5 -5.2648e-15 -42.9904
    endloop
  endfacet
  facet normal 0.587785 0 0.809017
    outer loop
      vertex 20.5 -16 -42.9904
      vertex 17.963 -5.03908e-15 -41.1472
      vertex 17.963 -16 -41.1472
    endloop
  endfacet
  facet normal -0 0 1
    outer loop
      vertex 26.4321 -5.50085e-15 -44.9178
      vertex 29.5679 -16 -44.9178
      vertex 29.5679 -5.50085e-15 -44.9178
    endloop
  endfacet
  facet normal 0 0 1
    outer loop
      vertex 29.5679 -16 -44.9178
      vertex 26.4321 -5.50085e-15 -44.9178
      vertex 26.4321 -16 -44.9178
    endloop
  endfacet
  facet normal -0.939693 0.34202 0
    outer loop
      vertex 8.56832 -9.73553 -49
      vertex 9.2 -8 -30.5
      vertex 9.2 -8 -49
    endloop
  endfacet
  facet normal -0.939693 0.34202 0
    outer loop
      vertex 9.2 -8 -30.5
      vertex 8.56832 -9.73553 -49
      vertex 8.56832 -9.73553 -30.5
    endloop
  endfacet
  facet normal 1 -0 0
    outer loop
      vertex 3.96283 -8.92345 -30.5
      vertex 3.96283 -7.07654 -49
      vertex 3.96283 -7.07654 -30.5
    endloop
  endfacet
  facet normal 1 0 0
    outer loop
      vertex 3.96283 -7.07654 -49
      vertex 3.96283 -8.92345 -30.5
      vertex 3.96283 -8.92345 -49
    endloop
  endfacet
  facet normal 0.173648 0.984808 -0
    outer loop
      vertex 6.96885 -10.659 -49
      vertex 5.15 -10.3383 -30.5
      vertex 6.96885 -10.659 -30.5
    endloop
  endfacet
  facet normal 0.173648 0.984808 0
    outer loop
      vertex 5.15 -10.3383 -30.5
      vertex 6.96885 -10.659 -49
      vertex 5.15 -10.3383 -49
    endloop
  endfacet
  facet normal -0.5 0.866025 0
    outer loop
      vertex 8.56832 -9.73553 -49
      vertex 6.96885 -10.659 -30.5
      vertex 8.56832 -9.73553 -30.5
    endloop
  endfacet
  facet normal -0.5 0.866025 0
    outer loop
      vertex 6.96885 -10.659 -30.5
      vertex 8.56832 -9.73553 -49
      vertex 6.96885 -10.659 -49
    endloop
  endfacet
  facet normal 0.766044 0.642788 0
    outer loop
      vertex 5.15 -10.3383 -30.5
      vertex 3.96283 -8.92345 -49
      vertex 3.96283 -8.92345 -30.5
    endloop
  endfacet
  facet normal 0.766044 0.642788 0
    outer loop
      vertex 3.96283 -8.92345 -49
      vertex 5.15 -10.3383 -30.5
      vertex 5.15 -10.3383 -49
    endloop
  endfacet
  facet normal -0.939693 -0.34202 0
    outer loop
      vertex 9.2 -8 -49
      vertex 8.56832 -6.26447 -30.5
      vertex 8.56832 -6.26447 -49
    endloop
  endfacet
  facet normal -0.939693 -0.34202 0
    outer loop
      vertex 8.56832 -6.26447 -30.5
      vertex 9.2 -8 -49
      vertex 9.2 -8 -30.5
    endloop
  endfacet
  facet normal 0.766044 -0.642788 0
    outer loop
      vertex 3.96283 -7.07654 -30.5
      vertex 5.15 -5.66173 -49
      vertex 5.15 -5.66173 -30.5
    endloop
  endfacet
  facet normal 0.766044 -0.642788 0
    outer loop
      vertex 5.15 -5.66173 -49
      vertex 3.96283 -7.07654 -30.5
      vertex 3.96283 -7.07654 -49
    endloop
  endfacet
  facet normal 0.173648 -0.984808 0
    outer loop
      vertex 5.15 -5.66173 -49
      vertex 6.96885 -5.34102 -30.5
      vertex 5.15 -5.66173 -30.5
    endloop
  endfacet
  facet normal 0.173648 -0.984808 0
    outer loop
      vertex 6.96885 -5.34102 -30.5
      vertex 5.15 -5.66173 -49
      vertex 6.96885 -5.34102 -49
    endloop
  endfacet
  facet normal -0.5 -0.866025 0
    outer loop
      vertex 6.96885 -5.34102 -49
      vertex 8.56832 -6.26447 -30.5
      vertex 6.96885 -5.34102 -30.5
    endloop
  endfacet
  facet normal -0.5 -0.866025 -0
    outer loop
      vertex 8.56832 -6.26447 -30.5
      vertex 6.96885 -5.34102 -49
      vertex 8.56832 -6.26447 -49
    endloop
  endfacet
  facet normal -0.939693 0.34202 0
    outer loop
      vertex 51.5683 -9.73553 -49
      vertex 52.2 -8 -30.5
      vertex 52.2 -8 -49
    endloop
  endfacet
  facet normal -0.939693 0.34202 0
    outer loop
      vertex 52.2 -8 -30.5
      vertex 51.5683 -9.73553 -49
      vertex 51.5683 -9.73553 -30.5
    endloop
  endfacet
  facet normal 1 -0 0
    outer loop
      vertex 46.9628 -8.92345 -30.5
      vertex 46.9628 -7.07654 -49
      vertex 46.9628 -7.07654 -30.5
    endloop
  endfacet
  facet normal 1 0 0
    outer loop
      vertex 46.9628 -7.07654 -49
      vertex 46.9628 -8.92345 -30.5
      vertex 46.9628 -8.92345 -49
    endloop
  endfacet
  facet normal 0.173648 0.984808 -0
    outer loop
      vertex 49.9688 -10.659 -49
      vertex 48.15 -10.3383 -30.5
      vertex 49.9688 -10.659 -30.5
    endloop
  endfacet
  facet normal 0.173648 0.984808 0
    outer loop
      vertex 48.15 -10.3383 -30.5
      vertex 49.9688 -10.659 -49
      vertex 48.15 -10.3383 -49
    endloop
  endfacet
  facet normal -0.499999 0.866026 0
    outer loop
      vertex 51.5683 -9.73553 -49
      vertex 49.9688 -10.659 -30.5
      vertex 51.5683 -9.73553 -30.5
    endloop
  endfacet
  facet normal -0.499999 0.866026 0
    outer loop
      vertex 49.9688 -10.659 -30.5
      vertex 51.5683 -9.73553 -49
      vertex 49.9688 -10.659 -49
    endloop
  endfacet
  facet normal 0.766044 0.642788 0
    outer loop
      vertex 48.15 -10.3383 -30.5
      vertex 46.9628 -8.92345 -49
      vertex 46.9628 -8.92345 -30.5
    endloop
  endfacet
  facet normal 0.766044 0.642788 0
    outer loop
      vertex 46.9628 -8.92345 -49
      vertex 48.15 -10.3383 -30.5
      vertex 48.15 -10.3383 -49
    endloop
  endfacet
  facet normal -0.939693 -0.34202 0
    outer loop
      vertex 52.2 -8 -49
      vertex 51.5683 -6.26447 -30.5
      vertex 51.5683 -6.26447 -49
    endloop
  endfacet
  facet normal -0.939693 -0.34202 0
    outer loop
      vertex 51.5683 -6.26447 -30.5
      vertex 52.2 -8 -49
      vertex 52.2 -8 -30.5
    endloop
  endfacet
  facet normal 0.766044 -0.642788 0
    outer loop
      vertex 46.9628 -7.07654 -30.5
      vertex 48.15 -5.66173 -49
      vertex 48.15 -5.66173 -30.5
    endloop
  endfacet
  facet normal 0.766044 -0.642788 0
    outer loop
      vertex 48.15 -5.66173 -49
      vertex 46.9628 -7.07654 -30.5
      vertex 46.9628 -7.07654 -49
    endloop
  endfacet
  facet normal 0.173648 -0.984808 0
    outer loop
      vertex 48.15 -5.66173 -49
      vertex 49.9688 -5.34102 -30.5
      vertex 48.15 -5.66173 -30.5
    endloop
  endfacet
  facet normal 0.173648 -0.984808 0
    outer loop
      vertex 49.9688 -5.34102 -30.5
      vertex 48.15 -5.66173 -49
      vertex 49.9688 -5.34102 -49
    endloop
  endfacet
  facet normal -0.499999 -0.866026 0
    outer loop
      vertex 49.9688 -5.34102 -49
      vertex 51.5683 -6.26447 -30.5
      vertex 49.9688 -5.34102 -30.5
    endloop
  endfacet
  facet normal -0.499999 -0.866026 -0
    outer loop
      vertex 51.5683 -6.26447 -30.5
      vertex 49.9688 -5.34102 -49
      vertex 51.5683 -6.26447 -49
    endloop
  endfacet
endsolid OpenSCAD_Model
