solid OpenSCAD_Model
  facet normal -1 0 0
    outer loop
      vertex 0 -30 6.66134e-15
      vertex 0 3.55271e-15 16
      vertex 0 0 0
    endloop
  endfacet
  facet normal -1 -0 0
    outer loop
      vertex 0 3.55271e-15 16
      vertex 0 -30 6.66134e-15
      vertex 0 -30 16
    endloop
  endfacet
  facet normal 0 -1 0
    outer loop
      vertex 0 -30 16
      vertex 6.96885 -30 10.659
      vertex 13.1162 -30 16
    endloop
  endfacet
  facet normal 0 -1 0
    outer loop
      vertex 0 -30 16
      vertex 5.15 -30 10.3383
      vertex 6.96885 -30 10.659
    endloop
  endfacet
  facet normal 0 -1 0
    outer loop
      vertex 0 -30 16
      vertex 3.96283 -30 8.92345
      vertex 5.15 -30 10.3383
    endloop
  endfacet
  facet normal 0 -1 0
    outer loop
      vertex 0 -30 16
      vertex 3.96283 -30 7.07654
      vertex 3.96283 -30 8.92345
    endloop
  endfacet
  facet normal 0 -1 -0
    outer loop
      vertex 5.15 -30 5.66173
      vertex 0 -30 6.66134e-15
      vertex 6.96885 -30 5.34102
    endloop
  endfacet
  facet normal 0 -1 -0
    outer loop
      vertex 3.96283 -30 7.07654
      vertex 0 -30 6.66134e-15
      vertex 5.15 -30 5.66173
    endloop
  endfacet
  facet normal 0 -1 0
    outer loop
      vertex 0 -30 6.66134e-15
      vertex 3.96283 -30 7.07654
      vertex 0 -30 16
    endloop
  endfacet
  facet normal 0 -1 0
    outer loop
      vertex 8.56832 -30 9.73553
      vertex 13.1162 -30 16
      vertex 6.96885 -30 10.659
    endloop
  endfacet
  facet normal 0 -1 0
    outer loop
      vertex 9.2 -30 8
      vertex 13.1162 -30 16
      vertex 8.56832 -30 9.73553
    endloop
  endfacet
  facet normal 0 -1 0
    outer loop
      vertex 13.1162 -30 6.66134e-15
      vertex 9.2 -30 8
      vertex 8.56832 -30 6.26447
    endloop
  endfacet
  facet normal 0 -1 0
    outer loop
      vertex 13.1162 -30 6.66134e-15
      vertex 6.96885 -30 5.34102
      vertex 0 -30 6.66134e-15
    endloop
  endfacet
  facet normal 0 -1 0
    outer loop
      vertex 9.2 -30 8
      vertex 13.1162 -30 6.66134e-15
      vertex 13.1162 -30 16
    endloop
  endfacet
  facet normal 0 -1 0
    outer loop
      vertex 6.96885 -30 5.34102
      vertex 13.1162 -30 6.66134e-15
      vertex 8.56832 -30 6.26447
    endloop
  endfacet
  facet normal 0 -1 0
    outer loop
      vertex 21 -30 16
      vertex 27.9688 -30 10.659
      vertex 34 -30 16
    endloop
  endfacet
  facet normal 0 -1 0
    outer loop
      vertex 21 -30 16
      vertex 26.15 -30 10.3383
      vertex 27.9688 -30 10.659
    endloop
  endfacet
  facet normal 0 -1 0
    outer loop
      vertex 21 -30 16
      vertex 24.9628 -30 8.92345
      vertex 26.15 -30 10.3383
    endloop
  endfacet
  facet normal 0 -1 0
    outer loop
      vertex 21 -30 16
      vertex 24.9628 -30 7.07654
      vertex 24.9628 -30 8.92345
    endloop
  endfacet
  facet normal 0 -1 -0
    outer loop
      vertex 26.15 -30 5.66173
      vertex 21 -30 6.66134e-15
      vertex 27.9688 -30 5.34102
    endloop
  endfacet
  facet normal 0 -1 -0
    outer loop
      vertex 24.9628 -30 7.07654
      vertex 21 -30 6.66134e-15
      vertex 26.15 -30 5.66173
    endloop
  endfacet
  facet normal 0 -1 0
    outer loop
      vertex 21 -30 6.66134e-15
      vertex 24.9628 -30 7.07654
      vertex 21 -30 16
    endloop
  endfacet
  facet normal 0 -1 0
    outer loop
      vertex 29.5683 -30 9.73553
      vertex 34 -30 16
      vertex 27.9688 -30 10.659
    endloop
  endfacet
  facet normal 0 -1 0
    outer loop
      vertex 30.2 -30 8
      vertex 34 -30 16
      vertex 29.5683 -30 9.73553
    endloop
  endfacet
  facet normal 0 -1 0
    outer loop
      vertex 34 -30 6.66134e-15
      vertex 30.2 -30 8
      vertex 29.5683 -30 6.26447
    endloop
  endfacet
  facet normal 0 -1 0
    outer loop
      vertex 34 -30 6.66134e-15
      vertex 27.9688 -30 5.34102
      vertex 21 -30 6.66134e-15
    endloop
  endfacet
  facet normal 0 -1 0
    outer loop
      vertex 30.2 -30 8
      vertex 34 -30 6.66134e-15
      vertex 34 -30 16
    endloop
  endfacet
  facet normal 0 -1 0
    outer loop
      vertex 27.9688 -30 5.34102
      vertex 34 -30 6.66134e-15
      vertex 29.5683 -30 6.26447
    endloop
  endfacet
  facet normal 1 -0 0
    outer loop
      vertex 34 -30 16
      vertex 34 0 0
      vertex 34 3.55271e-15 16
    endloop
  endfacet
  facet normal 1 0 0
    outer loop
      vertex 34 0 0
      vertex 34 -30 16
      vertex 34 -30 6.66134e-15
    endloop
  endfacet
  facet normal -0 0 1
    outer loop
      vertex 19.2723 -26.7081 16
      vertex 34 -30 16
      vertex 34 3.55271e-15 16
    endloop
  endfacet
  facet normal 0 0 1
    outer loop
      vertex 34 -30 16
      vertex 20.5418 -28.1411 16
      vertex 21 -30 16
    endloop
  endfacet
  facet normal 0 0 1
    outer loop
      vertex 34 -30 16
      vertex 19.2723 -26.7081 16
      vertex 20.5418 -28.1411 16
    endloop
  endfacet
  facet normal 0 0 1
    outer loop
      vertex 34 3.55271e-15 16
      vertex 17.4821 -26.0292 16
      vertex 19.2723 -26.7081 16
    endloop
  endfacet
  facet normal -0 0 1
    outer loop
      vertex 0 3.55271e-15 16
      vertex 17.4821 -26.0292 16
      vertex 34 3.55271e-15 16
    endloop
  endfacet
  facet normal 0 0 1
    outer loop
      vertex 17.4821 -26.0292 16
      vertex 0 3.55271e-15 16
      vertex 15.5816 -26.2599 16
    endloop
  endfacet
  facet normal 0 0 1
    outer loop
      vertex 15.5816 -26.2599 16
      vertex 0 3.55271e-15 16
      vertex 14.006 -27.3475 16
    endloop
  endfacet
  facet normal 0 0 1
    outer loop
      vertex 0 -30 16
      vertex 14.006 -27.3475 16
      vertex 0 3.55271e-15 16
    endloop
  endfacet
  facet normal 0 0 1
    outer loop
      vertex 14.006 -27.3475 16
      vertex 0 -30 16
      vertex 13.1162 -29.0427 16
    endloop
  endfacet
  facet normal 0 0 1
    outer loop
      vertex 13.1162 -29.0427 16
      vertex 0 -30 16
      vertex 13.1162 -30 16
    endloop
  endfacet
  facet normal 0 1 -2.22045e-16
    outer loop
      vertex 0 3.55271e-15 16
      vertex 26.15 2.29556e-15 10.3383
      vertex 6.96885 2.36677e-15 10.659
    endloop
  endfacet
  facet normal 0 1 -2.22045e-16
    outer loop
      vertex 26.15 2.29556e-15 10.3383
      vertex 8.56832 2.16172e-15 9.73553
      vertex 6.96885 2.36677e-15 10.659
    endloop
  endfacet
  facet normal 0 1 -2.22045e-16
    outer loop
      vertex 24.9628 1.9814e-15 8.92345
      vertex 8.56832 2.16172e-15 9.73553
      vertex 26.15 2.29556e-15 10.3383
    endloop
  endfacet
  facet normal 0 1 -2.22045e-16
    outer loop
      vertex 24.9628 1.9814e-15 8.92345
      vertex 9.2 1.77636e-15 8
      vertex 8.56832 2.16172e-15 9.73553
    endloop
  endfacet
  facet normal 0 1 -2.22045e-16
    outer loop
      vertex 24.9628 1.57131e-15 7.07654
      vertex 9.2 1.77636e-15 8
      vertex 24.9628 1.9814e-15 8.92345
    endloop
  endfacet
  facet normal 0 1 -2.22045e-16
    outer loop
      vertex 24.9628 1.57131e-15 7.07654
      vertex 8.56832 1.39099e-15 6.26447
      vertex 9.2 1.77636e-15 8
    endloop
  endfacet
  facet normal 0 1 -2.22045e-16
    outer loop
      vertex 26.15 1.25716e-15 5.66173
      vertex 8.56832 1.39099e-15 6.26447
      vertex 24.9628 1.57131e-15 7.07654
    endloop
  endfacet
  facet normal 0 1 -2.22045e-16
    outer loop
      vertex 34 0 0
      vertex 26.15 1.25716e-15 5.66173
      vertex 27.9688 1.18594e-15 5.34102
    endloop
  endfacet
  facet normal 0 1 -2.22045e-16
    outer loop
      vertex 26.15 1.25716e-15 5.66173
      vertex 6.96885 1.18594e-15 5.34102
      vertex 8.56832 1.39099e-15 6.26447
    endloop
  endfacet
  facet normal 0 1 -2.22045e-16
    outer loop
      vertex 26.15 2.29556e-15 10.3383
      vertex 34 3.55271e-15 16
      vertex 27.9688 2.36677e-15 10.659
    endloop
  endfacet
  facet normal 0 1 -2.22045e-16
    outer loop
      vertex 34 3.55271e-15 16
      vertex 29.5683 2.16172e-15 9.73553
      vertex 27.9688 2.36677e-15 10.659
    endloop
  endfacet
  facet normal 0 1 -2.22045e-16
    outer loop
      vertex 34 3.55271e-15 16
      vertex 30.2 1.77636e-15 8
      vertex 29.5683 2.16172e-15 9.73553
    endloop
  endfacet
  facet normal 0 1 -2.22045e-16
    outer loop
      vertex 34 0 0
      vertex 30.2 1.77636e-15 8
      vertex 34 3.55271e-15 16
    endloop
  endfacet
  facet normal 0 1 -2.22045e-16
    outer loop
      vertex 0 0 0
      vertex 26.15 1.25716e-15 5.66173
      vertex 34 0 0
    endloop
  endfacet
  facet normal 0 1 -2.22045e-16
    outer loop
      vertex 29.5683 1.39099e-15 6.26447
      vertex 34 0 0
      vertex 27.9688 1.18594e-15 5.34102
    endloop
  endfacet
  facet normal 0 1 -2.22045e-16
    outer loop
      vertex 30.2 1.77636e-15 8
      vertex 34 0 0
      vertex 29.5683 1.39099e-15 6.26447
    endloop
  endfacet
  facet normal 0 1 -2.22045e-16
    outer loop
      vertex 26.15 2.29556e-15 10.3383
      vertex 0 3.55271e-15 16
      vertex 34 3.55271e-15 16
    endloop
  endfacet
  facet normal 0 1 -2.22045e-16
    outer loop
      vertex 5.15 2.29556e-15 10.3383
      vertex 0 3.55271e-15 16
      vertex 6.96885 2.36677e-15 10.659
    endloop
  endfacet
  facet normal 0 1 -2.22045e-16
    outer loop
      vertex 3.96283 1.9814e-15 8.92345
      vertex 0 3.55271e-15 16
      vertex 5.15 2.29556e-15 10.3383
    endloop
  endfacet
  facet normal 0 1 -2.22045e-16
    outer loop
      vertex 3.96283 1.57131e-15 7.07654
      vertex 0 3.55271e-15 16
      vertex 3.96283 1.9814e-15 8.92345
    endloop
  endfacet
  facet normal 0 1 -2.22045e-16
    outer loop
      vertex 26.15 1.25716e-15 5.66173
      vertex 0 0 0
      vertex 6.96885 1.18594e-15 5.34102
    endloop
  endfacet
  facet normal 0 1 -2.22045e-16
    outer loop
      vertex 3.96283 1.57131e-15 7.07654
      vertex 0 0 0
      vertex 0 3.55271e-15 16
    endloop
  endfacet
  facet normal 0 1 -2.22045e-16
    outer loop
      vertex 5.15 1.25716e-15 5.66173
      vertex 0 0 0
      vertex 3.96283 1.57131e-15 7.07654
    endloop
  endfacet
  facet normal 0 1 -2.22045e-16
    outer loop
      vertex 6.96885 1.18594e-15 5.34102
      vertex 0 0 0
      vertex 5.15 1.25716e-15 5.66173
    endloop
  endfacet
  facet normal -0 -2.22045e-16 -1
    outer loop
      vertex 13.1162 -30 6.66134e-15
      vertex 0 -30 6.66134e-15
      vertex 13.1162 -29.0427 6.44878e-15
    endloop
  endfacet
  facet normal 0 -2.22045e-16 -1
    outer loop
      vertex 20.5418 -28.1411 6.24858e-15
      vertex 34 -30 6.66134e-15
      vertex 21 -30 6.66134e-15
    endloop
  endfacet
  facet normal 0 -2.22045e-16 -1
    outer loop
      vertex 19.2723 -26.7081 5.93038e-15
      vertex 34 -30 6.66134e-15
      vertex 20.5418 -28.1411 6.24858e-15
    endloop
  endfacet
  facet normal 0 -2.22045e-16 -1
    outer loop
      vertex 34 -30 6.66134e-15
      vertex 19.2723 -26.7081 5.93038e-15
      vertex 34 0 0
    endloop
  endfacet
  facet normal 0 -2.22045e-16 -1
    outer loop
      vertex 17.4821 -26.0292 5.77964e-15
      vertex 34 0 0
      vertex 19.2723 -26.7081 5.93038e-15
    endloop
  endfacet
  facet normal 0 -2.22045e-16 -1
    outer loop
      vertex 0 0 0
      vertex 17.4821 -26.0292 5.77964e-15
      vertex 15.5816 -26.2599 5.83088e-15
    endloop
  endfacet
  facet normal 0 -2.22045e-16 -1
    outer loop
      vertex 0 0 0
      vertex 15.5816 -26.2599 5.83088e-15
      vertex 14.006 -27.3475 6.07237e-15
    endloop
  endfacet
  facet normal 0 -2.22045e-16 -1
    outer loop
      vertex 0 -30 6.66134e-15
      vertex 14.006 -27.3475 6.07237e-15
      vertex 13.1162 -29.0427 6.44878e-15
    endloop
  endfacet
  facet normal 0 -2.22045e-16 -1
    outer loop
      vertex 0 0 0
      vertex 14.006 -27.3475 6.07237e-15
      vertex 0 -30 6.66134e-15
    endloop
  endfacet
  facet normal 0 -2.22045e-16 -1
    outer loop
      vertex 17.4821 -26.0292 5.77964e-15
      vertex 0 0 0
      vertex 34 0 0
    endloop
  endfacet
  facet normal 0.120536 -0.992709 0
    outer loop
      vertex 15.5816 -26.2599 5.83088e-15
      vertex 17.4821 -26.0292 16
      vertex 15.5816 -26.2599 16
    endloop
  endfacet
  facet normal 0.120536 -0.992709 0
    outer loop
      vertex 17.4821 -26.0292 16
      vertex 15.5816 -26.2599 5.83088e-15
      vertex 17.4821 -26.0292 5.77964e-15
    endloop
  endfacet
  facet normal -0.970942 -0.239315 0
    outer loop
      vertex 21 -30 6.66134e-15
      vertex 20.5418 -28.1411 16
      vertex 20.5418 -28.1411 6.24858e-15
    endloop
  endfacet
  facet normal -0.970942 -0.239315 0
    outer loop
      vertex 20.5418 -28.1411 16
      vertex 21 -30 6.66134e-15
      vertex 21 -30 16
    endloop
  endfacet
  facet normal 1 -0 0
    outer loop
      vertex 13.1162 -30 16
      vertex 13.1162 -29.0427 6.44878e-15
      vertex 13.1162 -29.0427 16
    endloop
  endfacet
  facet normal 1 0 0
    outer loop
      vertex 13.1162 -29.0427 6.44878e-15
      vertex 13.1162 -30 16
      vertex 13.1162 -30 6.66134e-15
    endloop
  endfacet
  facet normal 0.568065 -0.822984 0
    outer loop
      vertex 14.006 -27.3475 6.07237e-15
      vertex 15.5816 -26.2599 16
      vertex 14.006 -27.3475 16
    endloop
  endfacet
  facet normal 0.568065 -0.822984 0
    outer loop
      vertex 15.5816 -26.2599 16
      vertex 14.006 -27.3475 6.07237e-15
      vertex 15.5816 -26.2599 5.83088e-15
    endloop
  endfacet
  facet normal 0.885456 -0.464723 0
    outer loop
      vertex 13.1162 -29.0427 16
      vertex 14.006 -27.3475 6.07237e-15
      vertex 14.006 -27.3475 16
    endloop
  endfacet
  facet normal 0.885456 -0.464723 0
    outer loop
      vertex 14.006 -27.3475 6.07237e-15
      vertex 13.1162 -29.0427 16
      vertex 13.1162 -29.0427 6.44878e-15
    endloop
  endfacet
  facet normal -0.74851 -0.663123 7.90505e-08
    outer loop
      vertex 20.5418 -28.1411 6.24858e-15
      vertex 19.2723 -26.7081 16
      vertex 19.2723 -26.7081 5.93038e-15
    endloop
  endfacet
  facet normal -0.748511 -0.663123 0
    outer loop
      vertex 19.2723 -26.7081 16
      vertex 20.5418 -28.1411 6.24858e-15
      vertex 20.5418 -28.1411 16
    endloop
  endfacet
  facet normal -0.354605 -0.935016 1.11463e-07
    outer loop
      vertex 17.4821 -26.0292 16
      vertex 19.2723 -26.7081 5.93038e-15
      vertex 19.2723 -26.7081 16
    endloop
  endfacet
  facet normal -0.354606 -0.935016 0
    outer loop
      vertex 19.2723 -26.7081 5.93038e-15
      vertex 17.4821 -26.0292 16
      vertex 17.4821 -26.0292 5.77964e-15
    endloop
  endfacet
  facet normal -0.939693 0 -0.34202
    outer loop
      vertex 9.2 -30 8
      vertex 8.56832 2.16172e-15 9.73553
      vertex 9.2 1.77636e-15 8
    endloop
  endfacet
  facet normal -0.939693 -0 -0.34202
    outer loop
      vertex 8.56832 2.16172e-15 9.73553
      vertex 9.2 -30 8
      vertex 8.56832 -30 9.73553
    endloop
  endfacet
  facet normal 1 -0 0
    outer loop
      vertex 3.96283 -30 8.92345
      vertex 3.96283 1.57131e-15 7.07654
      vertex 3.96283 1.9814e-15 8.92345
    endloop
  endfacet
  facet normal 1 0 0
    outer loop
      vertex 3.96283 1.57131e-15 7.07654
      vertex 3.96283 -30 8.92345
      vertex 3.96283 -30 7.07654
    endloop
  endfacet
  facet normal 0.173648 0 -0.984808
    outer loop
      vertex 5.15 -30 10.3383
      vertex 6.96885 2.36677e-15 10.659
      vertex 6.96885 -30 10.659
    endloop
  endfacet
  facet normal 0.173648 0 -0.984808
    outer loop
      vertex 6.96885 2.36677e-15 10.659
      vertex 5.15 -30 10.3383
      vertex 5.15 2.29556e-15 10.3383
    endloop
  endfacet
  facet normal -0.5 0 -0.866025
    outer loop
      vertex 6.96885 -30 10.659
      vertex 8.56832 2.16172e-15 9.73553
      vertex 8.56832 -30 9.73553
    endloop
  endfacet
  facet normal -0.5 0 -0.866025
    outer loop
      vertex 8.56832 2.16172e-15 9.73553
      vertex 6.96885 -30 10.659
      vertex 6.96885 2.36677e-15 10.659
    endloop
  endfacet
  facet normal 0.766044 0 -0.642788
    outer loop
      vertex 5.15 -30 10.3383
      vertex 3.96283 1.9814e-15 8.92345
      vertex 5.15 2.29556e-15 10.3383
    endloop
  endfacet
  facet normal 0.766044 0 -0.642788
    outer loop
      vertex 3.96283 1.9814e-15 8.92345
      vertex 5.15 -30 10.3383
      vertex 3.96283 -30 8.92345
    endloop
  endfacet
  facet normal -0.939693 0 0.34202
    outer loop
      vertex 8.56832 -30 6.26447
      vertex 9.2 1.77636e-15 8
      vertex 8.56832 1.39099e-15 6.26447
    endloop
  endfacet
  facet normal -0.939693 0 0.34202
    outer loop
      vertex 9.2 1.77636e-15 8
      vertex 8.56832 -30 6.26447
      vertex 9.2 -30 8
    endloop
  endfacet
  facet normal -0.5 0 0.866025
    outer loop
      vertex 6.96885 1.18594e-15 5.34102
      vertex 8.56832 -30 6.26447
      vertex 8.56832 1.39099e-15 6.26447
    endloop
  endfacet
  facet normal -0.5 0 0.866025
    outer loop
      vertex 8.56832 -30 6.26447
      vertex 6.96885 1.18594e-15 5.34102
      vertex 6.96885 -30 5.34102
    endloop
  endfacet
  facet normal 0.173648 0 0.984808
    outer loop
      vertex 5.15 1.25716e-15 5.66173
      vertex 6.96885 -30 5.34102
      vertex 6.96885 1.18594e-15 5.34102
    endloop
  endfacet
  facet normal 0.173648 0 0.984808
    outer loop
      vertex 6.96885 -30 5.34102
      vertex 5.15 1.25716e-15 5.66173
      vertex 5.15 -30 5.66173
    endloop
  endfacet
  facet normal 0.766044 -0 0.642788
    outer loop
      vertex 3.96283 -30 7.07654
      vertex 5.15 1.25716e-15 5.66173
      vertex 3.96283 1.57131e-15 7.07654
    endloop
  endfacet
  facet normal 0.766044 0 0.642788
    outer loop
      vertex 5.15 1.25716e-15 5.66173
      vertex 3.96283 -30 7.07654
      vertex 5.15 -30 5.66173
    endloop
  endfacet
  facet normal -0.939692 0 -0.342021
    outer loop
      vertex 30.2 -30 8
      vertex 29.5683 2.16172e-15 9.73553
      vertex 30.2 1.77636e-15 8
    endloop
  endfacet
  facet normal -0.939692 -0 -0.342021
    outer loop
      vertex 29.5683 2.16172e-15 9.73553
      vertex 30.2 -30 8
      vertex 29.5683 -30 9.73553
    endloop
  endfacet
  facet normal 1 -0 0
    outer loop
      vertex 24.9628 -30 8.92345
      vertex 24.9628 1.57131e-15 7.07654
      vertex 24.9628 1.9814e-15 8.92345
    endloop
  endfacet
  facet normal 1 0 0
    outer loop
      vertex 24.9628 1.57131e-15 7.07654
      vertex 24.9628 -30 8.92345
      vertex 24.9628 -30 7.07654
    endloop
  endfacet
  facet normal 0.173648 0 -0.984808
    outer loop
      vertex 26.15 -30 10.3383
      vertex 27.9688 2.36677e-15 10.659
      vertex 27.9688 -30 10.659
    endloop
  endfacet
  facet normal 0.173648 0 -0.984808
    outer loop
      vertex 27.9688 2.36677e-15 10.659
      vertex 26.15 -30 10.3383
      vertex 26.15 2.29556e-15 10.3383
    endloop
  endfacet
  facet normal -0.5 0 -0.866025
    outer loop
      vertex 27.9688 -30 10.659
      vertex 29.5683 2.16172e-15 9.73553
      vertex 29.5683 -30 9.73553
    endloop
  endfacet
  facet normal -0.5 0 -0.866025
    outer loop
      vertex 29.5683 2.16172e-15 9.73553
      vertex 27.9688 -30 10.659
      vertex 27.9688 2.36677e-15 10.659
    endloop
  endfacet
  facet normal 0.766044 0 -0.642788
    outer loop
      vertex 26.15 -30 10.3383
      vertex 24.9628 1.9814e-15 8.92345
      vertex 26.15 2.29556e-15 10.3383
    endloop
  endfacet
  facet normal 0.766044 0 -0.642788
    outer loop
      vertex 24.9628 1.9814e-15 8.92345
      vertex 26.15 -30 10.3383
      vertex 24.9628 -30 8.92345
    endloop
  endfacet
  facet normal -0.939692 0 0.342021
    outer loop
      vertex 29.5683 -30 6.26447
      vertex 30.2 1.77636e-15 8
      vertex 29.5683 1.39099e-15 6.26447
    endloop
  endfacet
  facet normal -0.939692 0 0.342021
    outer loop
      vertex 30.2 1.77636e-15 8
      vertex 29.5683 -30 6.26447
      vertex 30.2 -30 8
    endloop
  endfacet
  facet normal 0.766044 -0 0.642788
    outer loop
      vertex 24.9628 -30 7.07654
      vertex 26.15 1.25716e-15 5.66173
      vertex 24.9628 1.57131e-15 7.07654
    endloop
  endfacet
  facet normal 0.766044 0 0.642788
    outer loop
      vertex 26.15 1.25716e-15 5.66173
      vertex 24.9628 -30 7.07654
      vertex 26.15 -30 5.66173
    endloop
  endfacet
  facet normal 0.173648 0 0.984808
    outer loop
      vertex 26.15 1.25716e-15 5.66173
      vertex 27.9688 -30 5.34102
      vertex 27.9688 1.18594e-15 5.34102
    endloop
  endfacet
  facet normal 0.173648 0 0.984808
    outer loop
      vertex 27.9688 -30 5.34102
      vertex 26.15 1.25716e-15 5.66173
      vertex 26.15 -30 5.66173
    endloop
  endfacet
  facet normal -0.5 0 0.866025
    outer loop
      vertex 27.9688 1.18594e-15 5.34102
      vertex 29.5683 -30 6.26447
      vertex 29.5683 1.39099e-15 6.26447
    endloop
  endfacet
  facet normal -0.5 0 0.866025
    outer loop
      vertex 29.5683 -30 6.26447
      vertex 27.9688 1.18594e-15 5.34102
      vertex 27.9688 -30 5.34102
    endloop
  endfacet
  facet normal -1 0 0
    outer loop
      vertex 0 -43 9.54792e-15
      vertex 0 -35.7 16
      vertex 0 -35.7 7.92699e-15
    endloop
  endfacet
  facet normal -1 -0 0
    outer loop
      vertex 0 -35.7 16
      vertex 0 -43 9.54792e-15
      vertex 0 -43 16
    endloop
  endfacet
  facet normal 0 -1 0
    outer loop
      vertex 34 -43 16
      vertex 26.15 -43 10.3383
      vertex 27.9688 -43 10.659
    endloop
  endfacet
  facet normal 0 -1 0
    outer loop
      vertex 8.56832 -43 9.73553
      vertex 26.15 -43 10.3383
      vertex 6.96885 -43 10.659
    endloop
  endfacet
  facet normal 0 -1 0
    outer loop
      vertex 8.56832 -43 9.73553
      vertex 24.9628 -43 8.92345
      vertex 26.15 -43 10.3383
    endloop
  endfacet
  facet normal 0 -1 0
    outer loop
      vertex 9.2 -43 8
      vertex 24.9628 -43 8.92345
      vertex 8.56832 -43 9.73553
    endloop
  endfacet
  facet normal 0 -1 0
    outer loop
      vertex 9.2 -43 8
      vertex 24.9628 -43 7.07654
      vertex 24.9628 -43 8.92345
    endloop
  endfacet
  facet normal 0 -1 0
    outer loop
      vertex 8.56832 -43 6.26447
      vertex 24.9628 -43 7.07654
      vertex 9.2 -43 8
    endloop
  endfacet
  facet normal 0 -1 0
    outer loop
      vertex 8.56832 -43 6.26447
      vertex 26.15 -43 5.66173
      vertex 24.9628 -43 7.07654
    endloop
  endfacet
  facet normal 0 -1 0
    outer loop
      vertex 6.96885 -43 5.34102
      vertex 26.15 -43 5.66173
      vertex 8.56832 -43 6.26447
    endloop
  endfacet
  facet normal 0 -1 0
    outer loop
      vertex 0 -43 9.54792e-15
      vertex 26.15 -43 5.66173
      vertex 6.96885 -43 5.34102
    endloop
  endfacet
  facet normal 0 -1 0
    outer loop
      vertex 26.15 -43 10.3383
      vertex 0 -43 16
      vertex 6.96885 -43 10.659
    endloop
  endfacet
  facet normal 0 -1 0
    outer loop
      vertex 0 -43 16
      vertex 5.15 -43 10.3383
      vertex 6.96885 -43 10.659
    endloop
  endfacet
  facet normal 0 -1 0
    outer loop
      vertex 0 -43 16
      vertex 3.96283 -43 8.92345
      vertex 5.15 -43 10.3383
    endloop
  endfacet
  facet normal 0 -1 0
    outer loop
      vertex 0 -43 16
      vertex 3.96283 -43 7.07654
      vertex 3.96283 -43 8.92345
    endloop
  endfacet
  facet normal 0 -1 -0
    outer loop
      vertex 26.15 -43 5.66173
      vertex 0 -43 9.54792e-15
      vertex 34 -43 9.54792e-15
    endloop
  endfacet
  facet normal 0 -1 -0
    outer loop
      vertex 5.15 -43 5.66173
      vertex 0 -43 9.54792e-15
      vertex 6.96885 -43 5.34102
    endloop
  endfacet
  facet normal 0 -1 -0
    outer loop
      vertex 3.96283 -43 7.07654
      vertex 0 -43 9.54792e-15
      vertex 5.15 -43 5.66173
    endloop
  endfacet
  facet normal 0 -1 0
    outer loop
      vertex 0 -43 9.54792e-15
      vertex 3.96283 -43 7.07654
      vertex 0 -43 16
    endloop
  endfacet
  facet normal 0 -1 0
    outer loop
      vertex 0 -43 16
      vertex 26.15 -43 10.3383
      vertex 34 -43 16
    endloop
  endfacet
  facet normal 0 -1 0
    outer loop
      vertex 29.5683 -43 9.73553
      vertex 34 -43 16
      vertex 27.9688 -43 10.659
    endloop
  endfacet
  facet normal 0 -1 0
    outer loop
      vertex 30.2 -43 8
      vertex 34 -43 16
      vertex 29.5683 -43 9.73553
    endloop
  endfacet
  facet normal 0 -1 0
    outer loop
      vertex 34 -43 9.54792e-15
      vertex 30.2 -43 8
      vertex 29.5683 -43 6.26447
    endloop
  endfacet
  facet normal 0 -1 0
    outer loop
      vertex 30.2 -43 8
      vertex 34 -43 9.54792e-15
      vertex 34 -43 16
    endloop
  endfacet
  facet normal 0 -1 0
    outer loop
      vertex 27.9688 -43 5.34102
      vertex 34 -43 9.54792e-15
      vertex 29.5683 -43 6.26447
    endloop
  endfacet
  facet normal 0 -1 0
    outer loop
      vertex 26.15 -43 5.66173
      vertex 34 -43 9.54792e-15
      vertex 27.9688 -43 5.34102
    endloop
  endfacet
  facet normal 1 -0 0
    outer loop
      vertex 34 -43 16
      vertex 34 -35.7 7.92699e-15
      vertex 34 -35.7 16
    endloop
  endfacet
  facet normal 1 0 0
    outer loop
      vertex 34 -35.7 7.92699e-15
      vertex 34 -43 16
      vertex 34 -43 9.54792e-15
    endloop
  endfacet
  facet normal 0 0 1
    outer loop
      vertex 13.1162 -35.7 16
      vertex 0 -35.7 16
      vertex 13.1162 -35.9573 16
    endloop
  endfacet
  facet normal 0 0 1
    outer loop
      vertex 20.5418 -36.8589 16
      vertex 34 -35.7 16
      vertex 20.8275 -35.7 16
    endloop
  endfacet
  facet normal 0 0 1
    outer loop
      vertex 34 -35.7 16
      vertex 20.5418 -36.8589 16
      vertex 34 -43 16
    endloop
  endfacet
  facet normal -0 0 1
    outer loop
      vertex 19.2723 -38.2919 16
      vertex 34 -43 16
      vertex 20.5418 -36.8589 16
    endloop
  endfacet
  facet normal -0 0 1
    outer loop
      vertex 17.4821 -38.9708 16
      vertex 34 -43 16
      vertex 19.2723 -38.2919 16
    endloop
  endfacet
  facet normal 0 0 1
    outer loop
      vertex 0 -43 16
      vertex 17.4821 -38.9708 16
      vertex 15.5816 -38.7401 16
    endloop
  endfacet
  facet normal 0 0 1
    outer loop
      vertex 0 -43 16
      vertex 13.1162 -35.9573 16
      vertex 0 -35.7 16
    endloop
  endfacet
  facet normal 0 0 1
    outer loop
      vertex 13.1162 -35.9573 16
      vertex 0 -43 16
      vertex 14.006 -37.6525 16
    endloop
  endfacet
  facet normal 0 0 1
    outer loop
      vertex 14.006 -37.6525 16
      vertex 0 -43 16
      vertex 15.5816 -38.7401 16
    endloop
  endfacet
  facet normal 0 0 1
    outer loop
      vertex 17.4821 -38.9708 16
      vertex 0 -43 16
      vertex 34 -43 16
    endloop
  endfacet
  facet normal 0 -2.22045e-16 -1
    outer loop
      vertex 20.5418 -36.8589 8.18432e-15
      vertex 34 -35.7 7.92699e-15
      vertex 34 -43 9.54792e-15
    endloop
  endfacet
  facet normal -0 -2.22045e-16 -1
    outer loop
      vertex 34 -35.7 7.92699e-15
      vertex 20.5418 -36.8589 8.18432e-15
      vertex 20.8275 -35.7 7.92699e-15
    endloop
  endfacet
  facet normal 0 -2.22045e-16 -1
    outer loop
      vertex 34 -43 9.54792e-15
      vertex 19.2723 -38.2919 8.50252e-15
      vertex 20.5418 -36.8589 8.18432e-15
    endloop
  endfacet
  facet normal 0 -2.22045e-16 -1
    outer loop
      vertex 34 -43 9.54792e-15
      vertex 17.4821 -38.9708 8.65326e-15
      vertex 19.2723 -38.2919 8.50252e-15
    endloop
  endfacet
  facet normal 0 -2.22045e-16 -1
    outer loop
      vertex 0 -43 9.54792e-15
      vertex 17.4821 -38.9708 8.65326e-15
      vertex 34 -43 9.54792e-15
    endloop
  endfacet
  facet normal 0 -2.22045e-16 -1
    outer loop
      vertex 17.4821 -38.9708 8.65326e-15
      vertex 0 -43 9.54792e-15
      vertex 15.5816 -38.7401 8.60202e-15
    endloop
  endfacet
  facet normal 0 -2.22045e-16 -1
    outer loop
      vertex 0 -43 9.54792e-15
      vertex 14.006 -37.6525 8.36053e-15
      vertex 15.5816 -38.7401 8.60202e-15
    endloop
  endfacet
  facet normal 0 -2.22045e-16 -1
    outer loop
      vertex 0 -43 9.54792e-15
      vertex 13.1162 -35.9573 7.98412e-15
      vertex 14.006 -37.6525 8.36053e-15
    endloop
  endfacet
  facet normal 0 -2.22045e-16 -1
    outer loop
      vertex 0 -35.7 7.92699e-15
      vertex 13.1162 -35.9573 7.98412e-15
      vertex 0 -43 9.54792e-15
    endloop
  endfacet
  facet normal 0 -2.22045e-16 -1
    outer loop
      vertex 13.1162 -35.9573 7.98412e-15
      vertex 0 -35.7 7.92699e-15
      vertex 13.1162 -35.7 7.92699e-15
    endloop
  endfacet
  facet normal 0 1 0
    outer loop
      vertex 13.1162 -35.7 16
      vertex 6.96885 -35.7 10.659
      vertex 0 -35.7 16
    endloop
  endfacet
  facet normal 0 1 0
    outer loop
      vertex 13.1162 -35.7 16
      vertex 8.56832 -35.7 9.73553
      vertex 6.96885 -35.7 10.659
    endloop
  endfacet
  facet normal 0 1 0
    outer loop
      vertex 13.1162 -35.7 16
      vertex 9.2 -35.7 8
      vertex 8.56832 -35.7 9.73553
    endloop
  endfacet
  facet normal 0 1 -0
    outer loop
      vertex 13.1162 -35.7 7.92699e-15
      vertex 9.2 -35.7 8
      vertex 13.1162 -35.7 16
    endloop
  endfacet
  facet normal 0 1 0
    outer loop
      vertex 8.56832 -35.7 6.26447
      vertex 13.1162 -35.7 7.92699e-15
      vertex 6.96885 -35.7 5.34102
    endloop
  endfacet
  facet normal 0 1 0
    outer loop
      vertex 9.2 -35.7 8
      vertex 13.1162 -35.7 7.92699e-15
      vertex 8.56832 -35.7 6.26447
    endloop
  endfacet
  facet normal 0 1 -0
    outer loop
      vertex 5.15 -35.7 10.3383
      vertex 0 -35.7 16
      vertex 6.96885 -35.7 10.659
    endloop
  endfacet
  facet normal 0 1 -0
    outer loop
      vertex 3.96283 -35.7 8.92345
      vertex 0 -35.7 16
      vertex 5.15 -35.7 10.3383
    endloop
  endfacet
  facet normal 0 1 -0
    outer loop
      vertex 3.96283 -35.7 7.07654
      vertex 0 -35.7 16
      vertex 3.96283 -35.7 8.92345
    endloop
  endfacet
  facet normal 0 1 0
    outer loop
      vertex 0 -35.7 7.92699e-15
      vertex 6.96885 -35.7 5.34102
      vertex 13.1162 -35.7 7.92699e-15
    endloop
  endfacet
  facet normal 0 1 0
    outer loop
      vertex 3.96283 -35.7 7.07654
      vertex 0 -35.7 7.92699e-15
      vertex 0 -35.7 16
    endloop
  endfacet
  facet normal 0 1 0
    outer loop
      vertex 5.15 -35.7 5.66173
      vertex 0 -35.7 7.92699e-15
      vertex 3.96283 -35.7 7.07654
    endloop
  endfacet
  facet normal 0 1 0
    outer loop
      vertex 6.96885 -35.7 5.34102
      vertex 0 -35.7 7.92699e-15
      vertex 5.15 -35.7 5.66173
    endloop
  endfacet
  facet normal 0 1 0
    outer loop
      vertex 34 -35.7 16
      vertex 27.9688 -35.7 10.659
      vertex 20.8275 -35.7 16
    endloop
  endfacet
  facet normal 0 1 0
    outer loop
      vertex 34 -35.7 16
      vertex 29.5683 -35.7 9.73553
      vertex 27.9688 -35.7 10.659
    endloop
  endfacet
  facet normal 0 1 0
    outer loop
      vertex 34 -35.7 16
      vertex 30.2 -35.7 8
      vertex 29.5683 -35.7 9.73553
    endloop
  endfacet
  facet normal 0 1 -0
    outer loop
      vertex 34 -35.7 7.92699e-15
      vertex 30.2 -35.7 8
      vertex 34 -35.7 16
    endloop
  endfacet
  facet normal 0 1 0
    outer loop
      vertex 29.5683 -35.7 6.26447
      vertex 34 -35.7 7.92699e-15
      vertex 27.9688 -35.7 5.34102
    endloop
  endfacet
  facet normal 0 1 0
    outer loop
      vertex 30.2 -35.7 8
      vertex 34 -35.7 7.92699e-15
      vertex 29.5683 -35.7 6.26447
    endloop
  endfacet
  facet normal 0 1 -0
    outer loop
      vertex 26.15 -35.7 10.3383
      vertex 20.8275 -35.7 16
      vertex 27.9688 -35.7 10.659
    endloop
  endfacet
  facet normal 0 1 -0
    outer loop
      vertex 24.9628 -35.7 8.92345
      vertex 20.8275 -35.7 16
      vertex 26.15 -35.7 10.3383
    endloop
  endfacet
  facet normal 0 1 -0
    outer loop
      vertex 24.9628 -35.7 7.07654
      vertex 20.8275 -35.7 16
      vertex 24.9628 -35.7 8.92345
    endloop
  endfacet
  facet normal 0 1 0
    outer loop
      vertex 20.8275 -35.7 7.92699e-15
      vertex 27.9688 -35.7 5.34102
      vertex 34 -35.7 7.92699e-15
    endloop
  endfacet
  facet normal 0 1 0
    outer loop
      vertex 24.9628 -35.7 7.07654
      vertex 20.8275 -35.7 7.92699e-15
      vertex 20.8275 -35.7 16
    endloop
  endfacet
  facet normal 0 1 0
    outer loop
      vertex 26.15 -35.7 5.66173
      vertex 20.8275 -35.7 7.92699e-15
      vertex 24.9628 -35.7 7.07654
    endloop
  endfacet
  facet normal 0 1 0
    outer loop
      vertex 27.9688 -35.7 5.34102
      vertex 20.8275 -35.7 7.92699e-15
      vertex 26.15 -35.7 5.66173
    endloop
  endfacet
  facet normal 1 -0 0
    outer loop
      vertex 13.1162 -35.9573 16
      vertex 13.1162 -35.7 7.92699e-15
      vertex 13.1162 -35.7 16
    endloop
  endfacet
  facet normal 1 0 0
    outer loop
      vertex 13.1162 -35.7 7.92699e-15
      vertex 13.1162 -35.9573 16
      vertex 13.1162 -35.9573 7.98412e-15
    endloop
  endfacet
  facet normal -0.354604 0.935017 0
    outer loop
      vertex 19.2723 -38.2919 16
      vertex 17.4821 -38.9708 8.65326e-15
      vertex 17.4821 -38.9708 16
    endloop
  endfacet
  facet normal -0.354604 0.935017 0
    outer loop
      vertex 17.4821 -38.9708 8.65326e-15
      vertex 19.2723 -38.2919 16
      vertex 19.2723 -38.2919 8.50252e-15
    endloop
  endfacet
  facet normal -0.74851 0.663123 -1.58101e-07
    outer loop
      vertex 19.2723 -38.2919 8.50252e-15
      vertex 20.5418 -36.8589 16
      vertex 20.5418 -36.8589 8.18432e-15
    endloop
  endfacet
  facet normal -0.748511 0.663122 0
    outer loop
      vertex 20.5418 -36.8589 16
      vertex 19.2723 -38.2919 8.50252e-15
      vertex 19.2723 -38.2919 16
    endloop
  endfacet
  facet normal -0.970942 0.239316 0
    outer loop
      vertex 20.8275 -35.7 7.92699e-15
      vertex 20.5418 -36.8589 16
      vertex 20.8275 -35.7 16
    endloop
  endfacet
  facet normal -0.970942 0.239315 -5.70571e-08
    outer loop
      vertex 20.5418 -36.8589 16
      vertex 20.8275 -35.7 7.92699e-15
      vertex 20.5418 -36.8589 8.18432e-15
    endloop
  endfacet
  facet normal 0.120536 0.992709 -0
    outer loop
      vertex 17.4821 -38.9708 8.65326e-15
      vertex 15.5816 -38.7401 16
      vertex 17.4821 -38.9708 16
    endloop
  endfacet
  facet normal 0.120534 0.992709 -2.3668e-07
    outer loop
      vertex 15.5816 -38.7401 16
      vertex 17.4821 -38.9708 8.65326e-15
      vertex 15.5816 -38.7401 8.60202e-15
    endloop
  endfacet
  facet normal 0.568065 0.822984 -1.96215e-07
    outer loop
      vertex 15.5816 -38.7401 8.60202e-15
      vertex 14.006 -37.6525 16
      vertex 15.5816 -38.7401 16
    endloop
  endfacet
  facet normal 0.568066 0.822983 0
    outer loop
      vertex 14.006 -37.6525 16
      vertex 15.5816 -38.7401 8.60202e-15
      vertex 14.006 -37.6525 8.36053e-15
    endloop
  endfacet
  facet normal 0.885456 0.464723 0
    outer loop
      vertex 14.006 -37.6525 16
      vertex 13.1162 -35.9573 7.98412e-15
      vertex 13.1162 -35.9573 16
    endloop
  endfacet
  facet normal 0.885456 0.464723 0
    outer loop
      vertex 13.1162 -35.9573 7.98412e-15
      vertex 14.006 -37.6525 16
      vertex 14.006 -37.6525 8.36053e-15
    endloop
  endfacet
  facet normal -0.939693 0 -0.34202
    outer loop
      vertex 9.2 -43 8
      vertex 8.56832 -35.7 9.73553
      vertex 9.2 -35.7 8
    endloop
  endfacet
  facet normal -0.939693 -0 -0.34202
    outer loop
      vertex 8.56832 -35.7 9.73553
      vertex 9.2 -43 8
      vertex 8.56832 -43 9.73553
    endloop
  endfacet
  facet normal 1 -0 0
    outer loop
      vertex 3.96283 -43 8.92345
      vertex 3.96283 -35.7 7.07654
      vertex 3.96283 -35.7 8.92345
    endloop
  endfacet
  facet normal 1 0 0
    outer loop
      vertex 3.96283 -35.7 7.07654
      vertex 3.96283 -43 8.92345
      vertex 3.96283 -43 7.07654
    endloop
  endfacet
  facet normal 0.173648 0 -0.984808
    outer loop
      vertex 5.15 -43 10.3383
      vertex 6.96885 -35.7 10.659
      vertex 6.96885 -43 10.659
    endloop
  endfacet
  facet normal 0.173648 0 -0.984808
    outer loop
      vertex 6.96885 -35.7 10.659
      vertex 5.15 -43 10.3383
      vertex 5.15 -35.7 10.3383
    endloop
  endfacet
  facet normal -0.5 0 -0.866025
    outer loop
      vertex 6.96885 -43 10.659
      vertex 8.56832 -35.7 9.73553
      vertex 8.56832 -43 9.73553
    endloop
  endfacet
  facet normal -0.5 0 -0.866025
    outer loop
      vertex 8.56832 -35.7 9.73553
      vertex 6.96885 -43 10.659
      vertex 6.96885 -35.7 10.659
    endloop
  endfacet
  facet normal 0.766044 0 -0.642788
    outer loop
      vertex 5.15 -43 10.3383
      vertex 3.96283 -35.7 8.92345
      vertex 5.15 -35.7 10.3383
    endloop
  endfacet
  facet normal 0.766044 0 -0.642788
    outer loop
      vertex 3.96283 -35.7 8.92345
      vertex 5.15 -43 10.3383
      vertex 3.96283 -43 8.92345
    endloop
  endfacet
  facet normal -0.939693 0 0.34202
    outer loop
      vertex 8.56832 -43 6.26447
      vertex 9.2 -35.7 8
      vertex 8.56832 -35.7 6.26447
    endloop
  endfacet
  facet normal -0.939693 0 0.34202
    outer loop
      vertex 9.2 -35.7 8
      vertex 8.56832 -43 6.26447
      vertex 9.2 -43 8
    endloop
  endfacet
  facet normal -0.5 0 0.866025
    outer loop
      vertex 6.96885 -35.7 5.34102
      vertex 8.56832 -43 6.26447
      vertex 8.56832 -35.7 6.26447
    endloop
  endfacet
  facet normal -0.5 0 0.866025
    outer loop
      vertex 8.56832 -43 6.26447
      vertex 6.96885 -35.7 5.34102
      vertex 6.96885 -43 5.34102
    endloop
  endfacet
  facet normal 0.173648 0 0.984808
    outer loop
      vertex 5.15 -35.7 5.66173
      vertex 6.96885 -43 5.34102
      vertex 6.96885 -35.7 5.34102
    endloop
  endfacet
  facet normal 0.173648 0 0.984808
    outer loop
      vertex 6.96885 -43 5.34102
      vertex 5.15 -35.7 5.66173
      vertex 5.15 -43 5.66173
    endloop
  endfacet
  facet normal 0.766044 -0 0.642788
    outer loop
      vertex 3.96283 -43 7.07654
      vertex 5.15 -35.7 5.66173
      vertex 3.96283 -35.7 7.07654
    endloop
  endfacet
  facet normal 0.766044 0 0.642788
    outer loop
      vertex 5.15 -35.7 5.66173
      vertex 3.96283 -43 7.07654
      vertex 5.15 -43 5.66173
    endloop
  endfacet
  facet normal -0.939692 0 -0.342021
    outer loop
      vertex 30.2 -43 8
      vertex 29.5683 -35.7 9.73553
      vertex 30.2 -35.7 8
    endloop
  endfacet
  facet normal -0.939692 -0 -0.342021
    outer loop
      vertex 29.5683 -35.7 9.73553
      vertex 30.2 -43 8
      vertex 29.5683 -43 9.73553
    endloop
  endfacet
  facet normal 1 -0 0
    outer loop
      vertex 24.9628 -43 8.92345
      vertex 24.9628 -35.7 7.07654
      vertex 24.9628 -35.7 8.92345
    endloop
  endfacet
  facet normal 1 0 0
    outer loop
      vertex 24.9628 -35.7 7.07654
      vertex 24.9628 -43 8.92345
      vertex 24.9628 -43 7.07654
    endloop
  endfacet
  facet normal 0.173648 0 -0.984808
    outer loop
      vertex 26.15 -43 10.3383
      vertex 27.9688 -35.7 10.659
      vertex 27.9688 -43 10.659
    endloop
  endfacet
  facet normal 0.173648 0 -0.984808
    outer loop
      vertex 27.9688 -35.7 10.659
      vertex 26.15 -43 10.3383
      vertex 26.15 -35.7 10.3383
    endloop
  endfacet
  facet normal -0.5 0 -0.866025
    outer loop
      vertex 27.9688 -43 10.659
      vertex 29.5683 -35.7 9.73553
      vertex 29.5683 -43 9.73553
    endloop
  endfacet
  facet normal -0.5 0 -0.866025
    outer loop
      vertex 29.5683 -35.7 9.73553
      vertex 27.9688 -43 10.659
      vertex 27.9688 -35.7 10.659
    endloop
  endfacet
  facet normal 0.766044 0 -0.642788
    outer loop
      vertex 26.15 -43 10.3383
      vertex 24.9628 -35.7 8.92345
      vertex 26.15 -35.7 10.3383
    endloop
  endfacet
  facet normal 0.766044 0 -0.642788
    outer loop
      vertex 24.9628 -35.7 8.92345
      vertex 26.15 -43 10.3383
      vertex 24.9628 -43 8.92345
    endloop
  endfacet
  facet normal -0.939692 0 0.342021
    outer loop
      vertex 29.5683 -43 6.26447
      vertex 30.2 -35.7 8
      vertex 29.5683 -35.7 6.26447
    endloop
  endfacet
  facet normal -0.939692 0 0.342021
    outer loop
      vertex 30.2 -35.7 8
      vertex 29.5683 -43 6.26447
      vertex 30.2 -43 8
    endloop
  endfacet
  facet normal 0.766044 -0 0.642788
    outer loop
      vertex 24.9628 -43 7.07654
      vertex 26.15 -35.7 5.66173
      vertex 24.9628 -35.7 7.07654
    endloop
  endfacet
  facet normal 0.766044 0 0.642788
    outer loop
      vertex 26.15 -35.7 5.66173
      vertex 24.9628 -43 7.07654
      vertex 26.15 -43 5.66173
    endloop
  endfacet
  facet normal 0.173648 0 0.984808
    outer loop
      vertex 26.15 -35.7 5.66173
      vertex 27.9688 -43 5.34102
      vertex 27.9688 -35.7 5.34102
    endloop
  endfacet
  facet normal 0.173648 0 0.984808
    outer loop
      vertex 27.9688 -43 5.34102
      vertex 26.15 -35.7 5.66173
      vertex 26.15 -43 5.66173
    endloop
  endfacet
  facet normal -0.5 0 0.866025
    outer loop
      vertex 27.9688 -35.7 5.34102
      vertex 29.5683 -43 6.26447
      vertex 29.5683 -35.7 6.26447
    endloop
  endfacet
  facet normal -0.5 0 0.866025
    outer loop
      vertex 29.5683 -43 6.26447
      vertex 27.9688 -35.7 5.34102
      vertex 27.9688 -43 5.34102
    endloop
  endfacet
endsolid OpenSCAD_Model
