solid OpenSCAD_Model
  facet normal -1 0 0
    outer loop
      vertex 0 -45.5 0
      vertex 0 -31 5.2
      vertex 0 -31 0
    endloop
  endfacet
  facet normal -1 -0 0
    outer loop
      vertex 0 -31 5.2
      vertex 0 -45.5 0
      vertex 0 -45.5 5.2
    endloop
  endfacet
  facet normal -1 0 0
    outer loop
      vertex 0 -45.5 10.8
      vertex 0 -31 16
      vertex 0 -31 10.8
    endloop
  endfacet
  facet normal -1 -0 0
    outer loop
      vertex 0 -31 16
      vertex 0 -45.5 10.8
      vertex 0 -45.5 16
    endloop
  endfacet
  facet normal 0 -1 0
    outer loop
      vertex 0 -45.5 5.2
      vertex 0 -45.5 0
      vertex 6.5 -45.5 5.2
    endloop
  endfacet
  facet normal 0 -1 0
    outer loop
      vertex 6.5 -45.5 10.8
      vertex 0 -45.5 16
      vertex 0 -45.5 10.8
    endloop
  endfacet
  facet normal 0 -1 0
    outer loop
      vertex 7.04625 -45.5 10.7462
      vertex 0 -45.5 16
      vertex 6.5 -45.5 10.8
    endloop
  endfacet
  facet normal 0 -1 0
    outer loop
      vertex 7.57151 -45.5 10.5869
      vertex 0 -45.5 16
      vertex 7.04625 -45.5 10.7462
    endloop
  endfacet
  facet normal 0 -1 0
    outer loop
      vertex 0 -45.5 16
      vertex 7.57151 -45.5 10.5869
      vertex 36.8756 -45.5 16
    endloop
  endfacet
  facet normal 0 -1 0
    outer loop
      vertex 8.0556 -45.5 10.3281
      vertex 36.8756 -45.5 16
      vertex 7.57151 -45.5 10.5869
    endloop
  endfacet
  facet normal 0 -1 0
    outer loop
      vertex 8.4799 -45.5 9.9799
      vertex 36.8756 -45.5 16
      vertex 8.0556 -45.5 10.3281
    endloop
  endfacet
  facet normal 0 -1 0
    outer loop
      vertex 8.82811 -45.5 9.5556
      vertex 36.8756 -45.5 16
      vertex 8.4799 -45.5 9.9799
    endloop
  endfacet
  facet normal 0 -1 0
    outer loop
      vertex 9.08686 -45.5 9.07151
      vertex 36.8756 -45.5 16
      vertex 8.82811 -45.5 9.5556
    endloop
  endfacet
  facet normal 0 -1 0
    outer loop
      vertex 9.2462 -45.5 8.54625
      vertex 36.8756 -45.5 16
      vertex 9.08686 -45.5 9.07151
    endloop
  endfacet
  facet normal 0 -1 0
    outer loop
      vertex 9.3 -45.5 8
      vertex 36.8756 -45.5 16
      vertex 9.2462 -45.5 8.54625
    endloop
  endfacet
  facet normal 0 -1 0
    outer loop
      vertex 36.8756 -45.5 0
      vertex 9.3 -45.5 8
      vertex 9.2462 -45.5 7.45375
    endloop
  endfacet
  facet normal 0 -1 0
    outer loop
      vertex 36.8756 -45.5 0
      vertex 9.2462 -45.5 7.45375
      vertex 9.08686 -45.5 6.92849
    endloop
  endfacet
  facet normal 0 -1 0
    outer loop
      vertex 36.8756 -45.5 0
      vertex 9.08686 -45.5 6.92849
      vertex 8.82811 -45.5 6.4444
    endloop
  endfacet
  facet normal 0 -1 0
    outer loop
      vertex 36.8756 -45.5 0
      vertex 8.82811 -45.5 6.4444
      vertex 8.4799 -45.5 6.0201
    endloop
  endfacet
  facet normal 0 -1 0
    outer loop
      vertex 36.8756 -45.5 0
      vertex 8.4799 -45.5 6.0201
      vertex 8.0556 -45.5 5.67188
    endloop
  endfacet
  facet normal 0 -1 0
    outer loop
      vertex 36.8756 -45.5 0
      vertex 8.0556 -45.5 5.67188
      vertex 7.57151 -45.5 5.41314
    endloop
  endfacet
  facet normal 0 -1 0
    outer loop
      vertex 0 -45.5 0
      vertex 7.04625 -45.5 5.2538
      vertex 6.5 -45.5 5.2
    endloop
  endfacet
  facet normal 0 -1 0
    outer loop
      vertex 0 -45.5 0
      vertex 7.57151 -45.5 5.41314
      vertex 7.04625 -45.5 5.2538
    endloop
  endfacet
  facet normal 0 -1 0
    outer loop
      vertex 36.8756 -45.5 0
      vertex 7.57151 -45.5 5.41314
      vertex 0 -45.5 0
    endloop
  endfacet
  facet normal 0 -1 0
    outer loop
      vertex 9.3 -45.5 8
      vertex 36.8756 -45.5 0
      vertex 36.8756 -45.5 16
    endloop
  endfacet
  facet normal 1 -0 0
    outer loop
      vertex 49 -38.5 16
      vertex 49 -36.9 11.5
      vertex 49 -36.9 16
    endloop
  endfacet
  facet normal 1 0 0
    outer loop
      vertex 49 -36.9 11.5
      vertex 49 -38.5 16
      vertex 49 -36.9 4.5
    endloop
  endfacet
  facet normal 1 0 0
    outer loop
      vertex 49 -38.5 0
      vertex 49 -36.9 4.5
      vertex 49 -38.5 16
    endloop
  endfacet
  facet normal 1 0 0
    outer loop
      vertex 49 -36.9 4.5
      vertex 49 -38.5 0
      vertex 49 -36.9 0
    endloop
  endfacet
  facet normal 1 -0 0
    outer loop
      vertex 49 -36.9 11.5
      vertex 49 -30 4.5
      vertex 49 -30 11.5
    endloop
  endfacet
  facet normal 1 0 0
    outer loop
      vertex 49 -30 4.5
      vertex 49 -36.9 11.5
      vertex 49 -36.9 4.5
    endloop
  endfacet
  facet normal -0 0 1
    outer loop
      vertex 42.5 -36.9 16
      vertex 49 -38.5 16
      vertex 49 -36.9 16
    endloop
  endfacet
  facet normal 0 0 1
    outer loop
      vertex 36.8756 -45.5 16
      vertex 42.5 -36.9 16
      vertex 41.1539 -36.7674 16
    endloop
  endfacet
  facet normal 0 0 1
    outer loop
      vertex 42.5 -36.9 16
      vertex 36.8756 -45.5 16
      vertex 49 -38.5 16
    endloop
  endfacet
  facet normal 0 0 1
    outer loop
      vertex 39.8595 -36.3748 16
      vertex 36.8756 -45.5 16
      vertex 41.1539 -36.7674 16
    endloop
  endfacet
  facet normal 0 0 1
    outer loop
      vertex 32.6317 -38.1317 16
      vertex 39.8595 -36.3748 16
      vertex 38.6666 -35.7371 16
    endloop
  endfacet
  facet normal 0 0 1
    outer loop
      vertex 34.0619 -36.3891 16
      vertex 38.6666 -35.7371 16
      vertex 37.621 -34.879 16
    endloop
  endfacet
  facet normal -0 0 1
    outer loop
      vertex 35.1246 -34.4009 16
      vertex 37.621 -34.879 16
      vertex 36.7629 -33.8334 16
    endloop
  endfacet
  facet normal 0 0 1
    outer loop
      vertex 35.1246 -34.4009 16
      vertex 36.7629 -33.8334 16
      vertex 36.1252 -32.6405 16
    endloop
  endfacet
  facet normal -0 0 1
    outer loop
      vertex 35.779 -32.2435 16
      vertex 36.1252 -32.6405 16
      vertex 35.8344 -31.6817 16
    endloop
  endfacet
  facet normal 0 0 1
    outer loop
      vertex 35.1246 -34.4009 16
      vertex 36.1252 -32.6405 16
      vertex 35.779 -32.2435 16
    endloop
  endfacet
  facet normal 0 0 1
    outer loop
      vertex 37.621 -34.879 16
      vertex 35.1246 -34.4009 16
      vertex 34.0619 -36.3891 16
    endloop
  endfacet
  facet normal 0 0 1
    outer loop
      vertex 32.6317 -38.1317 16
      vertex 38.6666 -35.7371 16
      vertex 34.0619 -36.3891 16
    endloop
  endfacet
  facet normal 0 0 1
    outer loop
      vertex 39.8595 -36.3748 16
      vertex 32.6317 -38.1317 16
      vertex 36.8756 -45.5 16
    endloop
  endfacet
  facet normal -0 0 1
    outer loop
      vertex 30.8891 -39.5619 16
      vertex 36.8756 -45.5 16
      vertex 32.6317 -38.1317 16
    endloop
  endfacet
  facet normal -0 0 1
    outer loop
      vertex 28.9009 -40.6246 16
      vertex 36.8756 -45.5 16
      vertex 30.8891 -39.5619 16
    endloop
  endfacet
  facet normal -0 0 1
    outer loop
      vertex 26.7435 -41.279 16
      vertex 36.8756 -45.5 16
      vertex 28.9009 -40.6246 16
    endloop
  endfacet
  facet normal -0 0 1
    outer loop
      vertex 24.5 -41.5 16
      vertex 36.8756 -45.5 16
      vertex 26.7435 -41.279 16
    endloop
  endfacet
  facet normal 0 0 1
    outer loop
      vertex 22.2565 -41.279 16
      vertex 36.8756 -45.5 16
      vertex 24.5 -41.5 16
    endloop
  endfacet
  facet normal -0 0 1
    outer loop
      vertex 0 -31 16
      vertex 13.221 -32.2435 16
      vertex 13.0985 -31 16
    endloop
  endfacet
  facet normal 0 0 1
    outer loop
      vertex 0 -31 16
      vertex 13.8754 -34.4009 16
      vertex 13.221 -32.2435 16
    endloop
  endfacet
  facet normal 0 0 1
    outer loop
      vertex 0 -45.5 16
      vertex 13.8754 -34.4009 16
      vertex 0 -31 16
    endloop
  endfacet
  facet normal 0 0 1
    outer loop
      vertex 13.8754 -34.4009 16
      vertex 0 -45.5 16
      vertex 14.9381 -36.3891 16
    endloop
  endfacet
  facet normal 0 0 1
    outer loop
      vertex 14.9381 -36.3891 16
      vertex 0 -45.5 16
      vertex 16.3683 -38.1317 16
    endloop
  endfacet
  facet normal 0 0 1
    outer loop
      vertex 16.3683 -38.1317 16
      vertex 0 -45.5 16
      vertex 18.1109 -39.5619 16
    endloop
  endfacet
  facet normal 0 0 1
    outer loop
      vertex 22.2565 -41.279 16
      vertex 0 -45.5 16
      vertex 36.8756 -45.5 16
    endloop
  endfacet
  facet normal 0 0 1
    outer loop
      vertex 20.0991 -40.6246 16
      vertex 0 -45.5 16
      vertex 22.2565 -41.279 16
    endloop
  endfacet
  facet normal 0 0 1
    outer loop
      vertex 18.1109 -39.5619 16
      vertex 0 -45.5 16
      vertex 20.0991 -40.6246 16
    endloop
  endfacet
  facet normal 0 0 -1
    outer loop
      vertex 49 -38.5 0
      vertex 42.5 -36.9 0
      vertex 49 -36.9 0
    endloop
  endfacet
  facet normal 0 0 -1
    outer loop
      vertex 36.8756 -45.5 0
      vertex 42.5 -36.9 0
      vertex 49 -38.5 0
    endloop
  endfacet
  facet normal -0 0 -1
    outer loop
      vertex 42.5 -36.9 0
      vertex 36.8756 -45.5 0
      vertex 41.1539 -36.7674 0
    endloop
  endfacet
  facet normal 0 0 -1
    outer loop
      vertex 36.8756 -45.5 0
      vertex 39.8595 -36.3748 0
      vertex 41.1539 -36.7674 0
    endloop
  endfacet
  facet normal 0 0 -1
    outer loop
      vertex 32.6317 -38.1317 0
      vertex 39.8595 -36.3748 0
      vertex 36.8756 -45.5 0
    endloop
  endfacet
  facet normal -0 0 -1
    outer loop
      vertex 39.8595 -36.3748 0
      vertex 32.6317 -38.1317 0
      vertex 38.6666 -35.7371 0
    endloop
  endfacet
  facet normal -0 0 -1
    outer loop
      vertex 38.6666 -35.7371 0
      vertex 34.0619 -36.3891 0
      vertex 37.621 -34.879 0
    endloop
  endfacet
  facet normal 0 -0 -1
    outer loop
      vertex 35.1246 -34.4009 0
      vertex 37.621 -34.879 0
      vertex 34.0619 -36.3891 0
    endloop
  endfacet
  facet normal -0 0 -1
    outer loop
      vertex 36.7629 -33.8334 0
      vertex 35.1246 -34.4009 0
      vertex 36.1252 -32.6405 0
    endloop
  endfacet
  facet normal 0 0 -1
    outer loop
      vertex 36.1252 -32.6405 0
      vertex 35.779 -32.2435 0
      vertex 35.8344 -31.6817 0
    endloop
  endfacet
  facet normal -0 0 -1
    outer loop
      vertex 36.1252 -32.6405 0
      vertex 35.1246 -34.4009 0
      vertex 35.779 -32.2435 0
    endloop
  endfacet
  facet normal 0 0 -1
    outer loop
      vertex 37.621 -34.879 0
      vertex 35.1246 -34.4009 0
      vertex 36.7629 -33.8334 0
    endloop
  endfacet
  facet normal 0 0 -1
    outer loop
      vertex 38.6666 -35.7371 0
      vertex 32.6317 -38.1317 0
      vertex 34.0619 -36.3891 0
    endloop
  endfacet
  facet normal 0 0 -1
    outer loop
      vertex 36.8756 -45.5 0
      vertex 30.8891 -39.5619 0
      vertex 32.6317 -38.1317 0
    endloop
  endfacet
  facet normal 0 0 -1
    outer loop
      vertex 36.8756 -45.5 0
      vertex 28.9009 -40.6246 0
      vertex 30.8891 -39.5619 0
    endloop
  endfacet
  facet normal 0 0 -1
    outer loop
      vertex 36.8756 -45.5 0
      vertex 26.7435 -41.279 0
      vertex 28.9009 -40.6246 0
    endloop
  endfacet
  facet normal 0 0 -1
    outer loop
      vertex 36.8756 -45.5 0
      vertex 24.5 -41.5 0
      vertex 26.7435 -41.279 0
    endloop
  endfacet
  facet normal 0 0 -1
    outer loop
      vertex 36.8756 -45.5 0
      vertex 22.2565 -41.279 0
      vertex 24.5 -41.5 0
    endloop
  endfacet
  facet normal 0 0 -1
    outer loop
      vertex 0 -45.5 0
      vertex 22.2565 -41.279 0
      vertex 36.8756 -45.5 0
    endloop
  endfacet
  facet normal 0 0 -1
    outer loop
      vertex 0 -45.5 0
      vertex 20.0991 -40.6246 0
      vertex 22.2565 -41.279 0
    endloop
  endfacet
  facet normal 0 0 -1
    outer loop
      vertex 0 -45.5 0
      vertex 18.1109 -39.5619 0
      vertex 20.0991 -40.6246 0
    endloop
  endfacet
  facet normal 0 0 -1
    outer loop
      vertex 0 -45.5 0
      vertex 16.3683 -38.1317 0
      vertex 18.1109 -39.5619 0
    endloop
  endfacet
  facet normal 0 0 -1
    outer loop
      vertex 0 -45.5 0
      vertex 14.9381 -36.3891 0
      vertex 16.3683 -38.1317 0
    endloop
  endfacet
  facet normal 0 0 -1
    outer loop
      vertex 0 -45.5 0
      vertex 13.8754 -34.4009 0
      vertex 14.9381 -36.3891 0
    endloop
  endfacet
  facet normal 0 0 -1
    outer loop
      vertex 0 -31 0
      vertex 13.8754 -34.4009 0
      vertex 0 -45.5 0
    endloop
  endfacet
  facet normal 0 0 -1
    outer loop
      vertex 13.8754 -34.4009 0
      vertex 0 -31 0
      vertex 13.221 -32.2435 0
    endloop
  endfacet
  facet normal 0 0 -1
    outer loop
      vertex 13.221 -32.2435 0
      vertex 0 -31 0
      vertex 13.0985 -31 0
    endloop
  endfacet
  facet normal 0.995184 0.0980195 0
    outer loop
      vertex 49 -30 11.5
      vertex 48.8751 -28.7319 4.5
      vertex 48.8751 -28.7319 11.5
    endloop
  endfacet
  facet normal 0.995184 0.0980195 0
    outer loop
      vertex 48.8751 -28.7319 4.5
      vertex 49 -30 11.5
      vertex 49 -30 4.5
    endloop
  endfacet
  facet normal -0.0980195 0.995184 0
    outer loop
      vertex 42.5 -23.5 4.5
      vertex 41.2319 -23.6249 11.5
      vertex 42.5 -23.5 11.5
    endloop
  endfacet
  facet normal -0.0980195 0.995184 0
    outer loop
      vertex 41.2319 -23.6249 11.5
      vertex 42.5 -23.5 4.5
      vertex 41.2319 -23.6249 4.5
    endloop
  endfacet
  facet normal 0.634408 0.772998 -0
    outer loop
      vertex 47.0962 -25.4038 4.5
      vertex 46.1112 -24.5954 11.5
      vertex 47.0962 -25.4038 11.5
    endloop
  endfacet
  facet normal 0.634408 0.772998 0
    outer loop
      vertex 46.1112 -24.5954 11.5
      vertex 47.0962 -25.4038 4.5
      vertex 46.1112 -24.5954 4.5
    endloop
  endfacet
  facet normal -0.772998 0.634408 0
    outer loop
      vertex 37.0954 -26.3888 4.5
      vertex 37.9038 -25.4038 11.5
      vertex 37.9038 -25.4038 4.5
    endloop
  endfacet
  facet normal -0.772998 0.634408 0
    outer loop
      vertex 37.9038 -25.4038 11.5
      vertex 37.0954 -26.3888 4.5
      vertex 37.0954 -26.3888 11.5
    endloop
  endfacet
  facet normal -0.471346 0.881949 0
    outer loop
      vertex 40.0126 -23.9948 4.5
      vertex 38.8888 -24.5954 11.5
      vertex 40.0126 -23.9948 11.5
    endloop
  endfacet
  facet normal -0.471346 0.881949 0
    outer loop
      vertex 38.8888 -24.5954 11.5
      vertex 40.0126 -23.9948 4.5
      vertex 38.8888 -24.5954 4.5
    endloop
  endfacet
  facet normal 0.881949 0.471346 0
    outer loop
      vertex 48.5052 -27.5126 11.5
      vertex 47.9046 -26.3888 4.5
      vertex 47.9046 -26.3888 11.5
    endloop
  endfacet
  facet normal 0.881949 0.471346 0
    outer loop
      vertex 47.9046 -26.3888 4.5
      vertex 48.5052 -27.5126 11.5
      vertex 48.5052 -27.5126 4.5
    endloop
  endfacet
  facet normal 0.956934 0.290306 0
    outer loop
      vertex 48.8751 -28.7319 11.5
      vertex 48.5052 -27.5126 4.5
      vertex 48.5052 -27.5126 11.5
    endloop
  endfacet
  facet normal 0.956934 0.290306 0
    outer loop
      vertex 48.5052 -27.5126 4.5
      vertex 48.8751 -28.7319 11.5
      vertex 48.8751 -28.7319 4.5
    endloop
  endfacet
  facet normal 0.772998 0.634408 0
    outer loop
      vertex 47.9046 -26.3888 11.5
      vertex 47.0962 -25.4038 4.5
      vertex 47.0962 -25.4038 11.5
    endloop
  endfacet
  facet normal 0.772998 0.634408 0
    outer loop
      vertex 47.0962 -25.4038 4.5
      vertex 47.9046 -26.3888 11.5
      vertex 47.9046 -26.3888 4.5
    endloop
  endfacet
  facet normal 0.290306 0.956934 -0
    outer loop
      vertex 44.9874 -23.9948 4.5
      vertex 43.7681 -23.6249 11.5
      vertex 44.9874 -23.9948 11.5
    endloop
  endfacet
  facet normal 0.290306 0.956934 0
    outer loop
      vertex 43.7681 -23.6249 11.5
      vertex 44.9874 -23.9948 4.5
      vertex 43.7681 -23.6249 4.5
    endloop
  endfacet
  facet normal 0.0980195 0.995184 -0
    outer loop
      vertex 43.7681 -23.6249 4.5
      vertex 42.5 -23.5 11.5
      vertex 43.7681 -23.6249 11.5
    endloop
  endfacet
  facet normal 0.0980195 0.995184 0
    outer loop
      vertex 42.5 -23.5 11.5
      vertex 43.7681 -23.6249 4.5
      vertex 42.5 -23.5 4.5
    endloop
  endfacet
  facet normal 0.471346 0.881949 -0
    outer loop
      vertex 46.1112 -24.5954 4.5
      vertex 44.9874 -23.9948 11.5
      vertex 46.1112 -24.5954 11.5
    endloop
  endfacet
  facet normal 0.471346 0.881949 0
    outer loop
      vertex 44.9874 -23.9948 11.5
      vertex 46.1112 -24.5954 4.5
      vertex 44.9874 -23.9948 4.5
    endloop
  endfacet
  facet normal -0.956934 0.290306 0
    outer loop
      vertex 36.1249 -28.7319 4.5
      vertex 36.4948 -27.5126 11.5
      vertex 36.4948 -27.5126 4.5
    endloop
  endfacet
  facet normal -0.956934 0.290306 0
    outer loop
      vertex 36.4948 -27.5126 11.5
      vertex 36.1249 -28.7319 4.5
      vertex 36.1249 -28.7319 11.5
    endloop
  endfacet
  facet normal 0 0 -1
    outer loop
      vertex 43.7472 -30.8334 4.5
      vertex 49 -30 4.5
      vertex 49 -36.9 4.5
    endloop
  endfacet
  facet normal 0 -0 -1
    outer loop
      vertex 43.8858 -30.574 4.5
      vertex 49 -30 4.5
      vertex 43.7472 -30.8334 4.5
    endloop
  endfacet
  facet normal 0 -0 -1
    outer loop
      vertex 44 -30 4.5
      vertex 49 -30 4.5
      vertex 43.9712 -30.2926 4.5
    endloop
  endfacet
  facet normal 0 0 -1
    outer loop
      vertex 43.9712 -29.7074 4.5
      vertex 48.8751 -28.7319 4.5
      vertex 44 -30 4.5
    endloop
  endfacet
  facet normal 0 0 -1
    outer loop
      vertex 43.8858 -29.426 4.5
      vertex 48.5052 -27.5126 4.5
      vertex 43.9712 -29.7074 4.5
    endloop
  endfacet
  facet normal -0 0 -1
    outer loop
      vertex 48.5052 -27.5126 4.5
      vertex 43.8858 -29.426 4.5
      vertex 47.9046 -26.3888 4.5
    endloop
  endfacet
  facet normal 0 0 -1
    outer loop
      vertex 43.7472 -29.1666 4.5
      vertex 47.9046 -26.3888 4.5
      vertex 43.8858 -29.426 4.5
    endloop
  endfacet
  facet normal -0 0 -1
    outer loop
      vertex 48.8751 -28.7319 4.5
      vertex 43.9712 -29.7074 4.5
      vertex 48.5052 -27.5126 4.5
    endloop
  endfacet
  facet normal 0 0 -1
    outer loop
      vertex 49 -30 4.5
      vertex 44 -30 4.5
      vertex 48.8751 -28.7319 4.5
    endloop
  endfacet
  facet normal 0 -0 -1
    outer loop
      vertex 43.9712 -30.2926 4.5
      vertex 49 -30 4.5
      vertex 43.8858 -30.574 4.5
    endloop
  endfacet
  facet normal 0 0 -1
    outer loop
      vertex 49 -36.9 4.5
      vertex 43.5607 -31.0607 4.5
      vertex 43.7472 -30.8334 4.5
    endloop
  endfacet
  facet normal 0 0 -1
    outer loop
      vertex 49 -36.9 4.5
      vertex 43.3334 -31.2472 4.5
      vertex 43.5607 -31.0607 4.5
    endloop
  endfacet
  facet normal 0 0 -1
    outer loop
      vertex 42.5 -36.9 4.5
      vertex 43.3334 -31.2472 4.5
      vertex 49 -36.9 4.5
    endloop
  endfacet
  facet normal 0 0 -1
    outer loop
      vertex 43.3334 -31.2472 4.5
      vertex 42.5 -36.9 4.5
      vertex 43.074 -31.3858 4.5
    endloop
  endfacet
  facet normal 0 0 -1
    outer loop
      vertex 43.074 -31.3858 4.5
      vertex 42.5 -36.9 4.5
      vertex 42.7926 -31.4712 4.5
    endloop
  endfacet
  facet normal 0 0 -1
    outer loop
      vertex 42.5 -36.9 4.5
      vertex 42.5 -31.5 4.5
      vertex 42.7926 -31.4712 4.5
    endloop
  endfacet
  facet normal 0 0 -1
    outer loop
      vertex 42.5 -36.9 4.5
      vertex 42.2074 -31.4712 4.5
      vertex 42.5 -31.5 4.5
    endloop
  endfacet
  facet normal 0 0 -1
    outer loop
      vertex 41.1539 -36.7674 4.5
      vertex 42.2074 -31.4712 4.5
      vertex 42.5 -36.9 4.5
    endloop
  endfacet
  facet normal -0 0 -1
    outer loop
      vertex 42.2074 -31.4712 4.5
      vertex 41.1539 -36.7674 4.5
      vertex 41.926 -31.3858 4.5
    endloop
  endfacet
  facet normal 0 0 -1
    outer loop
      vertex 39.8595 -36.3748 4.5
      vertex 41.926 -31.3858 4.5
      vertex 41.1539 -36.7674 4.5
    endloop
  endfacet
  facet normal -0 0 -1
    outer loop
      vertex 41.926 -31.3858 4.5
      vertex 39.8595 -36.3748 4.5
      vertex 41.6666 -31.2472 4.5
    endloop
  endfacet
  facet normal 0 0 -1
    outer loop
      vertex 38.6666 -35.7371 4.5
      vertex 41.6666 -31.2472 4.5
      vertex 39.8595 -36.3748 4.5
    endloop
  endfacet
  facet normal -0 0 -1
    outer loop
      vertex 41.6666 -31.2472 4.5
      vertex 38.6666 -35.7371 4.5
      vertex 41.4393 -31.0607 4.5
    endloop
  endfacet
  facet normal 0 0 -1
    outer loop
      vertex 37.621 -34.879 4.5
      vertex 41.4393 -31.0607 4.5
      vertex 38.6666 -35.7371 4.5
    endloop
  endfacet
  facet normal -0 0 -1
    outer loop
      vertex 41.4393 -31.0607 4.5
      vertex 37.621 -34.879 4.5
      vertex 41.2528 -30.8334 4.5
    endloop
  endfacet
  facet normal 0 0 -1
    outer loop
      vertex 36.7629 -33.8334 4.5
      vertex 41.2528 -30.8334 4.5
      vertex 37.621 -34.879 4.5
    endloop
  endfacet
  facet normal -0 0 -1
    outer loop
      vertex 41.2528 -30.8334 4.5
      vertex 36.7629 -33.8334 4.5
      vertex 41.1142 -30.574 4.5
    endloop
  endfacet
  facet normal 0 -0 -1
    outer loop
      vertex 36.1249 -28.7319 4.5
      vertex 41 -30 4.5
      vertex 36 -30 4.5
    endloop
  endfacet
  facet normal 0 0 -1
    outer loop
      vertex 36.1252 -32.6405 4.5
      vertex 41.1142 -30.574 4.5
      vertex 36.7629 -33.8334 4.5
    endloop
  endfacet
  facet normal 0 0 -1
    outer loop
      vertex 41 -30 4.5
      vertex 38.8888 -24.5954 4.5
      vertex 40.0126 -23.9948 4.5
    endloop
  endfacet
  facet normal 0 0 -1
    outer loop
      vertex 35.8344 -31.6817 4.5
      vertex 41.1142 -30.574 4.5
      vertex 36.1252 -32.6405 4.5
    endloop
  endfacet
  facet normal 0 0 -1
    outer loop
      vertex 41 -30 4.5
      vertex 37.9038 -25.4038 4.5
      vertex 38.8888 -24.5954 4.5
    endloop
  endfacet
  facet normal -0 0 -1
    outer loop
      vertex 41.1142 -30.574 4.5
      vertex 35.8344 -31.6817 4.5
      vertex 41.0288 -30.2926 4.5
    endloop
  endfacet
  facet normal 0 0 -1
    outer loop
      vertex 41 -30 4.5
      vertex 37.0954 -26.3888 4.5
      vertex 37.9038 -25.4038 4.5
    endloop
  endfacet
  facet normal 0 -0 -1
    outer loop
      vertex 36 -30 4.5
      vertex 41.0288 -30.2926 4.5
      vertex 35.8344 -31.6817 4.5
    endloop
  endfacet
  facet normal 0 0 -1
    outer loop
      vertex 41 -30 4.5
      vertex 36.4948 -27.5126 4.5
      vertex 37.0954 -26.3888 4.5
    endloop
  endfacet
  facet normal 0 0 -1
    outer loop
      vertex 41 -30 4.5
      vertex 36.1249 -28.7319 4.5
      vertex 36.4948 -27.5126 4.5
    endloop
  endfacet
  facet normal 0 0 -1
    outer loop
      vertex 41.0288 -30.2926 4.5
      vertex 36 -30 4.5
      vertex 41 -30 4.5
    endloop
  endfacet
  facet normal -0 0 -1
    outer loop
      vertex 47.9046 -26.3888 4.5
      vertex 43.7472 -29.1666 4.5
      vertex 47.0962 -25.4038 4.5
    endloop
  endfacet
  facet normal 0 0 -1
    outer loop
      vertex 43.5607 -28.9393 4.5
      vertex 47.0962 -25.4038 4.5
      vertex 43.7472 -29.1666 4.5
    endloop
  endfacet
  facet normal -0 0 -1
    outer loop
      vertex 47.0962 -25.4038 4.5
      vertex 43.5607 -28.9393 4.5
      vertex 46.1112 -24.5954 4.5
    endloop
  endfacet
  facet normal 0 0 -1
    outer loop
      vertex 43.3334 -28.7528 4.5
      vertex 46.1112 -24.5954 4.5
      vertex 43.5607 -28.9393 4.5
    endloop
  endfacet
  facet normal -0 0 -1
    outer loop
      vertex 46.1112 -24.5954 4.5
      vertex 43.3334 -28.7528 4.5
      vertex 44.9874 -23.9948 4.5
    endloop
  endfacet
  facet normal 0 0 -1
    outer loop
      vertex 43.074 -28.6142 4.5
      vertex 44.9874 -23.9948 4.5
      vertex 43.3334 -28.7528 4.5
    endloop
  endfacet
  facet normal -0 0 -1
    outer loop
      vertex 44.9874 -23.9948 4.5
      vertex 43.074 -28.6142 4.5
      vertex 43.7681 -23.6249 4.5
    endloop
  endfacet
  facet normal 0 0 -1
    outer loop
      vertex 42.7926 -28.5288 4.5
      vertex 43.7681 -23.6249 4.5
      vertex 43.074 -28.6142 4.5
    endloop
  endfacet
  facet normal 0 0 -1
    outer loop
      vertex 42.5 -28.5 4.5
      vertex 43.7681 -23.6249 4.5
      vertex 42.7926 -28.5288 4.5
    endloop
  endfacet
  facet normal 0 0 -1
    outer loop
      vertex 42.5 -28.5 4.5
      vertex 42.5 -23.5 4.5
      vertex 43.7681 -23.6249 4.5
    endloop
  endfacet
  facet normal 0 0 -1
    outer loop
      vertex 42.2074 -28.5288 4.5
      vertex 42.5 -23.5 4.5
      vertex 42.5 -28.5 4.5
    endloop
  endfacet
  facet normal 0 0 -1
    outer loop
      vertex 41.2319 -23.6249 4.5
      vertex 42.2074 -28.5288 4.5
      vertex 41.926 -28.6142 4.5
    endloop
  endfacet
  facet normal 0 0 -1
    outer loop
      vertex 40.0126 -23.9948 4.5
      vertex 41.926 -28.6142 4.5
      vertex 41.6666 -28.7528 4.5
    endloop
  endfacet
  facet normal 0 0 -1
    outer loop
      vertex 40.0126 -23.9948 4.5
      vertex 41.6666 -28.7528 4.5
      vertex 41.4393 -28.9393 4.5
    endloop
  endfacet
  facet normal 0 0 -1
    outer loop
      vertex 40.0126 -23.9948 4.5
      vertex 41.4393 -28.9393 4.5
      vertex 41.2528 -29.1666 4.5
    endloop
  endfacet
  facet normal 0 0 -1
    outer loop
      vertex 42.2074 -28.5288 4.5
      vertex 41.2319 -23.6249 4.5
      vertex 42.5 -23.5 4.5
    endloop
  endfacet
  facet normal 0 0 -1
    outer loop
      vertex 40.0126 -23.9948 4.5
      vertex 41.2528 -29.1666 4.5
      vertex 41.1142 -29.426 4.5
    endloop
  endfacet
  facet normal 0 0 -1
    outer loop
      vertex 40.0126 -23.9948 4.5
      vertex 41.1142 -29.426 4.5
      vertex 41.0288 -29.7074 4.5
    endloop
  endfacet
  facet normal 0 0 -1
    outer loop
      vertex 40.0126 -23.9948 4.5
      vertex 41.0288 -29.7074 4.5
      vertex 41 -30 4.5
    endloop
  endfacet
  facet normal 0 0 -1
    outer loop
      vertex 41.926 -28.6142 4.5
      vertex 40.0126 -23.9948 4.5
      vertex 41.2319 -23.6249 4.5
    endloop
  endfacet
  facet normal -0.881949 0.471346 0
    outer loop
      vertex 36.4948 -27.5126 4.5
      vertex 37.0954 -26.3888 11.5
      vertex 37.0954 -26.3888 4.5
    endloop
  endfacet
  facet normal -0.881949 0.471346 0
    outer loop
      vertex 37.0954 -26.3888 11.5
      vertex 36.4948 -27.5126 4.5
      vertex 36.4948 -27.5126 11.5
    endloop
  endfacet
  facet normal -0.995184 0.0980195 0
    outer loop
      vertex 36 -30 4.5
      vertex 36.1249 -28.7319 11.5
      vertex 36.1249 -28.7319 4.5
    endloop
  endfacet
  facet normal -0.995184 0.0980195 0
    outer loop
      vertex 36.1249 -28.7319 11.5
      vertex 36 -30 4.5
      vertex 36 -30 11.5
    endloop
  endfacet
  facet normal 0 0 1
    outer loop
      vertex 48.8751 -28.7319 11.5
      vertex 43.9712 -29.7074 11.5
      vertex 44 -30 11.5
    endloop
  endfacet
  facet normal 0 0 1
    outer loop
      vertex 46.1112 -24.5954 11.5
      vertex 43.8858 -29.426 11.5
      vertex 43.9712 -29.7074 11.5
    endloop
  endfacet
  facet normal 0 0 1
    outer loop
      vertex 43.074 -28.6142 11.5
      vertex 44.9874 -23.9948 11.5
      vertex 43.7681 -23.6249 11.5
    endloop
  endfacet
  facet normal 0 0 1
    outer loop
      vertex 46.1112 -24.5954 11.5
      vertex 43.7472 -29.1666 11.5
      vertex 43.8858 -29.426 11.5
    endloop
  endfacet
  facet normal 0 0 1
    outer loop
      vertex 46.1112 -24.5954 11.5
      vertex 43.5607 -28.9393 11.5
      vertex 43.7472 -29.1666 11.5
    endloop
  endfacet
  facet normal 0 0 1
    outer loop
      vertex 46.1112 -24.5954 11.5
      vertex 43.3334 -28.7528 11.5
      vertex 43.5607 -28.9393 11.5
    endloop
  endfacet
  facet normal 0 0 1
    outer loop
      vertex 44.9874 -23.9948 11.5
      vertex 43.074 -28.6142 11.5
      vertex 43.3334 -28.7528 11.5
    endloop
  endfacet
  facet normal 0 0 1
    outer loop
      vertex 43.7681 -23.6249 11.5
      vertex 42.7926 -28.5288 11.5
      vertex 43.074 -28.6142 11.5
    endloop
  endfacet
  facet normal 0 0 1
    outer loop
      vertex 42.5 -23.5 11.5
      vertex 42.7926 -28.5288 11.5
      vertex 43.7681 -23.6249 11.5
    endloop
  endfacet
  facet normal 0 0 1
    outer loop
      vertex 42.5 -23.5 11.5
      vertex 42.5 -28.5 11.5
      vertex 42.7926 -28.5288 11.5
    endloop
  endfacet
  facet normal 0 0 1
    outer loop
      vertex 42.5 -23.5 11.5
      vertex 42.2074 -28.5288 11.5
      vertex 42.5 -28.5 11.5
    endloop
  endfacet
  facet normal -0 0 1
    outer loop
      vertex 41.2319 -23.6249 11.5
      vertex 42.2074 -28.5288 11.5
      vertex 42.5 -23.5 11.5
    endloop
  endfacet
  facet normal 0 0 1
    outer loop
      vertex 42.2074 -28.5288 11.5
      vertex 41.2319 -23.6249 11.5
      vertex 41.926 -28.6142 11.5
    endloop
  endfacet
  facet normal -0 0 1
    outer loop
      vertex 40.0126 -23.9948 11.5
      vertex 41.926 -28.6142 11.5
      vertex 41.2319 -23.6249 11.5
    endloop
  endfacet
  facet normal 0 0 1
    outer loop
      vertex 41.926 -28.6142 11.5
      vertex 40.0126 -23.9948 11.5
      vertex 41.6666 -28.7528 11.5
    endloop
  endfacet
  facet normal -0 0 1
    outer loop
      vertex 38.8888 -24.5954 11.5
      vertex 41.6666 -28.7528 11.5
      vertex 40.0126 -23.9948 11.5
    endloop
  endfacet
  facet normal 0 0 1
    outer loop
      vertex 41.6666 -28.7528 11.5
      vertex 38.8888 -24.5954 11.5
      vertex 41.4393 -28.9393 11.5
    endloop
  endfacet
  facet normal -0 0 1
    outer loop
      vertex 37.9038 -25.4038 11.5
      vertex 41.4393 -28.9393 11.5
      vertex 38.8888 -24.5954 11.5
    endloop
  endfacet
  facet normal 0 0 1
    outer loop
      vertex 41.4393 -28.9393 11.5
      vertex 37.9038 -25.4038 11.5
      vertex 41.2528 -29.1666 11.5
    endloop
  endfacet
  facet normal -0 0 1
    outer loop
      vertex 37.0954 -26.3888 11.5
      vertex 41.2528 -29.1666 11.5
      vertex 37.9038 -25.4038 11.5
    endloop
  endfacet
  facet normal 0 0 1
    outer loop
      vertex 44 -30 11.5
      vertex 49 -30 11.5
      vertex 48.8751 -28.7319 11.5
    endloop
  endfacet
  facet normal 0 0 1
    outer loop
      vertex 43.9712 -29.7074 11.5
      vertex 48.8751 -28.7319 11.5
      vertex 48.5052 -27.5126 11.5
    endloop
  endfacet
  facet normal 0 0 1
    outer loop
      vertex 43.9712 -29.7074 11.5
      vertex 48.5052 -27.5126 11.5
      vertex 47.9046 -26.3888 11.5
    endloop
  endfacet
  facet normal 0 0 1
    outer loop
      vertex 43.9712 -29.7074 11.5
      vertex 47.9046 -26.3888 11.5
      vertex 47.0962 -25.4038 11.5
    endloop
  endfacet
  facet normal 0 0 1
    outer loop
      vertex 43.9712 -29.7074 11.5
      vertex 47.0962 -25.4038 11.5
      vertex 46.1112 -24.5954 11.5
    endloop
  endfacet
  facet normal 0 0 1
    outer loop
      vertex 43.3334 -28.7528 11.5
      vertex 46.1112 -24.5954 11.5
      vertex 44.9874 -23.9948 11.5
    endloop
  endfacet
  facet normal 0 0 1
    outer loop
      vertex 49 -30 11.5
      vertex 44 -30 11.5
      vertex 43.9712 -30.2926 11.5
    endloop
  endfacet
  facet normal 0 0 1
    outer loop
      vertex 49 -30 11.5
      vertex 43.9712 -30.2926 11.5
      vertex 43.8858 -30.574 11.5
    endloop
  endfacet
  facet normal 0 0 1
    outer loop
      vertex 49 -30 11.5
      vertex 43.8858 -30.574 11.5
      vertex 43.7472 -30.8334 11.5
    endloop
  endfacet
  facet normal 0 0 1
    outer loop
      vertex 49 -30 11.5
      vertex 43.7472 -30.8334 11.5
      vertex 49 -36.9 11.5
    endloop
  endfacet
  facet normal -0 0 1
    outer loop
      vertex 43.5607 -31.0607 11.5
      vertex 49 -36.9 11.5
      vertex 43.7472 -30.8334 11.5
    endloop
  endfacet
  facet normal -0 0 1
    outer loop
      vertex 43.3334 -31.2472 11.5
      vertex 49 -36.9 11.5
      vertex 43.5607 -31.0607 11.5
    endloop
  endfacet
  facet normal 0 0 1
    outer loop
      vertex 42.5 -36.9 11.5
      vertex 43.3334 -31.2472 11.5
      vertex 43.074 -31.3858 11.5
    endloop
  endfacet
  facet normal 0 0 1
    outer loop
      vertex 42.5 -36.9 11.5
      vertex 43.074 -31.3858 11.5
      vertex 42.7926 -31.4712 11.5
    endloop
  endfacet
  facet normal 0 0 1
    outer loop
      vertex 42.5 -36.9 11.5
      vertex 42.7926 -31.4712 11.5
      vertex 42.5 -31.5 11.5
    endloop
  endfacet
  facet normal 0 0 1
    outer loop
      vertex 43.3334 -31.2472 11.5
      vertex 42.5 -36.9 11.5
      vertex 49 -36.9 11.5
    endloop
  endfacet
  facet normal 0 0 1
    outer loop
      vertex 42.2074 -31.4712 11.5
      vertex 42.5 -36.9 11.5
      vertex 42.5 -31.5 11.5
    endloop
  endfacet
  facet normal 0 0 1
    outer loop
      vertex 41.1539 -36.7674 11.5
      vertex 42.2074 -31.4712 11.5
      vertex 41.926 -31.3858 11.5
    endloop
  endfacet
  facet normal 0 0 1
    outer loop
      vertex 39.8595 -36.3748 11.5
      vertex 41.926 -31.3858 11.5
      vertex 41.6666 -31.2472 11.5
    endloop
  endfacet
  facet normal 0 0 1
    outer loop
      vertex 38.6666 -35.7371 11.5
      vertex 41.6666 -31.2472 11.5
      vertex 41.4393 -31.0607 11.5
    endloop
  endfacet
  facet normal 0 0 1
    outer loop
      vertex 37.621 -34.879 11.5
      vertex 41.4393 -31.0607 11.5
      vertex 41.2528 -30.8334 11.5
    endloop
  endfacet
  facet normal 0 0 1
    outer loop
      vertex 42.2074 -31.4712 11.5
      vertex 41.1539 -36.7674 11.5
      vertex 42.5 -36.9 11.5
    endloop
  endfacet
  facet normal 0 0 1
    outer loop
      vertex 36.7629 -33.8334 11.5
      vertex 41.2528 -30.8334 11.5
      vertex 41.1142 -30.574 11.5
    endloop
  endfacet
  facet normal 0 0 1
    outer loop
      vertex 35.8344 -31.6817 11.5
      vertex 41.1142 -30.574 11.5
      vertex 41.0288 -30.2926 11.5
    endloop
  endfacet
  facet normal -0 0 1
    outer loop
      vertex 36 -30 11.5
      vertex 41.0288 -30.2926 11.5
      vertex 41 -30 11.5
    endloop
  endfacet
  facet normal 0 0 1
    outer loop
      vertex 41.2528 -29.1666 11.5
      vertex 37.0954 -26.3888 11.5
      vertex 41.1142 -29.426 11.5
    endloop
  endfacet
  facet normal 0 0 1
    outer loop
      vertex 41.0288 -30.2926 11.5
      vertex 36 -30 11.5
      vertex 35.8344 -31.6817 11.5
    endloop
  endfacet
  facet normal -0 0 1
    outer loop
      vertex 36.4948 -27.5126 11.5
      vertex 41.1142 -29.426 11.5
      vertex 37.0954 -26.3888 11.5
    endloop
  endfacet
  facet normal 0 0 1
    outer loop
      vertex 41.926 -31.3858 11.5
      vertex 39.8595 -36.3748 11.5
      vertex 41.1539 -36.7674 11.5
    endloop
  endfacet
  facet normal 0 0 1
    outer loop
      vertex 41.1142 -29.426 11.5
      vertex 36.4948 -27.5126 11.5
      vertex 41.0288 -29.7074 11.5
    endloop
  endfacet
  facet normal 0 0 1
    outer loop
      vertex 41.6666 -31.2472 11.5
      vertex 38.6666 -35.7371 11.5
      vertex 39.8595 -36.3748 11.5
    endloop
  endfacet
  facet normal -0 0 1
    outer loop
      vertex 36.1249 -28.7319 11.5
      vertex 41.0288 -29.7074 11.5
      vertex 36.4948 -27.5126 11.5
    endloop
  endfacet
  facet normal 0 0 1
    outer loop
      vertex 41.4393 -31.0607 11.5
      vertex 37.621 -34.879 11.5
      vertex 38.6666 -35.7371 11.5
    endloop
  endfacet
  facet normal 0 0 1
    outer loop
      vertex 41.0288 -29.7074 11.5
      vertex 36.1249 -28.7319 11.5
      vertex 41 -30 11.5
    endloop
  endfacet
  facet normal 0 0 1
    outer loop
      vertex 41.2528 -30.8334 11.5
      vertex 36.7629 -33.8334 11.5
      vertex 37.621 -34.879 11.5
    endloop
  endfacet
  facet normal 0 0 1
    outer loop
      vertex 41 -30 11.5
      vertex 36.1249 -28.7319 11.5
      vertex 36 -30 11.5
    endloop
  endfacet
  facet normal 0 0 1
    outer loop
      vertex 41.1142 -30.574 11.5
      vertex 36.1252 -32.6405 11.5
      vertex 36.7629 -33.8334 11.5
    endloop
  endfacet
  facet normal 0 0 1
    outer loop
      vertex 41.1142 -30.574 11.5
      vertex 35.8344 -31.6817 11.5
      vertex 36.1252 -32.6405 11.5
    endloop
  endfacet
  facet normal -0.634408 0.772998 0
    outer loop
      vertex 38.8888 -24.5954 4.5
      vertex 37.9038 -25.4038 11.5
      vertex 38.8888 -24.5954 11.5
    endloop
  endfacet
  facet normal -0.634408 0.772998 0
    outer loop
      vertex 37.9038 -25.4038 11.5
      vertex 38.8888 -24.5954 4.5
      vertex 37.9038 -25.4038 4.5
    endloop
  endfacet
  facet normal -0.290306 0.956934 0
    outer loop
      vertex 41.2319 -23.6249 4.5
      vertex 40.0126 -23.9948 11.5
      vertex 41.2319 -23.6249 11.5
    endloop
  endfacet
  facet normal -0.290306 0.956934 0
    outer loop
      vertex 40.0126 -23.9948 11.5
      vertex 41.2319 -23.6249 4.5
      vertex 40.0126 -23.9948 4.5
    endloop
  endfacet
  facet normal 0 1 -0
    outer loop
      vertex 49 -36.9 0
      vertex 42.5 -36.9 4.5
      vertex 49 -36.9 4.5
    endloop
  endfacet
  facet normal 0 1 0
    outer loop
      vertex 42.5 -36.9 4.5
      vertex 49 -36.9 0
      vertex 42.5 -36.9 0
    endloop
  endfacet
  facet normal 0.634393 0.773011 -0
    outer loop
      vertex 38.6666 -35.7371 0
      vertex 37.621 -34.879 4.5
      vertex 38.6666 -35.7371 4.5
    endloop
  endfacet
  facet normal 0.634393 0.773011 0
    outer loop
      vertex 37.621 -34.879 4.5
      vertex 38.6666 -35.7371 0
      vertex 37.621 -34.879 0
    endloop
  endfacet
  facet normal 0.29025 0.956951 -0
    outer loop
      vertex 41.1539 -36.7674 0
      vertex 39.8595 -36.3748 4.5
      vertex 41.1539 -36.7674 4.5
    endloop
  endfacet
  facet normal 0.29025 0.956951 0
    outer loop
      vertex 39.8595 -36.3748 4.5
      vertex 41.1539 -36.7674 0
      vertex 39.8595 -36.3748 0
    endloop
  endfacet
  facet normal 0.0980323 0.995183 -0
    outer loop
      vertex 42.5 -36.9 0
      vertex 41.1539 -36.7674 4.5
      vertex 42.5 -36.9 4.5
    endloop
  endfacet
  facet normal 0.0980323 0.995183 0
    outer loop
      vertex 41.1539 -36.7674 4.5
      vertex 42.5 -36.9 0
      vertex 41.1539 -36.7674 0
    endloop
  endfacet
  facet normal 0.881896 0.471444 0
    outer loop
      vertex 36.7629 -33.8334 4.5
      vertex 36.1252 -32.6405 0
      vertex 36.1252 -32.6405 4.5
    endloop
  endfacet
  facet normal 0.881896 0.471444 0
    outer loop
      vertex 36.1252 -32.6405 0
      vertex 36.7629 -33.8334 4.5
      vertex 36.7629 -33.8334 0
    endloop
  endfacet
  facet normal 0.773011 0.634393 0
    outer loop
      vertex 37.621 -34.879 4.5
      vertex 36.7629 -33.8334 0
      vertex 36.7629 -33.8334 4.5
    endloop
  endfacet
  facet normal 0.773011 0.634393 0
    outer loop
      vertex 36.7629 -33.8334 0
      vertex 37.621 -34.879 4.5
      vertex 37.621 -34.879 0
    endloop
  endfacet
  facet normal 0.471444 0.881896 -0
    outer loop
      vertex 39.8595 -36.3748 0
      vertex 38.6666 -35.7371 4.5
      vertex 39.8595 -36.3748 4.5
    endloop
  endfacet
  facet normal 0.471444 0.881896 0
    outer loop
      vertex 38.6666 -35.7371 4.5
      vertex 39.8595 -36.3748 0
      vertex 38.6666 -35.7371 0
    endloop
  endfacet
  facet normal 0.956954 0.29024 0
    outer loop
      vertex 36.1252 -32.6405 4.5
      vertex 35.8344 -31.6817 0
      vertex 35.8344 -31.6817 4.5
    endloop
  endfacet
  facet normal 0.956954 0.29024 0
    outer loop
      vertex 35.8344 -31.6817 0
      vertex 36.1252 -32.6405 4.5
      vertex 36.1252 -32.6405 0
    endloop
  endfacet
  facet normal 0 1 -0
    outer loop
      vertex 49 -36.9 11.5
      vertex 42.5 -36.9 16
      vertex 49 -36.9 16
    endloop
  endfacet
  facet normal 0 1 0
    outer loop
      vertex 42.5 -36.9 16
      vertex 49 -36.9 11.5
      vertex 42.5 -36.9 11.5
    endloop
  endfacet
  facet normal 0.881896 0.471444 0
    outer loop
      vertex 36.7629 -33.8334 16
      vertex 36.1252 -32.6405 11.5
      vertex 36.1252 -32.6405 16
    endloop
  endfacet
  facet normal 0.881896 0.471444 0
    outer loop
      vertex 36.1252 -32.6405 11.5
      vertex 36.7629 -33.8334 16
      vertex 36.7629 -33.8334 11.5
    endloop
  endfacet
  facet normal 0.29025 0.956951 -0
    outer loop
      vertex 41.1539 -36.7674 11.5
      vertex 39.8595 -36.3748 16
      vertex 41.1539 -36.7674 16
    endloop
  endfacet
  facet normal 0.29025 0.956951 0
    outer loop
      vertex 39.8595 -36.3748 16
      vertex 41.1539 -36.7674 11.5
      vertex 39.8595 -36.3748 11.5
    endloop
  endfacet
  facet normal 0.0980323 0.995183 -0
    outer loop
      vertex 42.5 -36.9 11.5
      vertex 41.1539 -36.7674 16
      vertex 42.5 -36.9 16
    endloop
  endfacet
  facet normal 0.0980323 0.995183 0
    outer loop
      vertex 41.1539 -36.7674 16
      vertex 42.5 -36.9 11.5
      vertex 41.1539 -36.7674 11.5
    endloop
  endfacet
  facet normal 0.634393 0.773011 -0
    outer loop
      vertex 38.6666 -35.7371 11.5
      vertex 37.621 -34.879 16
      vertex 38.6666 -35.7371 16
    endloop
  endfacet
  facet normal 0.634393 0.773011 0
    outer loop
      vertex 37.621 -34.879 16
      vertex 38.6666 -35.7371 11.5
      vertex 37.621 -34.879 11.5
    endloop
  endfacet
  facet normal 0.773011 0.634393 0
    outer loop
      vertex 37.621 -34.879 16
      vertex 36.7629 -33.8334 11.5
      vertex 36.7629 -33.8334 16
    endloop
  endfacet
  facet normal 0.773011 0.634393 0
    outer loop
      vertex 36.7629 -33.8334 11.5
      vertex 37.621 -34.879 16
      vertex 37.621 -34.879 11.5
    endloop
  endfacet
  facet normal 0.956954 0.29024 0
    outer loop
      vertex 36.1252 -32.6405 16
      vertex 35.8344 -31.6817 11.5
      vertex 35.8344 -31.6817 16
    endloop
  endfacet
  facet normal 0.956954 0.29024 0
    outer loop
      vertex 35.8344 -31.6817 11.5
      vertex 36.1252 -32.6405 16
      vertex 36.1252 -32.6405 11.5
    endloop
  endfacet
  facet normal 0.471444 0.881896 -0
    outer loop
      vertex 39.8595 -36.3748 11.5
      vertex 38.6666 -35.7371 16
      vertex 39.8595 -36.3748 16
    endloop
  endfacet
  facet normal 0.471444 0.881896 0
    outer loop
      vertex 38.6666 -35.7371 16
      vertex 39.8595 -36.3748 11.5
      vertex 38.6666 -35.7371 11.5
    endloop
  endfacet
  facet normal -0.881995 -0.471259 0
    outer loop
      vertex 43.8858 -29.426 4.5
      vertex 43.7472 -29.1666 11.5
      vertex 43.7472 -29.1666 4.5
    endloop
  endfacet
  facet normal -0.881995 -0.471259 0
    outer loop
      vertex 43.7472 -29.1666 11.5
      vertex 43.8858 -29.426 4.5
      vertex 43.8858 -29.426 11.5
    endloop
  endfacet
  facet normal -0.773078 -0.634311 0
    outer loop
      vertex 43.7472 -29.1666 4.5
      vertex 43.5607 -28.9393 11.5
      vertex 43.5607 -28.9393 4.5
    endloop
  endfacet
  facet normal -0.773078 -0.634311 0
    outer loop
      vertex 43.5607 -28.9393 11.5
      vertex 43.7472 -29.1666 4.5
      vertex 43.7472 -29.1666 11.5
    endloop
  endfacet
  facet normal -0.290404 -0.956904 0
    outer loop
      vertex 42.7926 -28.5288 4.5
      vertex 43.074 -28.6142 11.5
      vertex 42.7926 -28.5288 11.5
    endloop
  endfacet
  facet normal -0.290404 -0.956904 -0
    outer loop
      vertex 43.074 -28.6142 11.5
      vertex 42.7926 -28.5288 4.5
      vertex 43.074 -28.6142 4.5
    endloop
  endfacet
  facet normal 0.471259 -0.881995 0
    outer loop
      vertex 41.6666 -28.7528 4.5
      vertex 41.926 -28.6142 11.5
      vertex 41.6666 -28.7528 11.5
    endloop
  endfacet
  facet normal 0.471259 -0.881995 0
    outer loop
      vertex 41.926 -28.6142 11.5
      vertex 41.6666 -28.7528 4.5
      vertex 41.926 -28.6142 4.5
    endloop
  endfacet
  facet normal 0.956904 -0.290404 0
    outer loop
      vertex 41.0288 -29.7074 11.5
      vertex 41.1142 -29.426 4.5
      vertex 41.1142 -29.426 11.5
    endloop
  endfacet
  facet normal 0.956904 -0.290404 0
    outer loop
      vertex 41.1142 -29.426 4.5
      vertex 41.0288 -29.7074 11.5
      vertex 41.0288 -29.7074 4.5
    endloop
  endfacet
  facet normal -0.995191 0.0979545 0
    outer loop
      vertex 43.9712 -30.2926 4.5
      vertex 44 -30 11.5
      vertex 44 -30 4.5
    endloop
  endfacet
  facet normal -0.995191 0.0979545 0
    outer loop
      vertex 44 -30 11.5
      vertex 43.9712 -30.2926 4.5
      vertex 43.9712 -30.2926 11.5
    endloop
  endfacet
  facet normal -0.634311 -0.773078 0
    outer loop
      vertex 43.3334 -28.7528 4.5
      vertex 43.5607 -28.9393 11.5
      vertex 43.3334 -28.7528 11.5
    endloop
  endfacet
  facet normal -0.634311 -0.773078 -0
    outer loop
      vertex 43.5607 -28.9393 11.5
      vertex 43.3334 -28.7528 4.5
      vertex 43.5607 -28.9393 4.5
    endloop
  endfacet
  facet normal 0.0979545 -0.995191 0
    outer loop
      vertex 42.2074 -28.5288 4.5
      vertex 42.5 -28.5 11.5
      vertex 42.2074 -28.5288 11.5
    endloop
  endfacet
  facet normal 0.0979545 -0.995191 0
    outer loop
      vertex 42.5 -28.5 11.5
      vertex 42.2074 -28.5288 4.5
      vertex 42.5 -28.5 4.5
    endloop
  endfacet
  facet normal -0.471259 -0.881995 0
    outer loop
      vertex 43.074 -28.6142 4.5
      vertex 43.3334 -28.7528 11.5
      vertex 43.074 -28.6142 11.5
    endloop
  endfacet
  facet normal -0.471259 -0.881995 -0
    outer loop
      vertex 43.3334 -28.7528 11.5
      vertex 43.074 -28.6142 4.5
      vertex 43.3334 -28.7528 4.5
    endloop
  endfacet
  facet normal 0.995191 0.0979545 0
    outer loop
      vertex 41.0288 -30.2926 11.5
      vertex 41 -30 4.5
      vertex 41 -30 11.5
    endloop
  endfacet
  facet normal 0.995191 0.0979545 0
    outer loop
      vertex 41 -30 4.5
      vertex 41.0288 -30.2926 11.5
      vertex 41.0288 -30.2926 4.5
    endloop
  endfacet
  facet normal 0.881995 -0.471259 0
    outer loop
      vertex 41.1142 -29.426 11.5
      vertex 41.2528 -29.1666 4.5
      vertex 41.2528 -29.1666 11.5
    endloop
  endfacet
  facet normal 0.881995 -0.471259 0
    outer loop
      vertex 41.2528 -29.1666 4.5
      vertex 41.1142 -29.426 11.5
      vertex 41.1142 -29.426 4.5
    endloop
  endfacet
  facet normal 0.634311 -0.773078 0
    outer loop
      vertex 41.4393 -28.9393 4.5
      vertex 41.6666 -28.7528 11.5
      vertex 41.4393 -28.9393 11.5
    endloop
  endfacet
  facet normal 0.634311 -0.773078 0
    outer loop
      vertex 41.6666 -28.7528 11.5
      vertex 41.4393 -28.9393 4.5
      vertex 41.6666 -28.7528 4.5
    endloop
  endfacet
  facet normal 0.290404 -0.956904 0
    outer loop
      vertex 41.926 -28.6142 4.5
      vertex 42.2074 -28.5288 11.5
      vertex 41.926 -28.6142 11.5
    endloop
  endfacet
  facet normal 0.290404 -0.956904 0
    outer loop
      vertex 42.2074 -28.5288 11.5
      vertex 41.926 -28.6142 4.5
      vertex 42.2074 -28.5288 4.5
    endloop
  endfacet
  facet normal 0.773078 -0.634311 0
    outer loop
      vertex 41.2528 -29.1666 11.5
      vertex 41.4393 -28.9393 4.5
      vertex 41.4393 -28.9393 11.5
    endloop
  endfacet
  facet normal 0.773078 -0.634311 0
    outer loop
      vertex 41.4393 -28.9393 4.5
      vertex 41.2528 -29.1666 11.5
      vertex 41.2528 -29.1666 4.5
    endloop
  endfacet
  facet normal -0.995191 -0.0979545 0
    outer loop
      vertex 44 -30 4.5
      vertex 43.9712 -29.7074 11.5
      vertex 43.9712 -29.7074 4.5
    endloop
  endfacet
  facet normal -0.995191 -0.0979545 0
    outer loop
      vertex 43.9712 -29.7074 11.5
      vertex 44 -30 4.5
      vertex 44 -30 11.5
    endloop
  endfacet
  facet normal -0.956904 0.290404 0
    outer loop
      vertex 43.8858 -30.574 4.5
      vertex 43.9712 -30.2926 11.5
      vertex 43.9712 -30.2926 4.5
    endloop
  endfacet
  facet normal -0.956904 0.290404 0
    outer loop
      vertex 43.9712 -30.2926 11.5
      vertex 43.8858 -30.574 4.5
      vertex 43.8858 -30.574 11.5
    endloop
  endfacet
  facet normal 0.471259 0.881995 -0
    outer loop
      vertex 41.926 -31.3858 4.5
      vertex 41.6666 -31.2472 11.5
      vertex 41.926 -31.3858 11.5
    endloop
  endfacet
  facet normal 0.471259 0.881995 0
    outer loop
      vertex 41.6666 -31.2472 11.5
      vertex 41.926 -31.3858 4.5
      vertex 41.6666 -31.2472 4.5
    endloop
  endfacet
  facet normal 0.773078 0.634311 0
    outer loop
      vertex 41.4393 -31.0607 11.5
      vertex 41.2528 -30.8334 4.5
      vertex 41.2528 -30.8334 11.5
    endloop
  endfacet
  facet normal 0.773078 0.634311 0
    outer loop
      vertex 41.2528 -30.8334 4.5
      vertex 41.4393 -31.0607 11.5
      vertex 41.4393 -31.0607 4.5
    endloop
  endfacet
  facet normal -0.634311 0.773078 0
    outer loop
      vertex 43.5607 -31.0607 4.5
      vertex 43.3334 -31.2472 11.5
      vertex 43.5607 -31.0607 11.5
    endloop
  endfacet
  facet normal -0.634311 0.773078 0
    outer loop
      vertex 43.3334 -31.2472 11.5
      vertex 43.5607 -31.0607 4.5
      vertex 43.3334 -31.2472 4.5
    endloop
  endfacet
  facet normal -0.956904 -0.290404 0
    outer loop
      vertex 43.9712 -29.7074 4.5
      vertex 43.8858 -29.426 11.5
      vertex 43.8858 -29.426 4.5
    endloop
  endfacet
  facet normal -0.956904 -0.290404 0
    outer loop
      vertex 43.8858 -29.426 11.5
      vertex 43.9712 -29.7074 4.5
      vertex 43.9712 -29.7074 11.5
    endloop
  endfacet
  facet normal -0.0979545 -0.995191 0
    outer loop
      vertex 42.5 -28.5 4.5
      vertex 42.7926 -28.5288 11.5
      vertex 42.5 -28.5 11.5
    endloop
  endfacet
  facet normal -0.0979545 -0.995191 -0
    outer loop
      vertex 42.7926 -28.5288 11.5
      vertex 42.5 -28.5 4.5
      vertex 42.7926 -28.5288 4.5
    endloop
  endfacet
  facet normal 0.995191 -0.0979545 0
    outer loop
      vertex 41 -30 11.5
      vertex 41.0288 -29.7074 4.5
      vertex 41.0288 -29.7074 11.5
    endloop
  endfacet
  facet normal 0.995191 -0.0979545 0
    outer loop
      vertex 41.0288 -29.7074 4.5
      vertex 41 -30 11.5
      vertex 41 -30 4.5
    endloop
  endfacet
  facet normal -0.881995 0.471259 0
    outer loop
      vertex 43.7472 -30.8334 4.5
      vertex 43.8858 -30.574 11.5
      vertex 43.8858 -30.574 4.5
    endloop
  endfacet
  facet normal -0.881995 0.471259 0
    outer loop
      vertex 43.8858 -30.574 11.5
      vertex 43.7472 -30.8334 4.5
      vertex 43.7472 -30.8334 11.5
    endloop
  endfacet
  facet normal -0.0979545 0.995191 0
    outer loop
      vertex 42.7926 -31.4712 4.5
      vertex 42.5 -31.5 11.5
      vertex 42.7926 -31.4712 11.5
    endloop
  endfacet
  facet normal -0.0979545 0.995191 0
    outer loop
      vertex 42.5 -31.5 11.5
      vertex 42.7926 -31.4712 4.5
      vertex 42.5 -31.5 4.5
    endloop
  endfacet
  facet normal 0.634311 0.773078 -0
    outer loop
      vertex 41.6666 -31.2472 4.5
      vertex 41.4393 -31.0607 11.5
      vertex 41.6666 -31.2472 11.5
    endloop
  endfacet
  facet normal 0.634311 0.773078 0
    outer loop
      vertex 41.4393 -31.0607 11.5
      vertex 41.6666 -31.2472 4.5
      vertex 41.4393 -31.0607 4.5
    endloop
  endfacet
  facet normal -0.290404 0.956904 0
    outer loop
      vertex 43.074 -31.3858 4.5
      vertex 42.7926 -31.4712 11.5
      vertex 43.074 -31.3858 11.5
    endloop
  endfacet
  facet normal -0.290404 0.956904 0
    outer loop
      vertex 42.7926 -31.4712 11.5
      vertex 43.074 -31.3858 4.5
      vertex 42.7926 -31.4712 4.5
    endloop
  endfacet
  facet normal -0.471259 0.881995 0
    outer loop
      vertex 43.3334 -31.2472 4.5
      vertex 43.074 -31.3858 11.5
      vertex 43.3334 -31.2472 11.5
    endloop
  endfacet
  facet normal -0.471259 0.881995 0
    outer loop
      vertex 43.074 -31.3858 11.5
      vertex 43.3334 -31.2472 4.5
      vertex 43.074 -31.3858 4.5
    endloop
  endfacet
  facet normal 0.290404 0.956904 -0
    outer loop
      vertex 42.2074 -31.4712 4.5
      vertex 41.926 -31.3858 11.5
      vertex 42.2074 -31.4712 11.5
    endloop
  endfacet
  facet normal 0.290404 0.956904 0
    outer loop
      vertex 41.926 -31.3858 11.5
      vertex 42.2074 -31.4712 4.5
      vertex 41.926 -31.3858 4.5
    endloop
  endfacet
  facet normal 0.0979545 0.995191 -0
    outer loop
      vertex 42.5 -31.5 4.5
      vertex 42.2074 -31.4712 11.5
      vertex 42.5 -31.5 11.5
    endloop
  endfacet
  facet normal 0.0979545 0.995191 0
    outer loop
      vertex 42.2074 -31.4712 11.5
      vertex 42.5 -31.5 4.5
      vertex 42.2074 -31.4712 4.5
    endloop
  endfacet
  facet normal 0.881995 0.471259 0
    outer loop
      vertex 41.2528 -30.8334 11.5
      vertex 41.1142 -30.574 4.5
      vertex 41.1142 -30.574 11.5
    endloop
  endfacet
  facet normal 0.881995 0.471259 0
    outer loop
      vertex 41.1142 -30.574 4.5
      vertex 41.2528 -30.8334 11.5
      vertex 41.2528 -30.8334 4.5
    endloop
  endfacet
  facet normal 0.956904 0.290404 0
    outer loop
      vertex 41.1142 -30.574 11.5
      vertex 41.0288 -30.2926 4.5
      vertex 41.0288 -30.2926 11.5
    endloop
  endfacet
  facet normal 0.956904 0.290404 0
    outer loop
      vertex 41.0288 -30.2926 4.5
      vertex 41.1142 -30.574 11.5
      vertex 41.1142 -30.574 4.5
    endloop
  endfacet
  facet normal -0.773078 0.634311 0
    outer loop
      vertex 43.5607 -31.0607 4.5
      vertex 43.7472 -30.8334 11.5
      vertex 43.7472 -30.8334 4.5
    endloop
  endfacet
  facet normal -0.773078 0.634311 0
    outer loop
      vertex 43.7472 -30.8334 11.5
      vertex 43.5607 -31.0607 4.5
      vertex 43.5607 -31.0607 11.5
    endloop
  endfacet
  facet normal 0 1 0
    outer loop
      vertex 13.0985 -31 16
      vertex 6.5 -31 10.8
      vertex 0 -31 16
    endloop
  endfacet
  facet normal 0 1 0
    outer loop
      vertex 13.0985 -31 16
      vertex 7.04625 -31 10.7462
      vertex 6.5 -31 10.8
    endloop
  endfacet
  facet normal 0 1 0
    outer loop
      vertex 13.0985 -31 16
      vertex 7.57151 -31 10.5869
      vertex 7.04625 -31 10.7462
    endloop
  endfacet
  facet normal 0 1 0
    outer loop
      vertex 13.0985 -31 16
      vertex 8.0556 -31 10.3281
      vertex 7.57151 -31 10.5869
    endloop
  endfacet
  facet normal 0 1 0
    outer loop
      vertex 13.0985 -31 16
      vertex 8.4799 -31 9.9799
      vertex 8.0556 -31 10.3281
    endloop
  endfacet
  facet normal 0 1 0
    outer loop
      vertex 13.0985 -31 16
      vertex 8.82811 -31 9.5556
      vertex 8.4799 -31 9.9799
    endloop
  endfacet
  facet normal 0 1 0
    outer loop
      vertex 13.0985 -31 16
      vertex 9.08686 -31 9.07151
      vertex 8.82811 -31 9.5556
    endloop
  endfacet
  facet normal 0 1 0
    outer loop
      vertex 13.0985 -31 16
      vertex 9.2462 -31 8.54625
      vertex 9.08686 -31 9.07151
    endloop
  endfacet
  facet normal 0 1 0
    outer loop
      vertex 13.0985 -31 16
      vertex 9.3 -31 8
      vertex 9.2462 -31 8.54625
    endloop
  endfacet
  facet normal 0 1 -0
    outer loop
      vertex 13.0985 -31 0
      vertex 9.3 -31 8
      vertex 13.0985 -31 16
    endloop
  endfacet
  facet normal 0 1 0
    outer loop
      vertex 9.3 -31 8
      vertex 13.0985 -31 0
      vertex 9.2462 -31 7.45375
    endloop
  endfacet
  facet normal 0 1 0
    outer loop
      vertex 9.2462 -31 7.45375
      vertex 13.0985 -31 0
      vertex 9.08686 -31 6.92849
    endloop
  endfacet
  facet normal 0 1 0
    outer loop
      vertex 13.0985 -31 0
      vertex 8.82811 -31 6.4444
      vertex 9.08686 -31 6.92849
    endloop
  endfacet
  facet normal 0 1 0
    outer loop
      vertex 13.0985 -31 0
      vertex 8.4799 -31 6.0201
      vertex 8.82811 -31 6.4444
    endloop
  endfacet
  facet normal 0 1 0
    outer loop
      vertex 13.0985 -31 0
      vertex 8.0556 -31 5.67188
      vertex 8.4799 -31 6.0201
    endloop
  endfacet
  facet normal 0 1 0
    outer loop
      vertex 13.0985 -31 0
      vertex 7.57151 -31 5.41314
      vertex 8.0556 -31 5.67188
    endloop
  endfacet
  facet normal 0 1 0
    outer loop
      vertex 13.0985 -31 0
      vertex 7.04625 -31 5.2538
      vertex 7.57151 -31 5.41314
    endloop
  endfacet
  facet normal 0 1 0
    outer loop
      vertex 13.0985 -31 0
      vertex 6.5 -31 5.2
      vertex 7.04625 -31 5.2538
    endloop
  endfacet
  facet normal 0 1 0
    outer loop
      vertex 0 -31 0
      vertex 6.5 -31 5.2
      vertex 13.0985 -31 0
    endloop
  endfacet
  facet normal 0 1 0
    outer loop
      vertex 6.5 -31 5.2
      vertex 0 -31 0
      vertex 0 -31 5.2
    endloop
  endfacet
  facet normal 0 1 0
    outer loop
      vertex 0 -31 16
      vertex 6.5 -31 10.8
      vertex 0 -31 10.8
    endloop
  endfacet
  facet normal -0.995173 0.0981356 0
    outer loop
      vertex 35.779 -32.2435 0
      vertex 35.8344 -31.6817 4.5
      vertex 35.8344 -31.6817 0
    endloop
  endfacet
  facet normal -0.995173 0.0981356 0
    outer loop
      vertex 35.8344 -31.6817 4.5
      vertex 35.779 -32.2435 0
      vertex 35.8344 -31.6817 11.5
    endloop
  endfacet
  facet normal -0.995173 0.0981356 0
    outer loop
      vertex 35.779 -32.2435 16
      vertex 35.8344 -31.6817 11.5
      vertex 35.779 -32.2435 0
    endloop
  endfacet
  facet normal -0.995173 0.0981356 0
    outer loop
      vertex 35.8344 -31.6817 11.5
      vertex 35.779 -32.2435 16
      vertex 35.8344 -31.6817 16
    endloop
  endfacet
  facet normal -0.995187 0.0979978 0
    outer loop
      vertex 35.8344 -31.6817 4.5
      vertex 36 -30 11.5
      vertex 36 -30 4.5
    endloop
  endfacet
  facet normal -0.995187 0.0979978 0
    outer loop
      vertex 36 -30 11.5
      vertex 35.8344 -31.6817 4.5
      vertex 35.8344 -31.6817 11.5
    endloop
  endfacet
  facet normal 0.995183 0.0980377 0
    outer loop
      vertex 13.221 -32.2435 16
      vertex 13.0985 -31 0
      vertex 13.0985 -31 16
    endloop
  endfacet
  facet normal 0.995183 0.0980377 0
    outer loop
      vertex 13.0985 -31 0
      vertex 13.221 -32.2435 16
      vertex 13.221 -32.2435 0
    endloop
  endfacet
  facet normal -0.956945 0.290268 0
    outer loop
      vertex 35.1246 -34.4009 0
      vertex 35.779 -32.2435 16
      vertex 35.779 -32.2435 0
    endloop
  endfacet
  facet normal -0.956945 0.290268 0
    outer loop
      vertex 35.779 -32.2435 16
      vertex 35.1246 -34.4009 0
      vertex 35.1246 -34.4009 16
    endloop
  endfacet
  facet normal 0.471392 0.881924 -0
    outer loop
      vertex 20.0991 -40.6246 0
      vertex 18.1109 -39.5619 16
      vertex 20.0991 -40.6246 16
    endloop
  endfacet
  facet normal 0.471392 0.881924 0
    outer loop
      vertex 18.1109 -39.5619 16
      vertex 20.0991 -40.6246 0
      vertex 18.1109 -39.5619 0
    endloop
  endfacet
  facet normal 0.772992 0.634416 0
    outer loop
      vertex 16.3683 -38.1317 16
      vertex 14.9381 -36.3891 0
      vertex 14.9381 -36.3891 16
    endloop
  endfacet
  facet normal 0.772992 0.634416 0
    outer loop
      vertex 14.9381 -36.3891 0
      vertex 16.3683 -38.1317 16
      vertex 16.3683 -38.1317 0
    endloop
  endfacet
  facet normal -0.634416 0.772992 0
    outer loop
      vertex 32.6317 -38.1317 0
      vertex 30.8891 -39.5619 16
      vertex 32.6317 -38.1317 16
    endloop
  endfacet
  facet normal -0.634416 0.772992 0
    outer loop
      vertex 30.8891 -39.5619 16
      vertex 32.6317 -38.1317 0
      vertex 30.8891 -39.5619 0
    endloop
  endfacet
  facet normal -0.881924 0.471392 0
    outer loop
      vertex 34.0619 -36.3891 0
      vertex 35.1246 -34.4009 16
      vertex 35.1246 -34.4009 0
    endloop
  endfacet
  facet normal -0.881924 0.471392 0
    outer loop
      vertex 35.1246 -34.4009 16
      vertex 34.0619 -36.3891 0
      vertex 34.0619 -36.3891 16
    endloop
  endfacet
  facet normal -0.0980323 0.995183 0
    outer loop
      vertex 26.7435 -41.279 0
      vertex 24.5 -41.5 16
      vertex 26.7435 -41.279 16
    endloop
  endfacet
  facet normal -0.0980323 0.995183 0
    outer loop
      vertex 24.5 -41.5 16
      vertex 26.7435 -41.279 0
      vertex 24.5 -41.5 0
    endloop
  endfacet
  facet normal 0.634416 0.772992 -0
    outer loop
      vertex 18.1109 -39.5619 0
      vertex 16.3683 -38.1317 16
      vertex 18.1109 -39.5619 16
    endloop
  endfacet
  facet normal 0.634416 0.772992 0
    outer loop
      vertex 16.3683 -38.1317 16
      vertex 18.1109 -39.5619 0
      vertex 16.3683 -38.1317 0
    endloop
  endfacet
  facet normal -0.290268 0.956945 0
    outer loop
      vertex 28.9009 -40.6246 0
      vertex 26.7435 -41.279 16
      vertex 28.9009 -40.6246 16
    endloop
  endfacet
  facet normal -0.290268 0.956945 0
    outer loop
      vertex 26.7435 -41.279 16
      vertex 28.9009 -40.6246 0
      vertex 26.7435 -41.279 0
    endloop
  endfacet
  facet normal -0.471392 0.881924 0
    outer loop
      vertex 30.8891 -39.5619 0
      vertex 28.9009 -40.6246 16
      vertex 30.8891 -39.5619 16
    endloop
  endfacet
  facet normal -0.471392 0.881924 0
    outer loop
      vertex 28.9009 -40.6246 16
      vertex 30.8891 -39.5619 0
      vertex 28.9009 -40.6246 0
    endloop
  endfacet
  facet normal 0.290268 0.956945 -0
    outer loop
      vertex 22.2565 -41.279 0
      vertex 20.0991 -40.6246 16
      vertex 22.2565 -41.279 16
    endloop
  endfacet
  facet normal 0.290268 0.956945 0
    outer loop
      vertex 20.0991 -40.6246 16
      vertex 22.2565 -41.279 0
      vertex 20.0991 -40.6246 0
    endloop
  endfacet
  facet normal 0.0980323 0.995183 -0
    outer loop
      vertex 24.5 -41.5 0
      vertex 22.2565 -41.279 16
      vertex 24.5 -41.5 16
    endloop
  endfacet
  facet normal 0.0980323 0.995183 0
    outer loop
      vertex 22.2565 -41.279 16
      vertex 24.5 -41.5 0
      vertex 22.2565 -41.279 0
    endloop
  endfacet
  facet normal 0.881924 0.471392 0
    outer loop
      vertex 14.9381 -36.3891 16
      vertex 13.8754 -34.4009 0
      vertex 13.8754 -34.4009 16
    endloop
  endfacet
  facet normal 0.881924 0.471392 0
    outer loop
      vertex 13.8754 -34.4009 0
      vertex 14.9381 -36.3891 16
      vertex 14.9381 -36.3891 0
    endloop
  endfacet
  facet normal 0.956945 0.290268 0
    outer loop
      vertex 13.8754 -34.4009 16
      vertex 13.221 -32.2435 0
      vertex 13.221 -32.2435 16
    endloop
  endfacet
  facet normal 0.956945 0.290268 0
    outer loop
      vertex 13.221 -32.2435 0
      vertex 13.8754 -34.4009 16
      vertex 13.8754 -34.4009 0
    endloop
  endfacet
  facet normal -0.772992 0.634416 0
    outer loop
      vertex 32.6317 -38.1317 0
      vertex 34.0619 -36.3891 16
      vertex 34.0619 -36.3891 0
    endloop
  endfacet
  facet normal -0.772992 0.634416 0
    outer loop
      vertex 34.0619 -36.3891 16
      vertex 32.6317 -38.1317 0
      vertex 32.6317 -38.1317 16
    endloop
  endfacet
  facet normal -0.995185 0 -0.0980155
    outer loop
      vertex 9.3 -45.5 8
      vertex 9.2462 -31 8.54625
      vertex 9.3 -31 8
    endloop
  endfacet
  facet normal -0.995185 -0 -0.0980155
    outer loop
      vertex 9.2462 -31 8.54625
      vertex 9.3 -45.5 8
      vertex 9.2462 -45.5 8.54625
    endloop
  endfacet
  facet normal 0 0 -1
    outer loop
      vertex 0 -45.5 10.8
      vertex 6.5 -31 10.8
      vertex 6.5 -45.5 10.8
    endloop
  endfacet
  facet normal -0 0 -1
    outer loop
      vertex 6.5 -31 10.8
      vertex 0 -45.5 10.8
      vertex 0 -31 10.8
    endloop
  endfacet
  facet normal -0.290225 0 -0.956958
    outer loop
      vertex 7.04625 -45.5 10.7462
      vertex 7.57151 -31 10.5869
      vertex 7.57151 -45.5 10.5869
    endloop
  endfacet
  facet normal -0.290225 0 -0.956958
    outer loop
      vertex 7.57151 -31 10.5869
      vertex 7.04625 -45.5 10.7462
      vertex 7.04625 -31 10.7462
    endloop
  endfacet
  facet normal -0.0980155 0 -0.995185
    outer loop
      vertex 6.5 -45.5 10.8
      vertex 7.04625 -31 10.7462
      vertex 7.04625 -45.5 10.7462
    endloop
  endfacet
  facet normal -0.0980155 0 -0.995185
    outer loop
      vertex 7.04625 -31 10.7462
      vertex 6.5 -45.5 10.8
      vertex 6.5 -31 10.8
    endloop
  endfacet
  facet normal -0.773014 0 -0.634389
    outer loop
      vertex 8.82811 -45.5 9.5556
      vertex 8.4799 -31 9.9799
      vertex 8.82811 -31 9.5556
    endloop
  endfacet
  facet normal -0.773014 -0 -0.634389
    outer loop
      vertex 8.4799 -31 9.9799
      vertex 8.82811 -45.5 9.5556
      vertex 8.4799 -45.5 9.9799
    endloop
  endfacet
  facet normal -0.956938 0 -0.290292
    outer loop
      vertex 9.2462 -45.5 8.54625
      vertex 9.08686 -31 9.07151
      vertex 9.2462 -31 8.54625
    endloop
  endfacet
  facet normal -0.956938 -0 -0.290292
    outer loop
      vertex 9.08686 -31 9.07151
      vertex 9.2462 -45.5 8.54625
      vertex 9.08686 -45.5 9.07151
    endloop
  endfacet
  facet normal -0.995185 0 0.0980155
    outer loop
      vertex 9.2462 -45.5 7.45375
      vertex 9.3 -31 8
      vertex 9.2462 -31 7.45375
    endloop
  endfacet
  facet normal -0.995185 0 0.0980155
    outer loop
      vertex 9.3 -31 8
      vertex 9.2462 -45.5 7.45375
      vertex 9.3 -45.5 8
    endloop
  endfacet
  facet normal -0.0980155 0 0.995185
    outer loop
      vertex 6.5 -31 5.2
      vertex 7.04625 -45.5 5.2538
      vertex 7.04625 -31 5.2538
    endloop
  endfacet
  facet normal -0.0980155 0 0.995185
    outer loop
      vertex 7.04625 -45.5 5.2538
      vertex 6.5 -31 5.2
      vertex 6.5 -45.5 5.2
    endloop
  endfacet
  facet normal -0.47138 0 0.88193
    outer loop
      vertex 7.57151 -31 5.41314
      vertex 8.0556 -45.5 5.67188
      vertex 8.0556 -31 5.67188
    endloop
  endfacet
  facet normal -0.47138 0 0.88193
    outer loop
      vertex 8.0556 -45.5 5.67188
      vertex 7.57151 -31 5.41314
      vertex 7.57151 -45.5 5.41314
    endloop
  endfacet
  facet normal -0.881922 0 0.471395
    outer loop
      vertex 8.82811 -45.5 6.4444
      vertex 9.08686 -31 6.92849
      vertex 8.82811 -31 6.4444
    endloop
  endfacet
  facet normal -0.881922 0 0.471395
    outer loop
      vertex 9.08686 -31 6.92849
      vertex 8.82811 -45.5 6.4444
      vertex 9.08686 -45.5 6.92849
    endloop
  endfacet
  facet normal -0 0 1
    outer loop
      vertex 0 -31 5.2
      vertex 6.5 -45.5 5.2
      vertex 6.5 -31 5.2
    endloop
  endfacet
  facet normal 0 0 1
    outer loop
      vertex 6.5 -45.5 5.2
      vertex 0 -31 5.2
      vertex 0 -45.5 5.2
    endloop
  endfacet
  facet normal -0.881922 0 -0.471395
    outer loop
      vertex 9.08686 -45.5 9.07151
      vertex 8.82811 -31 9.5556
      vertex 9.08686 -31 9.07151
    endloop
  endfacet
  facet normal -0.881922 -0 -0.471395
    outer loop
      vertex 8.82811 -31 9.5556
      vertex 9.08686 -45.5 9.07151
      vertex 8.82811 -45.5 9.5556
    endloop
  endfacet
  facet normal -0.471465 0 -0.881885
    outer loop
      vertex 7.57151 -45.5 10.5869
      vertex 8.0556 -31 10.3281
      vertex 8.0556 -45.5 10.3281
    endloop
  endfacet
  facet normal -0.471465 0 -0.881885
    outer loop
      vertex 8.0556 -31 10.3281
      vertex 7.57151 -45.5 10.5869
      vertex 7.57151 -31 10.5869
    endloop
  endfacet
  facet normal -0.634378 0 -0.773023
    outer loop
      vertex 8.0556 -45.5 10.3281
      vertex 8.4799 -31 9.9799
      vertex 8.4799 -45.5 9.9799
    endloop
  endfacet
  facet normal -0.634378 0 -0.773023
    outer loop
      vertex 8.4799 -31 9.9799
      vertex 8.0556 -45.5 10.3281
      vertex 8.0556 -31 10.3281
    endloop
  endfacet
  facet normal -0.290292 0 0.956938
    outer loop
      vertex 7.04625 -31 5.2538
      vertex 7.57151 -45.5 5.41314
      vertex 7.57151 -31 5.41314
    endloop
  endfacet
  facet normal -0.290292 0 0.956938
    outer loop
      vertex 7.57151 -45.5 5.41314
      vertex 7.04625 -31 5.2538
      vertex 7.04625 -45.5 5.2538
    endloop
  endfacet
  facet normal -0.6344 0 0.773005
    outer loop
      vertex 8.0556 -31 5.67188
      vertex 8.4799 -45.5 6.0201
      vertex 8.4799 -31 6.0201
    endloop
  endfacet
  facet normal -0.6344 0 0.773005
    outer loop
      vertex 8.4799 -45.5 6.0201
      vertex 8.0556 -31 5.67188
      vertex 8.0556 -45.5 5.67188
    endloop
  endfacet
  facet normal -0.956938 0 0.290292
    outer loop
      vertex 9.08686 -45.5 6.92849
      vertex 9.2462 -31 7.45375
      vertex 9.08686 -31 6.92849
    endloop
  endfacet
  facet normal -0.956938 0 0.290292
    outer loop
      vertex 9.2462 -31 7.45375
      vertex 9.08686 -45.5 6.92849
      vertex 9.2462 -45.5 7.45375
    endloop
  endfacet
  facet normal -0.773014 0 0.634389
    outer loop
      vertex 8.4799 -45.5 6.0201
      vertex 8.82811 -31 6.4444
      vertex 8.4799 -31 6.0201
    endloop
  endfacet
  facet normal -0.773014 0 0.634389
    outer loop
      vertex 8.82811 -31 6.4444
      vertex 8.4799 -45.5 6.0201
      vertex 8.82811 -45.5 6.4444
    endloop
  endfacet
  facet normal 0.499999 -0.866026 0
    outer loop
      vertex 36.8756 -45.5 0
      vertex 49 -38.5 16
      vertex 36.8756 -45.5 16
    endloop
  endfacet
  facet normal 0.499999 -0.866026 0
    outer loop
      vertex 49 -38.5 16
      vertex 36.8756 -45.5 0
      vertex 49 -38.5 0
    endloop
  endfacet
endsolid OpenSCAD_Model
