solid OpenSCAD_Model
  facet normal 0.707107 -0.707107 0
    outer loop
      vertex 42.3934 -48 8
      vertex 53 -37.3934 8.303e-15
      vertex 53 -37.3934 8
    endloop
  endfacet
  facet normal 0.707107 -0.707107 0
    outer loop
      vertex 53 -37.3934 8.303e-15
      vertex 42.3934 -48 8
      vertex 42.3934 -48 1.06581e-14
    endloop
  endfacet
  facet normal -0.707107 -0.707107 0
    outer loop
      vertex 10.6066 -48 1.06581e-14
      vertex 0 -37.3934 8
      vertex 0 -37.3934 8.303e-15
    endloop
  endfacet
  facet normal -0.707107 -0.707107 0
    outer loop
      vertex 0 -37.3934 8
      vertex 10.6066 -48 1.06581e-14
      vertex 10.6066 -48 8
    endloop
  endfacet
  facet normal -1 0 0
    outer loop
      vertex 0 -37.3934 8.303e-15
      vertex 0 -8 8
      vertex 0 0 0
    endloop
  endfacet
  facet normal -1 -0 0
    outer loop
      vertex 0 -8 8
      vertex 0 -37.3934 8.303e-15
      vertex 0 -37.3934 8
    endloop
  endfacet
  facet normal -1 0 0
    outer loop
      vertex 0 -8 8
      vertex 0 5.32907e-15 24
      vertex 0 0 0
    endloop
  endfacet
  facet normal -1 -0 0
    outer loop
      vertex 0 5.32907e-15 24
      vertex 0 -8 8
      vertex 0 -8 24
    endloop
  endfacet
  facet normal 0 -1 0
    outer loop
      vertex 10.6066 -48 1.06581e-14
      vertex 42.3934 -48 8
      vertex 10.6066 -48 8
    endloop
  endfacet
  facet normal 0 -1 -0
    outer loop
      vertex 42.3934 -48 8
      vertex 10.6066 -48 1.06581e-14
      vertex 42.3934 -48 1.06581e-14
    endloop
  endfacet
  facet normal 1 0 0
    outer loop
      vertex 53 -8 8
      vertex 53 5.32907e-15 24
      vertex 53 -8 24
    endloop
  endfacet
  facet normal 1 0 0
    outer loop
      vertex 53 5.32907e-15 24
      vertex 53 -8 8
      vertex 53 0 0
    endloop
  endfacet
  facet normal 1 0 0
    outer loop
      vertex 53 -37.3934 8.303e-15
      vertex 53 -8 8
      vertex 53 -37.3934 8
    endloop
  endfacet
  facet normal 1 0 0
    outer loop
      vertex 53 -8 8
      vertex 53 -37.3934 8.303e-15
      vertex 53 0 0
    endloop
  endfacet
  facet normal 0 1 -2.22045e-16
    outer loop
      vertex 53 5.32907e-15 24
      vertex 43.65 4.07191e-15 18.3383
      vertex 8.46885 4.14313e-15 18.659
    endloop
  endfacet
  facet normal 0 1 -2.22045e-16
    outer loop
      vertex 43.65 4.07191e-15 18.3383
      vertex 10.0683 3.93808e-15 17.7355
      vertex 8.46885 4.14313e-15 18.659
    endloop
  endfacet
  facet normal 0 1 -2.22045e-16
    outer loop
      vertex 42.4628 3.75776e-15 16.9235
      vertex 10.0683 3.93808e-15 17.7355
      vertex 43.65 4.07191e-15 18.3383
    endloop
  endfacet
  facet normal 0 1 -2.22045e-16
    outer loop
      vertex 42.4628 3.75776e-15 16.9235
      vertex 10.7 3.55271e-15 16
      vertex 10.0683 3.93808e-15 17.7355
    endloop
  endfacet
  facet normal 0 1 -2.22045e-16
    outer loop
      vertex 42.4628 3.34767e-15 15.0765
      vertex 10.7 3.55271e-15 16
      vertex 42.4628 3.75776e-15 16.9235
    endloop
  endfacet
  facet normal 0 1 -2.22045e-16
    outer loop
      vertex 42.4628 3.34767e-15 15.0765
      vertex 10.0683 3.16735e-15 14.2645
      vertex 10.7 3.55271e-15 16
    endloop
  endfacet
  facet normal 0 1 -2.22045e-16
    outer loop
      vertex 43.65 3.03351e-15 13.6617
      vertex 10.0683 3.16735e-15 14.2645
      vertex 42.4628 3.34767e-15 15.0765
    endloop
  endfacet
  facet normal 0 1 -2.22045e-16
    outer loop
      vertex 53 0 0
      vertex 43.65 3.03351e-15 13.6617
      vertex 45.4688 2.9623e-15 13.341
    endloop
  endfacet
  facet normal 0 1 -2.22045e-16
    outer loop
      vertex 43.65 3.03351e-15 13.6617
      vertex 53 0 0
      vertex 10.0683 3.16735e-15 14.2645
    endloop
  endfacet
  facet normal 0 1 -2.22045e-16
    outer loop
      vertex 43.65 4.07191e-15 18.3383
      vertex 53 5.32907e-15 24
      vertex 45.4688 4.14313e-15 18.659
    endloop
  endfacet
  facet normal 0 1 -2.22045e-16
    outer loop
      vertex 53 5.32907e-15 24
      vertex 47.0683 3.93808e-15 17.7355
      vertex 45.4688 4.14313e-15 18.659
    endloop
  endfacet
  facet normal 0 1 -2.22045e-16
    outer loop
      vertex 53 5.32907e-15 24
      vertex 47.7 3.55271e-15 16
      vertex 47.0683 3.93808e-15 17.7355
    endloop
  endfacet
  facet normal 0 1 -2.22045e-16
    outer loop
      vertex 53 0 0
      vertex 47.7 3.55271e-15 16
      vertex 53 5.32907e-15 24
    endloop
  endfacet
  facet normal 0 1 -2.22045e-16
    outer loop
      vertex 0 0 0
      vertex 10.0683 3.16735e-15 14.2645
      vertex 53 0 0
    endloop
  endfacet
  facet normal 0 1 -2.22045e-16
    outer loop
      vertex 47.0683 3.16735e-15 14.2645
      vertex 53 0 0
      vertex 45.4688 2.9623e-15 13.341
    endloop
  endfacet
  facet normal 0 1 -2.22045e-16
    outer loop
      vertex 47.7 3.55271e-15 16
      vertex 53 0 0
      vertex 47.0683 3.16735e-15 14.2645
    endloop
  endfacet
  facet normal 0 1 -2.22045e-16
    outer loop
      vertex 53 5.32907e-15 24
      vertex 8.46885 4.14313e-15 18.659
      vertex 0 5.32907e-15 24
    endloop
  endfacet
  facet normal 0 1 -2.22045e-16
    outer loop
      vertex 6.65 4.07191e-15 18.3383
      vertex 0 5.32907e-15 24
      vertex 8.46885 4.14313e-15 18.659
    endloop
  endfacet
  facet normal 0 1 -2.22045e-16
    outer loop
      vertex 5.46283 3.75776e-15 16.9235
      vertex 0 5.32907e-15 24
      vertex 6.65 4.07191e-15 18.3383
    endloop
  endfacet
  facet normal 0 1 -2.22045e-16
    outer loop
      vertex 5.46283 3.34767e-15 15.0765
      vertex 0 5.32907e-15 24
      vertex 5.46283 3.75776e-15 16.9235
    endloop
  endfacet
  facet normal 0 1 -2.22045e-16
    outer loop
      vertex 10.0683 3.16735e-15 14.2645
      vertex 0 0 0
      vertex 8.46885 2.9623e-15 13.341
    endloop
  endfacet
  facet normal 0 1 -2.22045e-16
    outer loop
      vertex 5.46283 3.34767e-15 15.0765
      vertex 0 0 0
      vertex 0 5.32907e-15 24
    endloop
  endfacet
  facet normal 0 1 -2.22045e-16
    outer loop
      vertex 6.65 3.03351e-15 13.6617
      vertex 0 0 0
      vertex 5.46283 3.34767e-15 15.0765
    endloop
  endfacet
  facet normal 0 1 -2.22045e-16
    outer loop
      vertex 8.46885 2.9623e-15 13.341
      vertex 0 0 0
      vertex 6.65 3.03351e-15 13.6617
    endloop
  endfacet
  facet normal 0 -2.22045e-16 -1
    outer loop
      vertex 42.4628 -30.9235 6.86639e-15
      vertex 39.705 -32.8068 7.28457e-15
      vertex 40 -30 6.66134e-15
    endloop
  endfacet
  facet normal 0 -2.22045e-16 -1
    outer loop
      vertex 43.65 -32.3383 7.18054e-15
      vertex 38.8329 -35.4909 7.88057e-15
      vertex 39.705 -32.8068 7.28457e-15
    endloop
  endfacet
  facet normal 0 -2.22045e-16 -1
    outer loop
      vertex 42.3934 -48 1.06581e-14
      vertex 37.4217 -37.9351 8.42328e-15
      vertex 38.8329 -35.4909 7.88057e-15
    endloop
  endfacet
  facet normal 0 -2.22045e-16 -1
    outer loop
      vertex 42.3934 -48 1.06581e-14
      vertex 35.5333 -40.0325 8.88899e-15
      vertex 37.4217 -37.9351 8.42328e-15
    endloop
  endfacet
  facet normal 0 -2.22045e-16 -1
    outer loop
      vertex 42.3934 -48 1.06581e-14
      vertex 33.25 -41.6913 9.25734e-15
      vertex 35.5333 -40.0325 8.88899e-15
    endloop
  endfacet
  facet normal 0 -2.22045e-16 -1
    outer loop
      vertex 42.3934 -48 1.06581e-14
      vertex 30.6717 -42.8393 9.51223e-15
      vertex 33.25 -41.6913 9.25734e-15
    endloop
  endfacet
  facet normal 0 -2.22045e-16 -1
    outer loop
      vertex 42.3934 -48 1.06581e-14
      vertex 27.9111 -43.426 9.64252e-15
      vertex 30.6717 -42.8393 9.51223e-15
    endloop
  endfacet
  facet normal 0 -2.22045e-16 -1
    outer loop
      vertex 42.3934 -48 1.06581e-14
      vertex 25.0889 -43.426 9.64252e-15
      vertex 27.9111 -43.426 9.64252e-15
    endloop
  endfacet
  facet normal 0 -2.22045e-16 -1
    outer loop
      vertex 10.6066 -48 1.06581e-14
      vertex 25.0889 -43.426 9.64252e-15
      vertex 42.3934 -48 1.06581e-14
    endloop
  endfacet
  facet normal 0 -2.22045e-16 -1
    outer loop
      vertex 10.0683 -31.7355 7.0467e-15
      vertex 13 -30 6.66134e-15
      vertex 13.295 -32.8068 7.28457e-15
    endloop
  endfacet
  facet normal 0 -2.22045e-16 -1
    outer loop
      vertex 8.46885 -32.659 7.25175e-15
      vertex 13.295 -32.8068 7.28457e-15
      vertex 14.1671 -35.4909 7.88057e-15
    endloop
  endfacet
  facet normal 0 -2.22045e-16 -1
    outer loop
      vertex 10.6066 -48 1.06581e-14
      vertex 14.1671 -35.4909 7.88057e-15
      vertex 15.5783 -37.9351 8.42328e-15
    endloop
  endfacet
  facet normal 0 -2.22045e-16 -1
    outer loop
      vertex 25.0889 -43.426 9.64252e-15
      vertex 10.6066 -48 1.06581e-14
      vertex 22.3283 -42.8393 9.51223e-15
    endloop
  endfacet
  facet normal 0 -2.22045e-16 -1
    outer loop
      vertex 10.6066 -48 1.06581e-14
      vertex 19.75 -41.6913 9.25734e-15
      vertex 22.3283 -42.8393 9.51223e-15
    endloop
  endfacet
  facet normal 0 -2.22045e-16 -1
    outer loop
      vertex 10.6066 -48 1.06581e-14
      vertex 17.4667 -40.0325 8.88899e-15
      vertex 19.75 -41.6913 9.25734e-15
    endloop
  endfacet
  facet normal 0 -2.22045e-16 -1
    outer loop
      vertex 10.6066 -48 1.06581e-14
      vertex 15.5783 -37.9351 8.42328e-15
      vertex 17.4667 -40.0325 8.88899e-15
    endloop
  endfacet
  facet normal 0 -2.22045e-16 -1
    outer loop
      vertex 14.1671 -35.4909 7.88057e-15
      vertex 10.6066 -48 1.06581e-14
      vertex 8.46885 -32.659 7.25175e-15
    endloop
  endfacet
  facet normal -0 -2.22045e-16 -1
    outer loop
      vertex 13 -30 6.66134e-15
      vertex 10.0683 -31.7355 7.0467e-15
      vertex 10.7 -30 6.66134e-15
    endloop
  endfacet
  facet normal 0 -2.22045e-16 -1
    outer loop
      vertex 13.295 -32.8068 7.28457e-15
      vertex 8.46885 -32.659 7.25175e-15
      vertex 10.0683 -31.7355 7.0467e-15
    endloop
  endfacet
  facet normal 0 -2.22045e-16 -1
    outer loop
      vertex 0 -37.3934 8.303e-15
      vertex 8.46885 -32.659 7.25175e-15
      vertex 10.6066 -48 1.06581e-14
    endloop
  endfacet
  facet normal 0 -2.22045e-16 -1
    outer loop
      vertex 8.46885 -32.659 7.25175e-15
      vertex 0 -37.3934 8.303e-15
      vertex 6.65 -32.3383 7.18054e-15
    endloop
  endfacet
  facet normal 0 -2.22045e-16 -1
    outer loop
      vertex 5.46283 -30.9235 6.86639e-15
      vertex 0 -37.3934 8.303e-15
      vertex 5.46283 -29.0765 6.45629e-15
    endloop
  endfacet
  facet normal 0 -2.22045e-16 -1
    outer loop
      vertex 6.65 -32.3383 7.18054e-15
      vertex 0 -37.3934 8.303e-15
      vertex 5.46283 -30.9235 6.86639e-15
    endloop
  endfacet
  facet normal 0 -2.22045e-16 -1
    outer loop
      vertex 47.0683 -28.2645 6.27597e-15
      vertex 53 -37.3934 8.303e-15
      vertex 47.7 -30 6.66134e-15
    endloop
  endfacet
  facet normal 0 -2.22045e-16 -1
    outer loop
      vertex 53 -37.3934 8.303e-15
      vertex 47.0683 -31.7355 7.0467e-15
      vertex 47.7 -30 6.66134e-15
    endloop
  endfacet
  facet normal 0 -2.22045e-16 -1
    outer loop
      vertex 53 -37.3934 8.303e-15
      vertex 45.4688 -32.659 7.25175e-15
      vertex 47.0683 -31.7355 7.0467e-15
    endloop
  endfacet
  facet normal 0 -2.22045e-16 -1
    outer loop
      vertex 42.3934 -48 1.06581e-14
      vertex 45.4688 -32.659 7.25175e-15
      vertex 53 -37.3934 8.303e-15
    endloop
  endfacet
  facet normal 0 -2.22045e-16 -1
    outer loop
      vertex 39.705 -32.8068 7.28457e-15
      vertex 42.4628 -30.9235 6.86639e-15
      vertex 43.65 -32.3383 7.18054e-15
    endloop
  endfacet
  facet normal 0 -2.22045e-16 -1
    outer loop
      vertex 45.4688 -32.659 7.25175e-15
      vertex 38.8329 -35.4909 7.88057e-15
      vertex 43.65 -32.3383 7.18054e-15
    endloop
  endfacet
  facet normal 0 -2.22045e-16 -1
    outer loop
      vertex 38.8329 -35.4909 7.88057e-15
      vertex 45.4688 -32.659 7.25175e-15
      vertex 42.3934 -48 1.06581e-14
    endloop
  endfacet
  facet normal 0 -2.22045e-16 -1
    outer loop
      vertex 53 -37.3934 8.303e-15
      vertex 47.0683 -28.2645 6.27597e-15
      vertex 53 0 0
    endloop
  endfacet
  facet normal 0 -2.22045e-16 -1
    outer loop
      vertex 45.4688 -27.341 6.07093e-15
      vertex 53 0 0
      vertex 47.0683 -28.2645 6.27597e-15
    endloop
  endfacet
  facet normal 0 -2.22045e-16 -1
    outer loop
      vertex 38.8329 -24.5091 5.4421e-15
      vertex 45.4688 -27.341 6.07093e-15
      vertex 43.65 -27.6617 6.14214e-15
    endloop
  endfacet
  facet normal 0 -2.22045e-16 -1
    outer loop
      vertex 39.705 -27.1932 6.0381e-15
      vertex 43.65 -27.6617 6.14214e-15
      vertex 42.4628 -29.0765 6.45629e-15
    endloop
  endfacet
  facet normal 0 -2.22045e-16 -1
    outer loop
      vertex 42.4628 -30.9235 6.86639e-15
      vertex 40 -30 6.66134e-15
      vertex 42.4628 -29.0765 6.45629e-15
    endloop
  endfacet
  facet normal 0 -2.22045e-16 -1
    outer loop
      vertex 39.705 -27.1932 6.0381e-15
      vertex 42.4628 -29.0765 6.45629e-15
      vertex 40 -30 6.66134e-15
    endloop
  endfacet
  facet normal 0 -2.22045e-16 -1
    outer loop
      vertex 43.65 -27.6617 6.14214e-15
      vertex 39.705 -27.1932 6.0381e-15
      vertex 38.8329 -24.5091 5.4421e-15
    endloop
  endfacet
  facet normal 0 -2.22045e-16 -1
    outer loop
      vertex 45.4688 -27.341 6.07093e-15
      vertex 38.8329 -24.5091 5.4421e-15
      vertex 37.4217 -22.0649 4.89939e-15
    endloop
  endfacet
  facet normal 0 -2.22045e-16 -1
    outer loop
      vertex 45.4688 -27.341 6.07093e-15
      vertex 37.4217 -22.0649 4.89939e-15
      vertex 53 0 0
    endloop
  endfacet
  facet normal 0 -2.22045e-16 -1
    outer loop
      vertex 35.5333 -19.9675 4.43369e-15
      vertex 53 0 0
      vertex 37.4217 -22.0649 4.89939e-15
    endloop
  endfacet
  facet normal 0 -2.22045e-16 -1
    outer loop
      vertex 33.25 -18.3087 4.06534e-15
      vertex 53 0 0
      vertex 35.5333 -19.9675 4.43369e-15
    endloop
  endfacet
  facet normal 0 -2.22045e-16 -1
    outer loop
      vertex 30.6717 -17.1607 3.81045e-15
      vertex 53 0 0
      vertex 33.25 -18.3087 4.06534e-15
    endloop
  endfacet
  facet normal 0 -2.22045e-16 -1
    outer loop
      vertex 27.9111 -16.574 3.68016e-15
      vertex 53 0 0
      vertex 30.6717 -17.1607 3.81045e-15
    endloop
  endfacet
  facet normal 0 -2.22045e-16 -1
    outer loop
      vertex 25.0889 -16.574 3.68016e-15
      vertex 53 0 0
      vertex 27.9111 -16.574 3.68016e-15
    endloop
  endfacet
  facet normal 0 -2.22045e-16 -1
    outer loop
      vertex 0 0 0
      vertex 25.0889 -16.574 3.68016e-15
      vertex 22.3283 -17.1607 3.81045e-15
    endloop
  endfacet
  facet normal 0 -2.22045e-16 -1
    outer loop
      vertex 0 0 0
      vertex 22.3283 -17.1607 3.81045e-15
      vertex 19.75 -18.3087 4.06534e-15
    endloop
  endfacet
  facet normal 0 -2.22045e-16 -1
    outer loop
      vertex 10.0683 -28.2645 6.27597e-15
      vertex 13 -30 6.66134e-15
      vertex 10.7 -30 6.66134e-15
    endloop
  endfacet
  facet normal 0 -2.22045e-16 -1
    outer loop
      vertex 13 -30 6.66134e-15
      vertex 10.0683 -28.2645 6.27597e-15
      vertex 13.295 -27.1932 6.0381e-15
    endloop
  endfacet
  facet normal 0 -2.22045e-16 -1
    outer loop
      vertex 8.46885 -27.341 6.07093e-15
      vertex 13.295 -27.1932 6.0381e-15
      vertex 10.0683 -28.2645 6.27597e-15
    endloop
  endfacet
  facet normal 0 -2.22045e-16 -1
    outer loop
      vertex 13.295 -27.1932 6.0381e-15
      vertex 8.46885 -27.341 6.07093e-15
      vertex 14.1671 -24.5091 5.4421e-15
    endloop
  endfacet
  facet normal 0 -2.22045e-16 -1
    outer loop
      vertex 14.1671 -24.5091 5.4421e-15
      vertex 8.46885 -27.341 6.07093e-15
      vertex 15.5783 -22.0649 4.89939e-15
    endloop
  endfacet
  facet normal 0 -2.22045e-16 -1
    outer loop
      vertex 6.65 -27.6617 6.14214e-15
      vertex 15.5783 -22.0649 4.89939e-15
      vertex 8.46885 -27.341 6.07093e-15
    endloop
  endfacet
  facet normal 0 -2.22045e-16 -1
    outer loop
      vertex 0 0 0
      vertex 15.5783 -22.0649 4.89939e-15
      vertex 6.65 -27.6617 6.14214e-15
    endloop
  endfacet
  facet normal 0 -2.22045e-16 -1
    outer loop
      vertex 15.5783 -22.0649 4.89939e-15
      vertex 0 0 0
      vertex 17.4667 -19.9675 4.43369e-15
    endloop
  endfacet
  facet normal 0 -2.22045e-16 -1
    outer loop
      vertex 25.0889 -16.574 3.68016e-15
      vertex 0 0 0
      vertex 53 0 0
    endloop
  endfacet
  facet normal 0 -2.22045e-16 -1
    outer loop
      vertex 17.4667 -19.9675 4.43369e-15
      vertex 0 0 0
      vertex 19.75 -18.3087 4.06534e-15
    endloop
  endfacet
  facet normal 0 -2.22045e-16 -1
    outer loop
      vertex 5.46283 -29.0765 6.45629e-15
      vertex 0 0 0
      vertex 6.65 -27.6617 6.14214e-15
    endloop
  endfacet
  facet normal 0 -2.22045e-16 -1
    outer loop
      vertex 0 0 0
      vertex 5.46283 -29.0765 6.45629e-15
      vertex 0 -37.3934 8.303e-15
    endloop
  endfacet
  facet normal 0 0 1
    outer loop
      vertex 53 -8 8
      vertex 47.7 -30 8
      vertex 53 -37.3934 8
    endloop
  endfacet
  facet normal 0 0 1
    outer loop
      vertex 53 -8 8
      vertex 47.0683 -28.2645 8
      vertex 47.7 -30 8
    endloop
  endfacet
  facet normal 0 0 1
    outer loop
      vertex 53 -8 8
      vertex 45.4688 -27.341 8
      vertex 47.0683 -28.2645 8
    endloop
  endfacet
  facet normal -0 0 1
    outer loop
      vertex 37.4217 -22.0649 8
      vertex 45.4688 -27.341 8
      vertex 53 -8 8
    endloop
  endfacet
  facet normal -0 -0 1
    outer loop
      vertex 38.8329 -24.5091 8
      vertex 45.4688 -27.341 8
      vertex 37.4217 -22.0649 8
    endloop
  endfacet
  facet normal -0 0 1
    outer loop
      vertex 40 -30 8
      vertex 42.4628 -30.9235 8
      vertex 42.4628 -29.0765 8
    endloop
  endfacet
  facet normal 0 0 1
    outer loop
      vertex 42.4628 -30.9235 8
      vertex 40 -30 8
      vertex 39.705 -32.8068 8
    endloop
  endfacet
  facet normal -0 -0 1
    outer loop
      vertex 39.705 -27.1932 8
      vertex 43.65 -27.6617 8
      vertex 38.8329 -24.5091 8
    endloop
  endfacet
  facet normal 0 0 1
    outer loop
      vertex 42.4628 -29.0765 8
      vertex 39.705 -27.1932 8
      vertex 40 -30 8
    endloop
  endfacet
  facet normal 0 0 1
    outer loop
      vertex 43.65 -27.6617 8
      vertex 39.705 -27.1932 8
      vertex 42.4628 -29.0765 8
    endloop
  endfacet
  facet normal 0 0 1
    outer loop
      vertex 45.4688 -27.341 8
      vertex 38.8329 -24.5091 8
      vertex 43.65 -27.6617 8
    endloop
  endfacet
  facet normal 0 0 1
    outer loop
      vertex 53 -8 8
      vertex 35.5333 -19.9675 8
      vertex 37.4217 -22.0649 8
    endloop
  endfacet
  facet normal 0 0 1
    outer loop
      vertex 53 -8 8
      vertex 33.25 -18.3087 8
      vertex 35.5333 -19.9675 8
    endloop
  endfacet
  facet normal 0 0 1
    outer loop
      vertex 53 -8 8
      vertex 30.6717 -17.1607 8
      vertex 33.25 -18.3087 8
    endloop
  endfacet
  facet normal 0 0 1
    outer loop
      vertex 53 -8 8
      vertex 27.9111 -16.574 8
      vertex 30.6717 -17.1607 8
    endloop
  endfacet
  facet normal 0 0 1
    outer loop
      vertex 53 -8 8
      vertex 25.0889 -16.574 8
      vertex 27.9111 -16.574 8
    endloop
  endfacet
  facet normal -0 0 1
    outer loop
      vertex 0 -8 8
      vertex 25.0889 -16.574 8
      vertex 53 -8 8
    endloop
  endfacet
  facet normal -0 0 1
    outer loop
      vertex 10.0683 -28.2645 8
      vertex 13 -30 8
      vertex 13.295 -27.1932 8
    endloop
  endfacet
  facet normal 0 0 1
    outer loop
      vertex 8.46885 -27.341 8
      vertex 13.295 -27.1932 8
      vertex 14.1671 -24.5091 8
    endloop
  endfacet
  facet normal 0 0 1
    outer loop
      vertex 8.46885 -27.341 8
      vertex 14.1671 -24.5091 8
      vertex 15.5783 -22.0649 8
    endloop
  endfacet
  facet normal 0 0 1
    outer loop
      vertex 13 -30 8
      vertex 10.0683 -28.2645 8
      vertex 10.7 -30 8
    endloop
  endfacet
  facet normal 0 0 1
    outer loop
      vertex 13.295 -27.1932 8
      vertex 8.46885 -27.341 8
      vertex 10.0683 -28.2645 8
    endloop
  endfacet
  facet normal 0 0 1
    outer loop
      vertex 0 -8 8
      vertex 15.5783 -22.0649 8
      vertex 17.4667 -19.9675 8
    endloop
  endfacet
  facet normal 0 0 1
    outer loop
      vertex 15.5783 -22.0649 8
      vertex 0 -8 8
      vertex 8.46885 -27.341 8
    endloop
  endfacet
  facet normal 0 0 1
    outer loop
      vertex 0 -8 8
      vertex 17.4667 -19.9675 8
      vertex 19.75 -18.3087 8
    endloop
  endfacet
  facet normal 0 0 1
    outer loop
      vertex 0 -37.3934 8
      vertex 5.46283 -29.0765 8
      vertex 0 -8 8
    endloop
  endfacet
  facet normal 0 0 1
    outer loop
      vertex 6.65 -27.6617 8
      vertex 0 -8 8
      vertex 5.46283 -29.0765 8
    endloop
  endfacet
  facet normal 0 0 1
    outer loop
      vertex 8.46885 -27.341 8
      vertex 0 -8 8
      vertex 6.65 -27.6617 8
    endloop
  endfacet
  facet normal 0 0 1
    outer loop
      vertex 22.3283 -17.1607 8
      vertex 0 -8 8
      vertex 19.75 -18.3087 8
    endloop
  endfacet
  facet normal 0 0 1
    outer loop
      vertex 25.0889 -16.574 8
      vertex 0 -8 8
      vertex 22.3283 -17.1607 8
    endloop
  endfacet
  facet normal -0 0 1
    outer loop
      vertex 47.0683 -31.7355 8
      vertex 53 -37.3934 8
      vertex 47.7 -30 8
    endloop
  endfacet
  facet normal -0 0 1
    outer loop
      vertex 45.4688 -32.659 8
      vertex 53 -37.3934 8
      vertex 47.0683 -31.7355 8
    endloop
  endfacet
  facet normal 0 0 1
    outer loop
      vertex 42.3934 -48 8
      vertex 45.4688 -32.659 8
      vertex 43.65 -32.3383 8
    endloop
  endfacet
  facet normal 0 0 1
    outer loop
      vertex 45.4688 -32.659 8
      vertex 42.3934 -48 8
      vertex 53 -37.3934 8
    endloop
  endfacet
  facet normal 0 0 1
    outer loop
      vertex 42.3934 -48 8
      vertex 43.65 -32.3383 8
      vertex 42.4628 -30.9235 8
    endloop
  endfacet
  facet normal 0 0 1
    outer loop
      vertex 42.4628 -30.9235 8
      vertex 39.705 -32.8068 8
      vertex 38.8329 -35.4909 8
    endloop
  endfacet
  facet normal 0 0 1
    outer loop
      vertex 42.4628 -30.9235 8
      vertex 38.8329 -35.4909 8
      vertex 42.3934 -48 8
    endloop
  endfacet
  facet normal -0 0 1
    outer loop
      vertex 37.4217 -37.9351 8
      vertex 42.3934 -48 8
      vertex 38.8329 -35.4909 8
    endloop
  endfacet
  facet normal -0 0 1
    outer loop
      vertex 35.5333 -40.0325 8
      vertex 42.3934 -48 8
      vertex 37.4217 -37.9351 8
    endloop
  endfacet
  facet normal -0 0 1
    outer loop
      vertex 33.25 -41.6913 8
      vertex 42.3934 -48 8
      vertex 35.5333 -40.0325 8
    endloop
  endfacet
  facet normal -0 0 1
    outer loop
      vertex 30.6717 -42.8393 8
      vertex 42.3934 -48 8
      vertex 33.25 -41.6913 8
    endloop
  endfacet
  facet normal -0 0 1
    outer loop
      vertex 27.9111 -43.426 8
      vertex 42.3934 -48 8
      vertex 30.6717 -42.8393 8
    endloop
  endfacet
  facet normal -0 0 1
    outer loop
      vertex 25.0889 -43.426 8
      vertex 42.3934 -48 8
      vertex 27.9111 -43.426 8
    endloop
  endfacet
  facet normal 0 0 1
    outer loop
      vertex 10.6066 -48 8
      vertex 25.0889 -43.426 8
      vertex 22.3283 -42.8393 8
    endloop
  endfacet
  facet normal 0 0 1
    outer loop
      vertex 10.0683 -31.7355 8
      vertex 13 -30 8
      vertex 10.7 -30 8
    endloop
  endfacet
  facet normal 0 0 1
    outer loop
      vertex 13 -30 8
      vertex 10.0683 -31.7355 8
      vertex 13.295 -32.8068 8
    endloop
  endfacet
  facet normal -0 0 1
    outer loop
      vertex 8.46885 -32.659 8
      vertex 13.295 -32.8068 8
      vertex 10.0683 -31.7355 8
    endloop
  endfacet
  facet normal 0 0 1
    outer loop
      vertex 25.0889 -43.426 8
      vertex 10.6066 -48 8
      vertex 42.3934 -48 8
    endloop
  endfacet
  facet normal 0 0 1
    outer loop
      vertex 19.75 -41.6913 8
      vertex 10.6066 -48 8
      vertex 22.3283 -42.8393 8
    endloop
  endfacet
  facet normal 0 0 1
    outer loop
      vertex 17.4667 -40.0325 8
      vertex 10.6066 -48 8
      vertex 19.75 -41.6913 8
    endloop
  endfacet
  facet normal 0 0 1
    outer loop
      vertex 15.5783 -37.9351 8
      vertex 10.6066 -48 8
      vertex 17.4667 -40.0325 8
    endloop
  endfacet
  facet normal 0 0 1
    outer loop
      vertex 13.295 -32.8068 8
      vertex 8.46885 -32.659 8
      vertex 14.1671 -35.4909 8
    endloop
  endfacet
  facet normal 0 -0 1
    outer loop
      vertex 10.6066 -48 8
      vertex 14.1671 -35.4909 8
      vertex 8.46885 -32.659 8
    endloop
  endfacet
  facet normal 0 0 1
    outer loop
      vertex 14.1671 -35.4909 8
      vertex 10.6066 -48 8
      vertex 15.5783 -37.9351 8
    endloop
  endfacet
  facet normal 0 0 1
    outer loop
      vertex 0 -37.3934 8
      vertex 8.46885 -32.659 8
      vertex 6.65 -32.3383 8
    endloop
  endfacet
  facet normal 0 0 1
    outer loop
      vertex 0 -37.3934 8
      vertex 6.65 -32.3383 8
      vertex 5.46283 -30.9235 8
    endloop
  endfacet
  facet normal 0 0 1
    outer loop
      vertex 8.46885 -32.659 8
      vertex 0 -37.3934 8
      vertex 10.6066 -48 8
    endloop
  endfacet
  facet normal 0 0 1
    outer loop
      vertex 5.46283 -29.0765 8
      vertex 0 -37.3934 8
      vertex 5.46283 -30.9235 8
    endloop
  endfacet
  facet normal -0.207911 0.978148 0
    outer loop
      vertex 30.6717 -42.8393 8
      vertex 27.9111 -43.426 9.64252e-15
      vertex 27.9111 -43.426 8
    endloop
  endfacet
  facet normal -0.207911 0.978148 0
    outer loop
      vertex 27.9111 -43.426 9.64252e-15
      vertex 30.6717 -42.8393 8
      vertex 30.6717 -42.8393 9.51223e-15
    endloop
  endfacet
  facet normal -0.587785 -0.809017 0
    outer loop
      vertex 33.25 -18.3087 8
      vertex 35.5333 -19.9675 4.43369e-15
      vertex 35.5333 -19.9675 8
    endloop
  endfacet
  facet normal -0.587785 -0.809017 0
    outer loop
      vertex 35.5333 -19.9675 4.43369e-15
      vertex 33.25 -18.3087 8
      vertex 33.25 -18.3087 4.06534e-15
    endloop
  endfacet
  facet normal -0.994522 -0.104528 0
    outer loop
      vertex 40 -30 6.66134e-15
      vertex 39.705 -27.1932 8
      vertex 39.705 -27.1932 6.0381e-15
    endloop
  endfacet
  facet normal -0.994522 -0.104528 0
    outer loop
      vertex 39.705 -27.1932 8
      vertex 40 -30 6.66134e-15
      vertex 40 -30 8
    endloop
  endfacet
  facet normal 0.207912 -0.978148 0
    outer loop
      vertex 22.3283 -17.1607 3.81045e-15
      vertex 25.0889 -16.574 8
      vertex 22.3283 -17.1607 8
    endloop
  endfacet
  facet normal 0.207912 -0.978148 0
    outer loop
      vertex 25.0889 -16.574 8
      vertex 22.3283 -17.1607 3.81045e-15
      vertex 25.0889 -16.574 3.68016e-15
    endloop
  endfacet
  facet normal -0.951056 0.309018 0
    outer loop
      vertex 38.8329 -35.4909 7.88057e-15
      vertex 39.705 -32.8068 8
      vertex 39.705 -32.8068 7.28457e-15
    endloop
  endfacet
  facet normal -0.951056 0.309018 0
    outer loop
      vertex 39.705 -32.8068 8
      vertex 38.8329 -35.4909 7.88057e-15
      vertex 38.8329 -35.4909 8
    endloop
  endfacet
  facet normal 0.743145 -0.669131 0
    outer loop
      vertex 15.5783 -22.0649 8
      vertex 17.4667 -19.9675 4.43369e-15
      vertex 17.4667 -19.9675 8
    endloop
  endfacet
  facet normal 0.743145 -0.66913 1.59533e-07
    outer loop
      vertex 17.4667 -19.9675 4.43369e-15
      vertex 15.5783 -22.0649 8
      vertex 15.5783 -22.0649 4.89939e-15
    endloop
  endfacet
  facet normal -0.406737 0.913545 0
    outer loop
      vertex 33.25 -41.6913 8
      vertex 30.6717 -42.8393 9.51223e-15
      vertex 30.6717 -42.8393 8
    endloop
  endfacet
  facet normal -0.406737 0.913545 0
    outer loop
      vertex 30.6717 -42.8393 9.51223e-15
      vertex 33.25 -41.6913 8
      vertex 33.25 -41.6913 9.25734e-15
    endloop
  endfacet
  facet normal 0.951056 -0.309017 7.36754e-08
    outer loop
      vertex 13.295 -27.1932 8
      vertex 14.1671 -24.5091 5.4421e-15
      vertex 14.1671 -24.5091 8
    endloop
  endfacet
  facet normal 0.951056 -0.309017 0
    outer loop
      vertex 14.1671 -24.5091 5.4421e-15
      vertex 13.295 -27.1932 8
      vertex 13.295 -27.1932 6.0381e-15
    endloop
  endfacet
  facet normal 0.587785 -0.809017 0
    outer loop
      vertex 17.4667 -19.9675 4.43369e-15
      vertex 19.75 -18.3087 8
      vertex 17.4667 -19.9675 8
    endloop
  endfacet
  facet normal 0.587785 -0.809017 0
    outer loop
      vertex 19.75 -18.3087 8
      vertex 17.4667 -19.9675 4.43369e-15
      vertex 19.75 -18.3087 4.06534e-15
    endloop
  endfacet
  facet normal 0.866026 -0.5 1.19209e-07
    outer loop
      vertex 14.1671 -24.5091 8
      vertex 15.5783 -22.0649 4.89939e-15
      vertex 15.5783 -22.0649 8
    endloop
  endfacet
  facet normal 0.866026 -0.5 1.19209e-07
    outer loop
      vertex 15.5783 -22.0649 4.89939e-15
      vertex 14.1671 -24.5091 8
      vertex 14.1671 -24.5091 5.4421e-15
    endloop
  endfacet
  facet normal 0.994522 -0.104528 0
    outer loop
      vertex 13 -30 8
      vertex 13.295 -27.1932 6.0381e-15
      vertex 13.295 -27.1932 8
    endloop
  endfacet
  facet normal 0.994522 -0.104528 2.49215e-08
    outer loop
      vertex 13.295 -27.1932 6.0381e-15
      vertex 13 -30 8
      vertex 13 -30 6.66134e-15
    endloop
  endfacet
  facet normal 0.406737 -0.913545 0
    outer loop
      vertex 19.75 -18.3087 4.06534e-15
      vertex 22.3283 -17.1607 8
      vertex 19.75 -18.3087 8
    endloop
  endfacet
  facet normal 0.406737 -0.913545 0
    outer loop
      vertex 22.3283 -17.1607 8
      vertex 19.75 -18.3087 4.06534e-15
      vertex 22.3283 -17.1607 3.81045e-15
    endloop
  endfacet
  facet normal -0.994522 0.104528 0
    outer loop
      vertex 39.705 -32.8068 7.28457e-15
      vertex 40 -30 8
      vertex 40 -30 6.66134e-15
    endloop
  endfacet
  facet normal -0.994522 0.104528 0
    outer loop
      vertex 40 -30 8
      vertex 39.705 -32.8068 7.28457e-15
      vertex 39.705 -32.8068 8
    endloop
  endfacet
  facet normal 0.743145 0.66913 0
    outer loop
      vertex 17.4667 -40.0325 8
      vertex 15.5783 -37.9351 8.42328e-15
      vertex 15.5783 -37.9351 8
    endloop
  endfacet
  facet normal 0.743145 0.66913 0
    outer loop
      vertex 15.5783 -37.9351 8.42328e-15
      vertex 17.4667 -40.0325 8
      vertex 17.4667 -40.0325 8.88899e-15
    endloop
  endfacet
  facet normal -0.743145 -0.669131 0
    outer loop
      vertex 35.5333 -19.9675 4.43369e-15
      vertex 37.4217 -22.0649 8
      vertex 35.5333 -19.9675 8
    endloop
  endfacet
  facet normal -0.743145 -0.66913 1.59533e-07
    outer loop
      vertex 37.4217 -22.0649 8
      vertex 35.5333 -19.9675 4.43369e-15
      vertex 37.4217 -22.0649 4.89939e-15
    endloop
  endfacet
  facet normal -0.207911 -0.978148 0
    outer loop
      vertex 27.9111 -16.574 8
      vertex 30.6717 -17.1607 3.81045e-15
      vertex 30.6717 -17.1607 8
    endloop
  endfacet
  facet normal -0.207911 -0.978148 0
    outer loop
      vertex 30.6717 -17.1607 3.81045e-15
      vertex 27.9111 -16.574 8
      vertex 27.9111 -16.574 3.68016e-15
    endloop
  endfacet
  facet normal -0.406737 -0.913545 0
    outer loop
      vertex 30.6717 -17.1607 8
      vertex 33.25 -18.3087 4.06534e-15
      vertex 33.25 -18.3087 8
    endloop
  endfacet
  facet normal -0.406737 -0.913545 0
    outer loop
      vertex 33.25 -18.3087 4.06534e-15
      vertex 30.6717 -17.1607 8
      vertex 30.6717 -17.1607 3.81045e-15
    endloop
  endfacet
  facet normal 0 -1 0
    outer loop
      vertex 25.0889 -16.574 3.68016e-15
      vertex 27.9111 -16.574 8
      vertex 25.0889 -16.574 8
    endloop
  endfacet
  facet normal 0 -1 -0
    outer loop
      vertex 27.9111 -16.574 8
      vertex 25.0889 -16.574 3.68016e-15
      vertex 27.9111 -16.574 3.68016e-15
    endloop
  endfacet
  facet normal 0.994522 0.104528 -2.49215e-08
    outer loop
      vertex 13.295 -32.8068 8
      vertex 13 -30 6.66134e-15
      vertex 13 -30 8
    endloop
  endfacet
  facet normal 0.994522 0.104528 0
    outer loop
      vertex 13 -30 6.66134e-15
      vertex 13.295 -32.8068 8
      vertex 13.295 -32.8068 7.28457e-15
    endloop
  endfacet
  facet normal -0.743145 0.66913 0
    outer loop
      vertex 35.5333 -40.0325 8.88899e-15
      vertex 37.4217 -37.9351 8
      vertex 37.4217 -37.9351 8.42328e-15
    endloop
  endfacet
  facet normal -0.743145 0.66913 0
    outer loop
      vertex 37.4217 -37.9351 8
      vertex 35.5333 -40.0325 8.88899e-15
      vertex 35.5333 -40.0325 8
    endloop
  endfacet
  facet normal -0.866026 0.5 0
    outer loop
      vertex 37.4217 -37.9351 8.42328e-15
      vertex 38.8329 -35.4909 8
      vertex 38.8329 -35.4909 7.88057e-15
    endloop
  endfacet
  facet normal -0.866026 0.5 0
    outer loop
      vertex 38.8329 -35.4909 8
      vertex 37.4217 -37.9351 8.42328e-15
      vertex 37.4217 -37.9351 8
    endloop
  endfacet
  facet normal 0.587785 0.809017 -0
    outer loop
      vertex 19.75 -41.6913 9.25734e-15
      vertex 17.4667 -40.0325 8
      vertex 19.75 -41.6913 8
    endloop
  endfacet
  facet normal 0.587785 0.809017 0
    outer loop
      vertex 17.4667 -40.0325 8
      vertex 19.75 -41.6913 9.25734e-15
      vertex 17.4667 -40.0325 8.88899e-15
    endloop
  endfacet
  facet normal -0.587785 0.809017 0
    outer loop
      vertex 35.5333 -40.0325 8
      vertex 33.25 -41.6913 9.25734e-15
      vertex 33.25 -41.6913 8
    endloop
  endfacet
  facet normal -0.587785 0.809017 0
    outer loop
      vertex 33.25 -41.6913 9.25734e-15
      vertex 35.5333 -40.0325 8
      vertex 35.5333 -40.0325 8.88899e-15
    endloop
  endfacet
  facet normal -0.866026 -0.5 1.19209e-07
    outer loop
      vertex 37.4217 -22.0649 4.89939e-15
      vertex 38.8329 -24.5091 8
      vertex 37.4217 -22.0649 8
    endloop
  endfacet
  facet normal -0.866026 -0.5 1.19209e-07
    outer loop
      vertex 38.8329 -24.5091 8
      vertex 37.4217 -22.0649 4.89939e-15
      vertex 38.8329 -24.5091 5.4421e-15
    endloop
  endfacet
  facet normal -0.951056 -0.309018 7.36756e-08
    outer loop
      vertex 39.705 -27.1932 6.0381e-15
      vertex 38.8329 -24.5091 8
      vertex 38.8329 -24.5091 5.4421e-15
    endloop
  endfacet
  facet normal -0.951056 -0.309018 0
    outer loop
      vertex 38.8329 -24.5091 8
      vertex 39.705 -27.1932 6.0381e-15
      vertex 39.705 -27.1932 8
    endloop
  endfacet
  facet normal 0.866026 0.5 0
    outer loop
      vertex 15.5783 -37.9351 8
      vertex 14.1671 -35.4909 7.88057e-15
      vertex 14.1671 -35.4909 8
    endloop
  endfacet
  facet normal 0.866026 0.5 0
    outer loop
      vertex 14.1671 -35.4909 7.88057e-15
      vertex 15.5783 -37.9351 8
      vertex 15.5783 -37.9351 8.42328e-15
    endloop
  endfacet
  facet normal 0.951056 0.309017 0
    outer loop
      vertex 14.1671 -35.4909 8
      vertex 13.295 -32.8068 7.28457e-15
      vertex 13.295 -32.8068 8
    endloop
  endfacet
  facet normal 0.951056 0.309017 0
    outer loop
      vertex 13.295 -32.8068 7.28457e-15
      vertex 14.1671 -35.4909 8
      vertex 14.1671 -35.4909 7.88057e-15
    endloop
  endfacet
  facet normal 0.207911 0.978148 -0
    outer loop
      vertex 25.0889 -43.426 9.64252e-15
      vertex 22.3283 -42.8393 8
      vertex 25.0889 -43.426 8
    endloop
  endfacet
  facet normal 0.207911 0.978148 0
    outer loop
      vertex 22.3283 -42.8393 8
      vertex 25.0889 -43.426 9.64252e-15
      vertex 22.3283 -42.8393 9.51223e-15
    endloop
  endfacet
  facet normal 0.406737 0.913545 -0
    outer loop
      vertex 22.3283 -42.8393 9.51223e-15
      vertex 19.75 -41.6913 8
      vertex 22.3283 -42.8393 8
    endloop
  endfacet
  facet normal 0.406737 0.913545 0
    outer loop
      vertex 19.75 -41.6913 8
      vertex 22.3283 -42.8393 9.51223e-15
      vertex 19.75 -41.6913 9.25734e-15
    endloop
  endfacet
  facet normal 0 1 -0
    outer loop
      vertex 27.9111 -43.426 9.64252e-15
      vertex 25.0889 -43.426 8
      vertex 27.9111 -43.426 8
    endloop
  endfacet
  facet normal 0 1 0
    outer loop
      vertex 25.0889 -43.426 8
      vertex 27.9111 -43.426 9.64252e-15
      vertex 25.0889 -43.426 9.64252e-15
    endloop
  endfacet
  facet normal -0.939693 -0.34202 0
    outer loop
      vertex 10.7 -30 6.66134e-15
      vertex 10.0683 -28.2645 8
      vertex 10.0683 -28.2645 6.27597e-15
    endloop
  endfacet
  facet normal -0.939693 -0.34202 0
    outer loop
      vertex 10.0683 -28.2645 8
      vertex 10.7 -30 6.66134e-15
      vertex 10.7 -30 8
    endloop
  endfacet
  facet normal 1 -0 0
    outer loop
      vertex 5.46283 -30.9235 8
      vertex 5.46283 -29.0765 6.45629e-15
      vertex 5.46283 -29.0765 8
    endloop
  endfacet
  facet normal 1 0 0
    outer loop
      vertex 5.46283 -29.0765 6.45629e-15
      vertex 5.46283 -30.9235 8
      vertex 5.46283 -30.9235 6.86639e-15
    endloop
  endfacet
  facet normal 0.766044 -0.642788 1.53253e-07
    outer loop
      vertex 5.46283 -29.0765 8
      vertex 6.65 -27.6617 6.14214e-15
      vertex 6.65 -27.6617 8
    endloop
  endfacet
  facet normal 0.766044 -0.642788 1.53253e-07
    outer loop
      vertex 6.65 -27.6617 6.14214e-15
      vertex 5.46283 -29.0765 8
      vertex 5.46283 -29.0765 6.45629e-15
    endloop
  endfacet
  facet normal 0.173648 -0.984808 2.34796e-07
    outer loop
      vertex 6.65 -27.6617 6.14214e-15
      vertex 8.46885 -27.341 8
      vertex 6.65 -27.6617 8
    endloop
  endfacet
  facet normal 0.173649 -0.984808 0
    outer loop
      vertex 8.46885 -27.341 8
      vertex 6.65 -27.6617 6.14214e-15
      vertex 8.46885 -27.341 6.07093e-15
    endloop
  endfacet
  facet normal -0.5 -0.866025 0
    outer loop
      vertex 8.46885 -27.341 8
      vertex 10.0683 -28.2645 6.27597e-15
      vertex 10.0683 -28.2645 8
    endloop
  endfacet
  facet normal -0.5 -0.866025 0
    outer loop
      vertex 10.0683 -28.2645 6.27597e-15
      vertex 8.46885 -27.341 8
      vertex 8.46885 -27.341 6.07093e-15
    endloop
  endfacet
  facet normal 0.173649 0.984808 -0
    outer loop
      vertex 8.46885 -32.659 7.25175e-15
      vertex 6.65 -32.3383 8
      vertex 8.46885 -32.659 8
    endloop
  endfacet
  facet normal 0.173649 0.984808 0
    outer loop
      vertex 6.65 -32.3383 8
      vertex 8.46885 -32.659 7.25175e-15
      vertex 6.65 -32.3383 7.18054e-15
    endloop
  endfacet
  facet normal 0.766044 0.642788 0
    outer loop
      vertex 6.65 -32.3383 8
      vertex 5.46283 -30.9235 6.86639e-15
      vertex 5.46283 -30.9235 8
    endloop
  endfacet
  facet normal 0.766044 0.642788 0
    outer loop
      vertex 5.46283 -30.9235 6.86639e-15
      vertex 6.65 -32.3383 8
      vertex 6.65 -32.3383 7.18054e-15
    endloop
  endfacet
  facet normal -0.939692 0.342021 0
    outer loop
      vertex 10.7 -30 6.66134e-15
      vertex 10.0683 -31.7355 8
      vertex 10.7 -30 8
    endloop
  endfacet
  facet normal -0.939693 0.34202 -8.1544e-08
    outer loop
      vertex 10.0683 -31.7355 8
      vertex 10.7 -30 6.66134e-15
      vertex 10.0683 -31.7355 7.0467e-15
    endloop
  endfacet
  facet normal -0.500001 0.866025 0
    outer loop
      vertex 10.0683 -31.7355 8
      vertex 8.46885 -32.659 7.25175e-15
      vertex 8.46885 -32.659 8
    endloop
  endfacet
  facet normal -0.5 0.866025 -2.06477e-07
    outer loop
      vertex 8.46885 -32.659 7.25175e-15
      vertex 10.0683 -31.7355 8
      vertex 10.0683 -31.7355 7.0467e-15
    endloop
  endfacet
  facet normal -0.939693 -0.34202 0
    outer loop
      vertex 47.7 -30 6.66134e-15
      vertex 47.0683 -28.2645 8
      vertex 47.0683 -28.2645 6.27597e-15
    endloop
  endfacet
  facet normal -0.939693 -0.34202 0
    outer loop
      vertex 47.0683 -28.2645 8
      vertex 47.7 -30 6.66134e-15
      vertex 47.7 -30 8
    endloop
  endfacet
  facet normal 1 -0 0
    outer loop
      vertex 42.4628 -30.9235 8
      vertex 42.4628 -29.0765 6.45629e-15
      vertex 42.4628 -29.0765 8
    endloop
  endfacet
  facet normal 1 0 0
    outer loop
      vertex 42.4628 -29.0765 6.45629e-15
      vertex 42.4628 -30.9235 8
      vertex 42.4628 -30.9235 6.86639e-15
    endloop
  endfacet
  facet normal -0.939693 0.34202 0
    outer loop
      vertex 47.7 -30 6.66134e-15
      vertex 47.0683 -31.7355 8
      vertex 47.7 -30 8
    endloop
  endfacet
  facet normal -0.939693 0.34202 -8.15439e-08
    outer loop
      vertex 47.0683 -31.7355 8
      vertex 47.7 -30 6.66134e-15
      vertex 47.0683 -31.7355 7.0467e-15
    endloop
  endfacet
  facet normal 0.766044 -0.642788 1.53253e-07
    outer loop
      vertex 42.4628 -29.0765 8
      vertex 43.65 -27.6617 6.14214e-15
      vertex 43.65 -27.6617 8
    endloop
  endfacet
  facet normal 0.766044 -0.642788 1.53253e-07
    outer loop
      vertex 43.65 -27.6617 6.14214e-15
      vertex 42.4628 -29.0765 8
      vertex 42.4628 -29.0765 6.45629e-15
    endloop
  endfacet
  facet normal 0.173648 -0.984808 2.34796e-07
    outer loop
      vertex 43.65 -27.6617 6.14214e-15
      vertex 45.4688 -27.341 8
      vertex 43.65 -27.6617 8
    endloop
  endfacet
  facet normal 0.173649 -0.984808 0
    outer loop
      vertex 45.4688 -27.341 8
      vertex 43.65 -27.6617 6.14214e-15
      vertex 45.4688 -27.341 6.07093e-15
    endloop
  endfacet
  facet normal -0.499999 -0.866026 0
    outer loop
      vertex 45.4688 -27.341 8
      vertex 47.0683 -28.2645 6.27597e-15
      vertex 47.0683 -28.2645 8
    endloop
  endfacet
  facet normal -0.499999 -0.866026 0
    outer loop
      vertex 47.0683 -28.2645 6.27597e-15
      vertex 45.4688 -27.341 8
      vertex 45.4688 -27.341 6.07093e-15
    endloop
  endfacet
  facet normal 0.173649 0.984808 -0
    outer loop
      vertex 45.4688 -32.659 7.25175e-15
      vertex 43.65 -32.3383 8
      vertex 45.4688 -32.659 8
    endloop
  endfacet
  facet normal 0.173649 0.984808 0
    outer loop
      vertex 43.65 -32.3383 8
      vertex 45.4688 -32.659 7.25175e-15
      vertex 43.65 -32.3383 7.18054e-15
    endloop
  endfacet
  facet normal 0.766044 0.642788 0
    outer loop
      vertex 43.65 -32.3383 8
      vertex 42.4628 -30.9235 6.86639e-15
      vertex 42.4628 -30.9235 8
    endloop
  endfacet
  facet normal 0.766044 0.642788 0
    outer loop
      vertex 42.4628 -30.9235 6.86639e-15
      vertex 43.65 -32.3383 8
      vertex 43.65 -32.3383 7.18054e-15
    endloop
  endfacet
  facet normal -0.5 0.866025 0
    outer loop
      vertex 47.0683 -31.7355 8
      vertex 45.4688 -32.659 7.25175e-15
      vertex 45.4688 -32.659 8
    endloop
  endfacet
  facet normal -0.499999 0.866026 -2.06477e-07
    outer loop
      vertex 45.4688 -32.659 7.25175e-15
      vertex 47.0683 -31.7355 8
      vertex 47.0683 -31.7355 7.0467e-15
    endloop
  endfacet
  facet normal 0 -1 0
    outer loop
      vertex 53 -8 24
      vertex 43.65 -8 18.3383
      vertex 45.4688 -8 18.659
    endloop
  endfacet
  facet normal 0 -1 0
    outer loop
      vertex 10.0683 -8 17.7355
      vertex 43.65 -8 18.3383
      vertex 8.46885 -8 18.659
    endloop
  endfacet
  facet normal 0 -1 0
    outer loop
      vertex 10.0683 -8 17.7355
      vertex 42.4628 -8 16.9235
      vertex 43.65 -8 18.3383
    endloop
  endfacet
  facet normal 0 -1 0
    outer loop
      vertex 10.7 -8 16
      vertex 42.4628 -8 16.9235
      vertex 10.0683 -8 17.7355
    endloop
  endfacet
  facet normal 0 -1 0
    outer loop
      vertex 10.7 -8 16
      vertex 42.4628 -8 15.0765
      vertex 42.4628 -8 16.9235
    endloop
  endfacet
  facet normal 0 -1 0
    outer loop
      vertex 10.0683 -8 14.2645
      vertex 42.4628 -8 15.0765
      vertex 10.7 -8 16
    endloop
  endfacet
  facet normal 0 -1 0
    outer loop
      vertex 10.0683 -8 14.2645
      vertex 43.65 -8 13.6617
      vertex 42.4628 -8 15.0765
    endloop
  endfacet
  facet normal 0 -1 0
    outer loop
      vertex 8.46885 -8 13.341
      vertex 43.65 -8 13.6617
      vertex 10.0683 -8 14.2645
    endloop
  endfacet
  facet normal 0 -1 0
    outer loop
      vertex 53 -8 8
      vertex 43.65 -8 13.6617
      vertex 8.46885 -8 13.341
    endloop
  endfacet
  facet normal 0 -1 0
    outer loop
      vertex 0 -8 24
      vertex 8.46885 -8 18.659
      vertex 53 -8 24
    endloop
  endfacet
  facet normal 0 -1 0
    outer loop
      vertex 0 -8 24
      vertex 6.65 -8 18.3383
      vertex 8.46885 -8 18.659
    endloop
  endfacet
  facet normal 0 -1 0
    outer loop
      vertex 0 -8 24
      vertex 5.46283 -8 16.9235
      vertex 6.65 -8 18.3383
    endloop
  endfacet
  facet normal 0 -1 0
    outer loop
      vertex 0 -8 24
      vertex 5.46283 -8 15.0765
      vertex 5.46283 -8 16.9235
    endloop
  endfacet
  facet normal 0 -1 0
    outer loop
      vertex 53 -8 8
      vertex 8.46885 -8 13.341
      vertex 0 -8 8
    endloop
  endfacet
  facet normal 0 -1 -0
    outer loop
      vertex 6.65 -8 13.6617
      vertex 0 -8 8
      vertex 8.46885 -8 13.341
    endloop
  endfacet
  facet normal 0 -1 -0
    outer loop
      vertex 5.46283 -8 15.0765
      vertex 0 -8 8
      vertex 6.65 -8 13.6617
    endloop
  endfacet
  facet normal 0 -1 0
    outer loop
      vertex 0 -8 8
      vertex 5.46283 -8 15.0765
      vertex 0 -8 24
    endloop
  endfacet
  facet normal 0 -1 0
    outer loop
      vertex 43.65 -8 18.3383
      vertex 53 -8 24
      vertex 8.46885 -8 18.659
    endloop
  endfacet
  facet normal 0 -1 0
    outer loop
      vertex 47.0683 -8 17.7355
      vertex 53 -8 24
      vertex 45.4688 -8 18.659
    endloop
  endfacet
  facet normal 0 -1 0
    outer loop
      vertex 47.7 -8 16
      vertex 53 -8 24
      vertex 47.0683 -8 17.7355
    endloop
  endfacet
  facet normal 0 -1 0
    outer loop
      vertex 53 -8 8
      vertex 47.7 -8 16
      vertex 47.0683 -8 14.2645
    endloop
  endfacet
  facet normal 0 -1 0
    outer loop
      vertex 47.7 -8 16
      vertex 53 -8 8
      vertex 53 -8 24
    endloop
  endfacet
  facet normal 0 -1 0
    outer loop
      vertex 45.4688 -8 13.341
      vertex 53 -8 8
      vertex 47.0683 -8 14.2645
    endloop
  endfacet
  facet normal 0 -1 0
    outer loop
      vertex 43.65 -8 13.6617
      vertex 53 -8 8
      vertex 45.4688 -8 13.341
    endloop
  endfacet
  facet normal -0 0 1
    outer loop
      vertex 0 5.32907e-15 24
      vertex 53 -8 24
      vertex 53 5.32907e-15 24
    endloop
  endfacet
  facet normal 0 0 1
    outer loop
      vertex 53 -8 24
      vertex 0 5.32907e-15 24
      vertex 0 -8 24
    endloop
  endfacet
  facet normal -0.939693 0 -0.34202
    outer loop
      vertex 10.7 -8 16
      vertex 10.0683 3.93808e-15 17.7355
      vertex 10.7 3.55271e-15 16
    endloop
  endfacet
  facet normal -0.939693 -0 -0.34202
    outer loop
      vertex 10.0683 3.93808e-15 17.7355
      vertex 10.7 -8 16
      vertex 10.0683 -8 17.7355
    endloop
  endfacet
  facet normal 1 -0 0
    outer loop
      vertex 5.46283 -8 16.9235
      vertex 5.46283 3.34767e-15 15.0765
      vertex 5.46283 3.75776e-15 16.9235
    endloop
  endfacet
  facet normal 1 0 0
    outer loop
      vertex 5.46283 3.34767e-15 15.0765
      vertex 5.46283 -8 16.9235
      vertex 5.46283 -8 15.0765
    endloop
  endfacet
  facet normal 0.173649 0 -0.984808
    outer loop
      vertex 6.65 -8 18.3383
      vertex 8.46885 4.14313e-15 18.659
      vertex 8.46885 -8 18.659
    endloop
  endfacet
  facet normal 0.173649 0 -0.984808
    outer loop
      vertex 8.46885 4.14313e-15 18.659
      vertex 6.65 -8 18.3383
      vertex 6.65 4.07191e-15 18.3383
    endloop
  endfacet
  facet normal -0.5 0 -0.866025
    outer loop
      vertex 8.46885 -8 18.659
      vertex 10.0683 3.93808e-15 17.7355
      vertex 10.0683 -8 17.7355
    endloop
  endfacet
  facet normal -0.5 0 -0.866025
    outer loop
      vertex 10.0683 3.93808e-15 17.7355
      vertex 8.46885 -8 18.659
      vertex 8.46885 4.14313e-15 18.659
    endloop
  endfacet
  facet normal 0.766044 0 -0.642788
    outer loop
      vertex 6.65 -8 18.3383
      vertex 5.46283 3.75776e-15 16.9235
      vertex 6.65 4.07191e-15 18.3383
    endloop
  endfacet
  facet normal 0.766044 0 -0.642788
    outer loop
      vertex 5.46283 3.75776e-15 16.9235
      vertex 6.65 -8 18.3383
      vertex 5.46283 -8 16.9235
    endloop
  endfacet
  facet normal -0.939693 0 0.34202
    outer loop
      vertex 10.0683 -8 14.2645
      vertex 10.7 3.55271e-15 16
      vertex 10.0683 3.16735e-15 14.2645
    endloop
  endfacet
  facet normal -0.939693 0 0.34202
    outer loop
      vertex 10.7 3.55271e-15 16
      vertex 10.0683 -8 14.2645
      vertex 10.7 -8 16
    endloop
  endfacet
  facet normal -0.5 0 0.866025
    outer loop
      vertex 8.46885 2.9623e-15 13.341
      vertex 10.0683 -8 14.2645
      vertex 10.0683 3.16735e-15 14.2645
    endloop
  endfacet
  facet normal -0.5 0 0.866025
    outer loop
      vertex 10.0683 -8 14.2645
      vertex 8.46885 2.9623e-15 13.341
      vertex 8.46885 -8 13.341
    endloop
  endfacet
  facet normal 0.766044 -0 0.642788
    outer loop
      vertex 5.46283 -8 15.0765
      vertex 6.65 3.03351e-15 13.6617
      vertex 5.46283 3.34767e-15 15.0765
    endloop
  endfacet
  facet normal 0.766044 0 0.642788
    outer loop
      vertex 6.65 3.03351e-15 13.6617
      vertex 5.46283 -8 15.0765
      vertex 6.65 -8 13.6617
    endloop
  endfacet
  facet normal 0.173648 0 0.984808
    outer loop
      vertex 6.65 3.03351e-15 13.6617
      vertex 8.46885 -8 13.341
      vertex 8.46885 2.9623e-15 13.341
    endloop
  endfacet
  facet normal 0.173648 0 0.984808
    outer loop
      vertex 8.46885 -8 13.341
      vertex 6.65 3.03351e-15 13.6617
      vertex 6.65 -8 13.6617
    endloop
  endfacet
  facet normal -0.939693 0 -0.34202
    outer loop
      vertex 47.7 -8 16
      vertex 47.0683 3.93808e-15 17.7355
      vertex 47.7 3.55271e-15 16
    endloop
  endfacet
  facet normal -0.939693 -0 -0.34202
    outer loop
      vertex 47.0683 3.93808e-15 17.7355
      vertex 47.7 -8 16
      vertex 47.0683 -8 17.7355
    endloop
  endfacet
  facet normal 1 -0 0
    outer loop
      vertex 42.4628 -8 16.9235
      vertex 42.4628 3.34767e-15 15.0765
      vertex 42.4628 3.75776e-15 16.9235
    endloop
  endfacet
  facet normal 1 0 0
    outer loop
      vertex 42.4628 3.34767e-15 15.0765
      vertex 42.4628 -8 16.9235
      vertex 42.4628 -8 15.0765
    endloop
  endfacet
  facet normal 0.173649 0 -0.984808
    outer loop
      vertex 43.65 -8 18.3383
      vertex 45.4688 4.14313e-15 18.659
      vertex 45.4688 -8 18.659
    endloop
  endfacet
  facet normal 0.173649 0 -0.984808
    outer loop
      vertex 45.4688 4.14313e-15 18.659
      vertex 43.65 -8 18.3383
      vertex 43.65 4.07191e-15 18.3383
    endloop
  endfacet
  facet normal -0.499999 0 -0.866026
    outer loop
      vertex 45.4688 -8 18.659
      vertex 47.0683 3.93808e-15 17.7355
      vertex 47.0683 -8 17.7355
    endloop
  endfacet
  facet normal -0.499999 0 -0.866026
    outer loop
      vertex 47.0683 3.93808e-15 17.7355
      vertex 45.4688 -8 18.659
      vertex 45.4688 4.14313e-15 18.659
    endloop
  endfacet
  facet normal 0.766044 0 -0.642788
    outer loop
      vertex 43.65 -8 18.3383
      vertex 42.4628 3.75776e-15 16.9235
      vertex 43.65 4.07191e-15 18.3383
    endloop
  endfacet
  facet normal 0.766044 0 -0.642788
    outer loop
      vertex 42.4628 3.75776e-15 16.9235
      vertex 43.65 -8 18.3383
      vertex 42.4628 -8 16.9235
    endloop
  endfacet
  facet normal -0.939693 0 0.34202
    outer loop
      vertex 47.0683 -8 14.2645
      vertex 47.7 3.55271e-15 16
      vertex 47.0683 3.16735e-15 14.2645
    endloop
  endfacet
  facet normal -0.939693 0 0.34202
    outer loop
      vertex 47.7 3.55271e-15 16
      vertex 47.0683 -8 14.2645
      vertex 47.7 -8 16
    endloop
  endfacet
  facet normal -0.499999 0 0.866026
    outer loop
      vertex 45.4688 2.9623e-15 13.341
      vertex 47.0683 -8 14.2645
      vertex 47.0683 3.16735e-15 14.2645
    endloop
  endfacet
  facet normal -0.499999 0 0.866026
    outer loop
      vertex 47.0683 -8 14.2645
      vertex 45.4688 2.9623e-15 13.341
      vertex 45.4688 -8 13.341
    endloop
  endfacet
  facet normal 0.766044 -0 0.642788
    outer loop
      vertex 42.4628 -8 15.0765
      vertex 43.65 3.03351e-15 13.6617
      vertex 42.4628 3.34767e-15 15.0765
    endloop
  endfacet
  facet normal 0.766044 0 0.642788
    outer loop
      vertex 43.65 3.03351e-15 13.6617
      vertex 42.4628 -8 15.0765
      vertex 43.65 -8 13.6617
    endloop
  endfacet
  facet normal 0.173648 0 0.984808
    outer loop
      vertex 43.65 3.03351e-15 13.6617
      vertex 45.4688 -8 13.341
      vertex 45.4688 2.9623e-15 13.341
    endloop
  endfacet
  facet normal 0.173648 0 0.984808
    outer loop
      vertex 45.4688 -8 13.341
      vertex 43.65 3.03351e-15 13.6617
      vertex 43.65 -8 13.6617
    endloop
  endfacet
endsolid OpenSCAD_Model
