solid OpenSCAD_Model
  facet normal 0 1 -0
    outer loop
      vertex 1.65155 -15.7134 5
      vertex -1.65155 -15.7134 14.4
      vertex 1.65155 -15.7134 14.4
    endloop
  endfacet
  facet normal 0 1 0
    outer loop
      vertex -1.65155 -15.7134 14.4
      vertex 1.65155 -15.7134 5
      vertex -1.65155 -15.7134 5
    endloop
  endfacet
  facet normal 0 0 -1
    outer loop
      vertex 9.09677 -1.93358 14.4
      vertex 15.4547 -3.285 14.4
      vertex 14.434 -6.42644 14.4
    endloop
  endfacet
  facet normal 0 0 -1
    outer loop
      vertex 8.49597 -3.78265 14.4
      vertex 14.434 -6.42644 14.4
      vertex 12.7825 -9.28701 14.4
    endloop
  endfacet
  facet normal 0 0 -1
    outer loop
      vertex 7.52386 -5.4664 14.4
      vertex 12.7825 -9.28701 14.4
      vertex 10.5723 -11.7417 14.4
    endloop
  endfacet
  facet normal 0 -0 -1
    outer loop
      vertex 9.09677 -1.93358 14.4
      vertex 14.434 -6.42644 14.4
      vertex 8.49597 -3.78265 14.4
    endloop
  endfacet
  facet normal -0 0 -1
    outer loop
      vertex 15.8 0 14.4
      vertex 9.09677 -1.93358 14.4
      vertex 9.3 0 14.4
    endloop
  endfacet
  facet normal 0 0 -1
    outer loop
      vertex 15.4547 -3.285 14.4
      vertex 9.09677 -1.93358 14.4
      vertex 15.8 0 14.4
    endloop
  endfacet
  facet normal 0 0 -1
    outer loop
      vertex 6.22291 -6.91125 14.4
      vertex 10.5723 -11.7417 14.4
      vertex 7.9 -13.6832 14.4
    endloop
  endfacet
  facet normal 0 0 -1
    outer loop
      vertex 12.7825 -9.28701 14.4
      vertex 7.52386 -5.4664 14.4
      vertex 8.49597 -3.78265 14.4
    endloop
  endfacet
  facet normal 0 0 -1
    outer loop
      vertex 10.5723 -11.7417 14.4
      vertex 6.22291 -6.91125 14.4
      vertex 7.52386 -5.4664 14.4
    endloop
  endfacet
  facet normal 0 0 -1
    outer loop
      vertex 4.65 -8.05404 14.4
      vertex 7.9 -13.6832 14.4
      vertex 4.88247 -15.0267 14.4
    endloop
  endfacet
  facet normal 0 0 -1
    outer loop
      vertex 7.9 -13.6832 14.4
      vertex 4.65 -8.05404 14.4
      vertex 6.22291 -6.91125 14.4
    endloop
  endfacet
  facet normal 0 0 -1
    outer loop
      vertex 4.88247 -15.0267 14.4
      vertex 2.87386 -8.84482 14.4
      vertex 4.65 -8.05404 14.4
    endloop
  endfacet
  facet normal 0 0 -1
    outer loop
      vertex 1.65155 -15.7134 14.4
      vertex 2.87386 -8.84482 14.4
      vertex 4.88247 -15.0267 14.4
    endloop
  endfacet
  facet normal 0 0 -1
    outer loop
      vertex 1.65155 -15.7134 14.4
      vertex 0.972115 -9.24905 14.4
      vertex 2.87386 -8.84482 14.4
    endloop
  endfacet
  facet normal 0 0 -1
    outer loop
      vertex 1.65155 -15.7134 14.4
      vertex -0.972115 -9.24905 14.4
      vertex 0.972115 -9.24905 14.4
    endloop
  endfacet
  facet normal 0 0 -1
    outer loop
      vertex -1.65155 -15.7134 14.4
      vertex -0.972115 -9.24905 14.4
      vertex 1.65155 -15.7134 14.4
    endloop
  endfacet
  facet normal 0 0 -1
    outer loop
      vertex -1.65155 -15.7134 14.4
      vertex -2.87386 -8.84482 14.4
      vertex -0.972115 -9.24905 14.4
    endloop
  endfacet
  facet normal 0 0 -1
    outer loop
      vertex -4.88247 -15.0267 14.4
      vertex -2.87386 -8.84482 14.4
      vertex -1.65155 -15.7134 14.4
    endloop
  endfacet
  facet normal -0 0 -1
    outer loop
      vertex -2.87386 -8.84482 14.4
      vertex -4.88247 -15.0267 14.4
      vertex -4.65 -8.05404 14.4
    endloop
  endfacet
  facet normal 0 0 -1
    outer loop
      vertex -7.9 -13.6832 14.4
      vertex -4.65 -8.05404 14.4
      vertex -4.88247 -15.0267 14.4
    endloop
  endfacet
  facet normal -0 0 -1
    outer loop
      vertex -4.65 -8.05404 14.4
      vertex -7.9 -13.6832 14.4
      vertex -6.22291 -6.91125 14.4
    endloop
  endfacet
  facet normal 0 0 -1
    outer loop
      vertex -10.5723 -11.7417 14.4
      vertex -6.22291 -6.91125 14.4
      vertex -7.9 -13.6832 14.4
    endloop
  endfacet
  facet normal -0 0 -1
    outer loop
      vertex -6.22291 -6.91125 14.4
      vertex -10.5723 -11.7417 14.4
      vertex -7.52386 -5.4664 14.4
    endloop
  endfacet
  facet normal 0 0 -1
    outer loop
      vertex -12.7825 -9.28701 14.4
      vertex -7.52386 -5.4664 14.4
      vertex -10.5723 -11.7417 14.4
    endloop
  endfacet
  facet normal -0 0 -1
    outer loop
      vertex -7.52386 -5.4664 14.4
      vertex -12.7825 -9.28701 14.4
      vertex -8.49597 -3.78265 14.4
    endloop
  endfacet
  facet normal 0 0 -1
    outer loop
      vertex -14.434 -6.42644 14.4
      vertex -8.49597 -3.78265 14.4
      vertex -12.7825 -9.28701 14.4
    endloop
  endfacet
  facet normal 0 0 -1
    outer loop
      vertex -14.7546 -5.4398 14.4
      vertex -8.49597 -3.78265 14.4
      vertex -14.434 -6.42644 14.4
    endloop
  endfacet
  facet normal -0 0 -1
    outer loop
      vertex -8.49597 -3.78265 14.4
      vertex -14.7546 -5.4398 14.4
      vertex -8.53684 -3.65688 14.4
    endloop
  endfacet
  facet normal 0.866032 0.499988 0
    outer loop
      vertex -12.7825 -9.28701 14.4
      vertex -14.434 -6.42644 5
      vertex -14.434 -6.42644 14.4
    endloop
  endfacet
  facet normal 0.866032 0.499988 0
    outer loop
      vertex -14.434 -6.42644 5
      vertex -12.7825 -9.28701 14.4
      vertex -12.7825 -9.28701 5
    endloop
  endfacet
  facet normal 0.587777 0.809023 -0
    outer loop
      vertex -7.9 -13.6832 5
      vertex -10.5723 -11.7417 14.4
      vertex -7.9 -13.6832 14.4
    endloop
  endfacet
  facet normal 0.587777 0.809023 0
    outer loop
      vertex -10.5723 -11.7417 14.4
      vertex -7.9 -13.6832 5
      vertex -10.5723 -11.7417 5
    endloop
  endfacet
  facet normal 0.743147 0.669128 0
    outer loop
      vertex -10.5723 -11.7417 14.4
      vertex -12.7825 -9.28701 5
      vertex -12.7825 -9.28701 14.4
    endloop
  endfacet
  facet normal 0.743147 0.669128 0
    outer loop
      vertex -12.7825 -9.28701 5
      vertex -10.5723 -11.7417 14.4
      vertex -10.5723 -11.7417 5
    endloop
  endfacet
  facet normal 0.951051 0.309036 0
    outer loop
      vertex -14.434 -6.42644 14.4
      vertex -14.7546 -5.4398 5
      vertex -14.7546 -5.4398 14.4
    endloop
  endfacet
  facet normal 0.951051 0.309036 0
    outer loop
      vertex -14.7546 -5.4398 5
      vertex -14.434 -6.42644 14.4
      vertex -14.434 -6.42644 5
    endloop
  endfacet
  facet normal -0.587777 0.809023 0
    outer loop
      vertex 10.5723 -11.7417 5
      vertex 7.9 -13.6832 14.4
      vertex 10.5723 -11.7417 14.4
    endloop
  endfacet
  facet normal -0.587777 0.809023 0
    outer loop
      vertex 7.9 -13.6832 14.4
      vertex 10.5723 -11.7417 5
      vertex 7.9 -13.6832 5
    endloop
  endfacet
  facet normal -0.866032 0.499988 0
    outer loop
      vertex 12.7825 -9.28701 5
      vertex 14.434 -6.42644 14.4
      vertex 14.434 -6.42644 5
    endloop
  endfacet
  facet normal -0.866032 0.499988 0
    outer loop
      vertex 14.434 -6.42644 14.4
      vertex 12.7825 -9.28701 5
      vertex 12.7825 -9.28701 14.4
    endloop
  endfacet
  facet normal 0 0 1
    outer loop
      vertex -12.0311 -1.75 5
      vertex -13.9328 -2.67878 5
      vertex -10.75 -3.03109 5
    endloop
  endfacet
  facet normal 0 0 1
    outer loop
      vertex -14.5797 -3.88899 5
      vertex -10.75 -3.03109 5
      vertex -13.9328 -2.67878 5
    endloop
  endfacet
  facet normal 0 0 1
    outer loop
      vertex -10.75 -3.03109 5
      vertex -14.434 -6.42644 5
      vertex -12.7825 -9.28701 5
    endloop
  endfacet
  facet normal 0 0 1
    outer loop
      vertex -14.7546 -5.4398 5
      vertex -10.75 -3.03109 5
      vertex -14.5797 -3.88899 5
    endloop
  endfacet
  facet normal 0 0 1
    outer loop
      vertex -10.75 -3.03109 5
      vertex -14.7546 -5.4398 5
      vertex -14.434 -6.42644 5
    endloop
  endfacet
  facet normal -0 0 1
    outer loop
      vertex -15.4503 -4.94975 5
      vertex -14.7546 -5.4398 5
      vertex -14.5797 -3.88899 5
    endloop
  endfacet
  facet normal 0 0 1
    outer loop
      vertex -16.511 -5.82029 5
      vertex -14.7546 -5.4398 5
      vertex -15.4503 -4.94975 5
    endloop
  endfacet
  facet normal 0 0 1
    outer loop
      vertex -14.7546 -5.4398 5
      vertex -16.511 -5.82029 5
      vertex -17.0081 -6.08596 5
    endloop
  endfacet
  facet normal 0 0 1
    outer loop
      vertex 15.8 0 5
      vertex 12.0311 1.75 5
      vertex 12.5 0 5
    endloop
  endfacet
  facet normal 0 0 1
    outer loop
      vertex 15.2095 11.0504 5
      vertex 10.75 3.03109 5
      vertex 12.0311 1.75 5
    endloop
  endfacet
  facet normal 0 0 1
    outer loop
      vertex 9 3.5 5
      vertex 12.5797 13.9711 5
      vertex 9.4 16.2813 5
    endloop
  endfacet
  facet normal 0 0 1
    outer loop
      vertex 15.2095 11.0504 5
      vertex 9 3.5 5
      vertex 10.75 3.03109 5
    endloop
  endfacet
  facet normal 0 0 1
    outer loop
      vertex 9.4 16.2813 5
      vertex 7.25 3.03109 5
      vertex 9 3.5 5
    endloop
  endfacet
  facet normal 0 0 1
    outer loop
      vertex 5.80952 17.8799 5
      vertex 7.25 3.03109 5
      vertex 9.4 16.2813 5
    endloop
  endfacet
  facet normal 0 0 1
    outer loop
      vertex 1.96513 18.697 5
      vertex 7.25 3.03109 5
      vertex 5.80952 17.8799 5
    endloop
  endfacet
  facet normal 0 0 1
    outer loop
      vertex -7.25 3.03109 5
      vertex 7.25 3.03109 5
      vertex 1.96513 18.697 5
    endloop
  endfacet
  facet normal 0 0 1
    outer loop
      vertex 7.25 3.03109 5
      vertex -7.25 3.03109 5
      vertex 5.96891 1.75 5
    endloop
  endfacet
  facet normal 0 -0 1
    outer loop
      vertex -5.5 0 5
      vertex 5.5 0 5
      vertex -5.96891 1.75 5
    endloop
  endfacet
  facet normal 0 0 1
    outer loop
      vertex 5.96891 1.75 5
      vertex -5.96891 1.75 5
      vertex 5.5 0 5
    endloop
  endfacet
  facet normal 0 0 1
    outer loop
      vertex -5.96891 -1.75 5
      vertex 5.5 0 5
      vertex -5.5 0 5
    endloop
  endfacet
  facet normal 0 0 1
    outer loop
      vertex 5.5 0 5
      vertex 1.45604 -8.88144 5
      vertex 3.33124 -8.36079 5
    endloop
  endfacet
  facet normal 0 0 1
    outer loop
      vertex -7.25 3.03109 5
      vertex 1.96513 18.697 5
      vertex -1.96513 18.697 5
    endloop
  endfacet
  facet normal 0 -0 1
    outer loop
      vertex -0.487249 -8.9868 5
      vertex 5.5 0 5
      vertex -5.96891 -1.75 5
    endloop
  endfacet
  facet normal 0 0 1
    outer loop
      vertex 5.5 0 5
      vertex -0.487249 -8.9868 5
      vertex 1.45604 -8.88144 5
    endloop
  endfacet
  facet normal 0 0 1
    outer loop
      vertex -0.487249 -8.9868 5
      vertex -5.96891 -1.75 5
      vertex -2.40775 -8.67195 5
    endloop
  endfacet
  facet normal 0 0 1
    outer loop
      vertex -7.25 3.03109 5
      vertex -1.96513 18.697 5
      vertex -5.80952 17.8799 5
    endloop
  endfacet
  facet normal 0 0 1
    outer loop
      vertex 5.5 0 5
      vertex 3.33124 -8.36079 5
      vertex 5.05068 -7.4492 5
    endloop
  endfacet
  facet normal 0 0 1
    outer loop
      vertex 5.96891 1.75 5
      vertex -7.25 3.03109 5
      vertex -5.96891 1.75 5
    endloop
  endfacet
  facet normal -0 0 1
    outer loop
      vertex -9.4 16.2813 5
      vertex -7.25 3.03109 5
      vertex -5.80952 17.8799 5
    endloop
  endfacet
  facet normal 0 0 1
    outer loop
      vertex -7.25 3.03109 5
      vertex -9.4 16.2813 5
      vertex -9 3.5 5
    endloop
  endfacet
  facet normal -0 0 1
    outer loop
      vertex -12.5797 13.9711 5
      vertex -9 3.5 5
      vertex -9.4 16.2813 5
    endloop
  endfacet
  facet normal -0 0 1
    outer loop
      vertex -15.2095 11.0504 5
      vertex -9 3.5 5
      vertex -12.5797 13.9711 5
    endloop
  endfacet
  facet normal 0 0 1
    outer loop
      vertex -9 3.5 5
      vertex -15.2095 11.0504 5
      vertex -10.75 3.03109 5
    endloop
  endfacet
  facet normal 0 -0 1
    outer loop
      vertex -13.9328 2.67878 5
      vertex -10.75 3.03109 5
      vertex -14.5797 3.88899 5
    endloop
  endfacet
  facet normal 0 0 1
    outer loop
      vertex 12.0311 1.75 5
      vertex 18.3892 3.90874 5
      vertex 17.1747 7.64665 5
    endloop
  endfacet
  facet normal 0 0 1
    outer loop
      vertex 18.3892 3.90874 5
      vertex 15.8 0 5
      vertex 18.8 0 5
    endloop
  endfacet
  facet normal 0 0 1
    outer loop
      vertex 12.0311 1.75 5
      vertex 17.1747 7.64665 5
      vertex 15.2095 11.0504 5
    endloop
  endfacet
  facet normal -0 0 1
    outer loop
      vertex 12.0311 1.75 5
      vertex 15.8 0 5
      vertex 18.3892 3.90874 5
    endloop
  endfacet
  facet normal 0 0 1
    outer loop
      vertex 12.0311 -1.75 5
      vertex 15.8 0 5
      vertex 12.5 0 5
    endloop
  endfacet
  facet normal 0 0 1
    outer loop
      vertex 15.8 0 5
      vertex 12.0311 -1.75 5
      vertex 15.4547 -3.285 5
    endloop
  endfacet
  facet normal 0 0 1
    outer loop
      vertex 9 3.5 5
      vertex 15.2095 11.0504 5
      vertex 12.5797 13.9711 5
    endloop
  endfacet
  facet normal -0 0 1
    outer loop
      vertex 10.75 -3.03109 5
      vertex 15.4547 -3.285 5
      vertex 12.0311 -1.75 5
    endloop
  endfacet
  facet normal 0 0 1
    outer loop
      vertex 15.4547 -3.285 5
      vertex 10.75 -3.03109 5
      vertex 14.434 -6.42644 5
    endloop
  endfacet
  facet normal 0 0 1
    outer loop
      vertex 14.434 -6.42644 5
      vertex 10.75 -3.03109 5
      vertex 12.7825 -9.28701 5
    endloop
  endfacet
  facet normal -0 0 1
    outer loop
      vertex 7.52386 -5.4664 5
      vertex 12.7825 -9.28701 5
      vertex 10.75 -3.03109 5
    endloop
  endfacet
  facet normal 0 0 1
    outer loop
      vertex 7.52386 -5.4664 5
      vertex 10.75 -3.03109 5
      vertex 9 -3.5 5
    endloop
  endfacet
  facet normal 0 0 1
    outer loop
      vertex 8.49597 -3.78265 5
      vertex 9 -3.5 5
      vertex 8.62082 -3.3984 5
    endloop
  endfacet
  facet normal 0 0 1
    outer loop
      vertex 7.52386 -5.4664 5
      vertex 9 -3.5 5
      vertex 8.49597 -3.78265 5
    endloop
  endfacet
  facet normal 0 0 1
    outer loop
      vertex 12.7825 -9.28701 5
      vertex 7.52386 -5.4664 5
      vertex 10.5723 -11.7417 5
    endloop
  endfacet
  facet normal -0 0 1
    outer loop
      vertex 6.22291 -6.91125 5
      vertex 10.5723 -11.7417 5
      vertex 7.52386 -5.4664 5
    endloop
  endfacet
  facet normal 0 0 1
    outer loop
      vertex 10.5723 -11.7417 5
      vertex 6.22291 -6.91125 5
      vertex 7.9 -13.6832 5
    endloop
  endfacet
  facet normal -0 0 1
    outer loop
      vertex 4.65 -8.05404 5
      vertex 7.9 -13.6832 5
      vertex 6.22291 -6.91125 5
    endloop
  endfacet
  facet normal 0 0 1
    outer loop
      vertex 7.9 -13.6832 5
      vertex 4.65 -8.05404 5
      vertex 4.88247 -15.0267 5
    endloop
  endfacet
  facet normal -0 0 1
    outer loop
      vertex 2.87386 -8.84482 5
      vertex 4.88247 -15.0267 5
      vertex 4.65 -8.05404 5
    endloop
  endfacet
  facet normal 0 0 1
    outer loop
      vertex 2.87386 -8.84482 5
      vertex 1.65155 -15.7134 5
      vertex 4.88247 -15.0267 5
    endloop
  endfacet
  facet normal -0 0 1
    outer loop
      vertex 0.972115 -9.24905 5
      vertex 1.65155 -15.7134 5
      vertex 2.87386 -8.84482 5
    endloop
  endfacet
  facet normal -0 0 1
    outer loop
      vertex -0.972115 -9.24905 5
      vertex 1.65155 -15.7134 5
      vertex 0.972115 -9.24905 5
    endloop
  endfacet
  facet normal 0 0 1
    outer loop
      vertex -0.972115 -9.24905 5
      vertex -1.65155 -15.7134 5
      vertex 1.65155 -15.7134 5
    endloop
  endfacet
  facet normal 0 0 1
    outer loop
      vertex -2.87386 -8.84482 5
      vertex -1.65155 -15.7134 5
      vertex -0.972115 -9.24905 5
    endloop
  endfacet
  facet normal 0 0 1
    outer loop
      vertex -4.88247 -15.0267 5
      vertex -2.87386 -8.84482 5
      vertex -4.65 -8.05404 5
    endloop
  endfacet
  facet normal 0 0 1
    outer loop
      vertex -2.87386 -8.84482 5
      vertex -4.88247 -15.0267 5
      vertex -1.65155 -15.7134 5
    endloop
  endfacet
  facet normal 0 0 1
    outer loop
      vertex -7.9 -13.6832 5
      vertex -4.65 -8.05404 5
      vertex -6.22291 -6.91125 5
    endloop
  endfacet
  facet normal 0 0 1
    outer loop
      vertex -10.5723 -11.7417 5
      vertex -6.22291 -6.91125 5
      vertex -7.52386 -5.4664 5
    endloop
  endfacet
  facet normal 0 0 1
    outer loop
      vertex -4.65 -8.05404 5
      vertex -7.9 -13.6832 5
      vertex -4.88247 -15.0267 5
    endloop
  endfacet
  facet normal 0 0 1
    outer loop
      vertex -9 -3.5 5
      vertex -7.52386 -5.4664 5
      vertex -8.49597 -3.78265 5
    endloop
  endfacet
  facet normal 0 0 1
    outer loop
      vertex -9 -3.5 5
      vertex -8.49597 -3.78265 5
      vertex -8.53684 -3.65688 5
    endloop
  endfacet
  facet normal 0 0 1
    outer loop
      vertex -10.75 -3.03109 5
      vertex -7.52386 -5.4664 5
      vertex -9 -3.5 5
    endloop
  endfacet
  facet normal 0 0 1
    outer loop
      vertex -6.22291 -6.91125 5
      vertex -10.5723 -11.7417 5
      vertex -7.9 -13.6832 5
    endloop
  endfacet
  facet normal 0 0 1
    outer loop
      vertex -7.52386 -5.4664 5
      vertex -10.75 -3.03109 5
      vertex -12.7825 -9.28701 5
    endloop
  endfacet
  facet normal 0 0 1
    outer loop
      vertex -13.9328 -2.67878 5
      vertex -12.0311 -1.75 5
      vertex -13.5345 -1.36563 5
    endloop
  endfacet
  facet normal 0 0 1
    outer loop
      vertex -13.5345 -1.36563 5
      vertex -12.5 0 5
      vertex -13.4 0 5
    endloop
  endfacet
  facet normal 0 0 1
    outer loop
      vertex -7.52386 -5.4664 5
      vertex -12.7825 -9.28701 5
      vertex -10.5723 -11.7417 5
    endloop
  endfacet
  facet normal 0 -0 1
    outer loop
      vertex -13.5345 1.36563 5
      vertex -12.0311 1.75 5
      vertex -13.9328 2.67878 5
    endloop
  endfacet
  facet normal 0 0 1
    outer loop
      vertex -12.5 0 5
      vertex -13.5345 -1.36563 5
      vertex -12.0311 -1.75 5
    endloop
  endfacet
  facet normal 0 0 1
    outer loop
      vertex -12.5 0 5
      vertex -13.5345 1.36563 5
      vertex -13.4 0 5
    endloop
  endfacet
  facet normal 0 0 1
    outer loop
      vertex -12.0311 1.75 5
      vertex -13.5345 1.36563 5
      vertex -12.5 0 5
    endloop
  endfacet
  facet normal 0 0 1
    outer loop
      vertex -10.75 3.03109 5
      vertex -13.9328 2.67878 5
      vertex -12.0311 1.75 5
    endloop
  endfacet
  facet normal -0 0 1
    outer loop
      vertex -15.4503 4.94975 5
      vertex -10.75 3.03109 5
      vertex -15.2095 11.0504 5
    endloop
  endfacet
  facet normal 0 0 1
    outer loop
      vertex -10.75 3.03109 5
      vertex -15.4503 4.94975 5
      vertex -14.5797 3.88899 5
    endloop
  endfacet
  facet normal -0 0 1
    outer loop
      vertex -17.1747 7.64665 5
      vertex -15.4503 4.94975 5
      vertex -15.2095 11.0504 5
    endloop
  endfacet
  facet normal 0 0 1
    outer loop
      vertex -15.4503 4.94975 5
      vertex -17.1747 7.64665 5
      vertex -16.511 5.82029 5
    endloop
  endfacet
  facet normal 0 0 1
    outer loop
      vertex -16.511 5.82029 5
      vertex -17.1747 7.64665 5
      vertex -17.5821 6.39278 5
    endloop
  endfacet
  facet normal 0 0 1
    outer loop
      vertex 7.25 -3.03109 5
      vertex 7.71171 -4.63998 5
      vertex 8.32305 -3.31861 5
    endloop
  endfacet
  facet normal 0 0 1
    outer loop
      vertex 7.25 -3.03109 5
      vertex 6.53396 -6.18929 5
      vertex 7.71171 -4.63998 5
    endloop
  endfacet
  facet normal 0 0 1
    outer loop
      vertex 5.96891 -1.75 5
      vertex 6.53396 -6.18929 5
      vertex 7.25 -3.03109 5
    endloop
  endfacet
  facet normal 0 0 1
    outer loop
      vertex 5.05068 -7.4492 5
      vertex 5.96891 -1.75 5
      vertex 5.5 0 5
    endloop
  endfacet
  facet normal 0 0 1
    outer loop
      vertex 5.96891 -1.75 5
      vertex 5.05068 -7.4492 5
      vertex 6.53396 -6.18929 5
    endloop
  endfacet
  facet normal 0 0 1
    outer loop
      vertex -2.40775 -8.67195 5
      vertex -5.96891 -1.75 5
      vertex -4.21568 -7.95161 5
    endloop
  endfacet
  facet normal 0 0 1
    outer loop
      vertex -4.21568 -7.95161 5
      vertex -5.96891 -1.75 5
      vertex -5.82648 -6.85946 5
    endloop
  endfacet
  facet normal 0 0 1
    outer loop
      vertex -5.96891 -1.75 5
      vertex -7.16484 -5.44657 5
      vertex -5.82648 -6.85946 5
    endloop
  endfacet
  facet normal -0 0 1
    outer loop
      vertex -7.25 -3.03109 5
      vertex -7.16484 -5.44657 5
      vertex -5.96891 -1.75 5
    endloop
  endfacet
  facet normal 0 0 1
    outer loop
      vertex -7.25 -3.03109 5
      vertex -8.16818 -3.779 5
      vertex -7.16484 -5.44657 5
    endloop
  endfacet
  facet normal 0 0 1
    outer loop
      vertex -7.25 -3.03109 5
      vertex -8.23818 -3.57124 5
      vertex -8.16818 -3.779 5
    endloop
  endfacet
  facet normal -0 0 1
    outer loop
      vertex -9 -3.5 5
      vertex -8.23818 -3.57124 5
      vertex -7.25 -3.03109 5
    endloop
  endfacet
  facet normal 0 0 1
    outer loop
      vertex -8.23818 -3.57124 5
      vertex -9 -3.5 5
      vertex -8.53684 -3.65688 5
    endloop
  endfacet
  facet normal -0.207896 0.978151 0
    outer loop
      vertex 4.88247 -15.0267 5
      vertex 1.65155 -15.7134 14.4
      vertex 4.88247 -15.0267 14.4
    endloop
  endfacet
  facet normal -0.207896 0.978151 0
    outer loop
      vertex 1.65155 -15.7134 14.4
      vertex 4.88247 -15.0267 5
      vertex 1.65155 -15.7134 5
    endloop
  endfacet
  facet normal -0.406739 0.913544 0
    outer loop
      vertex 7.9 -13.6832 5
      vertex 4.88247 -15.0267 14.4
      vertex 7.9 -13.6832 14.4
    endloop
  endfacet
  facet normal -0.406739 0.913544 0
    outer loop
      vertex 4.88247 -15.0267 14.4
      vertex 7.9 -13.6832 5
      vertex 4.88247 -15.0267 5
    endloop
  endfacet
  facet normal -0.743147 0.669128 0
    outer loop
      vertex 10.5723 -11.7417 5
      vertex 12.7825 -9.28701 14.4
      vertex 12.7825 -9.28701 5
    endloop
  endfacet
  facet normal -0.743147 0.669128 0
    outer loop
      vertex 12.7825 -9.28701 14.4
      vertex 10.5723 -11.7417 5
      vertex 10.5723 -11.7417 14.4
    endloop
  endfacet
  facet normal -0.951058 0.309013 0
    outer loop
      vertex 14.434 -6.42644 5
      vertex 15.4547 -3.285 14.4
      vertex 15.4547 -3.285 5
    endloop
  endfacet
  facet normal -0.951058 0.309013 0
    outer loop
      vertex 15.4547 -3.285 14.4
      vertex 14.434 -6.42644 5
      vertex 14.434 -6.42644 14.4
    endloop
  endfacet
  facet normal -0.994521 0.104538 0
    outer loop
      vertex 15.4547 -3.285 5
      vertex 15.8 0 14.4
      vertex 15.8 0 5
    endloop
  endfacet
  facet normal -0.994521 0.104538 0
    outer loop
      vertex 15.8 0 14.4
      vertex 15.4547 -3.285 5
      vertex 15.4547 -3.285 14.4
    endloop
  endfacet
  facet normal 0.406739 0.913544 -0
    outer loop
      vertex -4.88247 -15.0267 5
      vertex -7.9 -13.6832 14.4
      vertex -4.88247 -15.0267 14.4
    endloop
  endfacet
  facet normal 0.406739 0.913544 0
    outer loop
      vertex -7.9 -13.6832 14.4
      vertex -4.88247 -15.0267 5
      vertex -7.9 -13.6832 5
    endloop
  endfacet
  facet normal 0.207896 0.978151 -0
    outer loop
      vertex -1.65155 -15.7134 5
      vertex -4.88247 -15.0267 14.4
      vertex -1.65155 -15.7134 14.4
    endloop
  endfacet
  facet normal 0.207896 0.978151 0
    outer loop
      vertex -4.88247 -15.0267 14.4
      vertex -1.65155 -15.7134 5
      vertex -4.88247 -15.0267 5
    endloop
  endfacet
  facet normal 0 -1 0
    outer loop
      vertex -0.972115 -9.24905 5
      vertex 0.972115 -9.24905 14.4
      vertex -0.972115 -9.24905 14.4
    endloop
  endfacet
  facet normal 0 -1 -0
    outer loop
      vertex 0.972115 -9.24905 14.4
      vertex -0.972115 -9.24905 5
      vertex 0.972115 -9.24905 5
    endloop
  endfacet
  facet normal -0.866026 -0.499999 0
    outer loop
      vertex -7.52386 -5.4664 5
      vertex -8.49597 -3.78265 14.4
      vertex -8.49597 -3.78265 5
    endloop
  endfacet
  facet normal -0.866026 -0.499999 0
    outer loop
      vertex -8.49597 -3.78265 14.4
      vertex -7.52386 -5.4664 5
      vertex -7.52386 -5.4664 14.4
    endloop
  endfacet
  facet normal -0.587787 -0.809016 0
    outer loop
      vertex -6.22291 -6.91125 5
      vertex -4.65 -8.05404 14.4
      vertex -6.22291 -6.91125 14.4
    endloop
  endfacet
  facet normal -0.587787 -0.809016 -0
    outer loop
      vertex -4.65 -8.05404 14.4
      vertex -6.22291 -6.91125 5
      vertex -4.65 -8.05404 5
    endloop
  endfacet
  facet normal -0.743145 -0.669131 0
    outer loop
      vertex -6.22291 -6.91125 5
      vertex -7.52386 -5.4664 14.4
      vertex -7.52386 -5.4664 5
    endloop
  endfacet
  facet normal -0.743145 -0.669131 0
    outer loop
      vertex -7.52386 -5.4664 14.4
      vertex -6.22291 -6.91125 5
      vertex -6.22291 -6.91125 14.4
    endloop
  endfacet
  facet normal -0.951046 -0.30905 0
    outer loop
      vertex -8.49597 -3.78265 5
      vertex -8.53684 -3.65688 14.4
      vertex -8.53684 -3.65688 5
    endloop
  endfacet
  facet normal -0.951046 -0.30905 0
    outer loop
      vertex -8.53684 -3.65688 14.4
      vertex -8.49597 -3.78265 5
      vertex -8.49597 -3.78265 14.4
    endloop
  endfacet
  facet normal 0.587787 -0.809016 0
    outer loop
      vertex 4.65 -8.05404 5
      vertex 6.22291 -6.91125 14.4
      vertex 4.65 -8.05404 14.4
    endloop
  endfacet
  facet normal 0.587787 -0.809016 0
    outer loop
      vertex 6.22291 -6.91125 14.4
      vertex 4.65 -8.05404 5
      vertex 6.22291 -6.91125 5
    endloop
  endfacet
  facet normal 0.866026 -0.499999 0
    outer loop
      vertex 7.52386 -5.4664 14.4
      vertex 8.49597 -3.78265 5
      vertex 8.49597 -3.78265 14.4
    endloop
  endfacet
  facet normal 0.866026 -0.499999 0
    outer loop
      vertex 8.49597 -3.78265 5
      vertex 7.52386 -5.4664 14.4
      vertex 7.52386 -5.4664 5
    endloop
  endfacet
  facet normal 0.743145 -0.669131 0
    outer loop
      vertex 6.22291 -6.91125 14.4
      vertex 7.52386 -5.4664 5
      vertex 7.52386 -5.4664 14.4
    endloop
  endfacet
  facet normal 0.743145 -0.669131 0
    outer loop
      vertex 7.52386 -5.4664 5
      vertex 6.22291 -6.91125 14.4
      vertex 6.22291 -6.91125 5
    endloop
  endfacet
  facet normal 0.951056 -0.309018 0
    outer loop
      vertex 9.09677 -1.93358 14.4
      vertex 8.62082 -3.3984 6
      vertex 9.09677 -1.93358 6
    endloop
  endfacet
  facet normal 0.951056 -0.309017 -6.18743e-08
    outer loop
      vertex 8.49597 -3.78265 14.4
      vertex 8.62082 -3.3984 6
      vertex 9.09677 -1.93358 14.4
    endloop
  endfacet
  facet normal 0.951057 -0.309016 0
    outer loop
      vertex 8.49597 -3.78265 5
      vertex 8.62082 -3.3984 6
      vertex 8.49597 -3.78265 14.4
    endloop
  endfacet
  facet normal 0.951057 -0.309016 0
    outer loop
      vertex 8.62082 -3.3984 6
      vertex 8.49597 -3.78265 5
      vertex 8.62082 -3.3984 5
    endloop
  endfacet
  facet normal 0.994522 -0.104528 0
    outer loop
      vertex 9.3 0 14.4
      vertex 9.12484 -1.66655 9
      vertex 9.3 0 9
    endloop
  endfacet
  facet normal 0.994522 -0.10453 6.74712e-07
    outer loop
      vertex 9.09677 -1.93358 14.4
      vertex 9.12484 -1.66655 9
      vertex 9.3 0 14.4
    endloop
  endfacet
  facet normal 0.99452 -0.104543 0
    outer loop
      vertex 9.09677 -1.93358 6
      vertex 9.12484 -1.66655 9
      vertex 9.09677 -1.93358 14.4
    endloop
  endfacet
  facet normal 0.99452 -0.104543 0
    outer loop
      vertex 9.12484 -1.66655 9
      vertex 9.09677 -1.93358 6
      vertex 9.12484 -1.66655 6
    endloop
  endfacet
  facet normal -0.406733 -0.913547 0
    outer loop
      vertex -4.65 -8.05404 5
      vertex -2.87386 -8.84482 14.4
      vertex -4.65 -8.05404 14.4
    endloop
  endfacet
  facet normal -0.406733 -0.913547 -0
    outer loop
      vertex -2.87386 -8.84482 14.4
      vertex -4.65 -8.05404 5
      vertex -2.87386 -8.84482 5
    endloop
  endfacet
  facet normal -0.207912 -0.978147 0
    outer loop
      vertex -2.87386 -8.84482 5
      vertex -0.972115 -9.24905 14.4
      vertex -2.87386 -8.84482 14.4
    endloop
  endfacet
  facet normal -0.207912 -0.978147 -0
    outer loop
      vertex -0.972115 -9.24905 14.4
      vertex -2.87386 -8.84482 5
      vertex -0.972115 -9.24905 5
    endloop
  endfacet
  facet normal 0.406733 -0.913547 0
    outer loop
      vertex 2.87386 -8.84482 5
      vertex 4.65 -8.05404 14.4
      vertex 2.87386 -8.84482 14.4
    endloop
  endfacet
  facet normal 0.406733 -0.913547 0
    outer loop
      vertex 4.65 -8.05404 14.4
      vertex 2.87386 -8.84482 5
      vertex 4.65 -8.05404 5
    endloop
  endfacet
  facet normal 0.207912 -0.978147 0
    outer loop
      vertex 0.972115 -9.24905 5
      vertex 2.87386 -8.84482 14.4
      vertex 0.972115 -9.24905 14.4
    endloop
  endfacet
  facet normal 0.207912 -0.978147 0
    outer loop
      vertex 2.87386 -8.84482 14.4
      vertex 0.972115 -9.24905 5
      vertex 2.87386 -8.84482 5
    endloop
  endfacet
  facet normal -0.866021 0.500008 0
    outer loop
      vertex -17.1747 7.64665 0
      vertex -15.2095 11.0504 5
      vertex -15.2095 11.0504 0
    endloop
  endfacet
  facet normal -0.866021 0.500008 0
    outer loop
      vertex -15.2095 11.0504 5
      vertex -17.1747 7.64665 0
      vertex -17.1747 7.64665 5
    endloop
  endfacet
  facet normal 0.994523 0.104522 0
    outer loop
      vertex 18.8 0 5
      vertex 18.3892 3.90874 0
      vertex 18.3892 3.90874 5
    endloop
  endfacet
  facet normal 0.994523 0.104522 0
    outer loop
      vertex 18.3892 3.90874 0
      vertex 18.8 0 5
      vertex 18.8 0 0
    endloop
  endfacet
  facet normal 0.866021 -0.500008 0
    outer loop
      vertex 15.2095 -11.0504 17.4
      vertex 17.1747 -7.64665 0
      vertex 17.1747 -7.64665 17.4
    endloop
  endfacet
  facet normal 0.866021 -0.500008 0
    outer loop
      vertex 17.1747 -7.64665 0
      vertex 15.2095 -11.0504 17.4
      vertex 15.2095 -11.0504 0
    endloop
  endfacet
  facet normal -0.743146 0.669129 0
    outer loop
      vertex -15.2095 11.0504 0
      vertex -12.5797 13.9711 5
      vertex -12.5797 13.9711 0
    endloop
  endfacet
  facet normal -0.743146 0.669129 0
    outer loop
      vertex -12.5797 13.9711 5
      vertex -15.2095 11.0504 0
      vertex -15.2095 11.0504 5
    endloop
  endfacet
  facet normal -0.207899 0.97815 0
    outer loop
      vertex -1.96513 18.697 0
      vertex -5.80952 17.8799 5
      vertex -1.96513 18.697 5
    endloop
  endfacet
  facet normal -0.207899 0.97815 0
    outer loop
      vertex -5.80952 17.8799 5
      vertex -1.96513 18.697 0
      vertex -5.80952 17.8799 0
    endloop
  endfacet
  facet normal 0.40674 0.913544 -0
    outer loop
      vertex 9.4 16.2813 0
      vertex 5.80952 17.8799 5
      vertex 9.4 16.2813 5
    endloop
  endfacet
  facet normal 0.40674 0.913544 0
    outer loop
      vertex 5.80952 17.8799 5
      vertex 9.4 16.2813 0
      vertex 5.80952 17.8799 0
    endloop
  endfacet
  facet normal 0.951058 0.309012 0
    outer loop
      vertex 18.3892 3.90874 5
      vertex 17.1747 7.64665 0
      vertex 17.1747 7.64665 5
    endloop
  endfacet
  facet normal 0.951058 0.309012 0
    outer loop
      vertex 17.1747 7.64665 0
      vertex 18.3892 3.90874 5
      vertex 18.3892 3.90874 0
    endloop
  endfacet
  facet normal -0.587787 0.809015 0
    outer loop
      vertex -9.4 16.2813 0
      vertex -12.5797 13.9711 5
      vertex -9.4 16.2813 5
    endloop
  endfacet
  facet normal -0.587787 0.809015 0
    outer loop
      vertex -12.5797 13.9711 5
      vertex -9.4 16.2813 0
      vertex -12.5797 13.9711 0
    endloop
  endfacet
  facet normal 0 1 -0
    outer loop
      vertex 1.96513 18.697 0
      vertex -1.96513 18.697 5
      vertex 1.96513 18.697 5
    endloop
  endfacet
  facet normal 0 1 0
    outer loop
      vertex -1.96513 18.697 5
      vertex 1.96513 18.697 0
      vertex -1.96513 18.697 0
    endloop
  endfacet
  facet normal -0.40674 0.913544 0
    outer loop
      vertex -5.80952 17.8799 0
      vertex -9.4 16.2813 5
      vertex -5.80952 17.8799 5
    endloop
  endfacet
  facet normal -0.40674 0.913544 0
    outer loop
      vertex -9.4 16.2813 5
      vertex -5.80952 17.8799 0
      vertex -9.4 16.2813 0
    endloop
  endfacet
  facet normal -0 0 1
    outer loop
      vertex 8.94724 -0.973071 17.4
      vertex 18.3892 -3.90874 17.4
      vertex 18.8 0 17.4
    endloop
  endfacet
  facet normal -0 0 1
    outer loop
      vertex 8.52888 -2.87371 17.4
      vertex 18.3892 -3.90874 17.4
      vertex 8.94724 -0.973071 17.4
    endloop
  endfacet
  facet normal -0 0 1
    outer loop
      vertex 7.71171 -4.63998 17.4
      vertex 17.1747 -7.64665 17.4
      vertex 8.52888 -2.87371 17.4
    endloop
  endfacet
  facet normal 0 0 1
    outer loop
      vertex 17.1747 -7.64665 17.4
      vertex 7.71171 -4.63998 17.4
      vertex 15.2095 -11.0504 17.4
    endloop
  endfacet
  facet normal 0 0 1
    outer loop
      vertex 8.94724 -0.973071 17.4
      vertex 18.8 0 17.4
      vertex 8.94724 0 17.4
    endloop
  endfacet
  facet normal 0 0 1
    outer loop
      vertex 18.3892 -3.90874 17.4
      vertex 8.52888 -2.87371 17.4
      vertex 17.1747 -7.64665 17.4
    endloop
  endfacet
  facet normal -0 0 1
    outer loop
      vertex 6.53396 -6.18929 17.4
      vertex 15.2095 -11.0504 17.4
      vertex 7.71171 -4.63998 17.4
    endloop
  endfacet
  facet normal 0 0 1
    outer loop
      vertex 15.2095 -11.0504 17.4
      vertex 6.53396 -6.18929 17.4
      vertex 12.5797 -13.9711 17.4
    endloop
  endfacet
  facet normal -0 0 1
    outer loop
      vertex 5.05068 -7.4492 17.4
      vertex 12.5797 -13.9711 17.4
      vertex 6.53396 -6.18929 17.4
    endloop
  endfacet
  facet normal 0 0 1
    outer loop
      vertex 12.5797 -13.9711 17.4
      vertex 5.05068 -7.4492 17.4
      vertex 9.4 -16.2813 17.4
    endloop
  endfacet
  facet normal -0 0 1
    outer loop
      vertex 3.33124 -8.36079 17.4
      vertex 9.4 -16.2813 17.4
      vertex 5.05068 -7.4492 17.4
    endloop
  endfacet
  facet normal 0 0 1
    outer loop
      vertex 9.4 -16.2813 17.4
      vertex 3.33124 -8.36079 17.4
      vertex 5.80952 -17.8799 17.4
    endloop
  endfacet
  facet normal -0 0 1
    outer loop
      vertex 1.45604 -8.88144 17.4
      vertex 5.80952 -17.8799 17.4
      vertex 3.33124 -8.36079 17.4
    endloop
  endfacet
  facet normal 0 0 1
    outer loop
      vertex 5.80952 -17.8799 17.4
      vertex 1.45604 -8.88144 17.4
      vertex 1.96513 -18.697 17.4
    endloop
  endfacet
  facet normal -0 0 1
    outer loop
      vertex -0.487249 -8.9868 17.4
      vertex 1.96513 -18.697 17.4
      vertex 1.45604 -8.88144 17.4
    endloop
  endfacet
  facet normal 0 0 1
    outer loop
      vertex -0.487249 -8.9868 17.4
      vertex -1.96513 -18.697 17.4
      vertex 1.96513 -18.697 17.4
    endloop
  endfacet
  facet normal 0 0 1
    outer loop
      vertex -2.40775 -8.67195 17.4
      vertex -1.96513 -18.697 17.4
      vertex -0.487249 -8.9868 17.4
    endloop
  endfacet
  facet normal 0 0 1
    outer loop
      vertex -5.80952 -17.8799 17.4
      vertex -2.40775 -8.67195 17.4
      vertex -4.21568 -7.95161 17.4
    endloop
  endfacet
  facet normal 0 0 1
    outer loop
      vertex -2.40775 -8.67195 17.4
      vertex -5.80952 -17.8799 17.4
      vertex -1.96513 -18.697 17.4
    endloop
  endfacet
  facet normal 0 0 1
    outer loop
      vertex -9.4 -16.2813 17.4
      vertex -4.21568 -7.95161 17.4
      vertex -5.82648 -6.85946 17.4
    endloop
  endfacet
  facet normal 0 0 1
    outer loop
      vertex -12.5797 -13.9711 17.4
      vertex -5.82648 -6.85946 17.4
      vertex -7.16484 -5.44657 17.4
    endloop
  endfacet
  facet normal 0 0 1
    outer loop
      vertex -15.2095 -11.0504 17.4
      vertex -7.16484 -5.44657 17.4
      vertex -8.16818 -3.779 17.4
    endloop
  endfacet
  facet normal 0 0 1
    outer loop
      vertex -17.0081 -6.08596 17.4
      vertex -8.16818 -3.779 17.4
      vertex -8.23818 -3.57124 17.4
    endloop
  endfacet
  facet normal 0 0 1
    outer loop
      vertex -4.21568 -7.95161 17.4
      vertex -9.4 -16.2813 17.4
      vertex -5.80952 -17.8799 17.4
    endloop
  endfacet
  facet normal 0 0 1
    outer loop
      vertex -5.82648 -6.85946 17.4
      vertex -12.5797 -13.9711 17.4
      vertex -9.4 -16.2813 17.4
    endloop
  endfacet
  facet normal 0 0 1
    outer loop
      vertex -7.16484 -5.44657 17.4
      vertex -15.2095 -11.0504 17.4
      vertex -12.5797 -13.9711 17.4
    endloop
  endfacet
  facet normal 0 0 1
    outer loop
      vertex -8.16818 -3.779 17.4
      vertex -17.0081 -6.08596 17.4
      vertex -15.2095 -11.0504 17.4
    endloop
  endfacet
  facet normal 0 0 1
    outer loop
      vertex -17.0081 -6.08596 17.4
      vertex -17.1747 -7.64665 17.4
      vertex -15.2095 -11.0504 17.4
    endloop
  endfacet
  facet normal 0 -0 1
    outer loop
      vertex -17.1747 -7.64665 17.4
      vertex -17.0081 -6.08596 17.4
      vertex -17.5821 -6.39278 17.4
    endloop
  endfacet
  facet normal 0.866021 0.500008 0
    outer loop
      vertex 17.1747 7.64665 5
      vertex 15.2095 11.0504 0
      vertex 15.2095 11.0504 5
    endloop
  endfacet
  facet normal 0.866021 0.500008 0
    outer loop
      vertex 15.2095 11.0504 0
      vertex 17.1747 7.64665 5
      vertex 17.1747 7.64665 0
    endloop
  endfacet
  facet normal 0.587787 0.809015 -0
    outer loop
      vertex 12.5797 13.9711 0
      vertex 9.4 16.2813 5
      vertex 12.5797 13.9711 5
    endloop
  endfacet
  facet normal 0.587787 0.809015 0
    outer loop
      vertex 9.4 16.2813 5
      vertex 12.5797 13.9711 0
      vertex 9.4 16.2813 0
    endloop
  endfacet
  facet normal 0.207899 0.97815 -0
    outer loop
      vertex 5.80952 17.8799 0
      vertex 1.96513 18.697 5
      vertex 5.80952 17.8799 5
    endloop
  endfacet
  facet normal 0.207899 0.97815 0
    outer loop
      vertex 1.96513 18.697 5
      vertex 5.80952 17.8799 0
      vertex 1.96513 18.697 0
    endloop
  endfacet
  facet normal 0.743146 0.669129 0
    outer loop
      vertex 15.2095 11.0504 5
      vertex 12.5797 13.9711 0
      vertex 12.5797 13.9711 5
    endloop
  endfacet
  facet normal 0.743146 0.669129 0
    outer loop
      vertex 12.5797 13.9711 0
      vertex 15.2095 11.0504 5
      vertex 15.2095 11.0504 0
    endloop
  endfacet
  facet normal 0.207899 -0.97815 0
    outer loop
      vertex 1.96513 -18.697 0
      vertex 5.80952 -17.8799 17.4
      vertex 1.96513 -18.697 17.4
    endloop
  endfacet
  facet normal 0.207899 -0.97815 0
    outer loop
      vertex 5.80952 -17.8799 17.4
      vertex 1.96513 -18.697 0
      vertex 5.80952 -17.8799 0
    endloop
  endfacet
  facet normal 0.994523 -0.104522 0
    outer loop
      vertex 18.3892 -3.90874 17.4
      vertex 18.8 0 5
      vertex 18.8 0 17.4
    endloop
  endfacet
  facet normal 0.994523 -0.104522 0
    outer loop
      vertex 18.3892 -3.90874 0
      vertex 18.8 0 5
      vertex 18.3892 -3.90874 17.4
    endloop
  endfacet
  facet normal 0.994523 -0.104522 0
    outer loop
      vertex 18.8 0 5
      vertex 18.3892 -3.90874 0
      vertex 18.8 0 0
    endloop
  endfacet
  facet normal 0.951058 -0.309012 0
    outer loop
      vertex 17.1747 -7.64665 17.4
      vertex 18.3892 -3.90874 0
      vertex 18.3892 -3.90874 17.4
    endloop
  endfacet
  facet normal 0.951058 -0.309012 0
    outer loop
      vertex 18.3892 -3.90874 0
      vertex 17.1747 -7.64665 17.4
      vertex 17.1747 -7.64665 0
    endloop
  endfacet
  facet normal -0.587787 -0.809015 0
    outer loop
      vertex -12.5797 -13.9711 0
      vertex -9.4 -16.2813 17.4
      vertex -12.5797 -13.9711 17.4
    endloop
  endfacet
  facet normal -0.587787 -0.809015 -0
    outer loop
      vertex -9.4 -16.2813 17.4
      vertex -12.5797 -13.9711 0
      vertex -9.4 -16.2813 0
    endloop
  endfacet
  facet normal -0.951058 0.309012 0
    outer loop
      vertex -17.5821 6.39278 0
      vertex -17.1747 7.64665 5
      vertex -17.1747 7.64665 0
    endloop
  endfacet
  facet normal -0.951058 0.309012 0
    outer loop
      vertex -17.1747 7.64665 5
      vertex -17.5821 6.39278 0
      vertex -17.5821 6.39278 5
    endloop
  endfacet
  facet normal -0.951058 -0.309012 0
    outer loop
      vertex -17.1747 -7.64665 0
      vertex -17.5821 -6.39278 17.4
      vertex -17.5821 -6.39278 0
    endloop
  endfacet
  facet normal -0.951058 -0.309012 0
    outer loop
      vertex -17.5821 -6.39278 17.4
      vertex -17.1747 -7.64665 0
      vertex -17.1747 -7.64665 17.4
    endloop
  endfacet
  facet normal -0.866021 -0.500008 0
    outer loop
      vertex -15.2095 -11.0504 0
      vertex -17.1747 -7.64665 17.4
      vertex -17.1747 -7.64665 0
    endloop
  endfacet
  facet normal -0.866021 -0.500008 0
    outer loop
      vertex -17.1747 -7.64665 17.4
      vertex -15.2095 -11.0504 0
      vertex -15.2095 -11.0504 17.4
    endloop
  endfacet
  facet normal -0.207899 -0.97815 0
    outer loop
      vertex -5.80952 -17.8799 0
      vertex -1.96513 -18.697 17.4
      vertex -5.80952 -17.8799 17.4
    endloop
  endfacet
  facet normal -0.207899 -0.97815 -0
    outer loop
      vertex -1.96513 -18.697 17.4
      vertex -5.80952 -17.8799 0
      vertex -1.96513 -18.697 0
    endloop
  endfacet
  facet normal -0.40674 -0.913544 0
    outer loop
      vertex -9.4 -16.2813 0
      vertex -5.80952 -17.8799 17.4
      vertex -9.4 -16.2813 17.4
    endloop
  endfacet
  facet normal -0.40674 -0.913544 -0
    outer loop
      vertex -5.80952 -17.8799 17.4
      vertex -9.4 -16.2813 0
      vertex -5.80952 -17.8799 0
    endloop
  endfacet
  facet normal -0.743146 -0.669129 0
    outer loop
      vertex -12.5797 -13.9711 0
      vertex -15.2095 -11.0504 17.4
      vertex -15.2095 -11.0504 0
    endloop
  endfacet
  facet normal -0.743146 -0.669129 0
    outer loop
      vertex -15.2095 -11.0504 17.4
      vertex -12.5797 -13.9711 0
      vertex -12.5797 -13.9711 17.4
    endloop
  endfacet
  facet normal 0 0 -1
    outer loop
      vertex -10.4722 0.849999 0
      vertex -13.9328 2.67878 0
      vertex -9.85 1.47224 0
    endloop
  endfacet
  facet normal 0 0 -1
    outer loop
      vertex -14.5797 3.88899 0
      vertex -9.85 1.47224 0
      vertex -13.9328 2.67878 0
    endloop
  endfacet
  facet normal 0 0 -1
    outer loop
      vertex -15.2095 11.0504 0
      vertex -9.85 1.47224 0
      vertex -14.5797 3.88899 0
    endloop
  endfacet
  facet normal 0 0 -1
    outer loop
      vertex -9.85 1.47224 0
      vertex -15.2095 11.0504 0
      vertex -12.5797 13.9711 0
    endloop
  endfacet
  facet normal 0 0 -1
    outer loop
      vertex -15.4503 4.94975 0
      vertex -15.2095 11.0504 0
      vertex -14.5797 3.88899 0
    endloop
  endfacet
  facet normal 0 0 -1
    outer loop
      vertex -17.1747 7.64665 0
      vertex -15.4503 4.94975 0
      vertex -16.511 5.82029 0
    endloop
  endfacet
  facet normal 0 0 -1
    outer loop
      vertex -15.4503 4.94975 0
      vertex -17.1747 7.64665 0
      vertex -15.2095 11.0504 0
    endloop
  endfacet
  facet normal 0 -0 -1
    outer loop
      vertex -17.1747 7.64665 0
      vertex -16.511 5.82029 0
      vertex -17.5821 6.39278 0
    endloop
  endfacet
  facet normal 0 0 -1
    outer loop
      vertex 10.7 0 0
      vertex 18.8 0 0
      vertex 18.3892 -3.90874 0
    endloop
  endfacet
  facet normal 0 0 -1
    outer loop
      vertex 10.4722 -0.849999 0
      vertex 18.3892 -3.90874 0
      vertex 17.1747 -7.64665 0
    endloop
  endfacet
  facet normal 0 0 -1
    outer loop
      vertex 18.8 0 0
      vertex 10.7 0 0
      vertex 18.3892 3.90874 0
    endloop
  endfacet
  facet normal 0 0 -1
    outer loop
      vertex 9.85 -1.47224 0
      vertex 17.1747 -7.64665 0
      vertex 15.2095 -11.0504 0
    endloop
  endfacet
  facet normal 0 0 -1
    outer loop
      vertex 10.4722 0.849999 0
      vertex 18.3892 3.90874 0
      vertex 10.7 0 0
    endloop
  endfacet
  facet normal 0 0 -1
    outer loop
      vertex 9 -1.7 0
      vertex 15.2095 -11.0504 0
      vertex 12.5797 -13.9711 0
    endloop
  endfacet
  facet normal -0 0 -1
    outer loop
      vertex 18.3892 3.90874 0
      vertex 10.4722 0.849999 0
      vertex 17.1747 7.64665 0
    endloop
  endfacet
  facet normal 0 0 -1
    outer loop
      vertex 9.85 1.47224 0
      vertex 17.1747 7.64665 0
      vertex 10.4722 0.849999 0
    endloop
  endfacet
  facet normal 0 0 -1
    outer loop
      vertex 18.3892 -3.90874 0
      vertex 10.4722 -0.849999 0
      vertex 10.7 0 0
    endloop
  endfacet
  facet normal 0 0 -1
    outer loop
      vertex 17.1747 -7.64665 0
      vertex 9.85 -1.47224 0
      vertex 10.4722 -0.849999 0
    endloop
  endfacet
  facet normal 0 0 -1
    outer loop
      vertex 9 -1.7 0
      vertex 12.5797 -13.9711 0
      vertex 9.4 -16.2813 0
    endloop
  endfacet
  facet normal 0 0 -1
    outer loop
      vertex 15.2095 -11.0504 0
      vertex 9 -1.7 0
      vertex 9.85 -1.47224 0
    endloop
  endfacet
  facet normal 0 0 -1
    outer loop
      vertex 9.4 -16.2813 0
      vertex 8.15 -1.47224 0
      vertex 9 -1.7 0
    endloop
  endfacet
  facet normal 0 0 -1
    outer loop
      vertex 5.80952 -17.8799 0
      vertex 8.15 -1.47224 0
      vertex 9.4 -16.2813 0
    endloop
  endfacet
  facet normal 0 0 -1
    outer loop
      vertex 1.96513 -18.697 0
      vertex 8.15 -1.47224 0
      vertex 5.80952 -17.8799 0
    endloop
  endfacet
  facet normal -0 0 -1
    outer loop
      vertex 8.15 -1.47224 0
      vertex 1.96513 -18.697 0
      vertex 7.52776 -0.849999 0
    endloop
  endfacet
  facet normal -0 0 -1
    outer loop
      vertex 17.1747 7.64665 0
      vertex 9.85 1.47224 0
      vertex 15.2095 11.0504 0
    endloop
  endfacet
  facet normal 0 0 -1
    outer loop
      vertex 9 1.7 0
      vertex 15.2095 11.0504 0
      vertex 9.85 1.47224 0
    endloop
  endfacet
  facet normal -0 0 -1
    outer loop
      vertex 15.2095 11.0504 0
      vertex 9 1.7 0
      vertex 12.5797 13.9711 0
    endloop
  endfacet
  facet normal -0 0 -1
    outer loop
      vertex 12.5797 13.9711 0
      vertex 9 1.7 0
      vertex 9.4 16.2813 0
    endloop
  endfacet
  facet normal 0 0 -1
    outer loop
      vertex 8.15 1.47224 0
      vertex 9.4 16.2813 0
      vertex 9 1.7 0
    endloop
  endfacet
  facet normal 0 0 -1
    outer loop
      vertex 1.96513 18.697 0
      vertex 8.15 1.47224 0
      vertex 7.52776 0.849999 0
    endloop
  endfacet
  facet normal 0 0 -1
    outer loop
      vertex -7.52776 0.849999 0
      vertex 7.52776 0.849999 0
      vertex 7.3 0 0
    endloop
  endfacet
  facet normal 0 0 -1
    outer loop
      vertex 8.15 1.47224 0
      vertex 5.80952 17.8799 0
      vertex 9.4 16.2813 0
    endloop
  endfacet
  facet normal 0 0 -1
    outer loop
      vertex -7.52776 -0.849999 0
      vertex 7.52776 -0.849999 0
      vertex 1.96513 -18.697 0
    endloop
  endfacet
  facet normal 0 0 -1
    outer loop
      vertex 7.52776 -0.849999 0
      vertex -7.52776 -0.849999 0
      vertex 7.3 0 0
    endloop
  endfacet
  facet normal 0 0 -1
    outer loop
      vertex -7.52776 0.849999 0
      vertex 7.3 0 0
      vertex -7.3 0 0
    endloop
  endfacet
  facet normal 0 0 -1
    outer loop
      vertex -7.52776 -0.849999 0
      vertex 1.96513 -18.697 0
      vertex -1.96513 -18.697 0
    endloop
  endfacet
  facet normal 0 0 -1
    outer loop
      vertex 7.52776 0.849999 0
      vertex -7.52776 0.849999 0
      vertex 1.96513 18.697 0
    endloop
  endfacet
  facet normal 0 0 -1
    outer loop
      vertex -8.15 -1.47224 0
      vertex -1.96513 -18.697 0
      vertex -5.80952 -17.8799 0
    endloop
  endfacet
  facet normal 0 0 -1
    outer loop
      vertex 8.15 1.47224 0
      vertex 1.96513 18.697 0
      vertex 5.80952 17.8799 0
    endloop
  endfacet
  facet normal -0 0 -1
    outer loop
      vertex 1.96513 18.697 0
      vertex -7.52776 0.849999 0
      vertex -1.96513 18.697 0
    endloop
  endfacet
  facet normal -0 0 -1
    outer loop
      vertex 7.3 0 0
      vertex -7.52776 -0.849999 0
      vertex -7.3 0 0
    endloop
  endfacet
  facet normal 0 0 -1
    outer loop
      vertex -1.96513 -18.697 0
      vertex -8.15 -1.47224 0
      vertex -7.52776 -0.849999 0
    endloop
  endfacet
  facet normal 0 0 -1
    outer loop
      vertex -9.4 -16.2813 0
      vertex -8.15 -1.47224 0
      vertex -5.80952 -17.8799 0
    endloop
  endfacet
  facet normal 0 0 -1
    outer loop
      vertex -8.15 -1.47224 0
      vertex -9.4 -16.2813 0
      vertex -9 -1.7 0
    endloop
  endfacet
  facet normal 0 0 -1
    outer loop
      vertex -12.5797 -13.9711 0
      vertex -9 -1.7 0
      vertex -9.4 -16.2813 0
    endloop
  endfacet
  facet normal 0 0 -1
    outer loop
      vertex -15.2095 -11.0504 0
      vertex -9 -1.7 0
      vertex -12.5797 -13.9711 0
    endloop
  endfacet
  facet normal 0 -0 -1
    outer loop
      vertex -14.5797 -3.88899 0
      vertex -9 -1.7 0
      vertex -15.2095 -11.0504 0
    endloop
  endfacet
  facet normal 0 -0 -1
    outer loop
      vertex -13.9328 -2.67878 0
      vertex -9.85 -1.47224 0
      vertex -14.5797 -3.88899 0
    endloop
  endfacet
  facet normal 0 0 -1
    outer loop
      vertex -8.15 1.47224 0
      vertex -1.96513 18.697 0
      vertex -7.52776 0.849999 0
    endloop
  endfacet
  facet normal 0 0 -1
    outer loop
      vertex -1.96513 18.697 0
      vertex -8.15 1.47224 0
      vertex -5.80952 17.8799 0
    endloop
  endfacet
  facet normal 0 0 -1
    outer loop
      vertex -9.4 16.2813 0
      vertex -8.15 1.47224 0
      vertex -9 1.7 0
    endloop
  endfacet
  facet normal 0 0 -1
    outer loop
      vertex -8.15 1.47224 0
      vertex -9.4 16.2813 0
      vertex -5.80952 17.8799 0
    endloop
  endfacet
  facet normal 0 0 -1
    outer loop
      vertex -12.5797 13.9711 0
      vertex -9 1.7 0
      vertex -9.85 1.47224 0
    endloop
  endfacet
  facet normal 0 0 -1
    outer loop
      vertex -13.5345 1.36563 0
      vertex -10.4722 0.849999 0
      vertex -13.4 0 0
    endloop
  endfacet
  facet normal 0 0 -1
    outer loop
      vertex -13.4 0 0
      vertex -10.4722 0.849999 0
      vertex -10.7 0 0
    endloop
  endfacet
  facet normal -0 0 -1
    outer loop
      vertex -9.85 -1.47224 0
      vertex -13.9328 -2.67878 0
      vertex -10.4722 -0.849999 0
    endloop
  endfacet
  facet normal 0 0 -1
    outer loop
      vertex -13.9328 2.67878 0
      vertex -10.4722 0.849999 0
      vertex -13.5345 1.36563 0
    endloop
  endfacet
  facet normal 0 0 -1
    outer loop
      vertex -9 1.7 0
      vertex -12.5797 13.9711 0
      vertex -9.4 16.2813 0
    endloop
  endfacet
  facet normal -0 0 -1
    outer loop
      vertex -10.7 0 0
      vertex -13.5345 -1.36563 0
      vertex -13.4 0 0
    endloop
  endfacet
  facet normal -0 0 -1
    outer loop
      vertex -10.4722 -0.849999 0
      vertex -13.5345 -1.36563 0
      vertex -10.7 0 0
    endloop
  endfacet
  facet normal 0 -0 -1
    outer loop
      vertex -13.5345 -1.36563 0
      vertex -10.4722 -0.849999 0
      vertex -13.9328 -2.67878 0
    endloop
  endfacet
  facet normal -0 0 -1
    outer loop
      vertex -9 -1.7 0
      vertex -14.5797 -3.88899 0
      vertex -9.85 -1.47224 0
    endloop
  endfacet
  facet normal 0 0 -1
    outer loop
      vertex -15.2095 -11.0504 0
      vertex -15.4503 -4.94975 0
      vertex -14.5797 -3.88899 0
    endloop
  endfacet
  facet normal 0 0 -1
    outer loop
      vertex -17.1747 -7.64665 0
      vertex -15.4503 -4.94975 0
      vertex -15.2095 -11.0504 0
    endloop
  endfacet
  facet normal 0 0 -1
    outer loop
      vertex -15.4503 -4.94975 0
      vertex -17.1747 -7.64665 0
      vertex -16.511 -5.82029 0
    endloop
  endfacet
  facet normal 0 0 -1
    outer loop
      vertex -16.511 -5.82029 0
      vertex -17.1747 -7.64665 0
      vertex -17.5821 -6.39278 0
    endloop
  endfacet
  facet normal 0.743146 -0.669129 0
    outer loop
      vertex 12.5797 -13.9711 17.4
      vertex 15.2095 -11.0504 0
      vertex 15.2095 -11.0504 17.4
    endloop
  endfacet
  facet normal 0.743146 -0.669129 0
    outer loop
      vertex 15.2095 -11.0504 0
      vertex 12.5797 -13.9711 17.4
      vertex 12.5797 -13.9711 0
    endloop
  endfacet
  facet normal 0.40674 -0.913544 0
    outer loop
      vertex 5.80952 -17.8799 0
      vertex 9.4 -16.2813 17.4
      vertex 5.80952 -17.8799 17.4
    endloop
  endfacet
  facet normal 0.40674 -0.913544 0
    outer loop
      vertex 9.4 -16.2813 17.4
      vertex 5.80952 -17.8799 0
      vertex 9.4 -16.2813 0
    endloop
  endfacet
  facet normal 0 -1 0
    outer loop
      vertex -1.96513 -18.697 0
      vertex 1.96513 -18.697 17.4
      vertex -1.96513 -18.697 17.4
    endloop
  endfacet
  facet normal 0 -1 -0
    outer loop
      vertex 1.96513 -18.697 17.4
      vertex -1.96513 -18.697 0
      vertex 1.96513 -18.697 0
    endloop
  endfacet
  facet normal 0.587787 -0.809015 0
    outer loop
      vertex 9.4 -16.2813 0
      vertex 12.5797 -13.9711 17.4
      vertex 9.4 -16.2813 17.4
    endloop
  endfacet
  facet normal 0.587787 -0.809015 0
    outer loop
      vertex 12.5797 -13.9711 17.4
      vertex 9.4 -16.2813 0
      vertex 12.5797 -13.9711 0
    endloop
  endfacet
  facet normal 0.370136 0.928978 -0
    outer loop
      vertex -2.40775 -8.67195 5
      vertex -4.21568 -7.95161 17.4
      vertex -2.40775 -8.67195 17.4
    endloop
  endfacet
  facet normal 0.370136 0.928978 0
    outer loop
      vertex -4.21568 -7.95161 17.4
      vertex -2.40775 -8.67195 5
      vertex -4.21568 -7.95161 5
    endloop
  endfacet
  facet normal -1 0 0
    outer loop
      vertex 8.94724 -0.973071 9
      vertex 8.94724 0 17.4
      vertex 8.94724 0 9
    endloop
  endfacet
  facet normal -1 -0 0
    outer loop
      vertex 8.94724 0 17.4
      vertex 8.94724 -0.973071 9
      vertex 8.94724 -0.973071 17.4
    endloop
  endfacet
  facet normal 0.947657 0.319291 0
    outer loop
      vertex -8.16818 -3.779 17.4
      vertex -8.23818 -3.57124 5
      vertex -8.23818 -3.57124 17.4
    endloop
  endfacet
  facet normal 0.947657 0.319291 0
    outer loop
      vertex -8.23818 -3.57124 5
      vertex -8.16818 -3.779 17.4
      vertex -8.16818 -3.779 5
    endloop
  endfacet
  facet normal -0.976621 0.214967 0
    outer loop
      vertex 8.79908 -1.64616 6
      vertex 8.52888 -2.87371 6
      vertex 8.79908 -1.64616 9
    endloop
  endfacet
  facet normal -0.97662 0.214973 0
    outer loop
      vertex 8.79908 -1.64616 9
      vertex 8.94724 -0.973071 17.4
      vertex 8.94724 -0.973071 9
    endloop
  endfacet
  facet normal -0.976621 0.214967 0
    outer loop
      vertex 8.52888 -2.87371 17.4
      vertex 8.79908 -1.64616 9
      vertex 8.52888 -2.87371 6
    endloop
  endfacet
  facet normal -0.976621 0.214969 3.15656e-07
    outer loop
      vertex 8.79908 -1.64616 9
      vertex 8.52888 -2.87371 17.4
      vertex 8.94724 -0.973071 17.4
    endloop
  endfacet
  facet normal 0.725996 0.687699 0
    outer loop
      vertex -5.82648 -6.85946 17.4
      vertex -7.16484 -5.44657 5
      vertex -7.16484 -5.44657 17.4
    endloop
  endfacet
  facet normal 0.725996 0.687699 0
    outer loop
      vertex -7.16484 -5.44657 5
      vertex -5.82648 -6.85946 17.4
      vertex -5.82648 -6.85946 5
    endloop
  endfacet
  facet normal 0.161782 0.986827 -0
    outer loop
      vertex -0.487249 -8.9868 5
      vertex -2.40775 -8.67195 17.4
      vertex -0.487249 -8.9868 17.4
    endloop
  endfacet
  facet normal 0.161782 0.986827 0
    outer loop
      vertex -2.40775 -8.67195 17.4
      vertex -0.487249 -8.9868 5
      vertex -2.40775 -8.67195 5
    endloop
  endfacet
  facet normal 0.561187 0.827689 -0
    outer loop
      vertex -4.21568 -7.95161 5
      vertex -5.82648 -6.85946 17.4
      vertex -4.21568 -7.95161 17.4
    endloop
  endfacet
  facet normal 0.561187 0.827689 0
    outer loop
      vertex -5.82648 -6.85946 17.4
      vertex -4.21568 -7.95161 5
      vertex -5.82648 -6.85946 5
    endloop
  endfacet
  facet normal -0.796094 0.605173 0
    outer loop
      vertex 6.53396 -6.18929 5
      vertex 7.71171 -4.63998 17.4
      vertex 7.71171 -4.63998 5
    endloop
  endfacet
  facet normal -0.796094 0.605173 0
    outer loop
      vertex 7.71171 -4.63998 17.4
      vertex 6.53396 -6.18929 5
      vertex 6.53396 -6.18929 17.4
    endloop
  endfacet
  facet normal -0.907573 0.419894 0
    outer loop
      vertex 8.32305 -3.31861 5
      vertex 7.71171 -4.63998 5
      vertex 8.32305 -3.31861 6
    endloop
  endfacet
  facet normal -0.907577 0.419885 0
    outer loop
      vertex 8.32305 -3.31861 6
      vertex 8.52888 -2.87371 17.4
      vertex 8.52888 -2.87371 6
    endloop
  endfacet
  facet normal -0.907573 0.419894 0
    outer loop
      vertex 7.71171 -4.63998 17.4
      vertex 8.32305 -3.31861 6
      vertex 7.71171 -4.63998 5
    endloop
  endfacet
  facet normal -0.907574 0.419892 -3.41607e-07
    outer loop
      vertex 8.32305 -3.31861 6
      vertex 7.71171 -4.63998 17.4
      vertex 8.52888 -2.87371 17.4
    endloop
  endfacet
  facet normal -0.647386 0.762162 0
    outer loop
      vertex 6.53396 -6.18929 5
      vertex 5.05068 -7.4492 17.4
      vertex 6.53396 -6.18929 17.4
    endloop
  endfacet
  facet normal -0.647386 0.762162 0
    outer loop
      vertex 5.05068 -7.4492 17.4
      vertex 6.53396 -6.18929 5
      vertex 5.05068 -7.4492 5
    endloop
  endfacet
  facet normal -0.468409 0.883512 0
    outer loop
      vertex 5.05068 -7.4492 5
      vertex 3.33124 -8.36079 17.4
      vertex 5.05068 -7.4492 17.4
    endloop
  endfacet
  facet normal -0.468409 0.883512 0
    outer loop
      vertex 3.33124 -8.36079 17.4
      vertex 5.05068 -7.4492 5
      vertex 3.33124 -8.36079 5
    endloop
  endfacet
  facet normal -0.26753 0.96355 0
    outer loop
      vertex 3.33124 -8.36079 5
      vertex 1.45604 -8.88144 17.4
      vertex 3.33124 -8.36079 17.4
    endloop
  endfacet
  facet normal -0.26753 0.96355 0
    outer loop
      vertex 1.45604 -8.88144 17.4
      vertex 3.33124 -8.36079 5
      vertex 1.45604 -8.88144 5
    endloop
  endfacet
  facet normal -0.0541378 0.998533 0
    outer loop
      vertex 1.45604 -8.88144 5
      vertex -0.487249 -8.9868 17.4
      vertex 1.45604 -8.88144 17.4
    endloop
  endfacet
  facet normal -0.0541378 0.998533 0
    outer loop
      vertex -0.487249 -8.9868 17.4
      vertex 1.45604 -8.88144 5
      vertex -0.487249 -8.9868 5
    endloop
  endfacet
  facet normal 0.856858 0.515553 0
    outer loop
      vertex -7.16484 -5.44657 17.4
      vertex -8.16818 -3.779 5
      vertex -8.16818 -3.779 17.4
    endloop
  endfacet
  facet normal 0.856858 0.515553 0
    outer loop
      vertex -8.16818 -3.779 5
      vertex -7.16484 -5.44657 17.4
      vertex -7.16484 -5.44657 5
    endloop
  endfacet
  facet normal 0 1 0
    outer loop
      vertex 18.8 0 17.4
      vertex 15.8 0 14.4
      vertex 8.94724 0 17.4
    endloop
  endfacet
  facet normal 0 1 -0
    outer loop
      vertex 18.8 0 5
      vertex 15.8 0 14.4
      vertex 18.8 0 17.4
    endloop
  endfacet
  facet normal 0 1 0
    outer loop
      vertex 15.8 0 14.4
      vertex 18.8 0 5
      vertex 15.8 0 5
    endloop
  endfacet
  facet normal 0 1 -0
    outer loop
      vertex 9.3 0 14.4
      vertex 8.94724 0 17.4
      vertex 15.8 0 14.4
    endloop
  endfacet
  facet normal 0 1 0
    outer loop
      vertex 8.94724 0 9
      vertex 9.3 0 14.4
      vertex 9.3 0 9
    endloop
  endfacet
  facet normal 0 1 0
    outer loop
      vertex 9.3 0 14.4
      vertex 8.94724 0 9
      vertex 8.94724 0 17.4
    endloop
  endfacet
  facet normal -0.275638 0.961261 -1.07148e-07
    outer loop
      vertex -14.7546 -5.4398 14.4
      vertex -8.23818 -3.57124 17.4
      vertex -8.53684 -3.65688 14.4
    endloop
  endfacet
  facet normal -0.275639 0.961261 0
    outer loop
      vertex -8.23818 -3.57124 5
      vertex -8.53684 -3.65688 14.4
      vertex -8.23818 -3.57124 17.4
    endloop
  endfacet
  facet normal -0.275639 0.961261 0
    outer loop
      vertex -8.53684 -3.65688 14.4
      vertex -8.23818 -3.57124 5
      vertex -8.53684 -3.65688 5
    endloop
  endfacet
  facet normal -0.275636 0.961262 -5.48092e-06
    outer loop
      vertex -8.23818 -3.57124 17.4
      vertex -14.7546 -5.4398 14.4
      vertex -17.0081 -6.08596 17.4
    endloop
  endfacet
  facet normal -0.275629 0.961264 0
    outer loop
      vertex -17.0081 -6.08596 5
      vertex -14.7546 -5.4398 14.4
      vertex -14.7546 -5.4398 5
    endloop
  endfacet
  facet normal -0.275629 0.961264 0
    outer loop
      vertex -14.7546 -5.4398 14.4
      vertex -17.0081 -6.08596 5
      vertex -17.0081 -6.08596 17.4
    endloop
  endfacet
  facet normal 0.965913 -0.258865 0
    outer loop
      vertex -10.7 0 3
      vertex -10.4722 0.849999 0
      vertex -10.4722 0.849999 3
    endloop
  endfacet
  facet normal 0.965913 -0.258865 0
    outer loop
      vertex -10.4722 0.849999 0
      vertex -10.7 0 3
      vertex -10.7 0 0
    endloop
  endfacet
  facet normal -0.965925 -0.258823 0
    outer loop
      vertex -7.3 0 0
      vertex -7.52776 0.849999 3
      vertex -7.52776 0.849999 0
    endloop
  endfacet
  facet normal -0.965925 -0.258823 0
    outer loop
      vertex -7.52776 0.849999 3
      vertex -7.3 0 0
      vertex -7.3 0 3
    endloop
  endfacet
  facet normal 0.258822 -0.965925 0
    outer loop
      vertex -9.85 1.47224 0
      vertex -9 1.7 3
      vertex -9.85 1.47224 3
    endloop
  endfacet
  facet normal 0.258822 -0.965925 0
    outer loop
      vertex -9 1.7 3
      vertex -9.85 1.47224 0
      vertex -9 1.7 0
    endloop
  endfacet
  facet normal 0.70713 -0.707083 0
    outer loop
      vertex -10.4722 0.849999 3
      vertex -9.85 1.47224 0
      vertex -9.85 1.47224 3
    endloop
  endfacet
  facet normal 0.70713 -0.707083 0
    outer loop
      vertex -9.85 1.47224 0
      vertex -10.4722 0.849999 3
      vertex -10.4722 0.849999 0
    endloop
  endfacet
  facet normal -0.258822 -0.965925 0
    outer loop
      vertex -9 1.7 0
      vertex -8.15 1.47224 3
      vertex -9 1.7 3
    endloop
  endfacet
  facet normal -0.258822 -0.965925 -0
    outer loop
      vertex -8.15 1.47224 3
      vertex -9 1.7 0
      vertex -8.15 1.47224 0
    endloop
  endfacet
  facet normal 0.258822 0.965925 -0
    outer loop
      vertex -9 -1.7 0
      vertex -9.85 -1.47224 3
      vertex -9 -1.7 3
    endloop
  endfacet
  facet normal 0.258822 0.965925 0
    outer loop
      vertex -9.85 -1.47224 3
      vertex -9 -1.7 0
      vertex -9.85 -1.47224 0
    endloop
  endfacet
  facet normal -0.707107 -0.707106 0
    outer loop
      vertex -7.52776 0.849999 0
      vertex -8.15 1.47224 3
      vertex -8.15 1.47224 0
    endloop
  endfacet
  facet normal -0.707107 -0.707106 0
    outer loop
      vertex -8.15 1.47224 3
      vertex -7.52776 0.849999 0
      vertex -7.52776 0.849999 3
    endloop
  endfacet
  facet normal 0.965913 0.258865 0
    outer loop
      vertex -10.4722 -0.849999 3
      vertex -10.7 0 0
      vertex -10.7 0 3
    endloop
  endfacet
  facet normal 0.965913 0.258865 0
    outer loop
      vertex -10.7 0 0
      vertex -10.4722 -0.849999 3
      vertex -10.4722 -0.849999 0
    endloop
  endfacet
  facet normal -0.258822 0.965925 0
    outer loop
      vertex -8.15 -1.47224 0
      vertex -9 -1.7 3
      vertex -8.15 -1.47224 3
    endloop
  endfacet
  facet normal -0.258822 0.965925 0
    outer loop
      vertex -9 -1.7 3
      vertex -8.15 -1.47224 0
      vertex -9 -1.7 0
    endloop
  endfacet
  facet normal -0.965925 0.258823 0
    outer loop
      vertex -7.52776 -0.849999 0
      vertex -7.3 0 3
      vertex -7.3 0 0
    endloop
  endfacet
  facet normal -0.965925 0.258823 0
    outer loop
      vertex -7.3 0 3
      vertex -7.52776 -0.849999 0
      vertex -7.52776 -0.849999 3
    endloop
  endfacet
  facet normal 0.70713 0.707083 0
    outer loop
      vertex -9.85 -1.47224 3
      vertex -10.4722 -0.849999 0
      vertex -10.4722 -0.849999 3
    endloop
  endfacet
  facet normal 0.70713 0.707083 0
    outer loop
      vertex -10.4722 -0.849999 0
      vertex -9.85 -1.47224 3
      vertex -9.85 -1.47224 0
    endloop
  endfacet
  facet normal -0.707107 0.707106 0
    outer loop
      vertex -8.15 -1.47224 0
      vertex -7.52776 -0.849999 3
      vertex -7.52776 -0.849999 0
    endloop
  endfacet
  facet normal -0.707107 0.707106 0
    outer loop
      vertex -7.52776 -0.849999 3
      vertex -8.15 -1.47224 0
      vertex -8.15 -1.47224 3
    endloop
  endfacet
  facet normal 0.965927 -0.258813 0
    outer loop
      vertex -12.5 0 5
      vertex -12.0311 1.75 3
      vertex -12.0311 1.75 5
    endloop
  endfacet
  facet normal 0.965927 -0.258813 0
    outer loop
      vertex -12.0311 1.75 3
      vertex -12.5 0 5
      vertex -12.5 0 3
    endloop
  endfacet
  facet normal -0.258818 -0.965926 0
    outer loop
      vertex -9 3.5 3
      vertex -7.25 3.03109 5
      vertex -9 3.5 5
    endloop
  endfacet
  facet normal -0.258818 -0.965926 -0
    outer loop
      vertex -7.25 3.03109 5
      vertex -9 3.5 3
      vertex -7.25 3.03109 3
    endloop
  endfacet
  facet normal -0.965926 0.258818 0
    outer loop
      vertex -5.96891 -1.75 3
      vertex -5.5 0 5
      vertex -5.5 0 3
    endloop
  endfacet
  facet normal -0.965926 0.258818 0
    outer loop
      vertex -5.5 0 5
      vertex -5.96891 -1.75 3
      vertex -5.96891 -1.75 5
    endloop
  endfacet
  facet normal -0.707107 -0.707107 0
    outer loop
      vertex -7.25 3.03109 3
      vertex -5.96891 1.75 5
      vertex -7.25 3.03109 5
    endloop
  endfacet
  facet normal -0.707107 -0.707107 -0
    outer loop
      vertex -5.96891 1.75 5
      vertex -7.25 3.03109 3
      vertex -5.96891 1.75 3
    endloop
  endfacet
  facet normal 0.965927 0.258813 0
    outer loop
      vertex -12.0311 -1.75 5
      vertex -12.5 0 3
      vertex -12.5 0 5
    endloop
  endfacet
  facet normal 0.965927 0.258813 0
    outer loop
      vertex -12.5 0 3
      vertex -12.0311 -1.75 5
      vertex -12.0311 -1.75 3
    endloop
  endfacet
  facet normal 0.258818 -0.965926 0
    outer loop
      vertex -10.75 3.03109 3
      vertex -9 3.5 5
      vertex -10.75 3.03109 5
    endloop
  endfacet
  facet normal 0.258818 -0.965926 0
    outer loop
      vertex -9 3.5 5
      vertex -10.75 3.03109 3
      vertex -9 3.5 3
    endloop
  endfacet
  facet normal 0.707104 -0.70711 0
    outer loop
      vertex -12.0311 1.75 5
      vertex -10.75 3.03109 3
      vertex -10.75 3.03109 5
    endloop
  endfacet
  facet normal 0.707104 -0.70711 0
    outer loop
      vertex -10.75 3.03109 3
      vertex -12.0311 1.75 5
      vertex -12.0311 1.75 3
    endloop
  endfacet
  facet normal 0 0 1
    outer loop
      vertex -7.3 0 3
      vertex -5.5 0 3
      vertex -5.96891 1.75 3
    endloop
  endfacet
  facet normal 0 0 1
    outer loop
      vertex -7.52776 0.849999 3
      vertex -5.96891 1.75 3
      vertex -7.25 3.03109 3
    endloop
  endfacet
  facet normal 0 0 1
    outer loop
      vertex -5.5 0 3
      vertex -7.3 0 3
      vertex -5.96891 -1.75 3
    endloop
  endfacet
  facet normal -0 0 1
    outer loop
      vertex -7.52776 -0.849999 3
      vertex -5.96891 -1.75 3
      vertex -7.3 0 3
    endloop
  endfacet
  facet normal 0 0 1
    outer loop
      vertex -5.96891 1.75 3
      vertex -7.52776 0.849999 3
      vertex -7.3 0 3
    endloop
  endfacet
  facet normal 0 0 1
    outer loop
      vertex -7.25 3.03109 3
      vertex -8.15 1.47224 3
      vertex -7.52776 0.849999 3
    endloop
  endfacet
  facet normal 0 0 1
    outer loop
      vertex -9 3.5 3
      vertex -8.15 1.47224 3
      vertex -7.25 3.03109 3
    endloop
  endfacet
  facet normal 0 0 1
    outer loop
      vertex -9 3.5 3
      vertex -9 1.7 3
      vertex -8.15 1.47224 3
    endloop
  endfacet
  facet normal 0 0 1
    outer loop
      vertex -9 3.5 3
      vertex -9.85 1.47224 3
      vertex -9 1.7 3
    endloop
  endfacet
  facet normal -0 0 1
    outer loop
      vertex -10.75 3.03109 3
      vertex -9.85 1.47224 3
      vertex -9 3.5 3
    endloop
  endfacet
  facet normal -0 0 1
    outer loop
      vertex -12.0311 1.75 3
      vertex -10.4722 0.849999 3
      vertex -10.75 3.03109 3
    endloop
  endfacet
  facet normal 0 0 1
    outer loop
      vertex -9.85 1.47224 3
      vertex -10.75 3.03109 3
      vertex -10.4722 0.849999 3
    endloop
  endfacet
  facet normal 0 0 1
    outer loop
      vertex -5.96891 -1.75 3
      vertex -7.52776 -0.849999 3
      vertex -7.25 -3.03109 3
    endloop
  endfacet
  facet normal -0 0 1
    outer loop
      vertex -8.15 -1.47224 3
      vertex -7.25 -3.03109 3
      vertex -7.52776 -0.849999 3
    endloop
  endfacet
  facet normal -0 0 1
    outer loop
      vertex -9 -1.7 3
      vertex -7.25 -3.03109 3
      vertex -8.15 -1.47224 3
    endloop
  endfacet
  facet normal 0 0 1
    outer loop
      vertex -9 -1.7 3
      vertex -9 -3.5 3
      vertex -7.25 -3.03109 3
    endloop
  endfacet
  facet normal 0 0 1
    outer loop
      vertex -9.85 -1.47224 3
      vertex -9 -3.5 3
      vertex -9 -1.7 3
    endloop
  endfacet
  facet normal 0 0 1
    outer loop
      vertex -10.75 -3.03109 3
      vertex -9.85 -1.47224 3
      vertex -10.4722 -0.849999 3
    endloop
  endfacet
  facet normal 0 0 1
    outer loop
      vertex -9.85 -1.47224 3
      vertex -10.75 -3.03109 3
      vertex -9 -3.5 3
    endloop
  endfacet
  facet normal 0 0 1
    outer loop
      vertex -12.0311 -1.75 3
      vertex -10.4722 -0.849999 3
      vertex -10.7 0 3
    endloop
  endfacet
  facet normal 0 0 1
    outer loop
      vertex -10.4722 0.849999 3
      vertex -12.0311 1.75 3
      vertex -10.7 0 3
    endloop
  endfacet
  facet normal 0 0 1
    outer loop
      vertex -12.5 0 3
      vertex -10.7 0 3
      vertex -12.0311 1.75 3
    endloop
  endfacet
  facet normal 0 0 1
    outer loop
      vertex -10.4722 -0.849999 3
      vertex -12.0311 -1.75 3
      vertex -10.75 -3.03109 3
    endloop
  endfacet
  facet normal 0 0 1
    outer loop
      vertex -10.7 0 3
      vertex -12.5 0 3
      vertex -12.0311 -1.75 3
    endloop
  endfacet
  facet normal -0.707107 0.707107 0
    outer loop
      vertex -5.96891 -1.75 3
      vertex -7.25 -3.03109 5
      vertex -5.96891 -1.75 5
    endloop
  endfacet
  facet normal -0.707107 0.707107 0
    outer loop
      vertex -7.25 -3.03109 5
      vertex -5.96891 -1.75 3
      vertex -7.25 -3.03109 3
    endloop
  endfacet
  facet normal 0.258818 0.965926 -0
    outer loop
      vertex -9 -3.5 3
      vertex -10.75 -3.03109 5
      vertex -9 -3.5 5
    endloop
  endfacet
  facet normal 0.258818 0.965926 0
    outer loop
      vertex -10.75 -3.03109 5
      vertex -9 -3.5 3
      vertex -10.75 -3.03109 3
    endloop
  endfacet
  facet normal 0.707104 0.70711 0
    outer loop
      vertex -10.75 -3.03109 5
      vertex -12.0311 -1.75 3
      vertex -12.0311 -1.75 5
    endloop
  endfacet
  facet normal 0.707104 0.70711 0
    outer loop
      vertex -12.0311 -1.75 3
      vertex -10.75 -3.03109 5
      vertex -10.75 -3.03109 3
    endloop
  endfacet
  facet normal -0.965926 -0.258818 0
    outer loop
      vertex -5.5 0 3
      vertex -5.96891 1.75 5
      vertex -5.96891 1.75 3
    endloop
  endfacet
  facet normal -0.965926 -0.258818 0
    outer loop
      vertex -5.96891 1.75 5
      vertex -5.5 0 3
      vertex -5.5 0 5
    endloop
  endfacet
  facet normal -0.258818 0.965926 0
    outer loop
      vertex -7.25 -3.03109 3
      vertex -9 -3.5 5
      vertex -7.25 -3.03109 5
    endloop
  endfacet
  facet normal -0.258818 0.965926 0
    outer loop
      vertex -9 -3.5 5
      vertex -7.25 -3.03109 3
      vertex -9 -3.5 3
    endloop
  endfacet
  facet normal 0.965925 -0.258823 0
    outer loop
      vertex 7.3 0 3
      vertex 7.52776 0.849999 0
      vertex 7.52776 0.849999 3
    endloop
  endfacet
  facet normal 0.965925 -0.258823 0
    outer loop
      vertex 7.52776 0.849999 0
      vertex 7.3 0 3
      vertex 7.3 0 0
    endloop
  endfacet
  facet normal -0.965913 -0.258865 0
    outer loop
      vertex 10.7 0 0
      vertex 10.4722 0.849999 3
      vertex 10.4722 0.849999 0
    endloop
  endfacet
  facet normal -0.965913 -0.258865 0
    outer loop
      vertex 10.4722 0.849999 3
      vertex 10.7 0 0
      vertex 10.7 0 3
    endloop
  endfacet
  facet normal 0.258822 -0.965925 0
    outer loop
      vertex 8.15 1.47224 0
      vertex 9 1.7 3
      vertex 8.15 1.47224 3
    endloop
  endfacet
  facet normal 0.258822 -0.965925 0
    outer loop
      vertex 9 1.7 3
      vertex 8.15 1.47224 0
      vertex 9 1.7 0
    endloop
  endfacet
  facet normal 0.707107 -0.707106 0
    outer loop
      vertex 7.52776 0.849999 3
      vertex 8.15 1.47224 0
      vertex 8.15 1.47224 3
    endloop
  endfacet
  facet normal 0.707107 -0.707106 0
    outer loop
      vertex 8.15 1.47224 0
      vertex 7.52776 0.849999 3
      vertex 7.52776 0.849999 0
    endloop
  endfacet
  facet normal -0.258822 -0.965925 0
    outer loop
      vertex 9 1.7 0
      vertex 9.85 1.47224 3
      vertex 9 1.7 3
    endloop
  endfacet
  facet normal -0.258822 -0.965925 -0
    outer loop
      vertex 9.85 1.47224 3
      vertex 9 1.7 0
      vertex 9.85 1.47224 0
    endloop
  endfacet
  facet normal -0.258813 0.965927 0
    outer loop
      vertex 9.12484 -1.66655 6
      vertex 9 -1.7 9
      vertex 9.12484 -1.66655 9
    endloop
  endfacet
  facet normal -0.258813 0.965927 0
    outer loop
      vertex 9 -1.7 9
      vertex 9.12484 -1.66655 6
      vertex 9 -1.7 6
    endloop
  endfacet
  facet normal -0.258822 0.965925 0
    outer loop
      vertex 9.85 -1.47224 0
      vertex 9 -1.7 3
      vertex 9.85 -1.47224 3
    endloop
  endfacet
  facet normal -0.258822 0.965925 0
    outer loop
      vertex 9 -1.7 3
      vertex 9.85 -1.47224 0
      vertex 9 -1.7 0
    endloop
  endfacet
  facet normal -0.965913 0.258865 0
    outer loop
      vertex 10.4722 -0.849999 0
      vertex 10.7 0 3
      vertex 10.7 0 0
    endloop
  endfacet
  facet normal -0.965913 0.258865 0
    outer loop
      vertex 10.7 0 3
      vertex 10.4722 -0.849999 0
      vertex 10.4722 -0.849999 3
    endloop
  endfacet
  facet normal -0.70713 -0.707083 0
    outer loop
      vertex 10.4722 0.849999 0
      vertex 9.85 1.47224 3
      vertex 9.85 1.47224 0
    endloop
  endfacet
  facet normal -0.70713 -0.707083 0
    outer loop
      vertex 9.85 1.47224 3
      vertex 10.4722 0.849999 0
      vertex 10.4722 0.849999 3
    endloop
  endfacet
  facet normal 0 0 -1
    outer loop
      vertex 9.12484 -1.66655 9
      vertex 8.79908 -1.64616 9
      vertex 8.94724 -0.973071 9
    endloop
  endfacet
  facet normal 0 0 -1
    outer loop
      vertex 8.79908 -1.64616 9
      vertex 9.12484 -1.66655 9
      vertex 9 -1.7 9
    endloop
  endfacet
  facet normal 0 0 -1
    outer loop
      vertex 9.12484 -1.66655 9
      vertex 8.94724 -0.973071 9
      vertex 9.3 0 9
    endloop
  endfacet
  facet normal -0 0 -1
    outer loop
      vertex 9.3 0 9
      vertex 8.94724 -0.973071 9
      vertex 8.94724 0 9
    endloop
  endfacet
  facet normal 0.965925 0.258823 0
    outer loop
      vertex 7.52776 -0.849999 3
      vertex 7.3 0 0
      vertex 7.3 0 3
    endloop
  endfacet
  facet normal 0.965925 0.258823 0
    outer loop
      vertex 7.3 0 0
      vertex 7.52776 -0.849999 3
      vertex 7.52776 -0.849999 0
    endloop
  endfacet
  facet normal -0.70713 0.707083 0
    outer loop
      vertex 9.85 -1.47224 0
      vertex 10.4722 -0.849999 3
      vertex 10.4722 -0.849999 0
    endloop
  endfacet
  facet normal -0.70713 0.707083 0
    outer loop
      vertex 10.4722 -0.849999 3
      vertex 9.85 -1.47224 0
      vertex 9.85 -1.47224 3
    endloop
  endfacet
  facet normal 0.707107 0.707106 0
    outer loop
      vertex 8.15 -1.47224 3
      vertex 7.52776 -0.849999 0
      vertex 7.52776 -0.849999 3
    endloop
  endfacet
  facet normal 0.707107 0.707106 0
    outer loop
      vertex 7.52776 -0.849999 0
      vertex 8.15 -1.47224 3
      vertex 8.15 -1.47224 0
    endloop
  endfacet
  facet normal 0.258835 0.965921 -0
    outer loop
      vertex 9 -1.7 6
      vertex 8.79908 -1.64616 9
      vertex 9 -1.7 9
    endloop
  endfacet
  facet normal 0.258835 0.965921 0
    outer loop
      vertex 8.79908 -1.64616 9
      vertex 9 -1.7 6
      vertex 8.79908 -1.64616 6
    endloop
  endfacet
  facet normal 0.258822 0.965925 -0
    outer loop
      vertex 9 -1.7 0
      vertex 8.15 -1.47224 3
      vertex 9 -1.7 3
    endloop
  endfacet
  facet normal 0.258822 0.965925 0
    outer loop
      vertex 8.15 -1.47224 3
      vertex 9 -1.7 0
      vertex 8.15 -1.47224 0
    endloop
  endfacet
  facet normal 0.965926 -0.258818 0
    outer loop
      vertex 5.5 0 5
      vertex 5.96891 1.75 3
      vertex 5.96891 1.75 5
    endloop
  endfacet
  facet normal 0.965926 -0.258818 0
    outer loop
      vertex 5.96891 1.75 3
      vertex 5.5 0 5
      vertex 5.5 0 3
    endloop
  endfacet
  facet normal -0.965927 -0.258813 0
    outer loop
      vertex 12.5 0 3
      vertex 12.0311 1.75 5
      vertex 12.0311 1.75 3
    endloop
  endfacet
  facet normal -0.965927 -0.258813 0
    outer loop
      vertex 12.0311 1.75 5
      vertex 12.5 0 3
      vertex 12.5 0 5
    endloop
  endfacet
  facet normal 0 0 1
    outer loop
      vertex 10.7 0 3
      vertex 12.5 0 3
      vertex 12.0311 1.75 3
    endloop
  endfacet
  facet normal 0 0 1
    outer loop
      vertex 10.4722 0.849999 3
      vertex 12.0311 1.75 3
      vertex 10.75 3.03109 3
    endloop
  endfacet
  facet normal 0 0 1
    outer loop
      vertex 12.5 0 3
      vertex 10.7 0 3
      vertex 12.0311 -1.75 3
    endloop
  endfacet
  facet normal -0 0 1
    outer loop
      vertex 10.4722 -0.849999 3
      vertex 12.0311 -1.75 3
      vertex 10.7 0 3
    endloop
  endfacet
  facet normal 0 0 1
    outer loop
      vertex 12.0311 1.75 3
      vertex 10.4722 0.849999 3
      vertex 10.7 0 3
    endloop
  endfacet
  facet normal 0 0 1
    outer loop
      vertex 10.75 3.03109 3
      vertex 9.85 1.47224 3
      vertex 10.4722 0.849999 3
    endloop
  endfacet
  facet normal 0 0 1
    outer loop
      vertex 9 3.5 3
      vertex 9.85 1.47224 3
      vertex 10.75 3.03109 3
    endloop
  endfacet
  facet normal 0 0 1
    outer loop
      vertex 9 3.5 3
      vertex 9 1.7 3
      vertex 9.85 1.47224 3
    endloop
  endfacet
  facet normal 0 0 1
    outer loop
      vertex 9 3.5 3
      vertex 8.15 1.47224 3
      vertex 9 1.7 3
    endloop
  endfacet
  facet normal -0 0 1
    outer loop
      vertex 7.25 3.03109 3
      vertex 8.15 1.47224 3
      vertex 9 3.5 3
    endloop
  endfacet
  facet normal -0 0 1
    outer loop
      vertex 5.96891 1.75 3
      vertex 7.52776 0.849999 3
      vertex 7.25 3.03109 3
    endloop
  endfacet
  facet normal 0 0 1
    outer loop
      vertex 8.15 1.47224 3
      vertex 7.25 3.03109 3
      vertex 7.52776 0.849999 3
    endloop
  endfacet
  facet normal 0 0 1
    outer loop
      vertex 12.0311 -1.75 3
      vertex 10.4722 -0.849999 3
      vertex 10.75 -3.03109 3
    endloop
  endfacet
  facet normal -0 0 1
    outer loop
      vertex 9.85 -1.47224 3
      vertex 10.75 -3.03109 3
      vertex 10.4722 -0.849999 3
    endloop
  endfacet
  facet normal -0 0 1
    outer loop
      vertex 9 -1.7 3
      vertex 10.75 -3.03109 3
      vertex 9.85 -1.47224 3
    endloop
  endfacet
  facet normal 0 0 1
    outer loop
      vertex 9 -1.7 3
      vertex 9 -3.5 3
      vertex 10.75 -3.03109 3
    endloop
  endfacet
  facet normal 0 0 1
    outer loop
      vertex 8.15 -1.47224 3
      vertex 9 -3.5 3
      vertex 9 -1.7 3
    endloop
  endfacet
  facet normal 0 0 1
    outer loop
      vertex 7.25 -3.03109 3
      vertex 8.15 -1.47224 3
      vertex 7.52776 -0.849999 3
    endloop
  endfacet
  facet normal 0 0 1
    outer loop
      vertex 8.15 -1.47224 3
      vertex 7.25 -3.03109 3
      vertex 9 -3.5 3
    endloop
  endfacet
  facet normal 0 0 1
    outer loop
      vertex 5.96891 -1.75 3
      vertex 7.52776 -0.849999 3
      vertex 7.3 0 3
    endloop
  endfacet
  facet normal 0 0 1
    outer loop
      vertex 7.52776 0.849999 3
      vertex 5.96891 1.75 3
      vertex 7.3 0 3
    endloop
  endfacet
  facet normal 0 0 1
    outer loop
      vertex 5.5 0 3
      vertex 7.3 0 3
      vertex 5.96891 1.75 3
    endloop
  endfacet
  facet normal 0 0 1
    outer loop
      vertex 7.52776 -0.849999 3
      vertex 5.96891 -1.75 3
      vertex 7.25 -3.03109 3
    endloop
  endfacet
  facet normal 0 0 1
    outer loop
      vertex 7.3 0 3
      vertex 5.5 0 3
      vertex 5.96891 -1.75 3
    endloop
  endfacet
  facet normal 0.258818 -0.965926 0
    outer loop
      vertex 7.25 3.03109 3
      vertex 9 3.5 5
      vertex 7.25 3.03109 5
    endloop
  endfacet
  facet normal 0.258818 -0.965926 0
    outer loop
      vertex 9 3.5 5
      vertex 7.25 3.03109 3
      vertex 9 3.5 3
    endloop
  endfacet
  facet normal 0.707107 -0.707107 0
    outer loop
      vertex 5.96891 1.75 3
      vertex 7.25 3.03109 5
      vertex 5.96891 1.75 5
    endloop
  endfacet
  facet normal 0.707107 -0.707107 0
    outer loop
      vertex 7.25 3.03109 5
      vertex 5.96891 1.75 3
      vertex 7.25 3.03109 3
    endloop
  endfacet
  facet normal -0.258818 -0.965926 0
    outer loop
      vertex 9 3.5 3
      vertex 10.75 3.03109 5
      vertex 9 3.5 5
    endloop
  endfacet
  facet normal -0.258818 -0.965926 -0
    outer loop
      vertex 10.75 3.03109 5
      vertex 9 3.5 3
      vertex 10.75 3.03109 3
    endloop
  endfacet
  facet normal -0.258818 0.965926 0
    outer loop
      vertex 10.75 -3.03109 3
      vertex 9 -3.5 5
      vertex 10.75 -3.03109 5
    endloop
  endfacet
  facet normal -0.258818 0.965926 0
    outer loop
      vertex 9 -3.5 5
      vertex 10.75 -3.03109 3
      vertex 9 -3.5 3
    endloop
  endfacet
  facet normal -0.965927 0.258813 0
    outer loop
      vertex 12.0311 -1.75 3
      vertex 12.5 0 5
      vertex 12.5 0 3
    endloop
  endfacet
  facet normal -0.965927 0.258813 0
    outer loop
      vertex 12.5 0 5
      vertex 12.0311 -1.75 3
      vertex 12.0311 -1.75 5
    endloop
  endfacet
  facet normal -0.707104 -0.70711 0
    outer loop
      vertex 12.0311 1.75 3
      vertex 10.75 3.03109 5
      vertex 10.75 3.03109 3
    endloop
  endfacet
  facet normal -0.707104 -0.70711 0
    outer loop
      vertex 10.75 3.03109 5
      vertex 12.0311 1.75 3
      vertex 12.0311 1.75 5
    endloop
  endfacet
  facet normal 0.965926 0.258818 0
    outer loop
      vertex 5.96891 -1.75 5
      vertex 5.5 0 3
      vertex 5.5 0 5
    endloop
  endfacet
  facet normal 0.965926 0.258818 0
    outer loop
      vertex 5.5 0 3
      vertex 5.96891 -1.75 5
      vertex 5.96891 -1.75 3
    endloop
  endfacet
  facet normal 0.258817 0.965926 -0
    outer loop
      vertex 9 -3.5 3
      vertex 8.62082 -3.3984 5
      vertex 9 -3.5 5
    endloop
  endfacet
  facet normal 0.258827 0.965924 2.17371e-06
    outer loop
      vertex 8.62082 -3.3984 5
      vertex 9 -3.5 3
      vertex 8.32305 -3.31861 5
    endloop
  endfacet
  facet normal 0.258818 0.965926 -1.06956e-06
    outer loop
      vertex 7.25 -3.03109 3
      vertex 8.32305 -3.31861 5
      vertex 9 -3.5 3
    endloop
  endfacet
  facet normal 0.258817 0.965926 0
    outer loop
      vertex 8.32305 -3.31861 5
      vertex 7.25 -3.03109 3
      vertex 7.25 -3.03109 5
    endloop
  endfacet
  facet normal 0.258827 0.965924 -0
    outer loop
      vertex 8.62082 -3.3984 5
      vertex 8.32305 -3.31861 6
      vertex 8.62082 -3.3984 6
    endloop
  endfacet
  facet normal 0.258827 0.965924 0
    outer loop
      vertex 8.32305 -3.31861 6
      vertex 8.62082 -3.3984 5
      vertex 8.32305 -3.31861 5
    endloop
  endfacet
  facet normal 0.707107 0.707107 -0
    outer loop
      vertex 7.25 -3.03109 3
      vertex 5.96891 -1.75 5
      vertex 7.25 -3.03109 5
    endloop
  endfacet
  facet normal 0.707107 0.707107 0
    outer loop
      vertex 5.96891 -1.75 5
      vertex 7.25 -3.03109 3
      vertex 5.96891 -1.75 3
    endloop
  endfacet
  facet normal -0.707104 0.70711 0
    outer loop
      vertex 10.75 -3.03109 3
      vertex 12.0311 -1.75 5
      vertex 12.0311 -1.75 3
    endloop
  endfacet
  facet normal -0.707104 0.70711 0
    outer loop
      vertex 12.0311 -1.75 5
      vertex 10.75 -3.03109 3
      vertex 10.75 -3.03109 5
    endloop
  endfacet
  facet normal 0 0 -1
    outer loop
      vertex 9.09677 -1.93358 6
      vertex 9 -1.7 6
      vertex 9.12484 -1.66655 6
    endloop
  endfacet
  facet normal 0 0 -1
    outer loop
      vertex 9.09677 -1.93358 6
      vertex 8.79908 -1.64616 6
      vertex 9 -1.7 6
    endloop
  endfacet
  facet normal 0 0 -1
    outer loop
      vertex 8.52888 -2.87371 6
      vertex 9.09677 -1.93358 6
      vertex 8.62082 -3.3984 6
    endloop
  endfacet
  facet normal -0 0 -1
    outer loop
      vertex 9.09677 -1.93358 6
      vertex 8.52888 -2.87371 6
      vertex 8.79908 -1.64616 6
    endloop
  endfacet
  facet normal 0 -0 -1
    outer loop
      vertex 8.52888 -2.87371 6
      vertex 8.62082 -3.3984 6
      vertex 8.32305 -3.31861 6
    endloop
  endfacet
  facet normal -0.995185 -0.0980151 0
    outer loop
      vertex -13.4 0 0
      vertex -13.5345 1.36563 5
      vertex -13.5345 1.36563 0
    endloop
  endfacet
  facet normal -0.995185 -0.0980151 0
    outer loop
      vertex -13.5345 1.36563 5
      vertex -13.4 0 0
      vertex -13.4 0 5
    endloop
  endfacet
  facet normal -0.634413 -0.772994 0
    outer loop
      vertex -16.511 5.82029 0
      vertex -15.4503 4.94975 5
      vertex -16.511 5.82029 5
    endloop
  endfacet
  facet normal -0.634413 -0.772994 -0
    outer loop
      vertex -15.4503 4.94975 5
      vertex -16.511 5.82029 0
      vertex -15.4503 4.94975 0
    endloop
  endfacet
  facet normal -0.77299 0.634418 0
    outer loop
      vertex -15.4503 -4.94975 0
      vertex -14.5797 -3.88899 5
      vertex -14.5797 -3.88899 0
    endloop
  endfacet
  facet normal -0.77299 0.634418 0
    outer loop
      vertex -14.5797 -3.88899 5
      vertex -15.4503 -4.94975 0
      vertex -15.4503 -4.94975 5
    endloop
  endfacet
  facet normal -0.881912 -0.471413 0
    outer loop
      vertex -13.9328 2.67878 0
      vertex -14.5797 3.88899 5
      vertex -14.5797 3.88899 0
    endloop
  endfacet
  facet normal -0.881912 -0.471413 0
    outer loop
      vertex -14.5797 3.88899 5
      vertex -13.9328 2.67878 0
      vertex -13.9328 2.67878 5
    endloop
  endfacet
  facet normal -0.77299 -0.634418 0
    outer loop
      vertex -14.5797 3.88899 0
      vertex -15.4503 4.94975 5
      vertex -15.4503 4.94975 0
    endloop
  endfacet
  facet normal -0.77299 -0.634418 0
    outer loop
      vertex -15.4503 4.94975 5
      vertex -14.5797 3.88899 0
      vertex -14.5797 3.88899 5
    endloop
  endfacet
  facet normal -0.956948 -0.290258 0
    outer loop
      vertex -13.5345 1.36563 0
      vertex -13.9328 2.67878 5
      vertex -13.9328 2.67878 0
    endloop
  endfacet
  facet normal -0.956948 -0.290258 0
    outer loop
      vertex -13.9328 2.67878 5
      vertex -13.5345 1.36563 0
      vertex -13.5345 1.36563 5
    endloop
  endfacet
  facet normal -0.471381 -0.88193 0
    outer loop
      vertex -17.5821 6.39278 0
      vertex -16.511 5.82029 5
      vertex -17.5821 6.39278 5
    endloop
  endfacet
  facet normal -0.471381 -0.88193 -0
    outer loop
      vertex -16.511 5.82029 5
      vertex -17.5821 6.39278 0
      vertex -16.511 5.82029 0
    endloop
  endfacet
  facet normal -0.634413 0.772994 0
    outer loop
      vertex -15.4503 -4.94975 0
      vertex -16.511 -5.82029 5
      vertex -15.4503 -4.94975 5
    endloop
  endfacet
  facet normal -0.634413 0.772994 0
    outer loop
      vertex -16.511 -5.82029 5
      vertex -15.4503 -4.94975 0
      vertex -16.511 -5.82029 0
    endloop
  endfacet
  facet normal -0.995185 0.0980151 0
    outer loop
      vertex -13.5345 -1.36563 0
      vertex -13.4 0 5
      vertex -13.4 0 0
    endloop
  endfacet
  facet normal -0.995185 0.0980151 0
    outer loop
      vertex -13.4 0 5
      vertex -13.5345 -1.36563 0
      vertex -13.5345 -1.36563 5
    endloop
  endfacet
  facet normal -0.881912 0.471413 0
    outer loop
      vertex -14.5797 -3.88899 0
      vertex -13.9328 -2.67878 5
      vertex -13.9328 -2.67878 0
    endloop
  endfacet
  facet normal -0.881912 0.471413 0
    outer loop
      vertex -13.9328 -2.67878 5
      vertex -14.5797 -3.88899 0
      vertex -14.5797 -3.88899 5
    endloop
  endfacet
  facet normal -0.471348 0.881947 0
    outer loop
      vertex -16.511 -5.82029 5
      vertex -16.511 -5.82029 0
      vertex -17.0081 -6.08596 5
    endloop
  endfacet
  facet normal -0.471409 0.881914 0
    outer loop
      vertex -17.0081 -6.08596 5
      vertex -17.5821 -6.39278 17.4
      vertex -17.0081 -6.08596 17.4
    endloop
  endfacet
  facet normal -0.471409 0.881914 0
    outer loop
      vertex -17.0081 -6.08596 5
      vertex -17.5821 -6.39278 0
      vertex -17.5821 -6.39278 17.4
    endloop
  endfacet
  facet normal -0.471381 0.88193 -4.22266e-06
    outer loop
      vertex -17.5821 -6.39278 0
      vertex -17.0081 -6.08596 5
      vertex -16.511 -5.82029 0
    endloop
  endfacet
  facet normal -0.956948 0.290258 0
    outer loop
      vertex -13.9328 -2.67878 0
      vertex -13.5345 -1.36563 5
      vertex -13.5345 -1.36563 0
    endloop
  endfacet
  facet normal -0.956948 0.290258 0
    outer loop
      vertex -13.5345 -1.36563 5
      vertex -13.9328 -2.67878 0
      vertex -13.9328 -2.67878 5
    endloop
  endfacet
endsolid OpenSCAD_Model
