solid OpenSCAD_Model
  facet normal 0 1 -0
    outer loop
      vertex 1.96513 -18.697 5
      vertex -1.96513 -18.697 8.4
      vertex 1.96513 -18.697 8.4
    endloop
  endfacet
  facet normal 0 1 0
    outer loop
      vertex -1.96513 -18.697 8.4
      vertex 1.96513 -18.697 5
      vertex -1.96513 -18.697 5
    endloop
  endfacet
  facet normal 0 0 -1
    outer loop
      vertex 12.0312 -2.55731 8.4
      vertex 18.3892 -3.90874 8.4
      vertex 17.1747 -7.64665 8.4
    endloop
  endfacet
  facet normal 0 0 -1
    outer loop
      vertex 11.2366 -5.00286 8.4
      vertex 17.1747 -7.64665 8.4
      vertex 15.2095 -11.0504 8.4
    endloop
  endfacet
  facet normal 0 0 -1
    outer loop
      vertex 9.95091 -7.22976 8.4
      vertex 15.2095 -11.0504 8.4
      vertex 12.5797 -13.9711 8.4
    endloop
  endfacet
  facet normal 0 -0 -1
    outer loop
      vertex 12.0312 -2.55731 8.4
      vertex 17.1747 -7.64665 8.4
      vertex 11.2366 -5.00286 8.4
    endloop
  endfacet
  facet normal -0 0 -1
    outer loop
      vertex 18.8 0 8.4
      vertex 12.0312 -2.55731 8.4
      vertex 12.3 0 8.4
    endloop
  endfacet
  facet normal 0 0 -1
    outer loop
      vertex 18.3892 -3.90874 8.4
      vertex 12.0312 -2.55731 8.4
      vertex 18.8 0 8.4
    endloop
  endfacet
  facet normal 0 0 -1
    outer loop
      vertex 15.2095 -11.0504 8.4
      vertex 9.95091 -7.22976 8.4
      vertex 11.2366 -5.00286 8.4
    endloop
  endfacet
  facet normal 0 0 -1
    outer loop
      vertex 8.23031 -9.14068 8.4
      vertex 12.5797 -13.9711 8.4
      vertex 9.4 -16.2813 8.4
    endloop
  endfacet
  facet normal 0 0 -1
    outer loop
      vertex 12.5797 -13.9711 8.4
      vertex 8.23031 -9.14068 8.4
      vertex 9.95091 -7.22976 8.4
    endloop
  endfacet
  facet normal 0 0 -1
    outer loop
      vertex 9.4 -16.2813 8.4
      vertex 6.15 -10.6521 8.4
      vertex 8.23031 -9.14068 8.4
    endloop
  endfacet
  facet normal 0 0 -1
    outer loop
      vertex 5.80952 -17.8799 8.4
      vertex 6.15 -10.6521 8.4
      vertex 9.4 -16.2813 8.4
    endloop
  endfacet
  facet normal 0 0 -1
    outer loop
      vertex 5.80952 -17.8799 8.4
      vertex 3.80091 -11.698 8.4
      vertex 6.15 -10.6521 8.4
    endloop
  endfacet
  facet normal 0 0 -1
    outer loop
      vertex 1.96513 -18.697 8.4
      vertex 3.80091 -11.698 8.4
      vertex 5.80952 -17.8799 8.4
    endloop
  endfacet
  facet normal 0 0 -1
    outer loop
      vertex 1.96513 -18.697 8.4
      vertex 1.2857 -12.2326 8.4
      vertex 3.80091 -11.698 8.4
    endloop
  endfacet
  facet normal 0 0 -1
    outer loop
      vertex 1.96513 -18.697 8.4
      vertex -1.2857 -12.2326 8.4
      vertex 1.2857 -12.2326 8.4
    endloop
  endfacet
  facet normal 0 0 -1
    outer loop
      vertex -1.96513 -18.697 8.4
      vertex -1.2857 -12.2326 8.4
      vertex 1.96513 -18.697 8.4
    endloop
  endfacet
  facet normal 0 0 -1
    outer loop
      vertex -1.96513 -18.697 8.4
      vertex -3.80091 -11.698 8.4
      vertex -1.2857 -12.2326 8.4
    endloop
  endfacet
  facet normal 0 0 -1
    outer loop
      vertex -5.80952 -17.8799 8.4
      vertex -3.80091 -11.698 8.4
      vertex -1.96513 -18.697 8.4
    endloop
  endfacet
  facet normal 0 0 -1
    outer loop
      vertex -5.80952 -17.8799 8.4
      vertex -6.15 -10.6521 8.4
      vertex -3.80091 -11.698 8.4
    endloop
  endfacet
  facet normal 0 0 -1
    outer loop
      vertex -9.4 -16.2813 8.4
      vertex -6.15 -10.6521 8.4
      vertex -5.80952 -17.8799 8.4
    endloop
  endfacet
  facet normal -0 0 -1
    outer loop
      vertex -6.15 -10.6521 8.4
      vertex -9.4 -16.2813 8.4
      vertex -8.23031 -9.14068 8.4
    endloop
  endfacet
  facet normal 0 0 -1
    outer loop
      vertex -12.5797 -13.9711 8.4
      vertex -8.23031 -9.14068 8.4
      vertex -9.4 -16.2813 8.4
    endloop
  endfacet
  facet normal -0 0 -1
    outer loop
      vertex -8.23031 -9.14068 8.4
      vertex -12.5797 -13.9711 8.4
      vertex -9.95091 -7.22976 8.4
    endloop
  endfacet
  facet normal 0 0 -1
    outer loop
      vertex -15.2095 -11.0504 8.4
      vertex -9.95091 -7.22976 8.4
      vertex -12.5797 -13.9711 8.4
    endloop
  endfacet
  facet normal -0 0 -1
    outer loop
      vertex -9.95091 -7.22976 8.4
      vertex -15.2095 -11.0504 8.4
      vertex -11.2366 -5.00286 8.4
    endloop
  endfacet
  facet normal 0 0 -1
    outer loop
      vertex -17.1747 -7.64665 8.4
      vertex -11.2366 -5.00286 8.4
      vertex -15.2095 -11.0504 8.4
    endloop
  endfacet
  facet normal 0 0 -1
    outer loop
      vertex -17.6243 -6.26268 8.4
      vertex -11.2366 -5.00286 8.4
      vertex -17.1747 -7.64665 8.4
    endloop
  endfacet
  facet normal -0 0 -1
    outer loop
      vertex -11.2366 -5.00286 8.4
      vertex -17.6243 -6.26268 8.4
      vertex -11.4066 -4.47976 8.4
    endloop
  endfacet
  facet normal 0.951057 0.309017 0
    outer loop
      vertex -17.1747 -7.64665 8.4
      vertex -17.6243 -6.26268 5
      vertex -17.6243 -6.26268 8.4
    endloop
  endfacet
  facet normal 0.951057 0.309017 0
    outer loop
      vertex -17.6243 -6.26268 5
      vertex -17.1747 -7.64665 8.4
      vertex -17.1747 -7.64665 5
    endloop
  endfacet
  facet normal 0.207911 0.978148 -0
    outer loop
      vertex -1.96513 -18.697 5
      vertex -5.80952 -17.8799 8.4
      vertex -1.96513 -18.697 8.4
    endloop
  endfacet
  facet normal 0.207911 0.978148 0
    outer loop
      vertex -5.80952 -17.8799 8.4
      vertex -1.96513 -18.697 5
      vertex -5.80952 -17.8799 5
    endloop
  endfacet
  facet normal 0.866025 0.5 0
    outer loop
      vertex -15.2095 -11.0504 8.4
      vertex -17.1747 -7.64665 5
      vertex -17.1747 -7.64665 8.4
    endloop
  endfacet
  facet normal 0.866025 0.5 0
    outer loop
      vertex -17.1747 -7.64665 5
      vertex -15.2095 -11.0504 8.4
      vertex -15.2095 -11.0504 5
    endloop
  endfacet
  facet normal 0 0 1
    outer loop
      vertex -16.009 -3.06147 5
      vertex -12.5 0 5
      vertex -15.5537 -1.56072 5
    endloop
  endfacet
  facet normal 0 0 1
    outer loop
      vertex -12.5 0 5
      vertex -16.009 -3.06147 5
      vertex -15.2095 -11.0504 5
    endloop
  endfacet
  facet normal -0 0 1
    outer loop
      vertex -16.7482 -4.44456 5
      vertex -15.2095 -11.0504 5
      vertex -16.009 -3.06147 5
    endloop
  endfacet
  facet normal 0 0 1
    outer loop
      vertex -16.7482 -4.44456 5
      vertex -17.1747 -7.64665 5
      vertex -15.2095 -11.0504 5
    endloop
  endfacet
  facet normal 0 0 1
    outer loop
      vertex -16.7482 -4.44456 5
      vertex -17.6243 -6.26268 5
      vertex -17.1747 -7.64665 5
    endloop
  endfacet
  facet normal -0 0 1
    outer loop
      vertex -17.7431 -5.65685 5
      vertex -17.6243 -6.26268 5
      vertex -16.7482 -4.44456 5
    endloop
  endfacet
  facet normal 0 0 1
    outer loop
      vertex -17.6243 -6.26268 5
      vertex -17.7431 -5.65685 5
      vertex -18.9416 -6.6404 5
    endloop
  endfacet
  facet normal 0 0 1
    outer loop
      vertex 12.0311 1.75 5
      vertex 21.3236 4.53247 5
      vertex 19.9153 8.86686 5
    endloop
  endfacet
  facet normal 0 0 1
    outer loop
      vertex 21.3236 4.53247 5
      vertex 18.8 0 5
      vertex 21.8 0 5
    endloop
  endfacet
  facet normal 0 0 1
    outer loop
      vertex 10.75 3.03109 5
      vertex 19.9153 8.86686 5
      vertex 17.6366 12.8137 5
    endloop
  endfacet
  facet normal 0 0 1
    outer loop
      vertex 21.3236 4.53247 5
      vertex 12.0311 1.75 5
      vertex 18.8 0 5
    endloop
  endfacet
  facet normal 0 -0 1
    outer loop
      vertex 12.5 0 5
      vertex 18.8 0 5
      vertex 12.0311 1.75 5
    endloop
  endfacet
  facet normal 0 0 1
    outer loop
      vertex 18.8 0 5
      vertex 12.1709 -1.22817 5
      vertex 18.3892 -3.90874 5
    endloop
  endfacet
  facet normal 0 0 1
    outer loop
      vertex 9 3.5 5
      vertex 17.6366 12.8137 5
      vertex 14.587 16.2006 5
    endloop
  endfacet
  facet normal -0 0 1
    outer loop
      vertex 12.0312 -2.55731 5
      vertex 18.3892 -3.90874 5
      vertex 12.1709 -1.22817 5
    endloop
  endfacet
  facet normal -0 0 1
    outer loop
      vertex 11.2366 -5.00286 5
      vertex 17.1747 -7.64665 5
      vertex 12.0312 -2.55731 5
    endloop
  endfacet
  facet normal 0 0 1
    outer loop
      vertex 12.1709 -1.22817 5
      vertex 18.8 0 5
      vertex 12.5 0 5
    endloop
  endfacet
  facet normal 0 0 1
    outer loop
      vertex 9 3.5 5
      vertex 14.587 16.2006 5
      vertex 10.9 18.8794 5
    endloop
  endfacet
  facet normal 0 0 1
    outer loop
      vertex 19.9153 8.86686 5
      vertex 10.75 3.03109 5
      vertex 12.0311 1.75 5
    endloop
  endfacet
  facet normal 0 0 1
    outer loop
      vertex 17.6366 12.8137 5
      vertex 9 3.5 5
      vertex 10.75 3.03109 5
    endloop
  endfacet
  facet normal 0 0 1
    outer loop
      vertex 10.9 18.8794 5
      vertex 7.25 3.03109 5
      vertex 9 3.5 5
    endloop
  endfacet
  facet normal 0 0 1
    outer loop
      vertex 6.73657 20.733 5
      vertex 7.25 3.03109 5
      vertex 10.9 18.8794 5
    endloop
  endfacet
  facet normal 0 0 1
    outer loop
      vertex 2.27872 21.6806 5
      vertex 7.25 3.03109 5
      vertex 6.73657 20.733 5
    endloop
  endfacet
  facet normal 0 0 1
    outer loop
      vertex -7.25 3.03109 5
      vertex 7.25 3.03109 5
      vertex 2.27872 21.6806 5
    endloop
  endfacet
  facet normal 0 0 1
    outer loop
      vertex 7.25 3.03109 5
      vertex -7.25 3.03109 5
      vertex 5.96891 1.75 5
    endloop
  endfacet
  facet normal 0 -0 1
    outer loop
      vertex -5.96891 1.75 5
      vertex 5.96891 1.75 5
      vertex -7.25 3.03109 5
    endloop
  endfacet
  facet normal 0 0 1
    outer loop
      vertex -5.96891 -1.75 5
      vertex 5.5 0 5
      vertex -5.5 0 5
    endloop
  endfacet
  facet normal 0 -0 1
    outer loop
      vertex 1.25434 -11.9343 5
      vertex 5.5 0 5
      vertex -5.96891 -1.75 5
    endloop
  endfacet
  facet normal 0 0 1
    outer loop
      vertex -7.25 3.03109 5
      vertex 2.27872 21.6806 5
      vertex -2.27872 21.6806 5
    endloop
  endfacet
  facet normal 0 0 1
    outer loop
      vertex 5.5 0 5
      vertex 1.25434 -11.9343 5
      vertex 3.7082 -11.4127 5
    endloop
  endfacet
  facet normal 0 0 1
    outer loop
      vertex 1.25434 -11.9343 5
      vertex -5.96891 -1.75 5
      vertex -1.25434 -11.9343 5
    endloop
  endfacet
  facet normal 0 0 1
    outer loop
      vertex 5.5 0 5
      vertex -5.96891 1.75 5
      vertex -5.5 0 5
    endloop
  endfacet
  facet normal 0 0 1
    outer loop
      vertex -7.25 3.03109 5
      vertex -2.27872 21.6806 5
      vertex -6.73657 20.733 5
    endloop
  endfacet
  facet normal 0 0 1
    outer loop
      vertex 5.96891 1.75 5
      vertex -5.96891 1.75 5
      vertex 5.5 0 5
    endloop
  endfacet
  facet normal -0 0 1
    outer loop
      vertex -10.9 18.8794 5
      vertex -7.25 3.03109 5
      vertex -6.73657 20.733 5
    endloop
  endfacet
  facet normal 0 0 1
    outer loop
      vertex -7.25 3.03109 5
      vertex -10.9 18.8794 5
      vertex -9 3.5 5
    endloop
  endfacet
  facet normal -0 0 1
    outer loop
      vertex -14.587 16.2006 5
      vertex -9 3.5 5
      vertex -10.9 18.8794 5
    endloop
  endfacet
  facet normal -0 0 1
    outer loop
      vertex -17.6366 12.8137 5
      vertex -9 3.5 5
      vertex -14.587 16.2006 5
    endloop
  endfacet
  facet normal 0 0 1
    outer loop
      vertex -9 3.5 5
      vertex -17.6366 12.8137 5
      vertex -10.75 3.03109 5
    endloop
  endfacet
  facet normal -0 0 1
    outer loop
      vertex -17.7431 5.65685 5
      vertex -10.75 3.03109 5
      vertex -17.6366 12.8137 5
    endloop
  endfacet
  facet normal 0 0 1
    outer loop
      vertex -10.75 3.03109 5
      vertex -16.009 3.06147 5
      vertex -12.0311 1.75 5
    endloop
  endfacet
  facet normal 0 0 1
    outer loop
      vertex -15.5537 -1.56072 5
      vertex -12.5 0 5
      vertex -15.4 0 5
    endloop
  endfacet
  facet normal 0 0 1
    outer loop
      vertex -12.5 0 5
      vertex -15.2095 -11.0504 5
      vertex -12.5797 -13.9711 5
    endloop
  endfacet
  facet normal 0 0 1
    outer loop
      vertex -12.5 0 5
      vertex -15.5537 1.56072 5
      vertex -15.4 0 5
    endloop
  endfacet
  facet normal 0 0 1
    outer loop
      vertex -12.0311 1.75 5
      vertex -15.5537 1.56072 5
      vertex -12.5 0 5
    endloop
  endfacet
  facet normal 0 -0 1
    outer loop
      vertex -15.5537 1.56072 5
      vertex -12.0311 1.75 5
      vertex -16.009 3.06147 5
    endloop
  endfacet
  facet normal -0 -0 1
    outer loop
      vertex -16.009 3.06147 5
      vertex -10.75 3.03109 5
      vertex -16.7482 4.44456 5
    endloop
  endfacet
  facet normal 0 0 1
    outer loop
      vertex -10.75 3.03109 5
      vertex -17.7431 5.65685 5
      vertex -16.7482 4.44456 5
    endloop
  endfacet
  facet normal 0 0 1
    outer loop
      vertex -17.6366 12.8137 5
      vertex -18.9554 6.65176 5
      vertex -17.7431 5.65685 5
    endloop
  endfacet
  facet normal -0 0 1
    outer loop
      vertex -19.9153 8.86686 5
      vertex -18.9554 6.65176 5
      vertex -17.6366 12.8137 5
    endloop
  endfacet
  facet normal 0 0 1
    outer loop
      vertex -19.9153 8.86686 5
      vertex -20.3385 7.39104 5
      vertex -18.9554 6.65176 5
    endloop
  endfacet
  facet normal 0 -0 1
    outer loop
      vertex -20.3385 7.39104 5
      vertex -19.9153 8.86686 5
      vertex -20.3898 7.40658 5
    endloop
  endfacet
  facet normal 0 0 1
    outer loop
      vertex 18.3892 -3.90874 5
      vertex 12.0312 -2.55731 5
      vertex 17.1747 -7.64665 5
    endloop
  endfacet
  facet normal 0 0 1
    outer loop
      vertex 17.1747 -7.64665 5
      vertex 11.2366 -5.00286 5
      vertex 15.2095 -11.0504 5
    endloop
  endfacet
  facet normal -0 0 1
    outer loop
      vertex 9.95091 -7.22976 5
      vertex 15.2095 -11.0504 5
      vertex 11.2366 -5.00286 5
    endloop
  endfacet
  facet normal 0 0 1
    outer loop
      vertex 15.2095 -11.0504 5
      vertex 9.95091 -7.22976 5
      vertex 12.5797 -13.9711 5
    endloop
  endfacet
  facet normal -0 0 1
    outer loop
      vertex 8.23031 -9.14068 5
      vertex 12.5797 -13.9711 5
      vertex 9.95091 -7.22976 5
    endloop
  endfacet
  facet normal 0 0 1
    outer loop
      vertex 12.5797 -13.9711 5
      vertex 8.23031 -9.14068 5
      vertex 9.4 -16.2813 5
    endloop
  endfacet
  facet normal -0 0 1
    outer loop
      vertex 6.15 -10.6521 5
      vertex 9.4 -16.2813 5
      vertex 8.23031 -9.14068 5
    endloop
  endfacet
  facet normal 0 0 1
    outer loop
      vertex 6.15 -10.6521 5
      vertex 5.80952 -17.8799 5
      vertex 9.4 -16.2813 5
    endloop
  endfacet
  facet normal -0 0 1
    outer loop
      vertex 3.80091 -11.698 5
      vertex 5.80952 -17.8799 5
      vertex 6.15 -10.6521 5
    endloop
  endfacet
  facet normal 0 0 1
    outer loop
      vertex 3.80091 -11.698 5
      vertex 1.96513 -18.697 5
      vertex 5.80952 -17.8799 5
    endloop
  endfacet
  facet normal -0 0 1
    outer loop
      vertex 1.2857 -12.2326 5
      vertex 1.96513 -18.697 5
      vertex 3.80091 -11.698 5
    endloop
  endfacet
  facet normal -0 0 1
    outer loop
      vertex -1.2857 -12.2326 5
      vertex 1.96513 -18.697 5
      vertex 1.2857 -12.2326 5
    endloop
  endfacet
  facet normal 0 0 1
    outer loop
      vertex -1.2857 -12.2326 5
      vertex -1.96513 -18.697 5
      vertex 1.96513 -18.697 5
    endloop
  endfacet
  facet normal 0 0 1
    outer loop
      vertex -3.80091 -11.698 5
      vertex -1.96513 -18.697 5
      vertex -1.2857 -12.2326 5
    endloop
  endfacet
  facet normal 0 0 1
    outer loop
      vertex -3.80091 -11.698 5
      vertex -5.80952 -17.8799 5
      vertex -1.96513 -18.697 5
    endloop
  endfacet
  facet normal 0 0 1
    outer loop
      vertex -6.15 -10.6521 5
      vertex -5.80952 -17.8799 5
      vertex -3.80091 -11.698 5
    endloop
  endfacet
  facet normal 0 0 1
    outer loop
      vertex -9.4 -16.2813 5
      vertex -6.15 -10.6521 5
      vertex -8.23031 -9.14068 5
    endloop
  endfacet
  facet normal 0 0 1
    outer loop
      vertex -6.15 -10.6521 5
      vertex -9.4 -16.2813 5
      vertex -5.80952 -17.8799 5
    endloop
  endfacet
  facet normal 0 0 1
    outer loop
      vertex -12.5797 -13.9711 5
      vertex -8.23031 -9.14068 5
      vertex -9.95091 -7.22976 5
    endloop
  endfacet
  facet normal 0 0 1
    outer loop
      vertex -12.5797 -13.9711 5
      vertex -9.95091 -7.22976 5
      vertex -11.2366 -5.00286 5
    endloop
  endfacet
  facet normal 0 0 1
    outer loop
      vertex -12.5797 -13.9711 5
      vertex -11.2366 -5.00286 5
      vertex -11.4066 -4.47976 5
    endloop
  endfacet
  facet normal 0 0 1
    outer loop
      vertex -12.5797 -13.9711 5
      vertex -11.4066 -4.47976 5
      vertex -12.0311 -1.75 5
    endloop
  endfacet
  facet normal 0 0 1
    outer loop
      vertex -12.5797 -13.9711 5
      vertex -12.0311 -1.75 5
      vertex -12.5 0 5
    endloop
  endfacet
  facet normal 0 0 1
    outer loop
      vertex -8.23031 -9.14068 5
      vertex -12.5797 -13.9711 5
      vertex -9.4 -16.2813 5
    endloop
  endfacet
  facet normal 0 0 1
    outer loop
      vertex 10.75 -3.03109 5
      vertex 11.7378 -2.49494 5
      vertex 11.7908 -1.99027 5
    endloop
  endfacet
  facet normal 0 0 1
    outer loop
      vertex 11.7378 -2.49494 5
      vertex 10.75 -3.03109 5
      vertex 10.9625 -4.88084 5
    endloop
  endfacet
  facet normal -0 0 1
    outer loop
      vertex 9 -3.5 5
      vertex 10.9625 -4.88084 5
      vertex 10.75 -3.03109 5
    endloop
  endfacet
  facet normal 0 0 1
    outer loop
      vertex 10.9625 -4.88084 5
      vertex 9 -3.5 5
      vertex 9.7082 -7.05342 5
    endloop
  endfacet
  facet normal 0 0 1
    outer loop
      vertex 7.25 -3.03109 5
      vertex 9.7082 -7.05342 5
      vertex 9 -3.5 5
    endloop
  endfacet
  facet normal 0 0 1
    outer loop
      vertex 9.7082 -7.05342 5
      vertex 7.25 -3.03109 5
      vertex 8.02957 -8.91774 5
    endloop
  endfacet
  facet normal 0 0 1
    outer loop
      vertex 7.25 -3.03109 5
      vertex 6 -10.3923 5
      vertex 8.02957 -8.91774 5
    endloop
  endfacet
  facet normal 0 0 1
    outer loop
      vertex 5.96891 -1.75 5
      vertex 6 -10.3923 5
      vertex 7.25 -3.03109 5
    endloop
  endfacet
  facet normal 0 0 1
    outer loop
      vertex 3.7082 -11.4127 5
      vertex 5.96891 -1.75 5
      vertex 5.5 0 5
    endloop
  endfacet
  facet normal 0 0 1
    outer loop
      vertex 5.96891 -1.75 5
      vertex 3.7082 -11.4127 5
      vertex 6 -10.3923 5
    endloop
  endfacet
  facet normal 0 0 1
    outer loop
      vertex -1.25434 -11.9343 5
      vertex -5.96891 -1.75 5
      vertex -3.7082 -11.4127 5
    endloop
  endfacet
  facet normal 0 0 1
    outer loop
      vertex -5.96891 -1.75 5
      vertex -6 -10.3923 5
      vertex -3.7082 -11.4127 5
    endloop
  endfacet
  facet normal -0 0 1
    outer loop
      vertex -7.25 -3.03109 5
      vertex -6 -10.3923 5
      vertex -5.96891 -1.75 5
    endloop
  endfacet
  facet normal 0 0 1
    outer loop
      vertex -7.25 -3.03109 5
      vertex -8.02957 -8.91774 5
      vertex -6 -10.3923 5
    endloop
  endfacet
  facet normal 0 0 1
    outer loop
      vertex -9.7082 -7.05342 5
      vertex -7.25 -3.03109 5
      vertex -9 -3.5 5
    endloop
  endfacet
  facet normal 0 0 1
    outer loop
      vertex -7.25 -3.03109 5
      vertex -9.7082 -7.05342 5
      vertex -8.02957 -8.91774 5
    endloop
  endfacet
  facet normal 0 0 1
    outer loop
      vertex -11.1196 -4.39748 5
      vertex -9 -3.5 5
      vertex -10.75 -3.03109 5
    endloop
  endfacet
  facet normal 0 0 1
    outer loop
      vertex -9 -3.5 5
      vertex -10.9625 -4.88084 5
      vertex -9.7082 -7.05342 5
    endloop
  endfacet
  facet normal 0 0 1
    outer loop
      vertex -9 -3.5 5
      vertex -11.1196 -4.39748 5
      vertex -10.9625 -4.88084 5
    endloop
  endfacet
  facet normal 0 0 1
    outer loop
      vertex -10.75 -3.03109 5
      vertex -11.4066 -4.47976 5
      vertex -11.1196 -4.39748 5
    endloop
  endfacet
  facet normal 0 -0 1
    outer loop
      vertex -11.4066 -4.47976 5
      vertex -10.75 -3.03109 5
      vertex -12.0311 -1.75 5
    endloop
  endfacet
  facet normal 0.587785 0.809017 -0
    outer loop
      vertex -9.4 -16.2813 5
      vertex -12.5797 -13.9711 8.4
      vertex -9.4 -16.2813 8.4
    endloop
  endfacet
  facet normal 0.587785 0.809017 0
    outer loop
      vertex -12.5797 -13.9711 8.4
      vertex -9.4 -16.2813 5
      vertex -12.5797 -13.9711 5
    endloop
  endfacet
  facet normal 0.406737 0.913545 -0
    outer loop
      vertex -5.80952 -17.8799 5
      vertex -9.4 -16.2813 8.4
      vertex -5.80952 -17.8799 8.4
    endloop
  endfacet
  facet normal 0.406737 0.913545 0
    outer loop
      vertex -9.4 -16.2813 8.4
      vertex -5.80952 -17.8799 5
      vertex -9.4 -16.2813 5
    endloop
  endfacet
  facet normal -0.207911 0.978148 0
    outer loop
      vertex 5.80952 -17.8799 5
      vertex 1.96513 -18.697 8.4
      vertex 5.80952 -17.8799 8.4
    endloop
  endfacet
  facet normal -0.207911 0.978148 0
    outer loop
      vertex 1.96513 -18.697 8.4
      vertex 5.80952 -17.8799 5
      vertex 1.96513 -18.697 5
    endloop
  endfacet
  facet normal -0.743145 0.669131 0
    outer loop
      vertex 12.5797 -13.9711 5
      vertex 15.2095 -11.0504 8.4
      vertex 15.2095 -11.0504 5
    endloop
  endfacet
  facet normal -0.743145 0.669131 0
    outer loop
      vertex 15.2095 -11.0504 8.4
      vertex 12.5797 -13.9711 5
      vertex 12.5797 -13.9711 8.4
    endloop
  endfacet
  facet normal -0.866025 0.5 0
    outer loop
      vertex 15.2095 -11.0504 5
      vertex 17.1747 -7.64665 8.4
      vertex 17.1747 -7.64665 5
    endloop
  endfacet
  facet normal -0.866025 0.5 0
    outer loop
      vertex 17.1747 -7.64665 8.4
      vertex 15.2095 -11.0504 5
      vertex 15.2095 -11.0504 8.4
    endloop
  endfacet
  facet normal -0.951056 0.309017 0
    outer loop
      vertex 17.1747 -7.64665 5
      vertex 18.3892 -3.90874 8.4
      vertex 18.3892 -3.90874 5
    endloop
  endfacet
  facet normal -0.951056 0.309017 0
    outer loop
      vertex 18.3892 -3.90874 8.4
      vertex 17.1747 -7.64665 5
      vertex 17.1747 -7.64665 8.4
    endloop
  endfacet
  facet normal -0.994522 0.104528 0
    outer loop
      vertex 18.3892 -3.90874 5
      vertex 18.8 0 8.4
      vertex 18.8 0 5
    endloop
  endfacet
  facet normal -0.994522 0.104528 0
    outer loop
      vertex 18.8 0 8.4
      vertex 18.3892 -3.90874 5
      vertex 18.3892 -3.90874 8.4
    endloop
  endfacet
  facet normal 0.743145 0.669131 0
    outer loop
      vertex -12.5797 -13.9711 8.4
      vertex -15.2095 -11.0504 5
      vertex -15.2095 -11.0504 8.4
    endloop
  endfacet
  facet normal 0.743145 0.669131 0
    outer loop
      vertex -15.2095 -11.0504 5
      vertex -12.5797 -13.9711 8.4
      vertex -12.5797 -13.9711 5
    endloop
  endfacet
  facet normal -0.406737 0.913545 0
    outer loop
      vertex 9.4 -16.2813 5
      vertex 5.80952 -17.8799 8.4
      vertex 9.4 -16.2813 8.4
    endloop
  endfacet
  facet normal -0.406737 0.913545 0
    outer loop
      vertex 5.80952 -17.8799 8.4
      vertex 9.4 -16.2813 5
      vertex 5.80952 -17.8799 5
    endloop
  endfacet
  facet normal -0.587785 0.809017 0
    outer loop
      vertex 12.5797 -13.9711 5
      vertex 9.4 -16.2813 8.4
      vertex 12.5797 -13.9711 8.4
    endloop
  endfacet
  facet normal -0.587785 0.809017 0
    outer loop
      vertex 9.4 -16.2813 8.4
      vertex 12.5797 -13.9711 5
      vertex 9.4 -16.2813 5
    endloop
  endfacet
  facet normal -0.207912 -0.978148 0
    outer loop
      vertex -3.80091 -11.698 5
      vertex -1.2857 -12.2326 8.4
      vertex -3.80091 -11.698 8.4
    endloop
  endfacet
  facet normal -0.207912 -0.978148 -0
    outer loop
      vertex -1.2857 -12.2326 8.4
      vertex -3.80091 -11.698 5
      vertex -1.2857 -12.2326 5
    endloop
  endfacet
  facet normal -0.951057 -0.309017 0
    outer loop
      vertex -11.2366 -5.00286 5
      vertex -11.4066 -4.47976 8.4
      vertex -11.4066 -4.47976 5
    endloop
  endfacet
  facet normal -0.951057 -0.309017 0
    outer loop
      vertex -11.4066 -4.47976 8.4
      vertex -11.2366 -5.00286 5
      vertex -11.2366 -5.00286 8.4
    endloop
  endfacet
  facet normal 0.866025 -0.5 0
    outer loop
      vertex 9.95091 -7.22976 8.4
      vertex 11.2366 -5.00286 5
      vertex 11.2366 -5.00286 8.4
    endloop
  endfacet
  facet normal 0.866025 -0.5 0
    outer loop
      vertex 11.2366 -5.00286 5
      vertex 9.95091 -7.22976 8.4
      vertex 9.95091 -7.22976 5
    endloop
  endfacet
  facet normal -0.587785 -0.809017 0
    outer loop
      vertex -8.23031 -9.14068 5
      vertex -6.15 -10.6521 8.4
      vertex -8.23031 -9.14068 8.4
    endloop
  endfacet
  facet normal -0.587785 -0.809017 -0
    outer loop
      vertex -6.15 -10.6521 8.4
      vertex -8.23031 -9.14068 5
      vertex -6.15 -10.6521 5
    endloop
  endfacet
  facet normal -0.866025 -0.5 0
    outer loop
      vertex -9.95091 -7.22976 5
      vertex -11.2366 -5.00286 8.4
      vertex -11.2366 -5.00286 5
    endloop
  endfacet
  facet normal -0.866025 -0.5 0
    outer loop
      vertex -11.2366 -5.00286 8.4
      vertex -9.95091 -7.22976 5
      vertex -9.95091 -7.22976 8.4
    endloop
  endfacet
  facet normal 0.207912 -0.978148 0
    outer loop
      vertex 1.2857 -12.2326 5
      vertex 3.80091 -11.698 8.4
      vertex 1.2857 -12.2326 8.4
    endloop
  endfacet
  facet normal 0.207912 -0.978148 0
    outer loop
      vertex 3.80091 -11.698 8.4
      vertex 1.2857 -12.2326 5
      vertex 3.80091 -11.698 5
    endloop
  endfacet
  facet normal 0.994522 -0.104529 0
    outer loop
      vertex 12.3 0 8.4
      vertex 12.1709 -1.22817 6
      vertex 12.3 0 6
    endloop
  endfacet
  facet normal 0.994522 -0.104529 -3.48313e-08
    outer loop
      vertex 12.0312 -2.55731 8.4
      vertex 12.1709 -1.22817 6
      vertex 12.3 0 8.4
    endloop
  endfacet
  facet normal 0.994522 -0.104528 0
    outer loop
      vertex 12.0312 -2.55731 5
      vertex 12.1709 -1.22817 6
      vertex 12.0312 -2.55731 8.4
    endloop
  endfacet
  facet normal 0.994522 -0.104528 0
    outer loop
      vertex 12.1709 -1.22817 6
      vertex 12.0312 -2.55731 5
      vertex 12.1709 -1.22817 5
    endloop
  endfacet
  facet normal -0.406736 -0.913546 0
    outer loop
      vertex -6.15 -10.6521 5
      vertex -3.80091 -11.698 8.4
      vertex -6.15 -10.6521 8.4
    endloop
  endfacet
  facet normal -0.406736 -0.913546 -0
    outer loop
      vertex -3.80091 -11.698 8.4
      vertex -6.15 -10.6521 5
      vertex -3.80091 -11.698 5
    endloop
  endfacet
  facet normal 0 -1 0
    outer loop
      vertex -1.2857 -12.2326 5
      vertex 1.2857 -12.2326 8.4
      vertex -1.2857 -12.2326 8.4
    endloop
  endfacet
  facet normal 0 -1 -0
    outer loop
      vertex 1.2857 -12.2326 8.4
      vertex -1.2857 -12.2326 5
      vertex 1.2857 -12.2326 5
    endloop
  endfacet
  facet normal 0.587785 -0.809017 0
    outer loop
      vertex 6.15 -10.6521 5
      vertex 8.23031 -9.14068 8.4
      vertex 6.15 -10.6521 8.4
    endloop
  endfacet
  facet normal 0.587785 -0.809017 0
    outer loop
      vertex 8.23031 -9.14068 8.4
      vertex 6.15 -10.6521 5
      vertex 8.23031 -9.14068 5
    endloop
  endfacet
  facet normal 0.406736 -0.913546 0
    outer loop
      vertex 3.80091 -11.698 5
      vertex 6.15 -10.6521 8.4
      vertex 3.80091 -11.698 8.4
    endloop
  endfacet
  facet normal 0.406736 -0.913546 0
    outer loop
      vertex 6.15 -10.6521 8.4
      vertex 3.80091 -11.698 5
      vertex 6.15 -10.6521 5
    endloop
  endfacet
  facet normal 0.951057 -0.309017 0
    outer loop
      vertex 11.2366 -5.00286 8.4
      vertex 12.0312 -2.55731 5
      vertex 12.0312 -2.55731 8.4
    endloop
  endfacet
  facet normal 0.951057 -0.309017 0
    outer loop
      vertex 12.0312 -2.55731 5
      vertex 11.2366 -5.00286 8.4
      vertex 11.2366 -5.00286 5
    endloop
  endfacet
  facet normal 0.743145 -0.669131 0
    outer loop
      vertex 8.23031 -9.14068 8.4
      vertex 9.95091 -7.22976 5
      vertex 9.95091 -7.22976 8.4
    endloop
  endfacet
  facet normal 0.743145 -0.669131 0
    outer loop
      vertex 9.95091 -7.22976 5
      vertex 8.23031 -9.14068 8.4
      vertex 8.23031 -9.14068 5
    endloop
  endfacet
  facet normal -0.743145 -0.669131 0
    outer loop
      vertex -8.23031 -9.14068 5
      vertex -9.95091 -7.22976 8.4
      vertex -9.95091 -7.22976 5
    endloop
  endfacet
  facet normal -0.743145 -0.669131 0
    outer loop
      vertex -9.95091 -7.22976 8.4
      vertex -8.23031 -9.14068 5
      vertex -8.23031 -9.14068 8.4
    endloop
  endfacet
  facet normal 0.994522 0.104529 0
    outer loop
      vertex 21.8 0 5
      vertex 21.3236 4.53247 0
      vertex 21.3236 4.53247 5
    endloop
  endfacet
  facet normal 0.994522 0.104529 0
    outer loop
      vertex 21.3236 4.53247 0
      vertex 21.8 0 5
      vertex 21.8 0 0
    endloop
  endfacet
  facet normal 0 1 -0
    outer loop
      vertex 2.27872 21.6806 0
      vertex -2.27872 21.6806 5
      vertex 2.27872 21.6806 5
    endloop
  endfacet
  facet normal 0 1 0
    outer loop
      vertex -2.27872 21.6806 5
      vertex 2.27872 21.6806 0
      vertex -2.27872 21.6806 0
    endloop
  endfacet
  facet normal 0 -1 0
    outer loop
      vertex -2.27872 -21.6806 0
      vertex 2.27872 -21.6806 11.4
      vertex -2.27872 -21.6806 11.4
    endloop
  endfacet
  facet normal 0 -1 -0
    outer loop
      vertex 2.27872 -21.6806 11.4
      vertex -2.27872 -21.6806 0
      vertex 2.27872 -21.6806 0
    endloop
  endfacet
  facet normal -0.587785 0.809017 0
    outer loop
      vertex -10.9 18.8794 0
      vertex -14.587 16.2006 5
      vertex -10.9 18.8794 5
    endloop
  endfacet
  facet normal -0.587785 0.809017 0
    outer loop
      vertex -14.587 16.2006 5
      vertex -10.9 18.8794 0
      vertex -14.587 16.2006 0
    endloop
  endfacet
  facet normal 0.587785 0.809017 -0
    outer loop
      vertex 14.587 16.2006 0
      vertex 10.9 18.8794 5
      vertex 14.587 16.2006 5
    endloop
  endfacet
  facet normal 0.587785 0.809017 0
    outer loop
      vertex 10.9 18.8794 5
      vertex 14.587 16.2006 0
      vertex 10.9 18.8794 0
    endloop
  endfacet
  facet normal 0.406737 0.913545 -0
    outer loop
      vertex 10.9 18.8794 0
      vertex 6.73657 20.733 5
      vertex 10.9 18.8794 5
    endloop
  endfacet
  facet normal 0.406737 0.913545 0
    outer loop
      vertex 6.73657 20.733 5
      vertex 10.9 18.8794 0
      vertex 6.73657 20.733 0
    endloop
  endfacet
  facet normal -0.866025 -0.5 0
    outer loop
      vertex -17.6366 -12.8137 0
      vertex -19.9153 -8.86686 11.4
      vertex -19.9153 -8.86686 0
    endloop
  endfacet
  facet normal -0.866025 -0.5 0
    outer loop
      vertex -19.9153 -8.86686 11.4
      vertex -17.6366 -12.8137 0
      vertex -17.6366 -12.8137 11.4
    endloop
  endfacet
  facet normal -0.866025 0.5 0
    outer loop
      vertex -19.9153 8.86686 0
      vertex -17.6366 12.8137 5
      vertex -17.6366 12.8137 0
    endloop
  endfacet
  facet normal -0.866025 0.5 0
    outer loop
      vertex -17.6366 12.8137 5
      vertex -19.9153 8.86686 0
      vertex -19.9153 8.86686 5
    endloop
  endfacet
  facet normal -0.951057 0.309017 0
    outer loop
      vertex -20.3898 7.40658 0
      vertex -19.9153 8.86686 5
      vertex -19.9153 8.86686 0
    endloop
  endfacet
  facet normal -0.951057 0.309017 0
    outer loop
      vertex -19.9153 8.86686 5
      vertex -20.3898 7.40658 0
      vertex -20.3898 7.40658 5
    endloop
  endfacet
  facet normal -0.743145 0.66913 0
    outer loop
      vertex -17.6366 12.8137 0
      vertex -14.587 16.2006 5
      vertex -14.587 16.2006 0
    endloop
  endfacet
  facet normal -0.743145 0.66913 0
    outer loop
      vertex -14.587 16.2006 5
      vertex -17.6366 12.8137 0
      vertex -17.6366 12.8137 5
    endloop
  endfacet
  facet normal -0.207911 0.978148 0
    outer loop
      vertex -2.27872 21.6806 0
      vertex -6.73657 20.733 5
      vertex -2.27872 21.6806 5
    endloop
  endfacet
  facet normal -0.207911 0.978148 0
    outer loop
      vertex -6.73657 20.733 5
      vertex -2.27872 21.6806 0
      vertex -6.73657 20.733 0
    endloop
  endfacet
  facet normal -0.406737 0.913545 0
    outer loop
      vertex -6.73657 20.733 0
      vertex -10.9 18.8794 5
      vertex -6.73657 20.733 5
    endloop
  endfacet
  facet normal -0.406737 0.913545 0
    outer loop
      vertex -10.9 18.8794 5
      vertex -6.73657 20.733 0
      vertex -10.9 18.8794 0
    endloop
  endfacet
  facet normal 0.866025 0.5 0
    outer loop
      vertex 19.9153 8.86686 5
      vertex 17.6366 12.8137 0
      vertex 17.6366 12.8137 5
    endloop
  endfacet
  facet normal 0.866025 0.5 0
    outer loop
      vertex 17.6366 12.8137 0
      vertex 19.9153 8.86686 5
      vertex 19.9153 8.86686 0
    endloop
  endfacet
  facet normal 0.743145 0.66913 0
    outer loop
      vertex 17.6366 12.8137 5
      vertex 14.587 16.2006 0
      vertex 14.587 16.2006 5
    endloop
  endfacet
  facet normal 0.743145 0.66913 0
    outer loop
      vertex 14.587 16.2006 0
      vertex 17.6366 12.8137 5
      vertex 17.6366 12.8137 0
    endloop
  endfacet
  facet normal 0.951057 0.309017 0
    outer loop
      vertex 21.3236 4.53247 5
      vertex 19.9153 8.86686 0
      vertex 19.9153 8.86686 5
    endloop
  endfacet
  facet normal 0.951057 0.309017 0
    outer loop
      vertex 19.9153 8.86686 0
      vertex 21.3236 4.53247 5
      vertex 21.3236 4.53247 0
    endloop
  endfacet
  facet normal -0 0 1
    outer loop
      vertex 11.7378 -2.49494 11.4
      vertex 21.3236 -4.53247 11.4
      vertex 21.8 0 11.4
    endloop
  endfacet
  facet normal 0 0 1
    outer loop
      vertex 21.3236 -4.53247 11.4
      vertex 11.7378 -2.49494 11.4
      vertex 19.9153 -8.86686 11.4
    endloop
  endfacet
  facet normal 0 0 1
    outer loop
      vertex 19.9153 -8.86686 11.4
      vertex 10.9625 -4.88084 11.4
      vertex 17.6366 -12.8137 11.4
    endloop
  endfacet
  facet normal 0 0 1
    outer loop
      vertex 11.7378 -2.49494 11.4
      vertex 21.8 0 11.4
      vertex 12 0 11.4
    endloop
  endfacet
  facet normal 0 0 1
    outer loop
      vertex 19.9153 -8.86686 11.4
      vertex 11.7378 -2.49494 11.4
      vertex 10.9625 -4.88084 11.4
    endloop
  endfacet
  facet normal -0 0 1
    outer loop
      vertex 9.7082 -7.05342 11.4
      vertex 17.6366 -12.8137 11.4
      vertex 10.9625 -4.88084 11.4
    endloop
  endfacet
  facet normal 0 0 1
    outer loop
      vertex 17.6366 -12.8137 11.4
      vertex 9.7082 -7.05342 11.4
      vertex 14.587 -16.2006 11.4
    endloop
  endfacet
  facet normal -0 0 1
    outer loop
      vertex 8.02957 -8.91774 11.4
      vertex 14.587 -16.2006 11.4
      vertex 9.7082 -7.05342 11.4
    endloop
  endfacet
  facet normal 0 0 1
    outer loop
      vertex 14.587 -16.2006 11.4
      vertex 8.02957 -8.91774 11.4
      vertex 10.9 -18.8794 11.4
    endloop
  endfacet
  facet normal -0 0 1
    outer loop
      vertex 6 -10.3923 11.4
      vertex 10.9 -18.8794 11.4
      vertex 8.02957 -8.91774 11.4
    endloop
  endfacet
  facet normal 0 0 1
    outer loop
      vertex 10.9 -18.8794 11.4
      vertex 6 -10.3923 11.4
      vertex 6.73657 -20.733 11.4
    endloop
  endfacet
  facet normal -0 0 1
    outer loop
      vertex 3.7082 -11.4127 11.4
      vertex 6.73657 -20.733 11.4
      vertex 6 -10.3923 11.4
    endloop
  endfacet
  facet normal 0 0 1
    outer loop
      vertex 3.7082 -11.4127 11.4
      vertex 2.27872 -21.6806 11.4
      vertex 6.73657 -20.733 11.4
    endloop
  endfacet
  facet normal -0 0 1
    outer loop
      vertex 1.25434 -11.9343 11.4
      vertex 2.27872 -21.6806 11.4
      vertex 3.7082 -11.4127 11.4
    endloop
  endfacet
  facet normal -0 0 1
    outer loop
      vertex -1.25434 -11.9343 11.4
      vertex 2.27872 -21.6806 11.4
      vertex 1.25434 -11.9343 11.4
    endloop
  endfacet
  facet normal 0 0 1
    outer loop
      vertex -1.25434 -11.9343 11.4
      vertex -2.27872 -21.6806 11.4
      vertex 2.27872 -21.6806 11.4
    endloop
  endfacet
  facet normal 0 0 1
    outer loop
      vertex -3.7082 -11.4127 11.4
      vertex -2.27872 -21.6806 11.4
      vertex -1.25434 -11.9343 11.4
    endloop
  endfacet
  facet normal 0 0 1
    outer loop
      vertex -6.73657 -20.733 11.4
      vertex -3.7082 -11.4127 11.4
      vertex -6 -10.3923 11.4
    endloop
  endfacet
  facet normal 0 0 1
    outer loop
      vertex -3.7082 -11.4127 11.4
      vertex -6.73657 -20.733 11.4
      vertex -2.27872 -21.6806 11.4
    endloop
  endfacet
  facet normal 0 0 1
    outer loop
      vertex -10.9 -18.8794 11.4
      vertex -6 -10.3923 11.4
      vertex -8.02957 -8.91774 11.4
    endloop
  endfacet
  facet normal 0 0 1
    outer loop
      vertex -14.587 -16.2006 11.4
      vertex -8.02957 -8.91774 11.4
      vertex -9.7082 -7.05342 11.4
    endloop
  endfacet
  facet normal 0 0 1
    outer loop
      vertex -6 -10.3923 11.4
      vertex -10.9 -18.8794 11.4
      vertex -6.73657 -20.733 11.4
    endloop
  endfacet
  facet normal -0 0 1
    outer loop
      vertex -18.9416 -6.6404 11.4
      vertex -9.7082 -7.05342 11.4
      vertex -10.9625 -4.88084 11.4
    endloop
  endfacet
  facet normal 0 0 1
    outer loop
      vertex -18.9416 -6.6404 11.4
      vertex -10.9625 -4.88084 11.4
      vertex -11.1196 -4.39748 11.4
    endloop
  endfacet
  facet normal 0 0 1
    outer loop
      vertex -8.02957 -8.91774 11.4
      vertex -14.587 -16.2006 11.4
      vertex -10.9 -18.8794 11.4
    endloop
  endfacet
  facet normal 0 0 1
    outer loop
      vertex -9.7082 -7.05342 11.4
      vertex -17.6366 -12.8137 11.4
      vertex -14.587 -16.2006 11.4
    endloop
  endfacet
  facet normal 0 0 1
    outer loop
      vertex -9.7082 -7.05342 11.4
      vertex -18.9416 -6.6404 11.4
      vertex -17.6366 -12.8137 11.4
    endloop
  endfacet
  facet normal 0 0 1
    outer loop
      vertex -19.9153 -8.86686 11.4
      vertex -18.9416 -6.6404 11.4
      vertex -18.9554 -6.65176 11.4
    endloop
  endfacet
  facet normal 0 0 1
    outer loop
      vertex -18.9416 -6.6404 11.4
      vertex -19.9153 -8.86686 11.4
      vertex -17.6366 -12.8137 11.4
    endloop
  endfacet
  facet normal -0 0 1
    outer loop
      vertex -20.3385 -7.39104 11.4
      vertex -19.9153 -8.86686 11.4
      vertex -18.9554 -6.65176 11.4
    endloop
  endfacet
  facet normal 0 0 1
    outer loop
      vertex -19.9153 -8.86686 11.4
      vertex -20.3385 -7.39104 11.4
      vertex -20.3898 -7.40658 11.4
    endloop
  endfacet
  facet normal 0.207911 0.978148 -0
    outer loop
      vertex 6.73657 20.733 0
      vertex 2.27872 21.6806 5
      vertex 6.73657 20.733 5
    endloop
  endfacet
  facet normal 0.207911 0.978148 0
    outer loop
      vertex 2.27872 21.6806 5
      vertex 6.73657 20.733 0
      vertex 2.27872 21.6806 0
    endloop
  endfacet
  facet normal 0 0 -1
    outer loop
      vertex -10.4722 0.849999 0
      vertex -16.009 3.06147 0
      vertex -9.85 1.47224 0
    endloop
  endfacet
  facet normal 0 0 -1
    outer loop
      vertex -16.7482 4.44456 0
      vertex -9.85 1.47224 0
      vertex -16.009 3.06147 0
    endloop
  endfacet
  facet normal 0 0 -1
    outer loop
      vertex -17.6366 12.8137 0
      vertex -9.85 1.47224 0
      vertex -16.7482 4.44456 0
    endloop
  endfacet
  facet normal 0 0 -1
    outer loop
      vertex -9.85 1.47224 0
      vertex -17.6366 12.8137 0
      vertex -14.587 16.2006 0
    endloop
  endfacet
  facet normal 0 0 -1
    outer loop
      vertex -17.7431 5.65685 0
      vertex -17.6366 12.8137 0
      vertex -16.7482 4.44456 0
    endloop
  endfacet
  facet normal 0 0 -1
    outer loop
      vertex -18.9554 6.65176 0
      vertex -17.6366 12.8137 0
      vertex -17.7431 5.65685 0
    endloop
  endfacet
  facet normal 0 0 -1
    outer loop
      vertex -18.9554 6.65176 0
      vertex -19.9153 8.86686 0
      vertex -17.6366 12.8137 0
    endloop
  endfacet
  facet normal 0 0 -1
    outer loop
      vertex -20.3385 7.39104 0
      vertex -19.9153 8.86686 0
      vertex -18.9554 6.65176 0
    endloop
  endfacet
  facet normal 0 0 -1
    outer loop
      vertex -19.9153 8.86686 0
      vertex -20.3385 7.39104 0
      vertex -20.3898 7.40658 0
    endloop
  endfacet
  facet normal 0 0 -1
    outer loop
      vertex 10.7 0 0
      vertex 21.8 0 0
      vertex 21.3236 -4.53247 0
    endloop
  endfacet
  facet normal 0 0 -1
    outer loop
      vertex 10.4722 -0.849999 0
      vertex 21.3236 -4.53247 0
      vertex 19.9153 -8.86686 0
    endloop
  endfacet
  facet normal 0 0 -1
    outer loop
      vertex 21.8 0 0
      vertex 10.7 0 0
      vertex 21.3236 4.53247 0
    endloop
  endfacet
  facet normal 0 0 -1
    outer loop
      vertex 9.85 -1.47224 0
      vertex 19.9153 -8.86686 0
      vertex 17.6366 -12.8137 0
    endloop
  endfacet
  facet normal 0 0 -1
    outer loop
      vertex 10.4722 0.849999 0
      vertex 21.3236 4.53247 0
      vertex 10.7 0 0
    endloop
  endfacet
  facet normal 0 0 -1
    outer loop
      vertex 9 -1.7 0
      vertex 17.6366 -12.8137 0
      vertex 14.587 -16.2006 0
    endloop
  endfacet
  facet normal -0 0 -1
    outer loop
      vertex 21.3236 4.53247 0
      vertex 10.4722 0.849999 0
      vertex 19.9153 8.86686 0
    endloop
  endfacet
  facet normal 0 0 -1
    outer loop
      vertex 9 -1.7 0
      vertex 14.587 -16.2006 0
      vertex 10.9 -18.8794 0
    endloop
  endfacet
  facet normal 0 0 -1
    outer loop
      vertex 9.85 1.47224 0
      vertex 19.9153 8.86686 0
      vertex 10.4722 0.849999 0
    endloop
  endfacet
  facet normal -0 0 -1
    outer loop
      vertex 19.9153 8.86686 0
      vertex 9.85 1.47224 0
      vertex 17.6366 12.8137 0
    endloop
  endfacet
  facet normal 0 0 -1
    outer loop
      vertex 21.3236 -4.53247 0
      vertex 10.4722 -0.849999 0
      vertex 10.7 0 0
    endloop
  endfacet
  facet normal 0 0 -1
    outer loop
      vertex 19.9153 -8.86686 0
      vertex 9.85 -1.47224 0
      vertex 10.4722 -0.849999 0
    endloop
  endfacet
  facet normal 0 0 -1
    outer loop
      vertex 17.6366 -12.8137 0
      vertex 9 -1.7 0
      vertex 9.85 -1.47224 0
    endloop
  endfacet
  facet normal 0 0 -1
    outer loop
      vertex 10.9 -18.8794 0
      vertex 8.15 -1.47224 0
      vertex 9 -1.7 0
    endloop
  endfacet
  facet normal 0 0 -1
    outer loop
      vertex 6.73657 -20.733 0
      vertex 8.15 -1.47224 0
      vertex 10.9 -18.8794 0
    endloop
  endfacet
  facet normal 0 0 -1
    outer loop
      vertex 2.27872 -21.6806 0
      vertex 8.15 -1.47224 0
      vertex 6.73657 -20.733 0
    endloop
  endfacet
  facet normal 0 0 -1
    outer loop
      vertex -8.15 -1.47224 0
      vertex 8.15 -1.47224 0
      vertex 2.27872 -21.6806 0
    endloop
  endfacet
  facet normal 0 0 -1
    outer loop
      vertex 9 1.7 0
      vertex 17.6366 12.8137 0
      vertex 9.85 1.47224 0
    endloop
  endfacet
  facet normal -0 0 -1
    outer loop
      vertex 17.6366 12.8137 0
      vertex 9 1.7 0
      vertex 14.587 16.2006 0
    endloop
  endfacet
  facet normal -0 0 -1
    outer loop
      vertex 14.587 16.2006 0
      vertex 9 1.7 0
      vertex 10.9 18.8794 0
    endloop
  endfacet
  facet normal 0 0 -1
    outer loop
      vertex 8.15 1.47224 0
      vertex 10.9 18.8794 0
      vertex 9 1.7 0
    endloop
  endfacet
  facet normal 0 0 -1
    outer loop
      vertex -8.15 1.47224 0
      vertex 8.15 1.47224 0
      vertex 7.52776 0.849999 0
    endloop
  endfacet
  facet normal 0 0 -1
    outer loop
      vertex -7.52776 0.849999 0
      vertex 7.52776 0.849999 0
      vertex 7.3 0 0
    endloop
  endfacet
  facet normal 0 0 -1
    outer loop
      vertex 8.15 1.47224 0
      vertex 6.73657 20.733 0
      vertex 10.9 18.8794 0
    endloop
  endfacet
  facet normal 0 0 -1
    outer loop
      vertex 8.15 -1.47224 0
      vertex -8.15 -1.47224 0
      vertex 7.52776 -0.849999 0
    endloop
  endfacet
  facet normal 0 -0 -1
    outer loop
      vertex -7.52776 -0.849999 0
      vertex 7.52776 -0.849999 0
      vertex -8.15 -1.47224 0
    endloop
  endfacet
  facet normal 0 0 -1
    outer loop
      vertex -7.52776 0.849999 0
      vertex 7.3 0 0
      vertex -7.3 0 0
    endloop
  endfacet
  facet normal 0 0 -1
    outer loop
      vertex -8.15 -1.47224 0
      vertex 2.27872 -21.6806 0
      vertex -2.27872 -21.6806 0
    endloop
  endfacet
  facet normal 0 0 -1
    outer loop
      vertex 7.52776 0.849999 0
      vertex -7.52776 0.849999 0
      vertex -8.15 1.47224 0
    endloop
  endfacet
  facet normal 0 0 -1
    outer loop
      vertex -8.15 -1.47224 0
      vertex -2.27872 -21.6806 0
      vertex -6.73657 -20.733 0
    endloop
  endfacet
  facet normal 0 0 -1
    outer loop
      vertex 8.15 1.47224 0
      vertex 2.27872 21.6806 0
      vertex 6.73657 20.733 0
    endloop
  endfacet
  facet normal 0 0 -1
    outer loop
      vertex 8.15 1.47224 0
      vertex -8.15 1.47224 0
      vertex 2.27872 21.6806 0
    endloop
  endfacet
  facet normal -0 0 -1
    outer loop
      vertex 7.3 0 0
      vertex -7.52776 -0.849999 0
      vertex -7.3 0 0
    endloop
  endfacet
  facet normal 0 0 -1
    outer loop
      vertex 7.52776 -0.849999 0
      vertex -7.52776 -0.849999 0
      vertex 7.3 0 0
    endloop
  endfacet
  facet normal 0 0 -1
    outer loop
      vertex -10.9 -18.8794 0
      vertex -8.15 -1.47224 0
      vertex -6.73657 -20.733 0
    endloop
  endfacet
  facet normal 0 0 -1
    outer loop
      vertex -8.15 -1.47224 0
      vertex -10.9 -18.8794 0
      vertex -9 -1.7 0
    endloop
  endfacet
  facet normal 0 0 -1
    outer loop
      vertex -14.587 -16.2006 0
      vertex -9 -1.7 0
      vertex -10.9 -18.8794 0
    endloop
  endfacet
  facet normal 0 0 -1
    outer loop
      vertex -17.6366 -12.8137 0
      vertex -9 -1.7 0
      vertex -14.587 -16.2006 0
    endloop
  endfacet
  facet normal 0 -0 -1
    outer loop
      vertex -16.7482 -4.44456 0
      vertex -9 -1.7 0
      vertex -17.6366 -12.8137 0
    endloop
  endfacet
  facet normal -0 0 -1
    outer loop
      vertex 2.27872 21.6806 0
      vertex -8.15 1.47224 0
      vertex -2.27872 21.6806 0
    endloop
  endfacet
  facet normal 0 0 -1
    outer loop
      vertex -2.27872 21.6806 0
      vertex -8.15 1.47224 0
      vertex -6.73657 20.733 0
    endloop
  endfacet
  facet normal 0 0 -1
    outer loop
      vertex -10.9 18.8794 0
      vertex -8.15 1.47224 0
      vertex -9 1.7 0
    endloop
  endfacet
  facet normal 0 0 -1
    outer loop
      vertex -14.587 16.2006 0
      vertex -9 1.7 0
      vertex -9.85 1.47224 0
    endloop
  endfacet
  facet normal 0 0 -1
    outer loop
      vertex -10.7 0 0
      vertex -15.5537 1.56072 0
      vertex -10.4722 0.849999 0
    endloop
  endfacet
  facet normal 0 0 -1
    outer loop
      vertex -15.5537 1.56072 0
      vertex -10.7 0 0
      vertex -15.4 0 0
    endloop
  endfacet
  facet normal 0 0 -1
    outer loop
      vertex -8.15 1.47224 0
      vertex -10.9 18.8794 0
      vertex -6.73657 20.733 0
    endloop
  endfacet
  facet normal 0 -0 -1
    outer loop
      vertex -16.009 -3.06147 0
      vertex -9.85 -1.47224 0
      vertex -16.7482 -4.44456 0
    endloop
  endfacet
  facet normal -0 0 -1
    outer loop
      vertex -9.85 -1.47224 0
      vertex -16.009 -3.06147 0
      vertex -10.4722 -0.849999 0
    endloop
  endfacet
  facet normal 0 0 -1
    outer loop
      vertex -16.009 3.06147 0
      vertex -10.4722 0.849999 0
      vertex -15.5537 1.56072 0
    endloop
  endfacet
  facet normal 0 0 -1
    outer loop
      vertex -9 1.7 0
      vertex -14.587 16.2006 0
      vertex -10.9 18.8794 0
    endloop
  endfacet
  facet normal -0 0 -1
    outer loop
      vertex -10.7 0 0
      vertex -15.5537 -1.56072 0
      vertex -15.4 0 0
    endloop
  endfacet
  facet normal -0 0 -1
    outer loop
      vertex -10.4722 -0.849999 0
      vertex -15.5537 -1.56072 0
      vertex -10.7 0 0
    endloop
  endfacet
  facet normal 0 -0 -1
    outer loop
      vertex -15.5537 -1.56072 0
      vertex -10.4722 -0.849999 0
      vertex -16.009 -3.06147 0
    endloop
  endfacet
  facet normal -0 0 -1
    outer loop
      vertex -9 -1.7 0
      vertex -16.7482 -4.44456 0
      vertex -9.85 -1.47224 0
    endloop
  endfacet
  facet normal 0 0 -1
    outer loop
      vertex -17.6366 -12.8137 0
      vertex -17.7431 -5.65685 0
      vertex -16.7482 -4.44456 0
    endloop
  endfacet
  facet normal 0 0 -1
    outer loop
      vertex -17.6366 -12.8137 0
      vertex -18.9554 -6.65176 0
      vertex -17.7431 -5.65685 0
    endloop
  endfacet
  facet normal 0 0 -1
    outer loop
      vertex -19.9153 -8.86686 0
      vertex -18.9554 -6.65176 0
      vertex -17.6366 -12.8137 0
    endloop
  endfacet
  facet normal 0 0 -1
    outer loop
      vertex -19.9153 -8.86686 0
      vertex -20.3385 -7.39104 0
      vertex -18.9554 -6.65176 0
    endloop
  endfacet
  facet normal 0 -0 -1
    outer loop
      vertex -20.3385 -7.39104 0
      vertex -19.9153 -8.86686 0
      vertex -20.3898 -7.40658 0
    endloop
  endfacet
  facet normal -0.587785 -0.809017 0
    outer loop
      vertex -14.587 -16.2006 0
      vertex -10.9 -18.8794 11.4
      vertex -14.587 -16.2006 11.4
    endloop
  endfacet
  facet normal -0.587785 -0.809017 -0
    outer loop
      vertex -10.9 -18.8794 11.4
      vertex -14.587 -16.2006 0
      vertex -10.9 -18.8794 0
    endloop
  endfacet
  facet normal -0.743145 -0.66913 0
    outer loop
      vertex -14.587 -16.2006 0
      vertex -17.6366 -12.8137 11.4
      vertex -17.6366 -12.8137 0
    endloop
  endfacet
  facet normal -0.743145 -0.66913 0
    outer loop
      vertex -17.6366 -12.8137 11.4
      vertex -14.587 -16.2006 0
      vertex -14.587 -16.2006 11.4
    endloop
  endfacet
  facet normal -0.951057 -0.309017 0
    outer loop
      vertex -19.9153 -8.86686 0
      vertex -20.3898 -7.40658 11.4
      vertex -20.3898 -7.40658 0
    endloop
  endfacet
  facet normal -0.951057 -0.309017 0
    outer loop
      vertex -20.3898 -7.40658 11.4
      vertex -19.9153 -8.86686 0
      vertex -19.9153 -8.86686 11.4
    endloop
  endfacet
  facet normal 0.866025 -0.5 0
    outer loop
      vertex 17.6366 -12.8137 11.4
      vertex 19.9153 -8.86686 0
      vertex 19.9153 -8.86686 11.4
    endloop
  endfacet
  facet normal 0.866025 -0.5 0
    outer loop
      vertex 19.9153 -8.86686 0
      vertex 17.6366 -12.8137 11.4
      vertex 17.6366 -12.8137 0
    endloop
  endfacet
  facet normal 0.743145 -0.66913 0
    outer loop
      vertex 14.587 -16.2006 11.4
      vertex 17.6366 -12.8137 0
      vertex 17.6366 -12.8137 11.4
    endloop
  endfacet
  facet normal 0.743145 -0.66913 0
    outer loop
      vertex 17.6366 -12.8137 0
      vertex 14.587 -16.2006 11.4
      vertex 14.587 -16.2006 0
    endloop
  endfacet
  facet normal 0.207911 -0.978148 0
    outer loop
      vertex 2.27872 -21.6806 0
      vertex 6.73657 -20.733 11.4
      vertex 2.27872 -21.6806 11.4
    endloop
  endfacet
  facet normal 0.207911 -0.978148 0
    outer loop
      vertex 6.73657 -20.733 11.4
      vertex 2.27872 -21.6806 0
      vertex 6.73657 -20.733 0
    endloop
  endfacet
  facet normal 0.951057 -0.309017 0
    outer loop
      vertex 19.9153 -8.86686 11.4
      vertex 21.3236 -4.53247 0
      vertex 21.3236 -4.53247 11.4
    endloop
  endfacet
  facet normal 0.951057 -0.309017 0
    outer loop
      vertex 21.3236 -4.53247 0
      vertex 19.9153 -8.86686 11.4
      vertex 19.9153 -8.86686 0
    endloop
  endfacet
  facet normal 0.994522 -0.104529 0
    outer loop
      vertex 21.3236 -4.53247 11.4
      vertex 21.8 0 5
      vertex 21.8 0 11.4
    endloop
  endfacet
  facet normal 0.994522 -0.104529 0
    outer loop
      vertex 21.3236 -4.53247 0
      vertex 21.8 0 5
      vertex 21.3236 -4.53247 11.4
    endloop
  endfacet
  facet normal 0.994522 -0.104529 0
    outer loop
      vertex 21.8 0 5
      vertex 21.3236 -4.53247 0
      vertex 21.8 0 0
    endloop
  endfacet
  facet normal -0.406737 -0.913545 0
    outer loop
      vertex -10.9 -18.8794 0
      vertex -6.73657 -20.733 11.4
      vertex -10.9 -18.8794 11.4
    endloop
  endfacet
  facet normal -0.406737 -0.913545 -0
    outer loop
      vertex -6.73657 -20.733 11.4
      vertex -10.9 -18.8794 0
      vertex -6.73657 -20.733 0
    endloop
  endfacet
  facet normal -0.207911 -0.978148 0
    outer loop
      vertex -6.73657 -20.733 0
      vertex -2.27872 -21.6806 11.4
      vertex -6.73657 -20.733 11.4
    endloop
  endfacet
  facet normal -0.207911 -0.978148 -0
    outer loop
      vertex -2.27872 -21.6806 11.4
      vertex -6.73657 -20.733 0
      vertex -2.27872 -21.6806 0
    endloop
  endfacet
  facet normal 0.406737 -0.913545 0
    outer loop
      vertex 6.73657 -20.733 0
      vertex 10.9 -18.8794 11.4
      vertex 6.73657 -20.733 11.4
    endloop
  endfacet
  facet normal 0.406737 -0.913545 0
    outer loop
      vertex 10.9 -18.8794 11.4
      vertex 6.73657 -20.733 0
      vertex 10.9 -18.8794 0
    endloop
  endfacet
  facet normal 0.587785 -0.809017 0
    outer loop
      vertex 10.9 -18.8794 0
      vertex 14.587 -16.2006 11.4
      vertex 10.9 -18.8794 11.4
    endloop
  endfacet
  facet normal 0.587785 -0.809017 0
    outer loop
      vertex 14.587 -16.2006 11.4
      vertex 10.9 -18.8794 0
      vertex 14.587 -16.2006 0
    endloop
  endfacet
  facet normal 0.951057 0.309017 0
    outer loop
      vertex -10.9625 -4.88084 11.4
      vertex -11.1196 -4.39748 5
      vertex -11.1196 -4.39748 11.4
    endloop
  endfacet
  facet normal 0.951057 0.309017 0
    outer loop
      vertex -11.1196 -4.39748 5
      vertex -10.9625 -4.88084 11.4
      vertex -10.9625 -4.88084 5
    endloop
  endfacet
  facet normal -0.866025 0.5 0
    outer loop
      vertex 9.7082 -7.05342 5
      vertex 10.9625 -4.88084 11.4
      vertex 10.9625 -4.88084 5
    endloop
  endfacet
  facet normal -0.866025 0.5 0
    outer loop
      vertex 10.9625 -4.88084 11.4
      vertex 9.7082 -7.05342 5
      vertex 9.7082 -7.05342 11.4
    endloop
  endfacet
  facet normal 0.587785 0.809017 -0
    outer loop
      vertex -6 -10.3923 5
      vertex -8.02957 -8.91774 11.4
      vertex -6 -10.3923 11.4
    endloop
  endfacet
  facet normal 0.587785 0.809017 0
    outer loop
      vertex -8.02957 -8.91774 11.4
      vertex -6 -10.3923 5
      vertex -8.02957 -8.91774 5
    endloop
  endfacet
  facet normal 0.866025 0.5 0
    outer loop
      vertex -9.7082 -7.05342 11.4
      vertex -10.9625 -4.88084 5
      vertex -10.9625 -4.88084 11.4
    endloop
  endfacet
  facet normal 0.866025 0.5 0
    outer loop
      vertex -10.9625 -4.88084 5
      vertex -9.7082 -7.05342 11.4
      vertex -9.7082 -7.05342 5
    endloop
  endfacet
  facet normal 0 1 -0
    outer loop
      vertex 1.25434 -11.9343 5
      vertex -1.25434 -11.9343 11.4
      vertex 1.25434 -11.9343 11.4
    endloop
  endfacet
  facet normal 0 1 0
    outer loop
      vertex -1.25434 -11.9343 11.4
      vertex 1.25434 -11.9343 5
      vertex -1.25434 -11.9343 5
    endloop
  endfacet
  facet normal 0.207912 0.978148 -0
    outer loop
      vertex -1.25434 -11.9343 5
      vertex -3.7082 -11.4127 11.4
      vertex -1.25434 -11.9343 11.4
    endloop
  endfacet
  facet normal 0.207912 0.978148 0
    outer loop
      vertex -3.7082 -11.4127 11.4
      vertex -1.25434 -11.9343 5
      vertex -3.7082 -11.4127 5
    endloop
  endfacet
  facet normal 0.406737 0.913545 -0
    outer loop
      vertex -3.7082 -11.4127 5
      vertex -6 -10.3923 11.4
      vertex -3.7082 -11.4127 11.4
    endloop
  endfacet
  facet normal 0.406737 0.913545 0
    outer loop
      vertex -6 -10.3923 11.4
      vertex -3.7082 -11.4127 5
      vertex -6 -10.3923 5
    endloop
  endfacet
  facet normal -0.951057 0.309017 0
    outer loop
      vertex 10.9625 -4.88084 5
      vertex 11.7378 -2.49494 11.4
      vertex 11.7378 -2.49494 5
    endloop
  endfacet
  facet normal -0.951057 0.309017 0
    outer loop
      vertex 11.7378 -2.49494 11.4
      vertex 10.9625 -4.88084 5
      vertex 10.9625 -4.88084 11.4
    endloop
  endfacet
  facet normal -0.994522 0.104528 0
    outer loop
      vertex 11.7908 -1.99027 5
      vertex 11.7378 -2.49494 5
      vertex 11.7908 -1.99027 6
    endloop
  endfacet
  facet normal -0.994522 0.104529 0
    outer loop
      vertex 11.7908 -1.99027 6
      vertex 12 0 11.4
      vertex 12 0 6
    endloop
  endfacet
  facet normal -0.994522 0.104528 0
    outer loop
      vertex 11.7378 -2.49494 11.4
      vertex 11.7908 -1.99027 6
      vertex 11.7378 -2.49494 5
    endloop
  endfacet
  facet normal -0.994522 0.104529 1.64984e-08
    outer loop
      vertex 11.7908 -1.99027 6
      vertex 11.7378 -2.49494 11.4
      vertex 12 0 11.4
    endloop
  endfacet
  facet normal -0.743145 0.669131 0
    outer loop
      vertex 8.02957 -8.91774 5
      vertex 9.7082 -7.05342 11.4
      vertex 9.7082 -7.05342 5
    endloop
  endfacet
  facet normal -0.743145 0.669131 0
    outer loop
      vertex 9.7082 -7.05342 11.4
      vertex 8.02957 -8.91774 5
      vertex 8.02957 -8.91774 11.4
    endloop
  endfacet
  facet normal 0.743145 0.669131 0
    outer loop
      vertex -8.02957 -8.91774 11.4
      vertex -9.7082 -7.05342 5
      vertex -9.7082 -7.05342 11.4
    endloop
  endfacet
  facet normal 0.743145 0.669131 0
    outer loop
      vertex -9.7082 -7.05342 5
      vertex -8.02957 -8.91774 11.4
      vertex -8.02957 -8.91774 5
    endloop
  endfacet
  facet normal -0.406737 0.913545 0
    outer loop
      vertex 6 -10.3923 5
      vertex 3.7082 -11.4127 11.4
      vertex 6 -10.3923 11.4
    endloop
  endfacet
  facet normal -0.406737 0.913545 0
    outer loop
      vertex 3.7082 -11.4127 11.4
      vertex 6 -10.3923 5
      vertex 3.7082 -11.4127 5
    endloop
  endfacet
  facet normal -0.587785 0.809017 0
    outer loop
      vertex 8.02957 -8.91774 5
      vertex 6 -10.3923 11.4
      vertex 8.02957 -8.91774 11.4
    endloop
  endfacet
  facet normal -0.587785 0.809017 0
    outer loop
      vertex 6 -10.3923 11.4
      vertex 8.02957 -8.91774 5
      vertex 6 -10.3923 5
    endloop
  endfacet
  facet normal -0.207912 0.978148 0
    outer loop
      vertex 3.7082 -11.4127 5
      vertex 1.25434 -11.9343 11.4
      vertex 3.7082 -11.4127 11.4
    endloop
  endfacet
  facet normal -0.207912 0.978148 0
    outer loop
      vertex 1.25434 -11.9343 11.4
      vertex 3.7082 -11.4127 5
      vertex 1.25434 -11.9343 5
    endloop
  endfacet
  facet normal 0 1 0
    outer loop
      vertex 21.8 0 11.4
      vertex 18.8 0 8.4
      vertex 12 0 11.4
    endloop
  endfacet
  facet normal 0 1 -0
    outer loop
      vertex 21.8 0 5
      vertex 18.8 0 8.4
      vertex 21.8 0 11.4
    endloop
  endfacet
  facet normal 0 1 0
    outer loop
      vertex 18.8 0 8.4
      vertex 21.8 0 5
      vertex 18.8 0 5
    endloop
  endfacet
  facet normal 0 1 -0
    outer loop
      vertex 12.3 0 8.4
      vertex 12 0 11.4
      vertex 18.8 0 8.4
    endloop
  endfacet
  facet normal 0 1 0
    outer loop
      vertex 12 0 6
      vertex 12.3 0 8.4
      vertex 12.3 0 6
    endloop
  endfacet
  facet normal 0 1 0
    outer loop
      vertex 12.3 0 8.4
      vertex 12 0 6
      vertex 12 0 11.4
    endloop
  endfacet
  facet normal -0.275637 0.961262 1.28767e-07
    outer loop
      vertex -17.6243 -6.26268 8.4
      vertex -11.1196 -4.39748 11.4
      vertex -11.4066 -4.47976 8.4
    endloop
  endfacet
  facet normal -0.275636 0.961262 0
    outer loop
      vertex -11.1196 -4.39748 5
      vertex -11.4066 -4.47976 8.4
      vertex -11.1196 -4.39748 11.4
    endloop
  endfacet
  facet normal -0.275636 0.961262 0
    outer loop
      vertex -11.4066 -4.47976 8.4
      vertex -11.1196 -4.39748 5
      vertex -11.4066 -4.47976 5
    endloop
  endfacet
  facet normal -0.275637 0.961262 -4.02612e-08
    outer loop
      vertex -11.1196 -4.39748 11.4
      vertex -17.6243 -6.26268 8.4
      vertex -18.9416 -6.6404 11.4
    endloop
  endfacet
  facet normal -0.275637 0.961262 0
    outer loop
      vertex -18.9416 -6.6404 5
      vertex -17.6243 -6.26268 8.4
      vertex -17.6243 -6.26268 5
    endloop
  endfacet
  facet normal -0.275637 0.961262 0
    outer loop
      vertex -17.6243 -6.26268 8.4
      vertex -18.9416 -6.6404 5
      vertex -18.9416 -6.6404 11.4
    endloop
  endfacet
  facet normal 0.965926 -0.25882 0
    outer loop
      vertex -10.7 0 3
      vertex -10.4722 0.849999 0
      vertex -10.4722 0.849999 3
    endloop
  endfacet
  facet normal 0.965926 -0.25882 0
    outer loop
      vertex -10.4722 0.849999 0
      vertex -10.7 0 3
      vertex -10.7 0 0
    endloop
  endfacet
  facet normal -0.965926 -0.25882 0
    outer loop
      vertex -7.3 0 0
      vertex -7.52776 0.849999 3
      vertex -7.52776 0.849999 0
    endloop
  endfacet
  facet normal -0.965926 -0.25882 0
    outer loop
      vertex -7.52776 0.849999 3
      vertex -7.3 0 0
      vertex -7.3 0 3
    endloop
  endfacet
  facet normal 0.25882 -0.965926 0
    outer loop
      vertex -9.85 1.47224 0
      vertex -9 1.7 3
      vertex -9.85 1.47224 3
    endloop
  endfacet
  facet normal 0.25882 -0.965926 0
    outer loop
      vertex -9 1.7 3
      vertex -9.85 1.47224 0
      vertex -9 1.7 0
    endloop
  endfacet
  facet normal 0.707107 -0.707107 0
    outer loop
      vertex -10.4722 0.849999 3
      vertex -9.85 1.47224 0
      vertex -9.85 1.47224 3
    endloop
  endfacet
  facet normal 0.707107 -0.707107 0
    outer loop
      vertex -9.85 1.47224 0
      vertex -10.4722 0.849999 3
      vertex -10.4722 0.849999 0
    endloop
  endfacet
  facet normal -0.25882 -0.965926 0
    outer loop
      vertex -9 1.7 0
      vertex -8.15 1.47224 3
      vertex -9 1.7 3
    endloop
  endfacet
  facet normal -0.25882 -0.965926 -0
    outer loop
      vertex -8.15 1.47224 3
      vertex -9 1.7 0
      vertex -8.15 1.47224 0
    endloop
  endfacet
  facet normal 0.25882 0.965926 -0
    outer loop
      vertex -9 -1.7 0
      vertex -9.85 -1.47224 3
      vertex -9 -1.7 3
    endloop
  endfacet
  facet normal 0.25882 0.965926 0
    outer loop
      vertex -9.85 -1.47224 3
      vertex -9 -1.7 0
      vertex -9.85 -1.47224 0
    endloop
  endfacet
  facet normal -0.707107 -0.707107 0
    outer loop
      vertex -7.52776 0.849999 0
      vertex -8.15 1.47224 3
      vertex -8.15 1.47224 0
    endloop
  endfacet
  facet normal -0.707107 -0.707107 0
    outer loop
      vertex -8.15 1.47224 3
      vertex -7.52776 0.849999 0
      vertex -7.52776 0.849999 3
    endloop
  endfacet
  facet normal 0.965926 0.25882 0
    outer loop
      vertex -10.4722 -0.849999 3
      vertex -10.7 0 0
      vertex -10.7 0 3
    endloop
  endfacet
  facet normal 0.965926 0.25882 0
    outer loop
      vertex -10.7 0 0
      vertex -10.4722 -0.849999 3
      vertex -10.4722 -0.849999 0
    endloop
  endfacet
  facet normal -0.25882 0.965926 0
    outer loop
      vertex -8.15 -1.47224 0
      vertex -9 -1.7 3
      vertex -8.15 -1.47224 3
    endloop
  endfacet
  facet normal -0.25882 0.965926 0
    outer loop
      vertex -9 -1.7 3
      vertex -8.15 -1.47224 0
      vertex -9 -1.7 0
    endloop
  endfacet
  facet normal -0.965926 0.25882 0
    outer loop
      vertex -7.52776 -0.849999 0
      vertex -7.3 0 3
      vertex -7.3 0 0
    endloop
  endfacet
  facet normal -0.965926 0.25882 0
    outer loop
      vertex -7.3 0 3
      vertex -7.52776 -0.849999 0
      vertex -7.52776 -0.849999 3
    endloop
  endfacet
  facet normal 0.707107 0.707107 0
    outer loop
      vertex -9.85 -1.47224 3
      vertex -10.4722 -0.849999 0
      vertex -10.4722 -0.849999 3
    endloop
  endfacet
  facet normal 0.707107 0.707107 0
    outer loop
      vertex -10.4722 -0.849999 0
      vertex -9.85 -1.47224 3
      vertex -9.85 -1.47224 0
    endloop
  endfacet
  facet normal -0.707107 0.707107 0
    outer loop
      vertex -8.15 -1.47224 0
      vertex -7.52776 -0.849999 3
      vertex -7.52776 -0.849999 0
    endloop
  endfacet
  facet normal -0.707107 0.707107 0
    outer loop
      vertex -7.52776 -0.849999 3
      vertex -8.15 -1.47224 0
      vertex -8.15 -1.47224 3
    endloop
  endfacet
  facet normal 0.965926 -0.258819 0
    outer loop
      vertex -12.5 0 5
      vertex -12.0311 1.75 3
      vertex -12.0311 1.75 5
    endloop
  endfacet
  facet normal 0.965926 -0.258819 0
    outer loop
      vertex -12.0311 1.75 3
      vertex -12.5 0 5
      vertex -12.5 0 3
    endloop
  endfacet
  facet normal -0.258819 -0.965926 0
    outer loop
      vertex -9 3.5 3
      vertex -7.25 3.03109 5
      vertex -9 3.5 5
    endloop
  endfacet
  facet normal -0.258819 -0.965926 -0
    outer loop
      vertex -7.25 3.03109 5
      vertex -9 3.5 3
      vertex -7.25 3.03109 3
    endloop
  endfacet
  facet normal 0.707107 -0.707107 0
    outer loop
      vertex -12.0311 1.75 5
      vertex -10.75 3.03109 3
      vertex -10.75 3.03109 5
    endloop
  endfacet
  facet normal 0.707107 -0.707107 0
    outer loop
      vertex -10.75 3.03109 3
      vertex -12.0311 1.75 5
      vertex -12.0311 1.75 3
    endloop
  endfacet
  facet normal -0.965926 0.258819 0
    outer loop
      vertex -5.96891 -1.75 3
      vertex -5.5 0 5
      vertex -5.5 0 3
    endloop
  endfacet
  facet normal -0.965926 0.258819 0
    outer loop
      vertex -5.5 0 5
      vertex -5.96891 -1.75 3
      vertex -5.96891 -1.75 5
    endloop
  endfacet
  facet normal -0.707107 -0.707107 0
    outer loop
      vertex -5.96891 1.75 3
      vertex -7.25 3.03109 5
      vertex -7.25 3.03109 3
    endloop
  endfacet
  facet normal -0.707107 -0.707107 0
    outer loop
      vertex -7.25 3.03109 5
      vertex -5.96891 1.75 3
      vertex -5.96891 1.75 5
    endloop
  endfacet
  facet normal 0.965926 0.258819 0
    outer loop
      vertex -12.0311 -1.75 5
      vertex -12.5 0 3
      vertex -12.5 0 5
    endloop
  endfacet
  facet normal 0.965926 0.258819 0
    outer loop
      vertex -12.5 0 3
      vertex -12.0311 -1.75 5
      vertex -12.0311 -1.75 3
    endloop
  endfacet
  facet normal 0.258819 -0.965926 0
    outer loop
      vertex -10.75 3.03109 3
      vertex -9 3.5 5
      vertex -10.75 3.03109 5
    endloop
  endfacet
  facet normal 0.258819 -0.965926 0
    outer loop
      vertex -9 3.5 5
      vertex -10.75 3.03109 3
      vertex -9 3.5 3
    endloop
  endfacet
  facet normal 0 0 1
    outer loop
      vertex -5.96891 1.75 3
      vertex -7.52776 0.849999 3
      vertex -7.3 0 3
    endloop
  endfacet
  facet normal 0 0 1
    outer loop
      vertex -7.25 3.03109 3
      vertex -8.15 1.47224 3
      vertex -7.52776 0.849999 3
    endloop
  endfacet
  facet normal 0 0 1
    outer loop
      vertex -9 3.5 3
      vertex -8.15 1.47224 3
      vertex -7.25 3.03109 3
    endloop
  endfacet
  facet normal 0 0 1
    outer loop
      vertex -9 3.5 3
      vertex -9 1.7 3
      vertex -8.15 1.47224 3
    endloop
  endfacet
  facet normal 0 0 1
    outer loop
      vertex -9 3.5 3
      vertex -9.85 1.47224 3
      vertex -9 1.7 3
    endloop
  endfacet
  facet normal -0 0 1
    outer loop
      vertex -10.75 3.03109 3
      vertex -9.85 1.47224 3
      vertex -9 3.5 3
    endloop
  endfacet
  facet normal -0 0 1
    outer loop
      vertex -12.0311 1.75 3
      vertex -10.4722 0.849999 3
      vertex -10.75 3.03109 3
    endloop
  endfacet
  facet normal 0 0 1
    outer loop
      vertex -9.85 1.47224 3
      vertex -10.75 3.03109 3
      vertex -10.4722 0.849999 3
    endloop
  endfacet
  facet normal 0 0 1
    outer loop
      vertex -7.3 0 3
      vertex -5.5 0 3
      vertex -5.96891 1.75 3
    endloop
  endfacet
  facet normal 0 0 1
    outer loop
      vertex -5.5 0 3
      vertex -7.3 0 3
      vertex -5.96891 -1.75 3
    endloop
  endfacet
  facet normal 0 0 1
    outer loop
      vertex -7.52776 0.849999 3
      vertex -5.96891 1.75 3
      vertex -7.25 3.03109 3
    endloop
  endfacet
  facet normal -0 0 1
    outer loop
      vertex -7.52776 -0.849999 3
      vertex -5.96891 -1.75 3
      vertex -7.3 0 3
    endloop
  endfacet
  facet normal 0 0 1
    outer loop
      vertex -5.96891 -1.75 3
      vertex -7.52776 -0.849999 3
      vertex -7.25 -3.03109 3
    endloop
  endfacet
  facet normal -0 0 1
    outer loop
      vertex -8.15 -1.47224 3
      vertex -7.25 -3.03109 3
      vertex -7.52776 -0.849999 3
    endloop
  endfacet
  facet normal -0 0 1
    outer loop
      vertex -9 -1.7 3
      vertex -7.25 -3.03109 3
      vertex -8.15 -1.47224 3
    endloop
  endfacet
  facet normal 0 0 1
    outer loop
      vertex -9 -1.7 3
      vertex -9 -3.5 3
      vertex -7.25 -3.03109 3
    endloop
  endfacet
  facet normal 0 0 1
    outer loop
      vertex -9.85 -1.47224 3
      vertex -9 -3.5 3
      vertex -9 -1.7 3
    endloop
  endfacet
  facet normal 0 0 1
    outer loop
      vertex -10.75 -3.03109 3
      vertex -9.85 -1.47224 3
      vertex -10.4722 -0.849999 3
    endloop
  endfacet
  facet normal 0 0 1
    outer loop
      vertex -9.85 -1.47224 3
      vertex -10.75 -3.03109 3
      vertex -9 -3.5 3
    endloop
  endfacet
  facet normal 0 0 1
    outer loop
      vertex -12.0311 -1.75 3
      vertex -10.4722 -0.849999 3
      vertex -10.7 0 3
    endloop
  endfacet
  facet normal 0 0 1
    outer loop
      vertex -10.4722 0.849999 3
      vertex -12.0311 1.75 3
      vertex -10.7 0 3
    endloop
  endfacet
  facet normal 0 0 1
    outer loop
      vertex -12.5 0 3
      vertex -10.7 0 3
      vertex -12.0311 1.75 3
    endloop
  endfacet
  facet normal 0 0 1
    outer loop
      vertex -10.4722 -0.849999 3
      vertex -12.0311 -1.75 3
      vertex -10.75 -3.03109 3
    endloop
  endfacet
  facet normal 0 0 1
    outer loop
      vertex -10.7 0 3
      vertex -12.5 0 3
      vertex -12.0311 -1.75 3
    endloop
  endfacet
  facet normal -0.965926 -0.258819 0
    outer loop
      vertex -5.5 0 3
      vertex -5.96891 1.75 5
      vertex -5.96891 1.75 3
    endloop
  endfacet
  facet normal -0.965926 -0.258819 0
    outer loop
      vertex -5.96891 1.75 5
      vertex -5.5 0 3
      vertex -5.5 0 5
    endloop
  endfacet
  facet normal -0.707107 0.707107 0
    outer loop
      vertex -7.25 -3.03109 3
      vertex -5.96891 -1.75 5
      vertex -5.96891 -1.75 3
    endloop
  endfacet
  facet normal -0.707107 0.707107 0
    outer loop
      vertex -5.96891 -1.75 5
      vertex -7.25 -3.03109 3
      vertex -7.25 -3.03109 5
    endloop
  endfacet
  facet normal 0.707107 0.707107 0
    outer loop
      vertex -10.75 -3.03109 5
      vertex -12.0311 -1.75 3
      vertex -12.0311 -1.75 5
    endloop
  endfacet
  facet normal 0.707107 0.707107 0
    outer loop
      vertex -12.0311 -1.75 3
      vertex -10.75 -3.03109 5
      vertex -10.75 -3.03109 3
    endloop
  endfacet
  facet normal 0.258819 0.965926 -0
    outer loop
      vertex -9 -3.5 3
      vertex -10.75 -3.03109 5
      vertex -9 -3.5 5
    endloop
  endfacet
  facet normal 0.258819 0.965926 0
    outer loop
      vertex -10.75 -3.03109 5
      vertex -9 -3.5 3
      vertex -10.75 -3.03109 3
    endloop
  endfacet
  facet normal -0.258819 0.965926 0
    outer loop
      vertex -7.25 -3.03109 3
      vertex -9 -3.5 5
      vertex -7.25 -3.03109 5
    endloop
  endfacet
  facet normal -0.258819 0.965926 0
    outer loop
      vertex -9 -3.5 5
      vertex -7.25 -3.03109 3
      vertex -9 -3.5 3
    endloop
  endfacet
  facet normal 0.965926 -0.25882 0
    outer loop
      vertex 7.3 0 3
      vertex 7.52776 0.849999 0
      vertex 7.52776 0.849999 3
    endloop
  endfacet
  facet normal 0.965926 -0.25882 0
    outer loop
      vertex 7.52776 0.849999 0
      vertex 7.3 0 3
      vertex 7.3 0 0
    endloop
  endfacet
  facet normal -0.965926 -0.25882 0
    outer loop
      vertex 10.7 0 0
      vertex 10.4722 0.849999 3
      vertex 10.4722 0.849999 0
    endloop
  endfacet
  facet normal -0.965926 -0.25882 0
    outer loop
      vertex 10.4722 0.849999 3
      vertex 10.7 0 0
      vertex 10.7 0 3
    endloop
  endfacet
  facet normal 0.25882 -0.965926 0
    outer loop
      vertex 8.15 1.47224 0
      vertex 9 1.7 3
      vertex 8.15 1.47224 3
    endloop
  endfacet
  facet normal 0.25882 -0.965926 0
    outer loop
      vertex 9 1.7 3
      vertex 8.15 1.47224 0
      vertex 9 1.7 0
    endloop
  endfacet
  facet normal 0.707107 -0.707107 0
    outer loop
      vertex 7.52776 0.849999 3
      vertex 8.15 1.47224 0
      vertex 8.15 1.47224 3
    endloop
  endfacet
  facet normal 0.707107 -0.707107 0
    outer loop
      vertex 8.15 1.47224 0
      vertex 7.52776 0.849999 3
      vertex 7.52776 0.849999 0
    endloop
  endfacet
  facet normal -0.25882 -0.965926 0
    outer loop
      vertex 9 1.7 0
      vertex 9.85 1.47224 3
      vertex 9 1.7 3
    endloop
  endfacet
  facet normal -0.25882 -0.965926 -0
    outer loop
      vertex 9.85 1.47224 3
      vertex 9 1.7 0
      vertex 9.85 1.47224 0
    endloop
  endfacet
  facet normal -0.25882 0.965926 0
    outer loop
      vertex 9.85 -1.47224 0
      vertex 9 -1.7 3
      vertex 9.85 -1.47224 3
    endloop
  endfacet
  facet normal -0.25882 0.965926 0
    outer loop
      vertex 9 -1.7 3
      vertex 9.85 -1.47224 0
      vertex 9 -1.7 0
    endloop
  endfacet
  facet normal 0.25882 0.965926 -0
    outer loop
      vertex 9 -1.7 0
      vertex 8.15 -1.47224 3
      vertex 9 -1.7 3
    endloop
  endfacet
  facet normal 0.25882 0.965926 0
    outer loop
      vertex 8.15 -1.47224 3
      vertex 9 -1.7 0
      vertex 8.15 -1.47224 0
    endloop
  endfacet
  facet normal -0.965926 0.25882 0
    outer loop
      vertex 10.4722 -0.849999 0
      vertex 10.7 0 3
      vertex 10.7 0 0
    endloop
  endfacet
  facet normal -0.965926 0.25882 0
    outer loop
      vertex 10.7 0 3
      vertex 10.4722 -0.849999 0
      vertex 10.4722 -0.849999 3
    endloop
  endfacet
  facet normal -0.707107 -0.707107 0
    outer loop
      vertex 10.4722 0.849999 0
      vertex 9.85 1.47224 3
      vertex 9.85 1.47224 0
    endloop
  endfacet
  facet normal -0.707107 -0.707107 0
    outer loop
      vertex 9.85 1.47224 3
      vertex 10.4722 0.849999 0
      vertex 10.4722 0.849999 3
    endloop
  endfacet
  facet normal 0.965926 0.25882 0
    outer loop
      vertex 7.52776 -0.849999 3
      vertex 7.3 0 0
      vertex 7.3 0 3
    endloop
  endfacet
  facet normal 0.965926 0.25882 0
    outer loop
      vertex 7.3 0 0
      vertex 7.52776 -0.849999 3
      vertex 7.52776 -0.849999 0
    endloop
  endfacet
  facet normal -0.707107 0.707107 0
    outer loop
      vertex 9.85 -1.47224 0
      vertex 10.4722 -0.849999 3
      vertex 10.4722 -0.849999 0
    endloop
  endfacet
  facet normal -0.707107 0.707107 0
    outer loop
      vertex 10.4722 -0.849999 3
      vertex 9.85 -1.47224 0
      vertex 9.85 -1.47224 3
    endloop
  endfacet
  facet normal 0.707107 0.707107 0
    outer loop
      vertex 8.15 -1.47224 3
      vertex 7.52776 -0.849999 0
      vertex 7.52776 -0.849999 3
    endloop
  endfacet
  facet normal 0.707107 0.707107 0
    outer loop
      vertex 7.52776 -0.849999 0
      vertex 8.15 -1.47224 3
      vertex 8.15 -1.47224 0
    endloop
  endfacet
  facet normal 0.965926 -0.258819 0
    outer loop
      vertex 5.5 0 5
      vertex 5.96891 1.75 3
      vertex 5.96891 1.75 5
    endloop
  endfacet
  facet normal 0.965926 -0.258819 0
    outer loop
      vertex 5.96891 1.75 3
      vertex 5.5 0 5
      vertex 5.5 0 3
    endloop
  endfacet
  facet normal -0.965926 -0.258819 0
    outer loop
      vertex 12.5 0 3
      vertex 12.0311 1.75 5
      vertex 12.0311 1.75 3
    endloop
  endfacet
  facet normal -0.965926 -0.258819 0
    outer loop
      vertex 12.0311 1.75 5
      vertex 12.5 0 3
      vertex 12.5 0 5
    endloop
  endfacet
  facet normal 0.258819 -0.965926 0
    outer loop
      vertex 7.25 3.03109 3
      vertex 9 3.5 5
      vertex 7.25 3.03109 5
    endloop
  endfacet
  facet normal 0.258819 -0.965926 0
    outer loop
      vertex 9 3.5 5
      vertex 7.25 3.03109 3
      vertex 9 3.5 3
    endloop
  endfacet
  facet normal 0.707107 -0.707107 0
    outer loop
      vertex 5.96891 1.75 5
      vertex 7.25 3.03109 3
      vertex 7.25 3.03109 5
    endloop
  endfacet
  facet normal 0.707107 -0.707107 0
    outer loop
      vertex 7.25 3.03109 3
      vertex 5.96891 1.75 5
      vertex 5.96891 1.75 3
    endloop
  endfacet
  facet normal -0.258819 -0.965926 0
    outer loop
      vertex 9 3.5 3
      vertex 10.75 3.03109 5
      vertex 9 3.5 5
    endloop
  endfacet
  facet normal -0.258819 -0.965926 -0
    outer loop
      vertex 10.75 3.03109 5
      vertex 9 3.5 3
      vertex 10.75 3.03109 3
    endloop
  endfacet
  facet normal 0 0 1
    outer loop
      vertex 10.7 0 3
      vertex 12.5 0 3
      vertex 12.0311 1.75 3
    endloop
  endfacet
  facet normal 0 0 1
    outer loop
      vertex 10.4722 0.849999 3
      vertex 12.0311 1.75 3
      vertex 10.75 3.03109 3
    endloop
  endfacet
  facet normal 0 0 1
    outer loop
      vertex 12.5 0 3
      vertex 10.7 0 3
      vertex 12.0311 -1.75 3
    endloop
  endfacet
  facet normal -0 0 1
    outer loop
      vertex 10.4722 -0.849999 3
      vertex 12.0311 -1.75 3
      vertex 10.7 0 3
    endloop
  endfacet
  facet normal 0 0 1
    outer loop
      vertex 12.0311 1.75 3
      vertex 10.4722 0.849999 3
      vertex 10.7 0 3
    endloop
  endfacet
  facet normal 0 0 1
    outer loop
      vertex 10.75 3.03109 3
      vertex 9.85 1.47224 3
      vertex 10.4722 0.849999 3
    endloop
  endfacet
  facet normal 0 0 1
    outer loop
      vertex 9 3.5 3
      vertex 9.85 1.47224 3
      vertex 10.75 3.03109 3
    endloop
  endfacet
  facet normal 0 0 1
    outer loop
      vertex 9 3.5 3
      vertex 9 1.7 3
      vertex 9.85 1.47224 3
    endloop
  endfacet
  facet normal 0 0 1
    outer loop
      vertex 9 3.5 3
      vertex 8.15 1.47224 3
      vertex 9 1.7 3
    endloop
  endfacet
  facet normal -0 0 1
    outer loop
      vertex 7.25 3.03109 3
      vertex 8.15 1.47224 3
      vertex 9 3.5 3
    endloop
  endfacet
  facet normal -0 0 1
    outer loop
      vertex 5.96891 1.75 3
      vertex 7.52776 0.849999 3
      vertex 7.25 3.03109 3
    endloop
  endfacet
  facet normal 0 0 1
    outer loop
      vertex 8.15 1.47224 3
      vertex 7.25 3.03109 3
      vertex 7.52776 0.849999 3
    endloop
  endfacet
  facet normal 0 0 1
    outer loop
      vertex 12.0311 -1.75 3
      vertex 10.4722 -0.849999 3
      vertex 10.75 -3.03109 3
    endloop
  endfacet
  facet normal -0 0 1
    outer loop
      vertex 9.85 -1.47224 3
      vertex 10.75 -3.03109 3
      vertex 10.4722 -0.849999 3
    endloop
  endfacet
  facet normal -0 0 1
    outer loop
      vertex 9 -1.7 3
      vertex 10.75 -3.03109 3
      vertex 9.85 -1.47224 3
    endloop
  endfacet
  facet normal 0 0 1
    outer loop
      vertex 9 -1.7 3
      vertex 9 -3.5 3
      vertex 10.75 -3.03109 3
    endloop
  endfacet
  facet normal 0 0 1
    outer loop
      vertex 8.15 -1.47224 3
      vertex 9 -3.5 3
      vertex 9 -1.7 3
    endloop
  endfacet
  facet normal 0 0 1
    outer loop
      vertex 7.25 -3.03109 3
      vertex 8.15 -1.47224 3
      vertex 7.52776 -0.849999 3
    endloop
  endfacet
  facet normal 0 0 1
    outer loop
      vertex 8.15 -1.47224 3
      vertex 7.25 -3.03109 3
      vertex 9 -3.5 3
    endloop
  endfacet
  facet normal 0 0 1
    outer loop
      vertex 5.96891 -1.75 3
      vertex 7.52776 -0.849999 3
      vertex 7.3 0 3
    endloop
  endfacet
  facet normal 0 0 1
    outer loop
      vertex 7.52776 0.849999 3
      vertex 5.96891 1.75 3
      vertex 7.3 0 3
    endloop
  endfacet
  facet normal 0 0 1
    outer loop
      vertex 5.5 0 3
      vertex 7.3 0 3
      vertex 5.96891 1.75 3
    endloop
  endfacet
  facet normal 0 0 1
    outer loop
      vertex 7.52776 -0.849999 3
      vertex 5.96891 -1.75 3
      vertex 7.25 -3.03109 3
    endloop
  endfacet
  facet normal 0 0 1
    outer loop
      vertex 7.3 0 3
      vertex 5.5 0 3
      vertex 5.96891 -1.75 3
    endloop
  endfacet
  facet normal -0.707107 -0.707107 0
    outer loop
      vertex 12.0311 1.75 3
      vertex 10.75 3.03109 5
      vertex 10.75 3.03109 3
    endloop
  endfacet
  facet normal -0.707107 -0.707107 0
    outer loop
      vertex 10.75 3.03109 5
      vertex 12.0311 1.75 3
      vertex 12.0311 1.75 5
    endloop
  endfacet
  facet normal 0 0 -1
    outer loop
      vertex 11.7908 -1.99027 6
      vertex 12.1709 -1.22817 6
      vertex 12.0311 -1.75 6
    endloop
  endfacet
  facet normal 0 0 -1
    outer loop
      vertex 12.1709 -1.22817 6
      vertex 12 0 6
      vertex 12.3 0 6
    endloop
  endfacet
  facet normal -0 0 -1
    outer loop
      vertex 12.1709 -1.22817 6
      vertex 11.7908 -1.99027 6
      vertex 12 0 6
    endloop
  endfacet
  facet normal 0.965926 0.258819 0
    outer loop
      vertex 5.96891 -1.75 5
      vertex 5.5 0 3
      vertex 5.5 0 5
    endloop
  endfacet
  facet normal 0.965926 0.258819 0
    outer loop
      vertex 5.5 0 3
      vertex 5.96891 -1.75 5
      vertex 5.96891 -1.75 3
    endloop
  endfacet
  facet normal 0.258819 0.965926 -0
    outer loop
      vertex 9 -3.5 3
      vertex 7.25 -3.03109 5
      vertex 9 -3.5 5
    endloop
  endfacet
  facet normal 0.258819 0.965926 0
    outer loop
      vertex 7.25 -3.03109 5
      vertex 9 -3.5 3
      vertex 7.25 -3.03109 3
    endloop
  endfacet
  facet normal -0.258819 0.965926 0
    outer loop
      vertex 10.75 -3.03109 3
      vertex 9 -3.5 5
      vertex 10.75 -3.03109 5
    endloop
  endfacet
  facet normal -0.258819 0.965926 0
    outer loop
      vertex 9 -3.5 5
      vertex 10.75 -3.03109 3
      vertex 9 -3.5 3
    endloop
  endfacet
  facet normal -0.965926 0.258819 0
    outer loop
      vertex 12.5 0 3
      vertex 12.1709 -1.22817 5
      vertex 12.5 0 5
    endloop
  endfacet
  facet normal -0.965926 0.258819 -3.7419e-08
    outer loop
      vertex 12.0311 -1.75 3
      vertex 12.1709 -1.22817 5
      vertex 12.5 0 3
    endloop
  endfacet
  facet normal -0.965926 0.258819 0
    outer loop
      vertex 12.0311 -1.75 6
      vertex 12.1709 -1.22817 5
      vertex 12.0311 -1.75 3
    endloop
  endfacet
  facet normal -0.965926 0.258819 0
    outer loop
      vertex 12.1709 -1.22817 5
      vertex 12.0311 -1.75 6
      vertex 12.1709 -1.22817 6
    endloop
  endfacet
  facet normal 0.707107 0.707107 -0
    outer loop
      vertex 7.25 -3.03109 3
      vertex 5.96891 -1.75 5
      vertex 7.25 -3.03109 5
    endloop
  endfacet
  facet normal 0.707107 0.707107 0
    outer loop
      vertex 5.96891 -1.75 5
      vertex 7.25 -3.03109 3
      vertex 5.96891 -1.75 3
    endloop
  endfacet
  facet normal -0.707107 0.707107 0
    outer loop
      vertex 12.0311 -1.75 3
      vertex 11.7908 -1.99027 5
      vertex 12.0311 -1.75 6
    endloop
  endfacet
  facet normal -0.707107 0.707107 -2.10922e-08
    outer loop
      vertex 10.75 -3.03109 3
      vertex 11.7908 -1.99027 5
      vertex 12.0311 -1.75 3
    endloop
  endfacet
  facet normal -0.707107 0.707106 0
    outer loop
      vertex 11.7908 -1.99027 5
      vertex 10.75 -3.03109 3
      vertex 10.75 -3.03109 5
    endloop
  endfacet
  facet normal -0.707107 0.707107 0
    outer loop
      vertex 12.0311 -1.75 6
      vertex 11.7908 -1.99027 5
      vertex 11.7908 -1.99027 6
    endloop
  endfacet
  facet normal -0.995185 -0.0980173 0
    outer loop
      vertex -15.4 0 0
      vertex -15.5537 1.56072 5
      vertex -15.5537 1.56072 0
    endloop
  endfacet
  facet normal -0.995185 -0.0980173 0
    outer loop
      vertex -15.5537 1.56072 5
      vertex -15.4 0 0
      vertex -15.4 0 5
    endloop
  endfacet
  facet normal -0.634393 -0.77301 0
    outer loop
      vertex -18.9554 6.65176 0
      vertex -17.7431 5.65685 5
      vertex -18.9554 6.65176 5
    endloop
  endfacet
  facet normal -0.634393 -0.77301 -0
    outer loop
      vertex -17.7431 5.65685 5
      vertex -18.9554 6.65176 0
      vertex -17.7431 5.65685 0
    endloop
  endfacet
  facet normal -0.290278 -0.956942 0
    outer loop
      vertex -20.3898 7.40658 0
      vertex -20.3385 7.39104 5
      vertex -20.3898 7.40658 5
    endloop
  endfacet
  facet normal -0.290278 -0.956942 -0
    outer loop
      vertex -20.3385 7.39104 5
      vertex -20.3898 7.40658 0
      vertex -20.3385 7.39104 0
    endloop
  endfacet
  facet normal -0.881922 -0.471396 0
    outer loop
      vertex -16.009 3.06147 0
      vertex -16.7482 4.44456 5
      vertex -16.7482 4.44456 0
    endloop
  endfacet
  facet normal -0.881922 -0.471396 0
    outer loop
      vertex -16.7482 4.44456 5
      vertex -16.009 3.06147 0
      vertex -16.009 3.06147 5
    endloop
  endfacet
  facet normal -0.77301 -0.634394 0
    outer loop
      vertex -16.7482 4.44456 0
      vertex -17.7431 5.65685 5
      vertex -17.7431 5.65685 0
    endloop
  endfacet
  facet normal -0.77301 -0.634394 0
    outer loop
      vertex -17.7431 5.65685 5
      vertex -16.7482 4.44456 0
      vertex -16.7482 4.44456 5
    endloop
  endfacet
  facet normal -0.95694 -0.290285 0
    outer loop
      vertex -15.5537 1.56072 0
      vertex -16.009 3.06147 5
      vertex -16.009 3.06147 0
    endloop
  endfacet
  facet normal -0.95694 -0.290285 0
    outer loop
      vertex -16.009 3.06147 5
      vertex -15.5537 1.56072 0
      vertex -15.5537 1.56072 5
    endloop
  endfacet
  facet normal -0.471397 -0.881921 0
    outer loop
      vertex -20.3385 7.39104 0
      vertex -18.9554 6.65176 5
      vertex -20.3385 7.39104 5
    endloop
  endfacet
  facet normal -0.471397 -0.881921 -0
    outer loop
      vertex -18.9554 6.65176 5
      vertex -20.3385 7.39104 0
      vertex -18.9554 6.65176 0
    endloop
  endfacet
  facet normal -0.634393 0.773011 0
    outer loop
      vertex -17.7431 -5.65685 5
      vertex -17.7431 -5.65685 0
      vertex -18.9416 -6.6404 5
    endloop
  endfacet
  facet normal -0.634439 0.772973 0
    outer loop
      vertex -18.9416 -6.6404 5
      vertex -18.9554 -6.65176 11.4
      vertex -18.9416 -6.6404 11.4
    endloop
  endfacet
  facet normal -0.634439 0.772973 0
    outer loop
      vertex -18.9416 -6.6404 5
      vertex -18.9554 -6.65176 0
      vertex -18.9554 -6.65176 11.4
    endloop
  endfacet
  facet normal -0.634393 0.77301 -2.12998e-07
    outer loop
      vertex -18.9554 -6.65176 0
      vertex -18.9416 -6.6404 5
      vertex -17.7431 -5.65685 0
    endloop
  endfacet
  facet normal -0.290278 0.956942 0
    outer loop
      vertex -20.3385 -7.39104 0
      vertex -20.3898 -7.40658 11.4
      vertex -20.3385 -7.39104 11.4
    endloop
  endfacet
  facet normal -0.290278 0.956942 0
    outer loop
      vertex -20.3898 -7.40658 11.4
      vertex -20.3385 -7.39104 0
      vertex -20.3898 -7.40658 0
    endloop
  endfacet
  facet normal -0.881922 0.471396 0
    outer loop
      vertex -16.7482 -4.44456 0
      vertex -16.009 -3.06147 5
      vertex -16.009 -3.06147 0
    endloop
  endfacet
  facet normal -0.881922 0.471396 0
    outer loop
      vertex -16.009 -3.06147 5
      vertex -16.7482 -4.44456 0
      vertex -16.7482 -4.44456 5
    endloop
  endfacet
  facet normal -0.77301 0.634394 0
    outer loop
      vertex -17.7431 -5.65685 0
      vertex -16.7482 -4.44456 5
      vertex -16.7482 -4.44456 0
    endloop
  endfacet
  facet normal -0.77301 0.634394 0
    outer loop
      vertex -16.7482 -4.44456 5
      vertex -17.7431 -5.65685 0
      vertex -17.7431 -5.65685 5
    endloop
  endfacet
  facet normal -0.995185 0.0980173 0
    outer loop
      vertex -15.5537 -1.56072 0
      vertex -15.4 0 5
      vertex -15.4 0 0
    endloop
  endfacet
  facet normal -0.995185 0.0980173 0
    outer loop
      vertex -15.4 0 5
      vertex -15.5537 -1.56072 0
      vertex -15.5537 -1.56072 5
    endloop
  endfacet
  facet normal -0.471397 0.881921 0
    outer loop
      vertex -18.9554 -6.65176 0
      vertex -20.3385 -7.39104 11.4
      vertex -18.9554 -6.65176 11.4
    endloop
  endfacet
  facet normal -0.471397 0.881921 0
    outer loop
      vertex -20.3385 -7.39104 11.4
      vertex -18.9554 -6.65176 0
      vertex -20.3385 -7.39104 0
    endloop
  endfacet
  facet normal -0.95694 0.290285 0
    outer loop
      vertex -16.009 -3.06147 0
      vertex -15.5537 -1.56072 5
      vertex -15.5537 -1.56072 0
    endloop
  endfacet
  facet normal -0.95694 0.290285 0
    outer loop
      vertex -15.5537 -1.56072 5
      vertex -16.009 -3.06147 0
      vertex -16.009 -3.06147 5
    endloop
  endfacet
endsolid OpenSCAD_Model
