solid OpenSCAD_Model
  facet normal -0.707107 -0.707107 0
    outer loop
      vertex 2.82843 0 0
      vertex 0 2.82843 3
      vertex 0 2.82843 0
    endloop
  endfacet
  facet normal -0.707107 -0.707107 0
    outer loop
      vertex 0 2.82843 3
      vertex 2.82843 0 0
      vertex 2.82843 0 3
    endloop
  endfacet
  facet normal -0.707107 0.707107 0
    outer loop
      vertex 0 36.1716 0
      vertex 2.82843 39 3
      vertex 2.82843 39 0
    endloop
  endfacet
  facet normal -0.707107 0.707107 0
    outer loop
      vertex 2.82843 39 3
      vertex 0 36.1716 0
      vertex 0 36.1716 3
    endloop
  endfacet
  facet normal 0.707107 0.707107 0
    outer loop
      vertex 40 36.1716 3
      vertex 37.1716 39 0
      vertex 37.1716 39 3
    endloop
  endfacet
  facet normal 0.707107 0.707107 0
    outer loop
      vertex 37.1716 39 0
      vertex 40 36.1716 3
      vertex 40 36.1716 0
    endloop
  endfacet
  facet normal 0.707107 -0.707107 0
    outer loop
      vertex 37.1716 0 3
      vertex 40 2.82843 0
      vertex 40 2.82843 3
    endloop
  endfacet
  facet normal 0.707107 -0.707107 0
    outer loop
      vertex 40 2.82843 0
      vertex 37.1716 0 3
      vertex 37.1716 0 0
    endloop
  endfacet
  facet normal -1 0 0
    outer loop
      vertex 0 36.1716 0
      vertex 0 24 3
      vertex 0 36.1716 3
    endloop
  endfacet
  facet normal -1 0 0
    outer loop
      vertex 0 24 3
      vertex 0 15 3
      vertex 0 24 16
    endloop
  endfacet
  facet normal -1 0 0
    outer loop
      vertex 0 36.1716 0
      vertex 0 15 3
      vertex 0 24 3
    endloop
  endfacet
  facet normal -1 0 0
    outer loop
      vertex 0 2.82843 0
      vertex 0 15 3
      vertex 0 36.1716 0
    endloop
  endfacet
  facet normal -1 -0 0
    outer loop
      vertex 0 15 3
      vertex 0 2.82843 0
      vertex 0 2.82843 3
    endloop
  endfacet
  facet normal -1 -0 0
    outer loop
      vertex 0 24 16
      vertex 0 15 3
      vertex 0 15 16
    endloop
  endfacet
  facet normal -0 0 1
    outer loop
      vertex 35.2517 8.8 3
      vertex 40 2.82843 3
      vertex 35.2517 30.2 3
    endloop
  endfacet
  facet normal 0 0 1
    outer loop
      vertex 40 2.82843 3
      vertex 35.2517 8.8 3
      vertex 35.6 7.5 3
    endloop
  endfacet
  facet normal -0 0 1
    outer loop
      vertex 34.3 29.2483 3
      vertex 35.2517 8.8 3
      vertex 35.2517 30.2 3
    endloop
  endfacet
  facet normal 0 0 1
    outer loop
      vertex 34.3 29.2483 3
      vertex 34.3 9.75167 3
      vertex 35.2517 8.8 3
    endloop
  endfacet
  facet normal -0 0 1
    outer loop
      vertex 33 28.9 3
      vertex 34.3 9.75167 3
      vertex 34.3 29.2483 3
    endloop
  endfacet
  facet normal 0 0 1
    outer loop
      vertex 33 28.9 3
      vertex 33 10.1 3
      vertex 34.3 9.75167 3
    endloop
  endfacet
  facet normal 0 0 1
    outer loop
      vertex 33 28.9 3
      vertex 17 24 3
      vertex 33 10.1 3
    endloop
  endfacet
  facet normal -0 0 1
    outer loop
      vertex 7 28.9 3
      vertex 17 24 3
      vertex 33 28.9 3
    endloop
  endfacet
  facet normal 0 0 1
    outer loop
      vertex 0 24 3
      vertex 7 28.9 3
      vertex 5.7 29.2483 3
    endloop
  endfacet
  facet normal 0 0 1
    outer loop
      vertex 4.74833 32.8 3
      vertex 0 36.1716 3
      vertex 4.4 31.5 3
    endloop
  endfacet
  facet normal 0 0 1
    outer loop
      vertex 0 24 3
      vertex 4.4 31.5 3
      vertex 0 36.1716 3
    endloop
  endfacet
  facet normal 0 0 1
    outer loop
      vertex 7 28.9 3
      vertex 0 24 3
      vertex 17 24 3
    endloop
  endfacet
  facet normal 0 0 1
    outer loop
      vertex 4.74833 30.2 3
      vertex 0 24 3
      vertex 5.7 29.2483 3
    endloop
  endfacet
  facet normal 0 0 1
    outer loop
      vertex 4.4 31.5 3
      vertex 0 24 3
      vertex 4.74833 30.2 3
    endloop
  endfacet
  facet normal 0 0 1
    outer loop
      vertex 34.3 33.7517 3
      vertex 40 36.1716 3
      vertex 37.1716 39 3
    endloop
  endfacet
  facet normal 0 0 1
    outer loop
      vertex 35.2517 30.2 3
      vertex 40 36.1716 3
      vertex 35.6 31.5 3
    endloop
  endfacet
  facet normal 0 0 1
    outer loop
      vertex 40 36.1716 3
      vertex 35.2517 30.2 3
      vertex 40 2.82843 3
    endloop
  endfacet
  facet normal 0 0 1
    outer loop
      vertex 40 36.1716 3
      vertex 35.2517 32.8 3
      vertex 35.6 31.5 3
    endloop
  endfacet
  facet normal 0 0 1
    outer loop
      vertex 40 36.1716 3
      vertex 34.3 33.7517 3
      vertex 35.2517 32.8 3
    endloop
  endfacet
  facet normal 0 0 1
    outer loop
      vertex 37.1716 39 3
      vertex 33 34.1 3
      vertex 34.3 33.7517 3
    endloop
  endfacet
  facet normal 0 0 1
    outer loop
      vertex 37.1716 39 3
      vertex 7 34.1 3
      vertex 33 34.1 3
    endloop
  endfacet
  facet normal 0 0 1
    outer loop
      vertex 5.7 33.7517 3
      vertex 0 36.1716 3
      vertex 4.74833 32.8 3
    endloop
  endfacet
  facet normal -0 0 1
    outer loop
      vertex 0 36.1716 3
      vertex 5.7 33.7517 3
      vertex 2.82843 39 3
    endloop
  endfacet
  facet normal 0 0 1
    outer loop
      vertex 7 34.1 3
      vertex 2.82843 39 3
      vertex 5.7 33.7517 3
    endloop
  endfacet
  facet normal -0 0 1
    outer loop
      vertex 2.82843 39 3
      vertex 7 34.1 3
      vertex 37.1716 39 3
    endloop
  endfacet
  facet normal -0 0 1
    outer loop
      vertex 35.2517 6.2 3
      vertex 40 2.82843 3
      vertex 35.6 7.5 3
    endloop
  endfacet
  facet normal -0 0 1
    outer loop
      vertex 34.3 5.24833 3
      vertex 40 2.82843 3
      vertex 35.2517 6.2 3
    endloop
  endfacet
  facet normal 0 0 1
    outer loop
      vertex 40 2.82843 3
      vertex 34.3 5.24833 3
      vertex 37.1716 0 3
    endloop
  endfacet
  facet normal -0 0 1
    outer loop
      vertex 33 4.9 3
      vertex 37.1716 0 3
      vertex 34.3 5.24833 3
    endloop
  endfacet
  facet normal -0 0 1
    outer loop
      vertex 7 4.9 3
      vertex 37.1716 0 3
      vertex 33 4.9 3
    endloop
  endfacet
  facet normal 0 0 1
    outer loop
      vertex 7 4.9 3
      vertex 2.82843 0 3
      vertex 37.1716 0 3
    endloop
  endfacet
  facet normal 0 0 1
    outer loop
      vertex 5.7 5.24833 3
      vertex 2.82843 0 3
      vertex 7 4.9 3
    endloop
  endfacet
  facet normal 0 0 1
    outer loop
      vertex 0 2.82843 3
      vertex 5.7 5.24833 3
      vertex 4.74833 6.2 3
    endloop
  endfacet
  facet normal 0 0 1
    outer loop
      vertex 0 2.82843 3
      vertex 4.74833 6.2 3
      vertex 4.4 7.5 3
    endloop
  endfacet
  facet normal -0 0 1
    outer loop
      vertex 17 15 3
      vertex 33 10.1 3
      vertex 17 24 3
    endloop
  endfacet
  facet normal 0 0 1
    outer loop
      vertex 17 15 3
      vertex 7 10.1 3
      vertex 33 10.1 3
    endloop
  endfacet
  facet normal -0 0 1
    outer loop
      vertex 0 15 3
      vertex 7 10.1 3
      vertex 17 15 3
    endloop
  endfacet
  facet normal 0 0 1
    outer loop
      vertex 7 10.1 3
      vertex 0 15 3
      vertex 5.7 9.75167 3
    endloop
  endfacet
  facet normal 0 0 1
    outer loop
      vertex 0 15 3
      vertex 4.74833 8.8 3
      vertex 5.7 9.75167 3
    endloop
  endfacet
  facet normal 0 0 1
    outer loop
      vertex 0 15 3
      vertex 4.4 7.5 3
      vertex 4.74833 8.8 3
    endloop
  endfacet
  facet normal 0 0 1
    outer loop
      vertex 0 2.82843 3
      vertex 4.4 7.5 3
      vertex 0 15 3
    endloop
  endfacet
  facet normal 0 0 1
    outer loop
      vertex 5.7 5.24833 3
      vertex 0 2.82843 3
      vertex 2.82843 0 3
    endloop
  endfacet
  facet normal 1 -0 0
    outer loop
      vertex 40 2.82843 3
      vertex 40 36.1716 0
      vertex 40 36.1716 3
    endloop
  endfacet
  facet normal 1 0 0
    outer loop
      vertex 40 36.1716 0
      vertex 40 2.82843 3
      vertex 40 2.82843 0
    endloop
  endfacet
  facet normal 0 1 -0
    outer loop
      vertex 37.1716 39 0
      vertex 2.82843 39 3
      vertex 37.1716 39 3
    endloop
  endfacet
  facet normal 0 1 0
    outer loop
      vertex 2.82843 39 3
      vertex 37.1716 39 0
      vertex 2.82843 39 0
    endloop
  endfacet
  facet normal -0 0 -1
    outer loop
      vertex 7 28.9 0
      vertex 3.75 20.799 0
      vertex 5.7 29.2483 0
    endloop
  endfacet
  facet normal 0 0 -1
    outer loop
      vertex 3 21 0
      vertex 5.7 29.2483 0
      vertex 3.75 20.799 0
    endloop
  endfacet
  facet normal 0 0 -1
    outer loop
      vertex 35.2517 30.2 0
      vertex 40 36.1716 0
      vertex 35.2517 8.8 0
    endloop
  endfacet
  facet normal 0 0 -1
    outer loop
      vertex 40 36.1716 0
      vertex 35.2517 30.2 0
      vertex 35.6 31.5 0
    endloop
  endfacet
  facet normal 0 0 -1
    outer loop
      vertex 34.3 9.75167 0
      vertex 35.2517 30.2 0
      vertex 35.2517 8.8 0
    endloop
  endfacet
  facet normal 0 0 -1
    outer loop
      vertex 34.3 9.75167 0
      vertex 34.3 29.2483 0
      vertex 35.2517 30.2 0
    endloop
  endfacet
  facet normal 0 0 -1
    outer loop
      vertex 33 10.1 0
      vertex 34.3 29.2483 0
      vertex 34.3 9.75167 0
    endloop
  endfacet
  facet normal 0 0 -1
    outer loop
      vertex 33 10.1 0
      vertex 33 28.9 0
      vertex 34.3 29.2483 0
    endloop
  endfacet
  facet normal 0 0 -1
    outer loop
      vertex 33 10.1 0
      vertex 15.5 19.5 0
      vertex 33 28.9 0
    endloop
  endfacet
  facet normal 0 0 -1
    outer loop
      vertex 33 10.1 0
      vertex 15.299 18.75 0
      vertex 15.5 19.5 0
    endloop
  endfacet
  facet normal 0 0 -1
    outer loop
      vertex 33 10.1 0
      vertex 14.75 18.201 0
      vertex 15.299 18.75 0
    endloop
  endfacet
  facet normal 0 0 -1
    outer loop
      vertex 7 10.1 0
      vertex 14.75 18.201 0
      vertex 33 10.1 0
    endloop
  endfacet
  facet normal 0 0 -1
    outer loop
      vertex 14.75 18.201 0
      vertex 7 10.1 0
      vertex 14 18 0
    endloop
  endfacet
  facet normal 0 0 -1
    outer loop
      vertex 4.29904 18.75 0
      vertex 12.701 18.75 0
      vertex 7 10.1 0
    endloop
  endfacet
  facet normal -0 0 -1
    outer loop
      vertex 13.25 18.201 0
      vertex 7 10.1 0
      vertex 12.701 18.75 0
    endloop
  endfacet
  facet normal -0 0 -1
    outer loop
      vertex 14 18 0
      vertex 7 10.1 0
      vertex 13.25 18.201 0
    endloop
  endfacet
  facet normal 0 0 -1
    outer loop
      vertex 34.3 5.24833 0
      vertex 40 2.82843 0
      vertex 37.1716 0 0
    endloop
  endfacet
  facet normal 0 0 -1
    outer loop
      vertex 35.2517 8.8 0
      vertex 40 2.82843 0
      vertex 35.6 7.5 0
    endloop
  endfacet
  facet normal 0 0 -1
    outer loop
      vertex 40 2.82843 0
      vertex 35.2517 8.8 0
      vertex 40 36.1716 0
    endloop
  endfacet
  facet normal 0 0 -1
    outer loop
      vertex 40 2.82843 0
      vertex 35.2517 6.2 0
      vertex 35.6 7.5 0
    endloop
  endfacet
  facet normal 0 0 -1
    outer loop
      vertex 40 2.82843 0
      vertex 34.3 5.24833 0
      vertex 35.2517 6.2 0
    endloop
  endfacet
  facet normal 0 0 -1
    outer loop
      vertex 37.1716 0 0
      vertex 33 4.9 0
      vertex 34.3 5.24833 0
    endloop
  endfacet
  facet normal 0 0 -1
    outer loop
      vertex 37.1716 0 0
      vertex 7 4.9 0
      vertex 33 4.9 0
    endloop
  endfacet
  facet normal 0 0 -1
    outer loop
      vertex 7 10.1 0
      vertex 3.75 18.201 0
      vertex 4.29904 18.75 0
    endloop
  endfacet
  facet normal 0 0 -1
    outer loop
      vertex 4.74833 8.8 0
      vertex 3 18 0
      vertex 3.75 18.201 0
    endloop
  endfacet
  facet normal 0 0 -1
    outer loop
      vertex 2.82843 0 0
      vertex 7 4.9 0
      vertex 37.1716 0 0
    endloop
  endfacet
  facet normal 0 0 -1
    outer loop
      vertex 2.82843 0 0
      vertex 5.7 5.24833 0
      vertex 7 4.9 0
    endloop
  endfacet
  facet normal 0 0 -1
    outer loop
      vertex 0 2.82843 0
      vertex 5.7 5.24833 0
      vertex 2.82843 0 0
    endloop
  endfacet
  facet normal -0 0 -1
    outer loop
      vertex 5.7 5.24833 0
      vertex 0 2.82843 0
      vertex 4.74833 6.2 0
    endloop
  endfacet
  facet normal -0 0 -1
    outer loop
      vertex 4.74833 6.2 0
      vertex 0 2.82843 0
      vertex 4.4 7.5 0
    endloop
  endfacet
  facet normal -0 0 -1
    outer loop
      vertex 4.74833 8.8 0
      vertex 0 2.82843 0
      vertex 2.25 18.201 0
    endloop
  endfacet
  facet normal 0 0 -1
    outer loop
      vertex 4.74833 8.8 0
      vertex 2.25 18.201 0
      vertex 3 18 0
    endloop
  endfacet
  facet normal -0 0 -1
    outer loop
      vertex 2.25 18.201 0
      vertex 0 2.82843 0
      vertex 1.70096 18.75 0
    endloop
  endfacet
  facet normal -0 0 -1
    outer loop
      vertex 1.70096 18.75 0
      vertex 0 2.82843 0
      vertex 1.5 19.5 0
    endloop
  endfacet
  facet normal 0 0 -1
    outer loop
      vertex 35.2517 32.8 0
      vertex 40 36.1716 0
      vertex 35.6 31.5 0
    endloop
  endfacet
  facet normal 0 0 -1
    outer loop
      vertex 34.3 33.7517 0
      vertex 40 36.1716 0
      vertex 35.2517 32.8 0
    endloop
  endfacet
  facet normal -0 0 -1
    outer loop
      vertex 40 36.1716 0
      vertex 34.3 33.7517 0
      vertex 37.1716 39 0
    endloop
  endfacet
  facet normal 0 0 -1
    outer loop
      vertex 33 34.1 0
      vertex 37.1716 39 0
      vertex 34.3 33.7517 0
    endloop
  endfacet
  facet normal 0 0 -1
    outer loop
      vertex 7 34.1 0
      vertex 37.1716 39 0
      vertex 33 34.1 0
    endloop
  endfacet
  facet normal -0 0 -1
    outer loop
      vertex 5.7 29.2483 0
      vertex 3 21 0
      vertex 4.74833 30.2 0
    endloop
  endfacet
  facet normal 0 0 -1
    outer loop
      vertex 2.25 20.799 0
      vertex 4.74833 30.2 0
      vertex 3 21 0
    endloop
  endfacet
  facet normal 0 0 -1
    outer loop
      vertex 7 34.1 0
      vertex 2.82843 39 0
      vertex 37.1716 39 0
    endloop
  endfacet
  facet normal 0 0 -1
    outer loop
      vertex 5.7 33.7517 0
      vertex 2.82843 39 0
      vertex 7 34.1 0
    endloop
  endfacet
  facet normal 0 0 -1
    outer loop
      vertex 0 36.1716 0
      vertex 5.7 33.7517 0
      vertex 4.74833 32.8 0
    endloop
  endfacet
  facet normal 0 0 -1
    outer loop
      vertex 0 36.1716 0
      vertex 4.74833 32.8 0
      vertex 4.4 31.5 0
    endloop
  endfacet
  facet normal 0 0 -1
    outer loop
      vertex 0 36.1716 0
      vertex 4.74833 30.2 0
      vertex 2.25 20.799 0
    endloop
  endfacet
  facet normal 0 0 -1
    outer loop
      vertex 4.74833 30.2 0
      vertex 0 36.1716 0
      vertex 4.4 31.5 0
    endloop
  endfacet
  facet normal 0 0 -1
    outer loop
      vertex 0 36.1716 0
      vertex 2.25 20.799 0
      vertex 1.70096 20.25 0
    endloop
  endfacet
  facet normal 0 0 -1
    outer loop
      vertex 0 36.1716 0
      vertex 1.70096 20.25 0
      vertex 1.5 19.5 0
    endloop
  endfacet
  facet normal 0 0 -1
    outer loop
      vertex 0 36.1716 0
      vertex 1.5 19.5 0
      vertex 0 2.82843 0
    endloop
  endfacet
  facet normal 0 0 -1
    outer loop
      vertex 5.7 33.7517 0
      vertex 0 36.1716 0
      vertex 2.82843 39 0
    endloop
  endfacet
  facet normal 0 0 -1
    outer loop
      vertex 15.299 20.25 0
      vertex 33 28.9 0
      vertex 15.5 19.5 0
    endloop
  endfacet
  facet normal 0 0 -1
    outer loop
      vertex 14.75 20.799 0
      vertex 33 28.9 0
      vertex 15.299 20.25 0
    endloop
  endfacet
  facet normal 0 0 -1
    outer loop
      vertex 7 28.9 0
      vertex 14.75 20.799 0
      vertex 14 21 0
    endloop
  endfacet
  facet normal 0 0 -1
    outer loop
      vertex 7 28.9 0
      vertex 14 21 0
      vertex 13.25 20.799 0
    endloop
  endfacet
  facet normal 0 0 -1
    outer loop
      vertex 12.701 18.75 0
      vertex 4.29904 18.75 0
      vertex 12.5 19.5 0
    endloop
  endfacet
  facet normal 0 0 -1
    outer loop
      vertex 14.75 20.799 0
      vertex 7 28.9 0
      vertex 33 28.9 0
    endloop
  endfacet
  facet normal 0 0 -1
    outer loop
      vertex 12.701 20.25 0
      vertex 7 28.9 0
      vertex 13.25 20.799 0
    endloop
  endfacet
  facet normal 0 -0 -1
    outer loop
      vertex 4.5 19.5 0
      vertex 12.5 19.5 0
      vertex 4.29904 18.75 0
    endloop
  endfacet
  facet normal 0 0 -1
    outer loop
      vertex 3.75 18.201 0
      vertex 7 10.1 0
      vertex 5.7 9.75167 0
    endloop
  endfacet
  facet normal 0 0 -1
    outer loop
      vertex 4.29904 20.25 0
      vertex 12.701 20.25 0
      vertex 4.5 19.5 0
    endloop
  endfacet
  facet normal 0 0 -1
    outer loop
      vertex 3.75 18.201 0
      vertex 5.7 9.75167 0
      vertex 4.74833 8.8 0
    endloop
  endfacet
  facet normal 0 0 -1
    outer loop
      vertex 12.701 20.25 0
      vertex 4.29904 20.25 0
      vertex 7 28.9 0
    endloop
  endfacet
  facet normal 0 0 -1
    outer loop
      vertex 3.75 20.799 0
      vertex 7 28.9 0
      vertex 4.29904 20.25 0
    endloop
  endfacet
  facet normal 0 0 -1
    outer loop
      vertex 0 2.82843 0
      vertex 4.74833 8.8 0
      vertex 4.4 7.5 0
    endloop
  endfacet
  facet normal 0 0 -1
    outer loop
      vertex 12.5 19.5 0
      vertex 4.5 19.5 0
      vertex 12.701 20.25 0
    endloop
  endfacet
  facet normal 0 -1 0
    outer loop
      vertex 2.82843 0 0
      vertex 37.1716 0 3
      vertex 2.82843 0 3
    endloop
  endfacet
  facet normal 0 -1 -0
    outer loop
      vertex 37.1716 0 3
      vertex 2.82843 0 0
      vertex 37.1716 0 0
    endloop
  endfacet
  facet normal 0 0 1
    outer loop
      vertex 17 24 16
      vertex 15.8333 19.5 16
      vertex 17 15 16
    endloop
  endfacet
  facet normal 0 0 1
    outer loop
      vertex 17 24 16
      vertex 15.7663 19.75 16
      vertex 15.8333 19.5 16
    endloop
  endfacet
  facet normal 0 0 1
    outer loop
      vertex 17 24 16
      vertex 15.5877 20.4167 16
      vertex 15.7663 19.75 16
    endloop
  endfacet
  facet normal 0 0 1
    outer loop
      vertex 17 24 16
      vertex 15.4047 20.5997 16
      vertex 15.5877 20.4167 16
    endloop
  endfacet
  facet normal 0 0 1
    outer loop
      vertex 17 24 16
      vertex 14.9167 21.0877 16
      vertex 15.4047 20.5997 16
    endloop
  endfacet
  facet normal 0 0 1
    outer loop
      vertex 17 24 16
      vertex 14.25 21.2663 16
      vertex 14.9167 21.0877 16
    endloop
  endfacet
  facet normal 0 0 1
    outer loop
      vertex 17 24 16
      vertex 14 21.3333 16
      vertex 14.25 21.2663 16
    endloop
  endfacet
  facet normal 0 0 1
    outer loop
      vertex 17 24 16
      vertex 13.75 21.2663 16
      vertex 14 21.3333 16
    endloop
  endfacet
  facet normal 0 0 1
    outer loop
      vertex 17 24 16
      vertex 13.0833 21.0877 16
      vertex 13.75 21.2663 16
    endloop
  endfacet
  facet normal 0 0 1
    outer loop
      vertex 12.2337 19.75 16
      vertex 4.83333 19.5 16
      vertex 12.1667 19.5 16
    endloop
  endfacet
  facet normal 0 0 1
    outer loop
      vertex 4.76635 19.75 16
      vertex 12.2337 19.75 16
      vertex 12.4123 20.4167 16
    endloop
  endfacet
  facet normal -0 0 1
    outer loop
      vertex 4.4047 20.5997 16
      vertex 12.4123 20.4167 16
      vertex 13.0833 21.0877 16
    endloop
  endfacet
  facet normal 0 0 1
    outer loop
      vertex 3.91667 21.0877 16
      vertex 13.0833 21.0877 16
      vertex 17 24 16
    endloop
  endfacet
  facet normal 0 0 1
    outer loop
      vertex 12.2337 19.75 16
      vertex 4.76635 19.75 16
      vertex 4.83333 19.5 16
    endloop
  endfacet
  facet normal 0 0 1
    outer loop
      vertex 12.4123 20.4167 16
      vertex 4.58771 20.4167 16
      vertex 4.76635 19.75 16
    endloop
  endfacet
  facet normal 0 0 1
    outer loop
      vertex 12.4123 20.4167 16
      vertex 4.4047 20.5997 16
      vertex 4.58771 20.4167 16
    endloop
  endfacet
  facet normal 0 0 1
    outer loop
      vertex 13.0833 21.0877 16
      vertex 3.91667 21.0877 16
      vertex 4.4047 20.5997 16
    endloop
  endfacet
  facet normal -0 0 1
    outer loop
      vertex 0 24 16
      vertex 3.91667 21.0877 16
      vertex 17 24 16
    endloop
  endfacet
  facet normal 0 0 1
    outer loop
      vertex 3.91667 21.0877 16
      vertex 0 24 16
      vertex 3.25 21.2663 16
    endloop
  endfacet
  facet normal 0 0 1
    outer loop
      vertex 0 24 16
      vertex 2.75 21.2663 16
      vertex 3 21.3333 16
    endloop
  endfacet
  facet normal 0 0 1
    outer loop
      vertex 1.23365 19.75 16
      vertex 0 24 16
      vertex 1.16667 19.5 16
    endloop
  endfacet
  facet normal 0 0 1
    outer loop
      vertex 1.41229 20.4167 16
      vertex 0 24 16
      vertex 1.23365 19.75 16
    endloop
  endfacet
  facet normal 0 0 1
    outer loop
      vertex 2.08333 21.0877 16
      vertex 0 24 16
      vertex 1.41229 20.4167 16
    endloop
  endfacet
  facet normal 0 0 1
    outer loop
      vertex 2.75 21.2663 16
      vertex 0 24 16
      vertex 2.08333 21.0877 16
    endloop
  endfacet
  facet normal 0 0 1
    outer loop
      vertex 3.25 21.2663 16
      vertex 0 24 16
      vertex 3 21.3333 16
    endloop
  endfacet
  facet normal -0 0 1
    outer loop
      vertex 15.7663 19.25 16
      vertex 17 15 16
      vertex 15.8333 19.5 16
    endloop
  endfacet
  facet normal -0 0 1
    outer loop
      vertex 15.5877 18.5833 16
      vertex 17 15 16
      vertex 15.7663 19.25 16
    endloop
  endfacet
  facet normal -0 0 1
    outer loop
      vertex 14.9167 17.9123 16
      vertex 17 15 16
      vertex 15.5877 18.5833 16
    endloop
  endfacet
  facet normal -0 0 1
    outer loop
      vertex 14.25 17.7337 16
      vertex 17 15 16
      vertex 14.9167 17.9123 16
    endloop
  endfacet
  facet normal -0 0 1
    outer loop
      vertex 14 17.6667 16
      vertex 17 15 16
      vertex 14.25 17.7337 16
    endloop
  endfacet
  facet normal 0 0 1
    outer loop
      vertex 13.75 17.7337 16
      vertex 17 15 16
      vertex 14 17.6667 16
    endloop
  endfacet
  facet normal 0 0 1
    outer loop
      vertex 13.0833 17.9123 16
      vertex 17 15 16
      vertex 13.75 17.7337 16
    endloop
  endfacet
  facet normal -0 0 1
    outer loop
      vertex 4.58771 18.5833 16
      vertex 12.5953 18.4003 16
      vertex 12.4123 18.5833 16
    endloop
  endfacet
  facet normal -0 0 1
    outer loop
      vertex 4.83333 19.5 16
      vertex 12.2337 19.25 16
      vertex 12.1667 19.5 16
    endloop
  endfacet
  facet normal 0 0 1
    outer loop
      vertex 4.76635 19.25 16
      vertex 12.2337 19.25 16
      vertex 4.83333 19.5 16
    endloop
  endfacet
  facet normal 0 0 1
    outer loop
      vertex 12.2337 19.25 16
      vertex 4.76635 19.25 16
      vertex 12.4123 18.5833 16
    endloop
  endfacet
  facet normal 0 0 1
    outer loop
      vertex 4.58771 18.5833 16
      vertex 12.4123 18.5833 16
      vertex 4.76635 19.25 16
    endloop
  endfacet
  facet normal 0 0 1
    outer loop
      vertex 3.91667 17.9123 16
      vertex 12.5953 18.4003 16
      vertex 4.58771 18.5833 16
    endloop
  endfacet
  facet normal 0 0 1
    outer loop
      vertex 12.5953 18.4003 16
      vertex 3.91667 17.9123 16
      vertex 13.0833 17.9123 16
    endloop
  endfacet
  facet normal 0 0 1
    outer loop
      vertex 13.0833 17.9123 16
      vertex 3.91667 17.9123 16
      vertex 17 15 16
    endloop
  endfacet
  facet normal 0 0 1
    outer loop
      vertex 0 15 16
      vertex 3.91667 17.9123 16
      vertex 3.25 17.7337 16
    endloop
  endfacet
  facet normal 0 0 1
    outer loop
      vertex 0 15 16
      vertex 3.25 17.7337 16
      vertex 3 17.6667 16
    endloop
  endfacet
  facet normal 0 0 1
    outer loop
      vertex 0 15 16
      vertex 2.75 17.7337 16
      vertex 2.08333 17.9123 16
    endloop
  endfacet
  facet normal 0 0 1
    outer loop
      vertex 0 15 16
      vertex 1.5953 18.4003 16
      vertex 1.41229 18.5833 16
    endloop
  endfacet
  facet normal 0 0 1
    outer loop
      vertex 3.91667 17.9123 16
      vertex 0 15 16
      vertex 17 15 16
    endloop
  endfacet
  facet normal 0 0 1
    outer loop
      vertex 2.75 17.7337 16
      vertex 0 15 16
      vertex 3 17.6667 16
    endloop
  endfacet
  facet normal 0 0 1
    outer loop
      vertex 1.5953 18.4003 16
      vertex 0 15 16
      vertex 2.08333 17.9123 16
    endloop
  endfacet
  facet normal 0 0 1
    outer loop
      vertex 1.23365 19.25 16
      vertex 0 15 16
      vertex 1.41229 18.5833 16
    endloop
  endfacet
  facet normal 0 0 1
    outer loop
      vertex 1.16667 19.5 16
      vertex 0 15 16
      vertex 1.23365 19.25 16
    endloop
  endfacet
  facet normal 0 0 1
    outer loop
      vertex 0 15 16
      vertex 1.16667 19.5 16
      vertex 0 24 16
    endloop
  endfacet
  facet normal 1 -0 0
    outer loop
      vertex 17 15 16
      vertex 17 24 3
      vertex 17 24 16
    endloop
  endfacet
  facet normal 1 0 0
    outer loop
      vertex 17 24 3
      vertex 17 15 16
      vertex 17 15 3
    endloop
  endfacet
  facet normal 0 1 -0
    outer loop
      vertex 17 24 3
      vertex 0 24 16
      vertex 17 24 16
    endloop
  endfacet
  facet normal 0 1 0
    outer loop
      vertex 0 24 16
      vertex 17 24 3
      vertex 0 24 3
    endloop
  endfacet
  facet normal 0 -1 0
    outer loop
      vertex 0 15 3
      vertex 17 15 16
      vertex 0 15 16
    endloop
  endfacet
  facet normal 0 -1 -0
    outer loop
      vertex 17 15 16
      vertex 0 15 3
      vertex 17 15 3
    endloop
  endfacet
  facet normal -0.965926 -0.258819 0
    outer loop
      vertex 4.5 19.5 0
      vertex 4.29904 20.25 14
      vertex 4.29904 20.25 0
    endloop
  endfacet
  facet normal -0.965926 -0.258819 0
    outer loop
      vertex 4.29904 20.25 14
      vertex 4.5 19.5 0
      vertex 4.5 19.5 14
    endloop
  endfacet
  facet normal 0.965926 -0.258819 0
    outer loop
      vertex 1.5 19.5 14
      vertex 1.70096 20.25 0
      vertex 1.70096 20.25 14
    endloop
  endfacet
  facet normal 0.965926 -0.258819 0
    outer loop
      vertex 1.70096 20.25 0
      vertex 1.5 19.5 14
      vertex 1.5 19.5 0
    endloop
  endfacet
  facet normal -0.258819 -0.965926 0
    outer loop
      vertex 3 21 0
      vertex 3.75 20.799 14
      vertex 3 21 14
    endloop
  endfacet
  facet normal -0.258819 -0.965926 -0
    outer loop
      vertex 3.75 20.799 14
      vertex 3 21 0
      vertex 3.75 20.799 0
    endloop
  endfacet
  facet normal -0.707107 -0.707107 0
    outer loop
      vertex 4.29904 20.25 0
      vertex 3.75 20.799 14
      vertex 3.75 20.799 0
    endloop
  endfacet
  facet normal -0.707107 -0.707107 0
    outer loop
      vertex 3.75 20.799 14
      vertex 4.29904 20.25 0
      vertex 4.29904 20.25 14
    endloop
  endfacet
  facet normal 0.25882 -0.965926 0
    outer loop
      vertex 2.25 20.799 0
      vertex 3 21 14
      vertex 2.25 20.799 14
    endloop
  endfacet
  facet normal 0.25882 -0.965926 0
    outer loop
      vertex 3 21 14
      vertex 2.25 20.799 0
      vertex 3 21 0
    endloop
  endfacet
  facet normal 0.965926 0.258819 0
    outer loop
      vertex 1.70096 18.75 14
      vertex 1.5 19.5 0
      vertex 1.5 19.5 14
    endloop
  endfacet
  facet normal 0.965926 0.258819 0
    outer loop
      vertex 1.5 19.5 0
      vertex 1.70096 18.75 14
      vertex 1.70096 18.75 0
    endloop
  endfacet
  facet normal 0.707106 -0.707107 0
    outer loop
      vertex 1.70096 20.25 0
      vertex 2.25 20.799 14
      vertex 1.70096 20.25 14
    endloop
  endfacet
  facet normal 0.707106 -0.707107 0
    outer loop
      vertex 2.25 20.799 14
      vertex 1.70096 20.25 0
      vertex 2.25 20.799 0
    endloop
  endfacet
  facet normal -0.965926 0.258819 0
    outer loop
      vertex 4.29904 18.75 0
      vertex 4.5 19.5 14
      vertex 4.5 19.5 0
    endloop
  endfacet
  facet normal -0.965926 0.258819 0
    outer loop
      vertex 4.5 19.5 14
      vertex 4.29904 18.75 0
      vertex 4.29904 18.75 14
    endloop
  endfacet
  facet normal -0.258819 0.965926 0
    outer loop
      vertex 3.75 18.201 0
      vertex 3 18 14
      vertex 3.75 18.201 14
    endloop
  endfacet
  facet normal -0.258819 0.965926 0
    outer loop
      vertex 3 18 14
      vertex 3.75 18.201 0
      vertex 3 18 0
    endloop
  endfacet
  facet normal -0.707107 0.707107 0
    outer loop
      vertex 3.75 18.201 0
      vertex 4.29904 18.75 14
      vertex 4.29904 18.75 0
    endloop
  endfacet
  facet normal -0.707107 0.707107 0
    outer loop
      vertex 4.29904 18.75 14
      vertex 3.75 18.201 0
      vertex 3.75 18.201 14
    endloop
  endfacet
  facet normal 0.258819 0.965926 -0
    outer loop
      vertex 3 18 0
      vertex 2.25 18.201 14
      vertex 3 18 14
    endloop
  endfacet
  facet normal 0.258819 0.965926 0
    outer loop
      vertex 2.25 18.201 14
      vertex 3 18 0
      vertex 2.25 18.201 0
    endloop
  endfacet
  facet normal 0.707107 0.707107 0
    outer loop
      vertex 2.25 18.201 14
      vertex 1.70096 18.75 0
      vertex 1.70096 18.75 14
    endloop
  endfacet
  facet normal 0.707107 0.707107 0
    outer loop
      vertex 1.70096 18.75 0
      vertex 2.25 18.201 14
      vertex 2.25 18.201 0
    endloop
  endfacet
  facet normal -0.953647 -0.255529 0.158941
    outer loop
      vertex 4.5 19.5 14
      vertex 4.76635 19.75 16
      vertex 4.29904 20.25 14
    endloop
  endfacet
  facet normal -0.953647 -0.25553 0.158941
    outer loop
      vertex 4.76635 19.75 16
      vertex 4.5 19.5 14
      vertex 4.83333 19.5 16
    endloop
  endfacet
  facet normal 0.953647 0.25553 0.158941
    outer loop
      vertex 1.41229 18.5833 16
      vertex 1.70096 18.75 14
      vertex 1.23365 19.25 16
    endloop
  endfacet
  facet normal 0.255529 -0.953647 0.158941
    outer loop
      vertex 2.25 20.799 14
      vertex 2.75 21.2663 16
      vertex 2.08333 21.0877 16
    endloop
  endfacet
  facet normal -0.698118 0.698118 0.158941
    outer loop
      vertex 3.75 18.201 14
      vertex 4.58771 18.5833 16
      vertex 4.29904 18.75 14
    endloop
  endfacet
  facet normal -0.698119 0.698117 0.158941
    outer loop
      vertex 4.58771 18.5833 16
      vertex 3.75 18.201 14
      vertex 3.91667 17.9123 16
    endloop
  endfacet
  facet normal -0.255529 -0.953647 0.158941
    outer loop
      vertex 3.75 20.799 14
      vertex 3.91667 21.0877 16
      vertex 3.25 21.2663 16
    endloop
  endfacet
  facet normal -0.255529 0.953647 0.158941
    outer loop
      vertex 3.91667 17.9123 16
      vertex 3.75 18.201 14
      vertex 3.25 17.7337 16
    endloop
  endfacet
  facet normal 0.255531 0.953646 0.158941
    outer loop
      vertex 3 18 14
      vertex 2.75 17.7337 16
      vertex 3 17.6667 16
    endloop
  endfacet
  facet normal 0.255529 0.953647 0.158941
    outer loop
      vertex 2.75 17.7337 16
      vertex 3 18 14
      vertex 2.25 18.201 14
    endloop
  endfacet
  facet normal 0.698118 -0.698118 0.158941
    outer loop
      vertex 1.41229 20.4167 16
      vertex 2.25 20.799 14
      vertex 2.08333 21.0877 16
    endloop
  endfacet
  facet normal 0.698118 -0.698119 0.158941
    outer loop
      vertex 2.25 20.799 14
      vertex 1.41229 20.4167 16
      vertex 1.70096 20.25 14
    endloop
  endfacet
  facet normal -0.255531 -0.953646 0.158941
    outer loop
      vertex 3 21 14
      vertex 3.25 21.2663 16
      vertex 3 21.3333 16
    endloop
  endfacet
  facet normal -0.255529 -0.953647 0.158941
    outer loop
      vertex 3.25 21.2663 16
      vertex 3 21 14
      vertex 3.75 20.799 14
    endloop
  endfacet
  facet normal -0.953647 -0.25553 0.158941
    outer loop
      vertex 4.76635 19.75 16
      vertex 4.58771 20.4167 16
      vertex 4.29904 20.25 14
    endloop
  endfacet
  facet normal -0.255529 0.953647 0.158941
    outer loop
      vertex 3 18 14
      vertex 3.25 17.7337 16
      vertex 3.75 18.201 14
    endloop
  endfacet
  facet normal -0.255531 0.953646 0.158941
    outer loop
      vertex 3.25 17.7337 16
      vertex 3 18 14
      vertex 3 17.6667 16
    endloop
  endfacet
  facet normal 0.953647 0.255529 0.158941
    outer loop
      vertex 1.23365 19.25 16
      vertex 1.5 19.5 14
      vertex 1.16667 19.5 16
    endloop
  endfacet
  facet normal 0.953647 0.255529 0.158941
    outer loop
      vertex 1.5 19.5 14
      vertex 1.23365 19.25 16
      vertex 1.70096 18.75 14
    endloop
  endfacet
  facet normal 0.953647 -0.255529 0.158941
    outer loop
      vertex 1.5 19.5 14
      vertex 1.23365 19.75 16
      vertex 1.16667 19.5 16
    endloop
  endfacet
  facet normal 0.953647 -0.255529 0.158941
    outer loop
      vertex 1.23365 19.75 16
      vertex 1.5 19.5 14
      vertex 1.70096 20.25 14
    endloop
  endfacet
  facet normal 0.953647 -0.25553 0.158941
    outer loop
      vertex 1.70096 20.25 14
      vertex 1.41229 20.4167 16
      vertex 1.23365 19.75 16
    endloop
  endfacet
  facet normal -0.69812 -0.698117 0.158941
    outer loop
      vertex 4.4047 20.5997 16
      vertex 3.91667 21.0877 16
      vertex 3.75 20.799 14
    endloop
  endfacet
  facet normal -0.698118 -0.698118 0.158941
    outer loop
      vertex 4.29904 20.25 14
      vertex 4.4047 20.5997 16
      vertex 3.75 20.799 14
    endloop
  endfacet
  facet normal -0.698116 -0.69812 0.158941
    outer loop
      vertex 4.4047 20.5997 16
      vertex 4.29904 20.25 14
      vertex 4.58771 20.4167 16
    endloop
  endfacet
  facet normal -0.953647 0.25553 0.158941
    outer loop
      vertex 4.5 19.5 14
      vertex 4.76635 19.25 16
      vertex 4.83333 19.5 16
    endloop
  endfacet
  facet normal -0.953647 0.255529 0.158941
    outer loop
      vertex 4.76635 19.25 16
      vertex 4.5 19.5 14
      vertex 4.29904 18.75 14
    endloop
  endfacet
  facet normal -0.953647 0.25553 0.158941
    outer loop
      vertex 4.58771 18.5833 16
      vertex 4.76635 19.25 16
      vertex 4.29904 18.75 14
    endloop
  endfacet
  facet normal 0.698117 0.698119 0.158941
    outer loop
      vertex 1.5953 18.4003 16
      vertex 1.70096 18.75 14
      vertex 1.41229 18.5833 16
    endloop
  endfacet
  facet normal 0.698118 0.698118 0.158941
    outer loop
      vertex 1.70096 18.75 14
      vertex 1.5953 18.4003 16
      vertex 2.25 18.201 14
    endloop
  endfacet
  facet normal 0.255529 -0.953647 0.158941
    outer loop
      vertex 3 21 14
      vertex 2.75 21.2663 16
      vertex 2.25 20.799 14
    endloop
  endfacet
  facet normal 0.255532 -0.953646 0.158941
    outer loop
      vertex 2.75 21.2663 16
      vertex 3 21 14
      vertex 3 21.3333 16
    endloop
  endfacet
  facet normal 0.255529 0.953647 0.158941
    outer loop
      vertex 2.75 17.7337 16
      vertex 2.25 18.201 14
      vertex 2.08333 17.9123 16
    endloop
  endfacet
  facet normal 0.69812 0.698117 0.158941
    outer loop
      vertex 2.08333 17.9123 16
      vertex 2.25 18.201 14
      vertex 1.5953 18.4003 16
    endloop
  endfacet
  facet normal -0.965926 -0.258819 0
    outer loop
      vertex 15.5 19.5 0
      vertex 15.299 20.25 14
      vertex 15.299 20.25 0
    endloop
  endfacet
  facet normal -0.965926 -0.258819 0
    outer loop
      vertex 15.299 20.25 14
      vertex 15.5 19.5 0
      vertex 15.5 19.5 14
    endloop
  endfacet
  facet normal 0.965926 -0.258819 0
    outer loop
      vertex 12.5 19.5 14
      vertex 12.701 20.25 0
      vertex 12.701 20.25 14
    endloop
  endfacet
  facet normal 0.965926 -0.258819 0
    outer loop
      vertex 12.701 20.25 0
      vertex 12.5 19.5 14
      vertex 12.5 19.5 0
    endloop
  endfacet
  facet normal -0.258819 -0.965926 0
    outer loop
      vertex 14 21 0
      vertex 14.75 20.799 14
      vertex 14 21 14
    endloop
  endfacet
  facet normal -0.258819 -0.965926 -0
    outer loop
      vertex 14.75 20.799 14
      vertex 14 21 0
      vertex 14.75 20.799 0
    endloop
  endfacet
  facet normal -0.707107 -0.707107 0
    outer loop
      vertex 15.299 20.25 0
      vertex 14.75 20.799 14
      vertex 14.75 20.799 0
    endloop
  endfacet
  facet normal -0.707107 -0.707107 0
    outer loop
      vertex 14.75 20.799 14
      vertex 15.299 20.25 0
      vertex 15.299 20.25 14
    endloop
  endfacet
  facet normal 0.25882 -0.965926 0
    outer loop
      vertex 13.25 20.799 0
      vertex 14 21 14
      vertex 13.25 20.799 14
    endloop
  endfacet
  facet normal 0.25882 -0.965926 0
    outer loop
      vertex 14 21 14
      vertex 13.25 20.799 0
      vertex 14 21 0
    endloop
  endfacet
  facet normal 0.707106 -0.707107 0
    outer loop
      vertex 12.701 20.25 0
      vertex 13.25 20.799 14
      vertex 12.701 20.25 14
    endloop
  endfacet
  facet normal 0.707106 -0.707107 0
    outer loop
      vertex 13.25 20.799 14
      vertex 12.701 20.25 0
      vertex 13.25 20.799 0
    endloop
  endfacet
  facet normal -0.258819 0.965926 0
    outer loop
      vertex 14.75 18.201 0
      vertex 14 18 14
      vertex 14.75 18.201 14
    endloop
  endfacet
  facet normal -0.258819 0.965926 0
    outer loop
      vertex 14 18 14
      vertex 14.75 18.201 0
      vertex 14 18 0
    endloop
  endfacet
  facet normal -0.965926 0.258819 0
    outer loop
      vertex 15.299 18.75 0
      vertex 15.5 19.5 14
      vertex 15.5 19.5 0
    endloop
  endfacet
  facet normal -0.965926 0.258819 0
    outer loop
      vertex 15.5 19.5 14
      vertex 15.299 18.75 0
      vertex 15.299 18.75 14
    endloop
  endfacet
  facet normal 0.258819 0.965926 -0
    outer loop
      vertex 14 18 0
      vertex 13.25 18.201 14
      vertex 14 18 14
    endloop
  endfacet
  facet normal 0.258819 0.965926 0
    outer loop
      vertex 13.25 18.201 14
      vertex 14 18 0
      vertex 13.25 18.201 0
    endloop
  endfacet
  facet normal 0.965926 0.258819 0
    outer loop
      vertex 12.701 18.75 14
      vertex 12.5 19.5 0
      vertex 12.5 19.5 14
    endloop
  endfacet
  facet normal 0.965926 0.258819 0
    outer loop
      vertex 12.5 19.5 0
      vertex 12.701 18.75 14
      vertex 12.701 18.75 0
    endloop
  endfacet
  facet normal -0.707107 0.707107 0
    outer loop
      vertex 14.75 18.201 0
      vertex 15.299 18.75 14
      vertex 15.299 18.75 0
    endloop
  endfacet
  facet normal -0.707107 0.707107 0
    outer loop
      vertex 15.299 18.75 14
      vertex 14.75 18.201 0
      vertex 14.75 18.201 14
    endloop
  endfacet
  facet normal 0.707107 0.707107 0
    outer loop
      vertex 13.25 18.201 14
      vertex 12.701 18.75 0
      vertex 12.701 18.75 14
    endloop
  endfacet
  facet normal 0.707107 0.707107 0
    outer loop
      vertex 12.701 18.75 0
      vertex 13.25 18.201 14
      vertex 13.25 18.201 0
    endloop
  endfacet
  facet normal -0.953647 -0.255529 0.158941
    outer loop
      vertex 15.5 19.5 14
      vertex 15.7663 19.75 16
      vertex 15.299 20.25 14
    endloop
  endfacet
  facet normal -0.953647 -0.255528 0.158941
    outer loop
      vertex 15.7663 19.75 16
      vertex 15.5 19.5 14
      vertex 15.8333 19.5 16
    endloop
  endfacet
  facet normal 0.953647 0.25553 0.158941
    outer loop
      vertex 12.4123 18.5833 16
      vertex 12.701 18.75 14
      vertex 12.2337 19.25 16
    endloop
  endfacet
  facet normal 0.255529 -0.953647 0.158941
    outer loop
      vertex 13.25 20.799 14
      vertex 13.75 21.2663 16
      vertex 13.0833 21.0877 16
    endloop
  endfacet
  facet normal -0.255529 -0.953647 0.158941
    outer loop
      vertex 14.75 20.799 14
      vertex 14.9167 21.0877 16
      vertex 14.25 21.2663 16
    endloop
  endfacet
  facet normal -0.255529 0.953647 0.158941
    outer loop
      vertex 14.9167 17.9123 16
      vertex 14.75 18.201 14
      vertex 14.25 17.7337 16
    endloop
  endfacet
  facet normal 0.255531 0.953646 0.158941
    outer loop
      vertex 14 18 14
      vertex 13.75 17.7337 16
      vertex 14 17.6667 16
    endloop
  endfacet
  facet normal 0.255529 0.953647 0.158941
    outer loop
      vertex 13.75 17.7337 16
      vertex 14 18 14
      vertex 13.25 18.201 14
    endloop
  endfacet
  facet normal 0.698119 -0.698118 0.158941
    outer loop
      vertex 12.4123 20.4167 16
      vertex 13.25 20.799 14
      vertex 13.0833 21.0877 16
    endloop
  endfacet
  facet normal 0.698118 -0.698119 0.158941
    outer loop
      vertex 13.25 20.799 14
      vertex 12.4123 20.4167 16
      vertex 12.701 20.25 14
    endloop
  endfacet
  facet normal -0.255531 -0.953646 0.158941
    outer loop
      vertex 14 21 14
      vertex 14.25 21.2663 16
      vertex 14 21.3333 16
    endloop
  endfacet
  facet normal -0.255529 -0.953647 0.158941
    outer loop
      vertex 14.25 21.2663 16
      vertex 14 21 14
      vertex 14.75 20.799 14
    endloop
  endfacet
  facet normal -0.953647 -0.25553 0.158941
    outer loop
      vertex 15.7663 19.75 16
      vertex 15.5877 20.4167 16
      vertex 15.299 20.25 14
    endloop
  endfacet
  facet normal -0.255529 0.953647 0.158941
    outer loop
      vertex 14 18 14
      vertex 14.25 17.7337 16
      vertex 14.75 18.201 14
    endloop
  endfacet
  facet normal -0.255531 0.953646 0.158941
    outer loop
      vertex 14.25 17.7337 16
      vertex 14 18 14
      vertex 14 17.6667 16
    endloop
  endfacet
  facet normal -0.698118 0.698118 0.158941
    outer loop
      vertex 14.75 18.201 14
      vertex 15.5877 18.5833 16
      vertex 15.299 18.75 14
    endloop
  endfacet
  facet normal -0.698119 0.698117 0.158941
    outer loop
      vertex 15.5877 18.5833 16
      vertex 14.75 18.201 14
      vertex 14.9167 17.9123 16
    endloop
  endfacet
  facet normal 0.953647 0.255528 0.158941
    outer loop
      vertex 12.2337 19.25 16
      vertex 12.5 19.5 14
      vertex 12.1667 19.5 16
    endloop
  endfacet
  facet normal 0.953647 0.255529 0.158941
    outer loop
      vertex 12.5 19.5 14
      vertex 12.2337 19.25 16
      vertex 12.701 18.75 14
    endloop
  endfacet
  facet normal 0.953647 -0.255528 0.158941
    outer loop
      vertex 12.5 19.5 14
      vertex 12.2337 19.75 16
      vertex 12.1667 19.5 16
    endloop
  endfacet
  facet normal 0.953647 -0.255529 0.158941
    outer loop
      vertex 12.2337 19.75 16
      vertex 12.5 19.5 14
      vertex 12.701 20.25 14
    endloop
  endfacet
  facet normal 0.953647 -0.25553 0.158941
    outer loop
      vertex 12.701 20.25 14
      vertex 12.4123 20.4167 16
      vertex 12.2337 19.75 16
    endloop
  endfacet
  facet normal -0.698119 -0.698117 0.158941
    outer loop
      vertex 15.4047 20.5997 16
      vertex 14.9167 21.0877 16
      vertex 14.75 20.799 14
    endloop
  endfacet
  facet normal -0.698118 -0.698118 0.158941
    outer loop
      vertex 15.299 20.25 14
      vertex 15.4047 20.5997 16
      vertex 14.75 20.799 14
    endloop
  endfacet
  facet normal -0.698118 -0.698118 0.158941
    outer loop
      vertex 15.4047 20.5997 16
      vertex 15.299 20.25 14
      vertex 15.5877 20.4167 16
    endloop
  endfacet
  facet normal -0.953647 0.255528 0.158941
    outer loop
      vertex 15.5 19.5 14
      vertex 15.7663 19.25 16
      vertex 15.8333 19.5 16
    endloop
  endfacet
  facet normal -0.953647 0.255529 0.158941
    outer loop
      vertex 15.7663 19.25 16
      vertex 15.5 19.5 14
      vertex 15.299 18.75 14
    endloop
  endfacet
  facet normal -0.953647 0.25553 0.158941
    outer loop
      vertex 15.5877 18.5833 16
      vertex 15.7663 19.25 16
      vertex 15.299 18.75 14
    endloop
  endfacet
  facet normal 0.698118 0.698118 0.158941
    outer loop
      vertex 12.5953 18.4003 16
      vertex 12.701 18.75 14
      vertex 12.4123 18.5833 16
    endloop
  endfacet
  facet normal 0.698118 0.698118 0.158941
    outer loop
      vertex 12.701 18.75 14
      vertex 12.5953 18.4003 16
      vertex 13.25 18.201 14
    endloop
  endfacet
  facet normal 0.255529 -0.953647 0.158941
    outer loop
      vertex 14 21 14
      vertex 13.75 21.2663 16
      vertex 13.25 20.799 14
    endloop
  endfacet
  facet normal 0.255531 -0.953646 0.158941
    outer loop
      vertex 13.75 21.2663 16
      vertex 14 21 14
      vertex 14 21.3333 16
    endloop
  endfacet
  facet normal 0.255529 0.953647 0.158941
    outer loop
      vertex 13.75 17.7337 16
      vertex 13.25 18.201 14
      vertex 13.0833 17.9123 16
    endloop
  endfacet
  facet normal 0.698119 0.698117 0.158941
    outer loop
      vertex 13.0833 17.9123 16
      vertex 13.25 18.201 14
      vertex 12.5953 18.4003 16
    endloop
  endfacet
  facet normal 0.965926 -0.258819 0
    outer loop
      vertex 4.4 7.5 3
      vertex 4.74833 8.8 0
      vertex 4.74833 8.8 3
    endloop
  endfacet
  facet normal 0.965926 -0.258819 0
    outer loop
      vertex 4.74833 8.8 0
      vertex 4.4 7.5 3
      vertex 4.4 7.5 0
    endloop
  endfacet
  facet normal 0.965926 0.258819 0
    outer loop
      vertex 4.74833 6.2 3
      vertex 4.4 7.5 0
      vertex 4.4 7.5 3
    endloop
  endfacet
  facet normal 0.965926 0.258819 0
    outer loop
      vertex 4.4 7.5 0
      vertex 4.74833 6.2 3
      vertex 4.74833 6.2 0
    endloop
  endfacet
  facet normal 0 1 -0
    outer loop
      vertex 33 4.9 0
      vertex 7 4.9 3
      vertex 33 4.9 3
    endloop
  endfacet
  facet normal 0 1 0
    outer loop
      vertex 7 4.9 3
      vertex 33 4.9 0
      vertex 7 4.9 0
    endloop
  endfacet
  facet normal -0.965926 0.25882 0
    outer loop
      vertex 35.2517 6.2 0
      vertex 35.6 7.5 3
      vertex 35.6 7.5 0
    endloop
  endfacet
  facet normal -0.965926 0.25882 0
    outer loop
      vertex 35.6 7.5 3
      vertex 35.2517 6.2 0
      vertex 35.2517 6.2 3
    endloop
  endfacet
  facet normal 0 -1 0
    outer loop
      vertex 7 10.1 0
      vertex 33 10.1 3
      vertex 7 10.1 3
    endloop
  endfacet
  facet normal 0 -1 -0
    outer loop
      vertex 33 10.1 3
      vertex 7 10.1 0
      vertex 33 10.1 0
    endloop
  endfacet
  facet normal 0.707107 -0.707107 0
    outer loop
      vertex 4.74833 8.8 3
      vertex 5.7 9.75167 0
      vertex 5.7 9.75167 3
    endloop
  endfacet
  facet normal 0.707107 -0.707107 0
    outer loop
      vertex 5.7 9.75167 0
      vertex 4.74833 8.8 3
      vertex 4.74833 8.8 0
    endloop
  endfacet
  facet normal 0.707107 0.707107 0
    outer loop
      vertex 5.7 5.24833 3
      vertex 4.74833 6.2 0
      vertex 4.74833 6.2 3
    endloop
  endfacet
  facet normal 0.707107 0.707107 0
    outer loop
      vertex 4.74833 6.2 0
      vertex 5.7 5.24833 3
      vertex 5.7 5.24833 0
    endloop
  endfacet
  facet normal -0.258819 0.965926 0
    outer loop
      vertex 34.3 5.24833 0
      vertex 33 4.9 3
      vertex 34.3 5.24833 3
    endloop
  endfacet
  facet normal -0.258819 0.965926 0
    outer loop
      vertex 33 4.9 3
      vertex 34.3 5.24833 0
      vertex 33 4.9 0
    endloop
  endfacet
  facet normal 0.258819 -0.965926 0
    outer loop
      vertex 5.7 9.75167 0
      vertex 7 10.1 3
      vertex 5.7 9.75167 3
    endloop
  endfacet
  facet normal 0.258819 -0.965926 0
    outer loop
      vertex 7 10.1 3
      vertex 5.7 9.75167 0
      vertex 7 10.1 0
    endloop
  endfacet
  facet normal 0.258819 0.965926 -0
    outer loop
      vertex 7 4.9 0
      vertex 5.7 5.24833 3
      vertex 7 4.9 3
    endloop
  endfacet
  facet normal 0.258819 0.965926 0
    outer loop
      vertex 5.7 5.24833 3
      vertex 7 4.9 0
      vertex 5.7 5.24833 0
    endloop
  endfacet
  facet normal -0.258819 -0.965926 0
    outer loop
      vertex 33 10.1 0
      vertex 34.3 9.75167 3
      vertex 33 10.1 3
    endloop
  endfacet
  facet normal -0.258819 -0.965926 -0
    outer loop
      vertex 34.3 9.75167 3
      vertex 33 10.1 0
      vertex 34.3 9.75167 0
    endloop
  endfacet
  facet normal -0.707107 -0.707106 0
    outer loop
      vertex 35.2517 8.8 0
      vertex 34.3 9.75167 3
      vertex 34.3 9.75167 0
    endloop
  endfacet
  facet normal -0.707107 -0.707106 0
    outer loop
      vertex 34.3 9.75167 3
      vertex 35.2517 8.8 0
      vertex 35.2517 8.8 3
    endloop
  endfacet
  facet normal -0.965926 -0.25882 0
    outer loop
      vertex 35.6 7.5 0
      vertex 35.2517 8.8 3
      vertex 35.2517 8.8 0
    endloop
  endfacet
  facet normal -0.965926 -0.25882 0
    outer loop
      vertex 35.2517 8.8 3
      vertex 35.6 7.5 0
      vertex 35.6 7.5 3
    endloop
  endfacet
  facet normal -0.707107 0.707106 0
    outer loop
      vertex 34.3 5.24833 0
      vertex 35.2517 6.2 3
      vertex 35.2517 6.2 0
    endloop
  endfacet
  facet normal -0.707107 0.707106 0
    outer loop
      vertex 35.2517 6.2 3
      vertex 34.3 5.24833 0
      vertex 34.3 5.24833 3
    endloop
  endfacet
  facet normal -0.965926 0.25882 0
    outer loop
      vertex 35.2517 30.2 0
      vertex 35.6 31.5 3
      vertex 35.6 31.5 0
    endloop
  endfacet
  facet normal -0.965926 0.25882 0
    outer loop
      vertex 35.6 31.5 3
      vertex 35.2517 30.2 0
      vertex 35.2517 30.2 3
    endloop
  endfacet
  facet normal 0.965926 -0.258819 0
    outer loop
      vertex 4.4 31.5 3
      vertex 4.74833 32.8 0
      vertex 4.74833 32.8 3
    endloop
  endfacet
  facet normal 0.965926 -0.258819 0
    outer loop
      vertex 4.74833 32.8 0
      vertex 4.4 31.5 3
      vertex 4.4 31.5 0
    endloop
  endfacet
  facet normal 0.707107 0.707106 0
    outer loop
      vertex 5.7 29.2483 3
      vertex 4.74833 30.2 0
      vertex 4.74833 30.2 3
    endloop
  endfacet
  facet normal 0.707107 0.707106 0
    outer loop
      vertex 4.74833 30.2 0
      vertex 5.7 29.2483 3
      vertex 5.7 29.2483 0
    endloop
  endfacet
  facet normal 0 -1 0
    outer loop
      vertex 7 34.1 0
      vertex 33 34.1 3
      vertex 7 34.1 3
    endloop
  endfacet
  facet normal 0 -1 -0
    outer loop
      vertex 33 34.1 3
      vertex 7 34.1 0
      vertex 33 34.1 0
    endloop
  endfacet
  facet normal 0.965926 0.258819 0
    outer loop
      vertex 4.74833 30.2 3
      vertex 4.4 31.5 0
      vertex 4.4 31.5 3
    endloop
  endfacet
  facet normal 0.965926 0.258819 0
    outer loop
      vertex 4.4 31.5 0
      vertex 4.74833 30.2 3
      vertex 4.74833 30.2 0
    endloop
  endfacet
  facet normal 0 1 -0
    outer loop
      vertex 33 28.9 0
      vertex 7 28.9 3
      vertex 33 28.9 3
    endloop
  endfacet
  facet normal 0 1 0
    outer loop
      vertex 7 28.9 3
      vertex 33 28.9 0
      vertex 7 28.9 0
    endloop
  endfacet
  facet normal -0.258819 0.965926 0
    outer loop
      vertex 34.3 29.2483 0
      vertex 33 28.9 3
      vertex 34.3 29.2483 3
    endloop
  endfacet
  facet normal -0.258819 0.965926 0
    outer loop
      vertex 33 28.9 3
      vertex 34.3 29.2483 0
      vertex 33 28.9 0
    endloop
  endfacet
  facet normal 0.25882 -0.965926 0
    outer loop
      vertex 5.7 33.7517 0
      vertex 7 34.1 3
      vertex 5.7 33.7517 3
    endloop
  endfacet
  facet normal 0.25882 -0.965926 0
    outer loop
      vertex 7 34.1 3
      vertex 5.7 33.7517 0
      vertex 7 34.1 0
    endloop
  endfacet
  facet normal 0.258819 0.965926 -0
    outer loop
      vertex 7 28.9 0
      vertex 5.7 29.2483 3
      vertex 7 28.9 3
    endloop
  endfacet
  facet normal 0.258819 0.965926 0
    outer loop
      vertex 5.7 29.2483 3
      vertex 7 28.9 0
      vertex 5.7 29.2483 0
    endloop
  endfacet
  facet normal -0.707108 0.707105 0
    outer loop
      vertex 34.3 29.2483 0
      vertex 35.2517 30.2 3
      vertex 35.2517 30.2 0
    endloop
  endfacet
  facet normal -0.707108 0.707105 0
    outer loop
      vertex 35.2517 30.2 3
      vertex 34.3 29.2483 0
      vertex 34.3 29.2483 3
    endloop
  endfacet
  facet normal 0.707106 -0.707107 0
    outer loop
      vertex 4.74833 32.8 0
      vertex 5.7 33.7517 3
      vertex 4.74833 32.8 3
    endloop
  endfacet
  facet normal 0.707106 -0.707107 0
    outer loop
      vertex 5.7 33.7517 3
      vertex 4.74833 32.8 0
      vertex 5.7 33.7517 0
    endloop
  endfacet
  facet normal -0.965926 -0.25882 0
    outer loop
      vertex 35.6 31.5 0
      vertex 35.2517 32.8 3
      vertex 35.2517 32.8 0
    endloop
  endfacet
  facet normal -0.965926 -0.25882 0
    outer loop
      vertex 35.2517 32.8 3
      vertex 35.6 31.5 0
      vertex 35.6 31.5 3
    endloop
  endfacet
  facet normal -0.25882 -0.965926 0
    outer loop
      vertex 33 34.1 0
      vertex 34.3 33.7517 3
      vertex 33 34.1 3
    endloop
  endfacet
  facet normal -0.25882 -0.965926 -0
    outer loop
      vertex 34.3 33.7517 3
      vertex 33 34.1 0
      vertex 34.3 33.7517 0
    endloop
  endfacet
  facet normal -0.707107 -0.707107 0
    outer loop
      vertex 35.2517 32.8 0
      vertex 34.3 33.7517 3
      vertex 34.3 33.7517 0
    endloop
  endfacet
  facet normal -0.707107 -0.707107 0
    outer loop
      vertex 34.3 33.7517 3
      vertex 35.2517 32.8 0
      vertex 35.2517 32.8 3
    endloop
  endfacet
endsolid OpenSCAD_Model
